<?xml version="1.0" encoding="UTF-8" standalone="no"?>
<!-- Created with Inkscape (http://www.inkscape.org/) -->

<svg
   width="68.319336mm"
   height="66.379158mm"
   viewBox="0 0 68.319336 66.379158"
   version="1.1"
   id="svg1"
   inkscape:version="1.4 (86a8ad7, 2024-10-11)"
   sodipodi:docname="figura1.svg"
   xmlns:inkscape="http://www.inkscape.org/namespaces/inkscape"
   xmlns:sodipodi="http://sodipodi.sourceforge.net/DTD/sodipodi-0.dtd"
   xmlns="http://www.w3.org/2000/svg"
   xmlns:svg="http://www.w3.org/2000/svg">
  <sodipodi:namedview
     id="namedview1"
     pagecolor="#ffffff"
     bordercolor="#000000"
     borderopacity="0.25"
     inkscape:showpageshadow="2"
     inkscape:pageopacity="0.0"
     inkscape:pagecheckerboard="0"
     inkscape:deskcolor="#d1d1d1"
     inkscape:document-units="mm"
     inkscape:zoom="0.98528338"
     inkscape:cx="56.328972"
     inkscape:cy="205.52463"
     inkscape:window-width="1366"
     inkscape:window-height="705"
     inkscape:window-x="-8"
     inkscape:window-y="-8"
     inkscape:window-maximized="1"
     inkscape:current-layer="layer1" />
  <defs
     id="defs1">
    <clipPath
       clipPathUnits="userSpaceOnUse"
       id="clipPath7">
      <path
         d="m 915.602,3931.2 h 1955.91 V 5887.1 H 915.602 Z"
         id="path7" />
    </clipPath>
    <clipPath
       clipPathUnits="userSpaceOnUse"
       id="clipPath9">
      <path
         d="m 915.602,3931.2 h 1955.91 V 5887.1 H 915.602 Z"
         id="path9" />
    </clipPath>
    <clipPath
       clipPathUnits="userSpaceOnUse"
       id="clipPath11">
      <path
         d="m 915.602,3931.2 h 1955.91 V 5887.1 H 915.602 Z"
         id="path11" />
    </clipPath>
    <clipPath
       clipPathUnits="userSpaceOnUse"
       id="clipPath13">
      <path
         d="m 915.602,3931.2 h 1955.91 V 5887.1 H 915.602 Z"
         id="path13" />
    </clipPath>
    <clipPath
       clipPathUnits="userSpaceOnUse"
       id="clipPath15">
      <path
         d="m 915.602,3931.2 h 1955.91 V 5887.1 H 915.602 Z"
         id="path15" />
    </clipPath>
    <clipPath
       clipPathUnits="userSpaceOnUse"
       id="clipPath17">
      <path
         d="m 915.602,3931.2 h 1955.91 V 5887.1 H 915.602 Z"
         id="path17" />
    </clipPath>
    <clipPath
       clipPathUnits="userSpaceOnUse"
       id="clipPath19">
      <path
         d="m 915.602,3931.2 h 1955.91 V 5887.1 H 915.602 Z"
         id="path19" />
    </clipPath>
    <clipPath
       clipPathUnits="userSpaceOnUse"
       id="clipPath21">
      <path
         d="m 915.602,3931.2 h 1955.91 V 5887.1 H 915.602 Z"
         id="path21" />
    </clipPath>
    <clipPath
       clipPathUnits="userSpaceOnUse"
       id="clipPath23">
      <path
         d="m 915.602,3931.2 h 1955.91 V 5887.1 H 915.602 Z"
         id="path23" />
    </clipPath>
    <clipPath
       clipPathUnits="userSpaceOnUse"
       id="clipPath25">
      <path
         d="m 915.602,3931.2 h 1955.91 V 5887.1 H 915.602 Z"
         id="path25" />
    </clipPath>
    <clipPath
       clipPathUnits="userSpaceOnUse"
       id="clipPath27">
      <path
         d="m 915.602,3931.2 h 1955.91 V 5887.1 H 915.602 Z"
         id="path27" />
    </clipPath>
    <clipPath
       clipPathUnits="userSpaceOnUse"
       id="clipPath29">
      <path
         d="m 915.602,3931.2 h 1955.91 V 5887.1 H 915.602 Z"
         id="path29" />
    </clipPath>
    <clipPath
       clipPathUnits="userSpaceOnUse"
       id="clipPath31">
      <path
         d="m 915.602,3931.2 h 1955.91 V 5887.1 H 915.602 Z"
         id="path31" />
    </clipPath>
    <clipPath
       clipPathUnits="userSpaceOnUse"
       id="clipPath33">
      <path
         d="m 915.602,3931.2 h 1955.91 V 5887.1 H 915.602 Z"
         id="path33" />
    </clipPath>
    <clipPath
       clipPathUnits="userSpaceOnUse"
       id="clipPath35">
      <path
         d="m 915.602,3931.2 h 1955.91 V 5887.1 H 915.602 Z"
         id="path35" />
    </clipPath>
    <clipPath
       clipPathUnits="userSpaceOnUse"
       id="clipPath37">
      <path
         d="m 915.602,3931.2 h 1955.91 V 5887.1 H 915.602 Z"
         id="path37" />
    </clipPath>
    <clipPath
       clipPathUnits="userSpaceOnUse"
       id="clipPath39">
      <path
         d="m 915.602,3931.2 h 1955.91 V 5887.1 H 915.602 Z"
         id="path39" />
    </clipPath>
    <clipPath
       clipPathUnits="userSpaceOnUse"
       id="clipPath41">
      <path
         d="m 915.602,3931.2 h 1955.91 V 5887.1 H 915.602 Z"
         id="path41" />
    </clipPath>
    <clipPath
       clipPathUnits="userSpaceOnUse"
       id="clipPath43">
      <path
         d="m 915.602,3931.2 h 1955.91 V 5887.1 H 915.602 Z"
         id="path43" />
    </clipPath>
    <clipPath
       clipPathUnits="userSpaceOnUse"
       id="clipPath45">
      <path
         d="m 915.602,3931.2 h 1955.91 V 5887.1 H 915.602 Z"
         transform="matrix(0.1,0,0,-0.1,-145.42401,492.29301)"
         id="path45" />
    </clipPath>
    <clipPath
       clipPathUnits="userSpaceOnUse"
       id="clipPath50">
      <path
         d="m 915.602,3931.2 h 1955.91 V 5887.1 H 915.602 Z"
         transform="matrix(0.1,0,0,-0.1,-165.26601,444.10401)"
         id="path50" />
    </clipPath>
    <clipPath
       clipPathUnits="userSpaceOnUse"
       id="clipPath55">
      <path
         d="m 915.602,3931.2 h 1955.91 V 5887.1 H 915.602 Z"
         transform="matrix(0.1,0,0,-0.1,-236.13201,478.12001)"
         id="path55" />
    </clipPath>
    <clipPath
       clipPathUnits="userSpaceOnUse"
       id="clipPath60">
      <path
         d="m 915.602,3931.2 h 1955.91 V 5887.1 H 915.602 Z"
         transform="matrix(0.1,0,0,-0.1,-164.88,572.33101)"
         id="path60" />
    </clipPath>
    <clipPath
       clipPathUnits="userSpaceOnUse"
       id="clipPath65">
      <path
         d="m 915.602,3931.2 h 1955.91 V 5887.1 H 915.602 Z"
         transform="matrix(0.1,0,0,-0.1,-108.966,484.13601)"
         id="path65" />
    </clipPath>
    <clipPath
       clipPathUnits="userSpaceOnUse"
       id="clipPath71">
      <path
         d="m 915.602,3931.2 h 1955.91 V 5887.1 H 915.602 Z"
         transform="matrix(0.1,0,0,-0.1,-147.756,563.90902)"
         id="path71" />
    </clipPath>
    <clipPath
       clipPathUnits="userSpaceOnUse"
       id="clipPath76">
      <path
         d="m 915.602,3931.2 h 1955.91 V 5887.1 H 915.602 Z"
         transform="matrix(0.1,0,0,-0.1,-200.083,407.50001)"
         id="path76" />
    </clipPath>
    <clipPath
       clipPathUnits="userSpaceOnUse"
       id="clipPath82">
      <path
         d="m 915.602,3931.2 h 1955.91 V 5887.1 H 915.602 Z"
         transform="matrix(0.1,0,0,-0.1,-121.482,537.33502)"
         id="path82" />
    </clipPath>
    <clipPath
       clipPathUnits="userSpaceOnUse"
       id="clipPath87">
      <path
         d="m 915.602,3931.2 h 1955.91 V 5887.1 H 915.602 Z"
         transform="matrix(0.1,0,0,-0.1,-274.22301,465.20701)"
         id="path87" />
    </clipPath>
  </defs>
  <g
     inkscape:label="Capa 1"
     inkscape:groupmode="layer"
     id="layer1"
     transform="translate(-74.347916,-46.302084)">
    <path
       id="path6"
       d="m 2786.52,4922.93 v 0 c 0,469.66 -380.73,850.39 -850.39,850.39 -469.66,0 -850.4,-380.73 -850.4,-850.39 0,-469.66 380.74,-850.39 850.4,-850.39 469.66,0 850.39,380.73 850.39,850.39 z"
       style="fill:none;stroke:#000000;stroke-width:5.97758;stroke-linecap:butt;stroke-linejoin:miter;stroke-miterlimit:10;stroke-dasharray:none;stroke-opacity:1"
       transform="matrix(0.03527778,0,0,-0.03527778,41.181981,252.16049)"
       clip-path="url(#clipPath7)" />
    <path
       id="path8"
       d="M 1648.8,5723.31 1313.45,4343.75"
       style="fill:none;stroke:#bfbfbf;stroke-width:5.97758;stroke-linecap:butt;stroke-linejoin:miter;stroke-miterlimit:10;stroke-dasharray:none;stroke-opacity:1"
       transform="matrix(0.03527778,0,0,-0.03527778,41.181981,252.16049)"
       clip-path="url(#clipPath9)" />
    <path
       id="path10"
       d="m 1449.38,5052.95 26.06,-42.8 42.8,26.06"
       style="fill:none;stroke:#bfbfbf;stroke-width:5.97758;stroke-linecap:butt;stroke-linejoin:miter;stroke-miterlimit:10;stroke-dasharray:none;stroke-opacity:1"
       transform="matrix(0.03527778,0,0,-0.03527778,41.181981,252.16049)"
       clip-path="url(#clipPath11)" />
    <path
       id="path12"
       d="m 1313.45,4343.75 1457.67,418.06"
       style="fill:none;stroke:#bfbfbf;stroke-width:5.97758;stroke-linecap:butt;stroke-linejoin:miter;stroke-miterlimit:10;stroke-dasharray:none;stroke-opacity:1"
       transform="matrix(0.03527778,0,0,-0.03527778,41.181981,252.16049)"
       clip-path="url(#clipPath13)" />
    <path
       id="path14"
       d="m 2041.12,4515.59 24.29,43.83 -43.82,24.29"
       style="fill:none;stroke:#bfbfbf;stroke-width:5.97758;stroke-linecap:butt;stroke-linejoin:miter;stroke-miterlimit:10;stroke-dasharray:none;stroke-opacity:1"
       transform="matrix(0.03527778,0,0,-0.03527778,41.181981,252.16049)"
       clip-path="url(#clipPath15)" />
    <path
       id="path16"
       d="m 2771.12,4761.81 -1681.46,79.54"
       style="fill:none;stroke:#bfbfbf;stroke-width:5.97758;stroke-linecap:butt;stroke-linejoin:miter;stroke-miterlimit:10;stroke-dasharray:none;stroke-opacity:1"
       transform="matrix(0.03527778,0,0,-0.03527778,41.181981,252.16049)"
       clip-path="url(#clipPath17)" />
    <path
       id="path18"
       d="m 1943.42,4836.44 -37.06,-33.72 33.71,-37.07"
       style="fill:none;stroke:#bfbfbf;stroke-width:5.97758;stroke-linecap:butt;stroke-linejoin:miter;stroke-miterlimit:10;stroke-dasharray:none;stroke-opacity:1"
       transform="matrix(0.03527778,0,0,-0.03527778,41.181981,252.16049)"
       clip-path="url(#clipPath19)" />
    <path
       id="path20"
       d="M 1477.56,5639.09 1431.94,4238.12"
       style="fill:none;stroke:#ffb2b2;stroke-width:5.97758;stroke-linecap:butt;stroke-linejoin:miter;stroke-miterlimit:10;stroke-dasharray:none;stroke-opacity:1"
       transform="matrix(0.03527778,0,0,-0.03527778,41.181981,252.16049)"
       clip-path="url(#clipPath21)" />
    <path
       id="path22"
       d="m 1428.83,5231.32 34.26,-36.57 36.57,34.26"
       style="fill:none;stroke:#ffb2b2;stroke-width:5.97758;stroke-linecap:butt;stroke-linejoin:miter;stroke-miterlimit:10;stroke-dasharray:none;stroke-opacity:1"
       transform="matrix(0.03527778,0,0,-0.03527778,41.181981,252.16049)"
       clip-path="url(#clipPath23)" />
    <path
       id="path24"
       d="M 1431.94,4238.12 2660.82,5367.89"
       style="fill:none;stroke:#ffb2b2;stroke-width:5.97758;stroke-linecap:butt;stroke-linejoin:miter;stroke-miterlimit:10;stroke-dasharray:none;stroke-opacity:1"
       transform="matrix(0.03527778,0,0,-0.03527778,41.181981,252.16049)"
       clip-path="url(#clipPath25)" />
    <path
       id="path26"
       d="m 2061.99,4769.22 2.1,50.07 -50.06,2.1"
       style="fill:none;stroke:#ffb2b2;stroke-width:5.97758;stroke-linecap:butt;stroke-linejoin:miter;stroke-miterlimit:10;stroke-dasharray:none;stroke-opacity:1"
       transform="matrix(0.03527778,0,0,-0.03527778,41.181981,252.16049)"
       clip-path="url(#clipPath27)" />
    <path
       id="path28"
       d="M 2660.82,5367.89 2000.83,4075"
       style="fill:none;stroke:#ffb2b2;stroke-width:5.97758;stroke-linecap:butt;stroke-linejoin:miter;stroke-miterlimit:10;stroke-dasharray:none;stroke-opacity:1"
       transform="matrix(0.03527778,0,0,-0.03527778,41.181981,252.16049)"
       clip-path="url(#clipPath29)" />
    <path
       id="path30"
       d="m 2304.44,4747.69 15.45,-47.67 47.66,15.44"
       style="fill:none;stroke:#ffb2b2;stroke-width:5.97758;stroke-linecap:butt;stroke-linejoin:miter;stroke-miterlimit:10;stroke-dasharray:none;stroke-opacity:1"
       transform="matrix(0.03527778,0,0,-0.03527778,41.181981,252.16049)"
       clip-path="url(#clipPath31)" />
    <path
       id="path32"
       d="M 1214.82,5373.35 1905.98,4073.07"
       style="fill:none;stroke:#b2b2ff;stroke-width:5.97758;stroke-linecap:butt;stroke-linejoin:miter;stroke-miterlimit:10;stroke-dasharray:none;stroke-opacity:1"
       transform="matrix(0.03527778,0,0,-0.03527778,41.181981,252.16049)"
       clip-path="url(#clipPath33)" />
    <path
       id="path34"
       d="m 1523.78,4716.62 47.92,-14.66 14.65,47.93"
       style="fill:none;stroke:#b2b2ff;stroke-width:5.97758;stroke-linecap:butt;stroke-linejoin:miter;stroke-miterlimit:10;stroke-dasharray:none;stroke-opacity:1"
       transform="matrix(0.03527778,0,0,-0.03527778,41.181981,252.16049)"
       clip-path="url(#clipPath35)" />
    <path
       id="path36"
       d="M 1905.98,4073.07 1131.48,5198.1"
       style="fill:none;stroke:#b2b2ff;stroke-width:5.97758;stroke-linecap:butt;stroke-linejoin:miter;stroke-miterlimit:10;stroke-dasharray:none;stroke-opacity:1"
       transform="matrix(0.03527778,0,0,-0.03527778,41.181981,252.16049)"
       clip-path="url(#clipPath37)" />
    <path
       id="path38"
       d="m 1554.37,4646.31 -49.28,9.09 -9.09,-49.27"
       style="fill:none;stroke:#b2b2ff;stroke-width:5.97758;stroke-linecap:butt;stroke-linejoin:miter;stroke-miterlimit:10;stroke-dasharray:none;stroke-opacity:1"
       transform="matrix(0.03527778,0,0,-0.03527778,41.181981,252.16049)"
       clip-path="url(#clipPath39)" />
    <path
       id="path40"
       d="M 1131.48,5198.1 2742.23,4652.07"
       style="fill:none;stroke:#b2b2ff;stroke-width:5.97758;stroke-linecap:butt;stroke-linejoin:miter;stroke-miterlimit:10;stroke-dasharray:none;stroke-opacity:1"
       transform="matrix(0.03527778,0,0,-0.03527778,41.181981,252.16049)"
       clip-path="url(#clipPath41)" />
    <path
       id="path42"
       d="m 1914.71,4895.18 44.93,22.18 -22.18,44.93"
       style="fill:none;stroke:#b2b2ff;stroke-width:5.97758;stroke-linecap:butt;stroke-linejoin:miter;stroke-miterlimit:10;stroke-dasharray:none;stroke-opacity:1"
       transform="matrix(0.03527778,0,0,-0.03527778,41.181981,252.16049)"
       clip-path="url(#clipPath43)" />
    <path
       id="path44"
       d="m -1.9923594,3.125e-5 c 0,1.10156245 0.890625,1.99218745 1.992187525,1.99218745 1.101562475,0 1.992187475,-0.890625 1.992187475,-1.99218745 0,-1.10156255 -0.890625,-1.99218755 -1.992187475,-1.99218755 -1.101562525,0 -1.992187525,0.890625 -1.992187525,1.99218755 z m 0,0"
       style="fill:#ffffff;fill-opacity:1;fill-rule:nonzero;stroke:none"
       aria-label="b"
       transform="matrix(0.35277776,0,0,0.35277776,92.484337,78.490459)"
       clip-path="url(#clipPath45)" />
    <path
       id="path46"
       d="m 91.851757,78.49047 c 0,-0.347266 0.285254,-0.632519 0.632519,-0.632519 0.347266,0 0.63252,0.285253 0.63252,0.632519 0,0.347266 -0.285254,0.63252 -0.63252,0.63252 -0.347265,0 -0.632519,-0.285254 -0.632519,-0.63252 z m -0.07028,0 c 0,0.388607 0.314193,0.702799 0.702799,0.702799 0.388607,0 0.7028,-0.314192 0.7028,-0.702799 0,-0.388607 -0.314193,-0.702799 -0.7028,-0.702799 -0.388606,0 -0.702799,0.314192 -0.702799,0.702799 z m 0,0"
       style="fill:#000000;fill-opacity:1;fill-rule:nonzero;stroke:none;stroke-width:0.352778" />
    <path
       id="path47"
       d="m 90.565014,74.875187 -1.434538,2.282031 c -0.14056,0.214974 -0.206706,0.276986 -0.338997,0.305925 l -0.07855,0.02067 v 0.115755 c 0.355534,-0.0124 0.355534,-0.0124 0.434083,-0.0124 0.07028,0 0.07855,0 0.409277,0.0124 v -0.107487 l -0.198438,-0.0124 c -0.06201,-0.0041 -0.119889,-0.03721 -0.119889,-0.07441 0,-0.02894 0.02481,-0.08268 0.09922,-0.21084 l 0.392741,-0.67386 h 0.946712 l 0.09508,0.72347 v 0.0124 c 0,0.0041 0.0041,0.01654 0.0083,0.03307 0.0041,0.03307 0.0083,0.07028 0.0083,0.08682 0,0.06201 -0.05788,0.09508 -0.165365,0.103353 l -0.169499,0.0124 v 0.107487 c 0.392741,-0.0124 0.392741,-0.0124 0.471289,-0.0124 0.07441,0 0.07441,0 0.467155,0.0124 v -0.107487 l -0.09922,-0.0124 C 91.110716,77.45074 91.106582,77.45074 91.077644,77.281242 L 90.74278,74.875187 Z m -0.04961,0.396875 0.14056,1.112077 h -0.830957 z m 0,0"
       style="fill:#000000;fill-opacity:1;fill-rule:nonzero;stroke:none;stroke-width:0.352778" />
    <path
       id="path49"
       d="m -1.9915859,0.00146094 c 0,1.10156246 0.890625,1.99218746 1.9921874625,1.99218746 1.1015625375,0 1.9921875375,-0.890625 1.9921875375,-1.99218746 0,-1.10156254 -0.890625,-1.99218754 -1.9921875375,-1.99218754 -1.1015624625,0 -1.9921874625,0.890625 -1.9921874625,1.99218754 z m 0,0"
       style="fill:#ffffff;fill-opacity:1;fill-rule:nonzero;stroke:none"
       aria-label="b"
       transform="matrix(0.35277776,0,0,0.35277776,99.484153,95.490467)"
       clip-path="url(#clipPath50)" />
    <path
       id="path51"
       d="m 98.851846,95.490982 c 0,-0.347265 0.285254,-0.632519 0.632519,-0.632519 0.347266,0 0.632515,0.285254 0.632515,0.632519 0,0.347266 -0.285249,0.63252 -0.632515,0.63252 -0.347265,0 -0.632519,-0.285254 -0.632519,-0.63252 z m -0.07028,0 c 0,0.388607 0.314192,0.7028 0.702799,0.7028 0.388607,0 0.702795,-0.314193 0.702795,-0.7028 0,-0.388606 -0.314188,-0.702799 -0.702795,-0.702799 -0.388607,0 -0.702799,0.314193 -0.702799,0.702799 z m 0,0"
       style="fill:#000000;fill-opacity:1;fill-rule:nonzero;stroke:none;stroke-width:0.352778" />
    <path
       id="path52"
       d="m 98.713353,96.851106 0.206706,0.0083 c 0.09095,0.0041 0.132291,0.03307 0.132291,0.103353 0,0.05374 -0.0124,0.177767 -0.03307,0.293522 l -0.334863,1.9389 c -0.01654,0.07028 -0.06201,0.09508 -0.223242,0.124023 l -0.02067,0.09922 0.144694,-0.0041 c 0.103353,-0.0083 0.161231,-0.0083 0.206706,-0.0083 0.04134,0 0.14056,0.0041 0.243913,0.0083 l 0.14056,0.0041 0.07855,0.0041 c 0.07028,0.0041 0.119889,0.0083 0.152962,0.0083 0.186035,0 0.367936,-0.05374 0.549837,-0.165365 0.305933,-0.177767 0.475423,-0.442351 0.475423,-0.731739 0,-0.165364 -0.0579,-0.293522 -0.16123,-0.380338 -0.0992,-0.07855 -0.21497,-0.115756 -0.479557,-0.152963 0.219107,-0.07441 0.314197,-0.124024 0.434087,-0.231511 0.17777,-0.148828 0.26458,-0.330729 0.26458,-0.525032 0,-0.318327 -0.22324,-0.500228 -0.607717,-0.500228 -0.0083,0 -0.04547,0 -0.103353,0.0041 l -0.239778,0.0041 c -0.04961,0.0041 -0.186035,0.0041 -0.231511,0.0041 -0.07441,0 -0.194303,-0.0041 -0.380338,-0.0083 l -0.202572,-0.0041 z m 0.463021,1.244368 h 0.326595 c 0.396875,0 0.591181,0.165365 0.591181,0.500228 0,0.392741 -0.281123,0.677995 -0.665595,0.677995 -0.07855,0 -0.19017,-0.0041 -0.318327,-0.0124 -0.02067,-0.0041 -0.07028,-0.0083 -0.128158,-0.0124 z m 0.21084,-1.190625 c 0.04134,0 0.04961,-0.0041 0.132291,-0.0083 0.07855,-0.0083 0.132292,-0.0124 0.177767,-0.0124 0.310058,0 0.463018,0.14056 0.463018,0.429948 0,0.401009 -0.285251,0.644922 -0.760674,0.644922 h -0.198438 z m 0,0"
       style="fill:#000000;fill-opacity:1;fill-rule:nonzero;stroke:none;stroke-width:0.352778" />
    <path
       id="path54"
       d="M -1.991375,8.59375e-4 C -1.991375,1.1024219 -1.10075,1.9930469 8.125e-4,1.9930469 1.102375,1.9930469 1.993,1.1024219 1.993,8.59375e-4 1.993,-1.1007031 1.102375,-1.9913281 8.125e-4,-1.9913281 c -1.1015625,0 -1.9921875,0.890625 -1.9921875,1.992187475 z m 0,0"
       style="fill:#ffffff;fill-opacity:1;fill-rule:nonzero;stroke:none"
       aria-label="b"
       transform="matrix(0.35277776,0,0,0.35277776,124.4841,83.49038)"
       clip-path="url(#clipPath55)" />
    <path
       id="path56"
       d="m 123.85187,83.490683 c 0,-0.347265 0.28525,-0.632519 0.63252,-0.632519 0.34726,0 0.63252,0.285254 0.63252,0.632519 0,0.347266 -0.28526,0.63252 -0.63252,0.63252 -0.34727,0 -0.63252,-0.285254 -0.63252,-0.63252 z m -0.0703,0 c 0,0.388607 0.31419,0.7028 0.7028,0.7028 0.3886,0 0.7028,-0.314193 0.7028,-0.7028 0,-0.388607 -0.3142,-0.702799 -0.7028,-0.702799 -0.38861,0 -0.7028,0.314192 -0.7028,0.702799 z m 0,0"
       style="fill:#000000;fill-opacity:1;fill-rule:nonzero;stroke:none;stroke-width:0.352778" />
    <path
       id="path57"
       d="m 127.70693,85.091619 h 0.10335 c 0.0207,-0.219108 0.0496,-0.384473 0.10335,-0.56224 -0.29352,-0.111621 -0.51263,-0.157096 -0.74827,-0.157096 -0.31833,0 -0.63252,0.09508 -0.90124,0.276986 -0.45062,0.30179 -0.68213,0.756543 -0.68213,1.347721 0,0.744141 0.41342,1.161686 1.14515,1.161686 0.37207,0 0.64493,-0.09095 0.99219,-0.326595 l 0.0372,-0.14056 -0.0372,-0.0248 c -0.3638,0.219108 -0.56224,0.285253 -0.86403,0.285253 -0.60358,0 -0.93431,-0.367936 -0.93431,-1.054199 0,-0.425814 0.12816,-0.806152 0.3638,-1.045931 0.1819,-0.186035 0.42995,-0.276985 0.73174,-0.276985 0.27285,0 0.47542,0.05374 0.6904,0.194303 z m 0,0"
       style="fill:#000000;fill-opacity:1;fill-rule:nonzero;stroke:none;stroke-width:0.352778" />
    <path
       id="path59"
       d="m -1.9923047,-0.00103125 c 0,1.10156245 0.890625,1.99218745 1.9921875125,1.99218745 1.1015624875,0 1.9921874875,-0.890625 1.9921874875,-1.99218745 0,-1.10156255 -0.890625,-1.99218755 -1.9921874875,-1.99218755 -1.1015625125,0 -1.9921875125,0.890625 -1.9921875125,1.99218755 z m 0,0"
       style="fill:#ffffff;fill-opacity:1;fill-rule:nonzero;stroke:none"
       aria-label="b"
       transform="matrix(0.35277776,0,0,0.35277776,99.34798,50.254833)"
       clip-path="url(#clipPath60)" />
    <path
       id="path61"
       d="m 98.715419,50.254469 c 0,-0.347265 0.285254,-0.632519 0.63252,-0.632519 0.347265,0 0.632519,0.285254 0.632519,0.632519 0,0.347266 -0.285254,0.63252 -0.632519,0.63252 -0.347266,0 -0.63252,-0.285254 -0.63252,-0.63252 z m -0.07028,0 c 0,0.388607 0.314193,0.7028 0.7028,0.7028 0.388606,0 0.702801,-0.314193 0.702801,-0.7028 0,-0.388607 -0.314195,-0.702799 -0.702801,-0.702799 -0.388607,0 -0.7028,0.314192 -0.7028,0.702799 z m 0,0"
       style="fill:#000000;fill-opacity:1;fill-rule:nonzero;stroke:none;stroke-width:0.352778" />
    <path
       id="path62"
       d="m 98.500445,48.877809 -0.02067,0.09922 0.359668,-0.0124 h 0.210839 c 0.07441,0 0.194304,0.0041 0.359668,0.0083 0.07855,0.0041 0.136426,0.0041 0.177767,0.0041 0.276986,0 0.467153,-0.04134 0.665593,-0.144694 0.59945,-0.305925 0.97152,-0.888835 0.97152,-1.525488 0,-0.376205 -0.11576,-0.649056 -0.3514,-0.814421 -0.17777,-0.124023 -0.50437,-0.194303 -0.86817,-0.190169 l -0.785479,0.0124 h -0.03721 c -0.03721,0 -0.04961,0 -0.438216,-0.0124 l -0.0083,0.107487 0.202571,0.0083 c 0.09095,0.0041 0.132292,0.03307 0.132292,0.103352 0,0.05374 -0.0124,0.177768 -0.03307,0.293523 l -0.334863,1.938899 c -0.0124,0.06201 -0.05374,0.09095 -0.173633,0.115756 z m 0.905371,-2.414323 c 0.05374,0 0.07441,-0.0041 0.177767,-0.0083 0.119889,-0.0083 0.198438,-0.0124 0.268718,-0.0124 0.698669,0 1.016989,0.293522 1.016989,0.926041 0,0.450619 -0.14469,0.851628 -0.40514,1.120345 -0.21084,0.21084 -0.49196,0.318327 -0.826823,0.318327 -0.169499,0 -0.355534,-0.02067 -0.620117,-0.05788 0,-0.04547 0.0041,-0.07441 0.01654,-0.144694 z m 0,0"
       style="fill:#000000;fill-opacity:1;fill-rule:nonzero;stroke:none;stroke-width:0.352778" />
    <path
       id="path64"
       d="m -1.9913906,-7.1875e-4 c 0,1.10156245 0.890625,1.99218745 1.992187475,1.99218745 1.101562525,0 1.992187525,-0.890625 1.992187525,-1.99218745 0,-1.10156255 -0.890625,-1.99218755 -1.992187525,-1.99218755 -1.101562475,0 -1.992187475,0.890625 -1.992187475,1.99218755 z m 0,0"
       style="fill:#ffffff;fill-opacity:1;fill-rule:nonzero;stroke:none"
       aria-label="b"
       transform="matrix(0.35277776,0,0,0.35277776,79.622764,81.368068)"
       clip-path="url(#clipPath65)" />
    <path
       id="path66"
       d="m 78.990526,81.367814 c 0,-0.347265 0.285254,-0.632519 0.632519,-0.632519 0.347266,0 0.63252,0.285254 0.63252,0.632519 0,0.347266 -0.285254,0.63252 -0.63252,0.63252 -0.347265,0 -0.632519,-0.285254 -0.632519,-0.63252 z m -0.07028,0 c 0,0.388607 0.314192,0.7028 0.702799,0.7028 0.388607,0 0.7028,-0.314193 0.7028,-0.7028 0,-0.388606 -0.314193,-0.702799 -0.7028,-0.702799 -0.388607,0 -0.702799,0.314193 -0.702799,0.702799 z m 0,0"
       style="fill:#000000;fill-opacity:1;fill-rule:nonzero;stroke:none;stroke-width:0.352778" />
    <path
       id="path67"
       d="m 74.368586,82.763078 -0.02067,0.09922 0.359667,-0.0124 h 0.21084 c 0.07441,0 0.194304,0.0041 0.359668,0.0083 0.07855,0.0041 0.136426,0.0041 0.177767,0.0041 0.276986,0 0.467155,-0.04134 0.665593,-0.144694 0.599446,-0.305925 0.971517,-0.888835 0.971517,-1.525488 0,-0.376205 -0.115756,-0.649056 -0.3514,-0.814421 -0.177767,-0.124023 -0.504362,-0.194303 -0.868164,-0.190169 l -0.785482,0.0124 h -0.03721 c -0.03721,0 -0.04961,0 -0.438216,-0.0124 l -0.0083,0.107487 0.202572,0.0083 c 0.09095,0.0041 0.132291,0.03307 0.132291,0.103353 0,0.05374 -0.0124,0.177767 -0.03307,0.293522 l -0.334863,1.938899 c -0.0124,0.06201 -0.05374,0.09095 -0.173633,0.115756 z m 0.905371,-2.414323 c 0.05374,0 0.07441,-0.0041 0.177767,-0.0083 0.119889,-0.0083 0.198437,-0.0124 0.268717,-0.0124 0.698665,0 1.016992,0.293522 1.016992,0.926042 0,0.450618 -0.144694,0.851627 -0.405143,1.120345 -0.21084,0.210839 -0.491959,0.318326 -0.826823,0.318326 -0.169499,0 -0.355534,-0.02067 -0.620117,-0.05788 0,-0.04548 0.0041,-0.07441 0.01653,-0.144694 z m 0,0"
       style="fill:#000000;fill-opacity:1;fill-rule:nonzero;stroke:none;stroke-width:0.352778" />
    <path
       id="path68"
       d="m 78.11306,80.059367 c 0.01654,-0.03307 0.02894,-0.06201 0.02894,-0.09095 0,-0.08268 -0.07855,-0.152963 -0.169499,-0.152963 -0.08268,0 -0.132292,0.05374 -0.152962,0.132292 l -0.3514,1.277441 c 0,0.0083 -0.0083,0.04134 -0.0083,0.04134 0,0.03307 0.07441,0.05374 0.09922,0.05374 0.01654,0 0.02067,-0.0083 0.03721,-0.04547 z m 0,0"
       style="fill:#000000;fill-opacity:1;fill-rule:nonzero;stroke:none;stroke-width:0.352778" />
    <path
       id="path70"
       d="m -1.9923281,-1.796875e-4 c 0,1.1015624875 0.890625,1.9921874875 1.992187475,1.9921874875 1.101562525,0 1.992187525,-0.890625 1.992187525,-1.9921874875 0,-1.1015625125 -0.890625,-1.9921875125 -1.992187525,-1.9921875125 -1.101562475,0 -1.992187475,0.890625 -1.992187475,1.9921875125 z m 0,0"
       style="fill:#ffffff;fill-opacity:1;fill-rule:nonzero;stroke:none"
       aria-label="b"
       transform="matrix(0.35277776,0,0,0.35277776,93.307014,53.225926)"
       clip-path="url(#clipPath71)" />
    <path
       id="path72"
       d="m 92.674445,53.225863 c 0,-0.347266 0.285254,-0.63252 0.632519,-0.63252 0.347266,0 0.63252,0.285254 0.63252,0.63252 0,0.347265 -0.285254,0.632519 -0.63252,0.632519 -0.347265,0 -0.632519,-0.285254 -0.632519,-0.632519 z m -0.07028,0 c 0,0.388606 0.314193,0.702799 0.702799,0.702799 0.388607,0 0.7028,-0.314193 0.7028,-0.702799 0,-0.388607 -0.314193,-0.7028 -0.7028,-0.7028 -0.388606,0 -0.702799,0.314193 -0.702799,0.7028 z m 0,0"
       style="fill:#000000;fill-opacity:1;fill-rule:nonzero;stroke:none;stroke-width:0.352778" />
    <path
       id="path73"
       d="m 92.529751,50.650309 h 0.450618 c 0.103353,0 0.223243,0.0041 0.405144,0.0124 l 0.103352,0.0041 0.07028,-0.173633 -0.0124,-0.02894 c -0.314193,0.01654 -0.545703,0.0248 -0.843359,0.0248 H 92.55869 l 0.16123,-0.917774 c 0.0124,-0.06201 0.02067,-0.09095 0.03721,-0.119889 l 0.177767,-0.0083 c 0.124024,-0.0041 0.248047,-0.0083 0.334863,-0.0083 0.235645,0 0.392741,0.03307 0.396875,0.09095 l 0.03307,0.343132 h 0.09095 c 0.0124,-0.248047 0.03721,-0.438216 0.08268,-0.58291 -0.08268,-0.0083 -0.198437,-0.0124 -0.268717,-0.0124 -0.0083,0 -0.05374,0 -0.144694,0.0041 l -0.463021,0.0041 c -0.03307,0.0041 -0.260449,0.0041 -0.297656,0.0041 -0.144694,0 -0.248047,0 -0.442351,-0.0083 l -0.173632,-0.0041 -0.0124,0.107487 0.206706,0.0083 c 0.09508,0.0041 0.136426,0.03307 0.136426,0.103353 0,0.05374 -0.01654,0.177766 -0.03721,0.293522 l -0.334864,1.938899 c -0.0124,0.07028 -0.05788,0.09508 -0.227376,0.124024 l -0.02067,0.09922 0.157096,-0.0041 c 0.119889,-0.0041 0.359668,-0.0083 0.434082,-0.0083 l 0.826823,0.0124 h 0.04134 c 0.05374,0 0.148828,-0.0041 0.276986,-0.0083 l 0.128157,-0.0041 0.0124,-0.14056 c 0.0083,-0.07441 0.02894,-0.190169 0.06201,-0.380338 l 0.02067,-0.09922 h -0.103353 l -0.06201,0.23151 c -0.04134,0.136426 -0.07441,0.186036 -0.157096,0.202572 -0.07855,0.01654 -0.359668,0.03721 -0.566374,0.03721 -0.157096,0 -0.243913,-0.0041 -0.508496,-0.02894 v -0.01654 c 0,-0.05374 0.0041,-0.08268 0.0083,-0.115755 z m 0,0"
       style="fill:#000000;fill-opacity:1;fill-rule:nonzero;stroke:none;stroke-width:0.352778" />
    <path
       id="path75"
       d="M -1.9921797,9.765625e-4 C -1.9921797,1.1025391 -1.1015547,1.9931641 7.8125e-6,1.9931641 1.1015703,1.9931641 1.9921953,1.1025391 1.9921953,9.765625e-4 1.9921953,-1.1005859 1.1015703,-1.9912109 7.8125e-6,-1.9912109 -1.1015547,-1.9912109 -1.9921797,-1.1005859 -1.9921797,9.765625e-4 Z m 0,0"
       style="fill:#ffffff;fill-opacity:1;fill-rule:nonzero;stroke:none"
       aria-label="b"
       transform="matrix(0.35277776,0,0,0.35277776,111.76682,108.40355)"
       clip-path="url(#clipPath76)" />
    <path
       id="path77"
       d="m 111.1343,108.40389 c 0,-0.34726 0.28526,-0.63251 0.63252,-0.63251 0.34727,0 0.63252,0.28525 0.63252,0.63251 0,0.34727 -0.28525,0.63252 -0.63252,0.63252 -0.34726,0 -0.63252,-0.28525 -0.63252,-0.63252 z m -0.0703,0 c 0,0.38861 0.3142,0.7028 0.7028,0.7028 0.38861,0 0.7028,-0.31419 0.7028,-0.7028 0,-0.3886 -0.31419,-0.70279 -0.7028,-0.70279 -0.3886,0 -0.7028,0.31419 -0.7028,0.70279 z m 0,0"
       style="fill:#000000;fill-opacity:1;fill-rule:nonzero;stroke:none;stroke-width:0.352778" />
    <path
       id="path78"
       d="m 110.92553,111.38252 h 0.45062 c 0.10335,0 0.22324,0.004 0.40514,0.0124 l 0.10336,0.004 0.0703,-0.17363 -0.0124,-0.0289 c -0.31419,0.0165 -0.5457,0.0248 -0.84336,0.0248 h -0.14469 l 0.16123,-0.91777 c 0.0124,-0.062 0.0207,-0.091 0.0372,-0.11989 l 0.17776,-0.008 c 0.12403,-0.004 0.24805,-0.008 0.33487,-0.008 0.23564,0 0.39274,0.0331 0.39687,0.091 l 0.0331,0.34313 h 0.091 c 0.0124,-0.24805 0.0372,-0.43822 0.0827,-0.58291 -0.0827,-0.008 -0.19844,-0.0124 -0.26872,-0.0124 -0.008,0 -0.0537,0 -0.14469,0.004 l -0.46302,0.004 c -0.0331,0.004 -0.26045,0.004 -0.29766,0.004 -0.14469,0 -0.24805,0 -0.44235,-0.008 l -0.17363,-0.004 -0.0124,0.10749 0.20671,0.008 c 0.0951,0.004 0.13643,0.0331 0.13643,0.10335 0,0.0538 -0.0165,0.17777 -0.0372,0.29352 l -0.33486,1.9389 c -0.0124,0.0703 -0.0579,0.0951 -0.22738,0.12403 l -0.0207,0.0992 0.15709,-0.004 c 0.11989,-0.004 0.35967,-0.008 0.43409,-0.008 l 0.82682,0.0124 h 0.0413 c 0.0537,0 0.14883,-0.004 0.27699,-0.008 l 0.12815,-0.004 0.0124,-0.14056 c 0.008,-0.0744 0.0289,-0.19017 0.062,-0.38034 l 0.0207,-0.0992 h -0.10335 l -0.062,0.23151 c -0.0413,0.13642 -0.0744,0.18603 -0.15709,0.20257 -0.0785,0.0165 -0.35967,0.0372 -0.56638,0.0372 -0.15709,0 -0.24391,-0.004 -0.50849,-0.0289 v -0.0165 c 0,-0.0537 0.004,-0.0827 0.008,-0.11575 z m 0,0"
       style="fill:#000000;fill-opacity:1;fill-rule:nonzero;stroke:none;stroke-width:0.352778" />
    <path
       id="path79"
       d="m 113.26854,109.87771 c 0.0165,-0.0331 0.0289,-0.062 0.0289,-0.0909 0,-0.0827 -0.0785,-0.15297 -0.1695,-0.15297 -0.0827,0 -0.13229,0.0537 -0.15296,0.1323 l -0.3514,1.27744 c 0,0.008 -0.008,0.0413 -0.008,0.0413 0,0.0331 0.0744,0.0537 0.0992,0.0537 0.0165,0 0.0207,-0.008 0.0372,-0.0455 z m 0,0"
       style="fill:#000000;fill-opacity:1;fill-rule:nonzero;stroke:none;stroke-width:0.352778" />
    <path
       id="path81"
       d="m -1.9917656,0.00101562 c 0,1.10156248 0.890625,1.99218748 1.992187475,1.99218748 1.101562525,0 1.992187525,-0.890625 1.992187525,-1.99218748 0,-1.10156252 -0.890625,-1.99218752 -1.992187525,-1.99218752 -1.101562475,0 -1.992187475,0.890625 -1.992187475,1.99218752 z m 0,0"
       style="fill:#ffffff;fill-opacity:1;fill-rule:nonzero;stroke:none"
       aria-label="b"
       transform="matrix(0.35277776,0,0,0.35277776,84.03813,62.600643)"
       clip-path="url(#clipPath82)" />
    <path
       id="path83"
       d="m 83.405759,62.601001 c 0,-0.347265 0.285254,-0.632519 0.63252,-0.632519 0.347265,0 0.632519,0.285254 0.632519,0.632519 0,0.347266 -0.285254,0.63252 -0.632519,0.63252 -0.347266,0 -0.63252,-0.285254 -0.63252,-0.63252 z m -0.07028,0 c 0,0.388607 0.314193,0.7028 0.7028,0.7028 0.388607,0 0.702799,-0.314193 0.702799,-0.7028 0,-0.388606 -0.314192,-0.702799 -0.702799,-0.702799 -0.388607,0 -0.7028,0.314193 -0.7028,0.702799 z m 0,0"
       style="fill:#000000;fill-opacity:1;fill-rule:nonzero;stroke:none;stroke-width:0.352778" />
    <path
       id="path84"
       d="m 83.187685,58.825521 0.409277,-0.01653 c 0.239779,0 0.392741,0.03307 0.396875,0.09095 l 0.02894,0.343132 h 0.09509 c 0.0083,-0.243913 0.03721,-0.438217 0.07855,-0.582911 -0.08268,-0.0083 -0.19017,-0.0124 -0.256315,-0.0124 l -0.157097,0.0041 -0.636653,0.0083 h -0.111621 c -0.09508,0 -0.248047,-0.0041 -0.396875,-0.0083 l -0.186036,-0.0041 -0.0124,0.107487 0.214974,0.0083 c 0.09095,0.0041 0.132292,0.03721 0.132292,0.103353 0,0.05374 -0.0124,0.177766 -0.03307,0.293522 l -0.289388,1.670182 c -0.06615,0.3514 -0.06615,0.355534 -0.223242,0.37207 l -0.136426,0.0124 -0.01654,0.107487 0.132292,-0.0041 c 0.152962,-0.0041 0.276986,-0.0083 0.355534,-0.0083 0.07028,0 0.181901,0.0041 0.330729,0.0083 l 0.202572,0.0041 0.0124,-0.107487 -0.248047,-0.0124 c -0.103353,-0.0041 -0.14056,-0.03307 -0.14056,-0.111621 0,-0.0248 0.0041,-0.06615 0.0083,-0.08268 l 0.14056,-0.855762 h 0.450619 c 0.103352,0 0.223242,0.0041 0.405143,0.0124 h 0.103353 l 0.07028,-0.169498 -0.0124,-0.02894 c -0.314192,0.01654 -0.545703,0.0248 -0.843359,0.0248 h -0.144694 l 0.177767,-1.045931 c 0.0124,-0.06201 0.01654,-0.07855 0.03307,-0.119889 z m 0,0"
       style="fill:#000000;fill-opacity:1;fill-rule:nonzero;stroke:none;stroke-width:0.352778" />
    <path
       id="path86"
       d="m -1.9935078,-0.00100781 c 0,1.10156251 0.890625,1.99218751 1.99218749,1.99218751 1.10156251,0 1.99218751,-0.890625 1.99218751,-1.99218751 0,-1.10156249 -0.890625,-1.99218749 -1.99218751,-1.99218749 -1.10156249,0 -1.99218749,0.890625 -1.99218749,1.99218749 z m 0,0"
       style="fill:#ffffff;fill-opacity:1;fill-rule:nonzero;stroke:none"
       aria-label="b"
       transform="matrix(0.35277776,0,0,0.35277776,137.92176,88.045799)"
       clip-path="url(#clipPath87)" />
    <path
       id="path88"
       d="m 137.28877,88.045443 c 0,-0.347265 0.28526,-0.632519 0.63252,-0.632519 0.34727,0 0.63252,0.285254 0.63252,0.632519 0,0.347266 -0.28525,0.63252 -0.63252,0.63252 -0.34726,0 -0.63252,-0.285254 -0.63252,-0.63252 z m -0.0703,0 c 0,0.388607 0.3142,0.7028 0.7028,0.7028 0.38861,0 0.7028,-0.314193 0.7028,-0.7028 0,-0.388606 -0.31419,-0.702799 -0.7028,-0.702799 -0.3886,0 -0.7028,0.314193 -0.7028,0.702799 z m 0,0"
       style="fill:#000000;fill-opacity:1;fill-rule:nonzero;stroke:none;stroke-width:0.352778" />
    <path
       id="path89"
       d="m 140.4307,87.533847 0.40928,-0.01654 c 0.23978,0 0.39274,0.03307 0.39687,0.09095 l 0.0289,0.343131 h 0.0951 c 0.008,-0.243912 0.0372,-0.438216 0.0785,-0.58291 -0.0827,-0.0083 -0.19017,-0.0124 -0.25632,-0.0124 l -0.1571,0.0041 -0.63665,0.0083 h -0.11162 c -0.0951,0 -0.24805,-0.0041 -0.39688,-0.0083 l -0.18603,-0.0041 -0.0124,0.107487 0.21497,0.0083 c 0.0909,0.0041 0.13229,0.03721 0.13229,0.103353 0,0.05374 -0.0124,0.177767 -0.0331,0.293522 l -0.28939,1.670182 c -0.0661,0.3514 -0.0661,0.355534 -0.22324,0.372071 l -0.13643,0.0124 -0.0165,0.107487 0.13229,-0.0041 c 0.15296,-0.0041 0.27698,-0.0083 0.35553,-0.0083 0.0703,0 0.1819,0.0041 0.33073,0.0083 l 0.20257,0.0041 0.0124,-0.107487 -0.24805,-0.0124 c -0.10335,-0.0041 -0.14056,-0.03307 -0.14056,-0.111622 0,-0.0248 0.004,-0.06614 0.008,-0.08268 l 0.14056,-0.855761 h 0.45062 c 0.10335,0 0.22324,0.0041 0.40514,0.0124 h 0.10335 l 0.0703,-0.169499 -0.0124,-0.02894 c -0.31419,0.01654 -0.5457,0.02481 -0.84336,0.02481 h -0.14469 l 0.17776,-1.045931 c 0.0124,-0.06201 0.0165,-0.07855 0.0331,-0.119889 z m 0,0"
       style="fill:#000000;fill-opacity:1;fill-rule:nonzero;stroke:none;stroke-width:0.352778" />
    <path
       id="path90"
       d="m 142.63005,86.715292 c 0.0207,-0.04548 0.0372,-0.08268 0.0372,-0.124023 0,-0.115755 -0.10336,-0.21084 -0.22738,-0.21084 -0.11162,0 -0.18603,0.07441 -0.21497,0.177767 l -0.47543,1.752864 c 0,0.0083 -0.0165,0.05374 -0.0165,0.05788 0,0.04547 0.10335,0.07028 0.13643,0.07028 0.0248,0 0.0289,-0.0124 0.0537,-0.06201 z M 131.28707,54.217019 c 0,-0.0248 -0.0207,-0.02894 -0.0413,-0.02894 -0.0661,0 -0.16123,0.05788 -0.16536,0.05788 -0.0827,0.05374 -0.0992,0.08268 -0.1447,0.148828 -0.12402,0.190169 -0.30179,0.326595 -0.56224,0.326595 -0.35966,0 -0.68626,-0.260449 -0.68626,-0.86403 0,-0.359668 0.1447,-0.835091 0.35554,-1.153418 0.17776,-0.256314 0.39274,-0.467156 0.80615,-0.467156 0.15296,0 0.25218,0.05788 0.25218,0.206707 0,0.140557 -0.14883,0.425813 -0.19844,0.504362 -0.0248,0.04547 -0.0248,0.05374 -0.0248,0.06201 0,0.02894 0.0207,0.02894 0.0455,0.02894 0.0786,0 0.22738,-0.09095 0.27699,-0.152962 0.008,-0.01653 0.23978,-0.409277 0.23978,-0.615984 0,-0.219106 -0.1819,-0.252179 -0.3266,-0.252179 -0.57877,0 -1.05833,0.380337 -1.24023,0.607712 -0.47956,0.574643 -0.52503,1.198894 -0.52503,1.4056 0,0.587044 0.29352,0.909505 0.76067,0.909505 0.64492,0 1.17823,-0.624251 1.17823,-0.723469 z m 0,0"
       style="fill:#000000;fill-opacity:1;fill-rule:nonzero;stroke:none;stroke-width:0.352778" />
  </g>
</svg>
