<?xml version="1.0" encoding="UTF-8" standalone="no"?>
<!-- Created with Inkscape (http://www.inkscape.org/) -->

<svg
   width="82.588348mm"
   height="75.613281mm"
   viewBox="0 0 82.588348 75.613281"
   version="1.1"
   id="svg1"
   inkscape:version="1.4 (86a8ad7, 2024-10-11)"
   sodipodi:docname="figura6.svg"
   xmlns:inkscape="http://www.inkscape.org/namespaces/inkscape"
   xmlns:sodipodi="http://sodipodi.sourceforge.net/DTD/sodipodi-0.dtd"
   xmlns="http://www.w3.org/2000/svg"
   xmlns:svg="http://www.w3.org/2000/svg">
  <sodipodi:namedview
     id="namedview1"
     pagecolor="#ffffff"
     bordercolor="#000000"
     borderopacity="0.25"
     inkscape:showpageshadow="2"
     inkscape:pageopacity="0.0"
     inkscape:pagecheckerboard="0"
     inkscape:deskcolor="#d1d1d1"
     inkscape:document-units="mm"
     inkscape:zoom="0.49264169"
     inkscape:cx="82.20985"
     inkscape:cy="183.70349"
     inkscape:window-width="1366"
     inkscape:window-height="705"
     inkscape:window-x="-8"
     inkscape:window-y="-8"
     inkscape:window-maximized="1"
     inkscape:current-layer="layer1" />
  <defs
     id="defs1">
    <clipPath
       clipPathUnits="userSpaceOnUse"
       id="clipPath145">
      <path
         d="M 3207.6,3004.8 H 5159.26 V 4828.76 H 3207.6 Z"
         id="path145" />
    </clipPath>
    <clipPath
       clipPathUnits="userSpaceOnUse"
       id="clipPath147">
      <path
         d="M 3207.6,3004.8 H 5159.26 V 4828.76 H 3207.6 Z"
         id="path147" />
    </clipPath>
    <clipPath
       clipPathUnits="userSpaceOnUse"
       id="clipPath149">
      <path
         d="M 3207.6,3004.8 H 5159.26 V 4828.76 H 3207.6 Z"
         id="path149" />
    </clipPath>
    <clipPath
       clipPathUnits="userSpaceOnUse"
       id="clipPath151">
      <path
         d="M 3207.6,3004.8 H 5159.26 V 4828.76 H 3207.6 Z"
         id="path151" />
    </clipPath>
    <clipPath
       clipPathUnits="userSpaceOnUse"
       id="clipPath153">
      <path
         d="M 3207.6,3004.8 H 5159.26 V 4828.76 H 3207.6 Z"
         transform="matrix(0.1,0,0,-0.1,-332.27101,335.05701)"
         id="path153" />
    </clipPath>
    <clipPath
       clipPathUnits="userSpaceOnUse"
       id="clipPath156">
      <path
         d="M 3207.6,3004.8 H 5159.26 V 4828.76 H 3207.6 Z"
         transform="matrix(0.1,0,0,-0.1,-332.27101,335.05701)"
         id="path156" />
    </clipPath>
    <clipPath
       clipPathUnits="userSpaceOnUse"
       id="clipPath158">
      <path
         d="M 3207.6,3004.8 H 5159.26 V 4828.76 H 3207.6 Z"
         transform="matrix(0.1,0,0,-0.1,-448.30501,312.96101)"
         id="path158" />
    </clipPath>
    <clipPath
       clipPathUnits="userSpaceOnUse"
       id="clipPath161">
      <path
         d="M 3207.6,3004.8 H 5159.26 V 4828.76 H 3207.6 Z"
         transform="matrix(0.1,0,0,-0.1,-448.30501,312.96101)"
         id="path161" />
    </clipPath>
    <clipPath
       clipPathUnits="userSpaceOnUse"
       id="clipPath163">
      <path
         d="M 3207.6,3004.8 H 5159.26 V 4828.76 H 3207.6 Z"
         transform="matrix(0.1,0,0,-0.1,-365.13301,328.80001)"
         id="path163" />
    </clipPath>
    <clipPath
       clipPathUnits="userSpaceOnUse"
       id="clipPath166">
      <path
         d="M 3207.6,3004.8 H 5159.26 V 4828.76 H 3207.6 Z"
         transform="matrix(0.1,0,0,-0.1,-365.13301,328.80001)"
         id="path166" />
    </clipPath>
    <clipPath
       clipPathUnits="userSpaceOnUse"
       id="clipPath168">
      <path
         d="M 3207.6,3004.8 H 5159.26 V 4828.76 H 3207.6 Z"
         transform="matrix(0.1,0,0,-0.1,-512.47001,361.69101)"
         id="path168" />
    </clipPath>
    <clipPath
       clipPathUnits="userSpaceOnUse"
       id="clipPath171">
      <path
         d="M 3207.6,3004.8 H 5159.26 V 4828.76 H 3207.6 Z"
         transform="matrix(0.1,0,0,-0.1,-512.47001,361.69101)"
         id="path171" />
    </clipPath>
    <clipPath
       clipPathUnits="userSpaceOnUse"
       id="clipPath173">
      <path
         d="M 3207.6,3004.8 H 5159.26 V 4828.76 H 3207.6 Z"
         transform="matrix(0.1,0,0,-0.1,-403.92001,398.64001)"
         id="path173" />
    </clipPath>
    <clipPath
       clipPathUnits="userSpaceOnUse"
       id="clipPath176">
      <path
         d="M 3207.6,3004.8 H 5159.26 V 4828.76 H 3207.6 Z"
         transform="matrix(0.1,0,0,-0.1,-403.92001,398.64001)"
         id="path176" />
    </clipPath>
    <clipPath
       clipPathUnits="userSpaceOnUse"
       id="clipPath178">
      <path
         d="M 3207.6,3004.8 H 5159.26 V 4828.76 H 3207.6 Z"
         transform="matrix(0.1,0,0,-0.1,-340.12801,364.64701)"
         id="path178" />
    </clipPath>
    <clipPath
       clipPathUnits="userSpaceOnUse"
       id="clipPath181">
      <path
         d="M 3207.6,3004.8 H 5159.26 V 4828.76 H 3207.6 Z"
         transform="matrix(0.1,0,0,-0.1,-340.12801,364.64701)"
         id="path181" />
    </clipPath>
    <clipPath
       clipPathUnits="userSpaceOnUse"
       id="clipPath183">
      <path
         d="M 3207.6,3004.8 H 5159.26 V 4828.76 H 3207.6 Z"
         transform="matrix(0.1,0,0,-0.1,-365.39301,459.80101)"
         id="path183" />
    </clipPath>
    <clipPath
       clipPathUnits="userSpaceOnUse"
       id="clipPath186">
      <path
         d="M 3207.6,3004.8 H 5159.26 V 4828.76 H 3207.6 Z"
         transform="matrix(0.1,0,0,-0.1,-365.39301,459.80101)"
         id="path186" />
    </clipPath>
    <clipPath
       clipPathUnits="userSpaceOnUse"
       id="clipPath188">
      <path
         d="M 3207.6,3004.8 H 5159.26 V 4828.76 H 3207.6 Z"
         transform="matrix(0.1,0,0,-0.1,-457.18201,451.30301)"
         id="path188" />
    </clipPath>
  </defs>
  <g
     inkscape:label="Capa 1"
     inkscape:groupmode="layer"
     id="layer1"
     transform="translate(-83.079162,-100.01248)">
    <g
       id="g1"
       transform="matrix(1.2,0,0,1.2,-16.615833,-20.002496)">
      <path
         id="path144"
         d="m 4762.04,3986.4 c 0,399.21 -323.63,722.84 -722.84,722.84 -399.21,0 -722.84,-323.63 -722.84,-722.84 0,-399.21 323.63,-722.84 722.84,-722.84 399.21,0 722.84,323.63 722.84,722.84 z"
         style="fill:none;stroke:#0000ff;stroke-width:5.97758;stroke-linecap:butt;stroke-linejoin:miter;stroke-miterlimit:10;stroke-dasharray:none;stroke-opacity:1"
         transform="matrix(0.03527778,0,0,-0.03527778,-30.077833,269.44703)"
         clip-path="url(#clipPath145)" />
      <path
         id="path146"
         d="M 3299.04,3355.08 4506.72,3125.11"
         style="fill:none;stroke:#000000;stroke-width:5.97758;stroke-linecap:butt;stroke-linejoin:miter;stroke-miterlimit:10;stroke-dasharray:none;stroke-opacity:1"
         transform="matrix(0.03527778,0,0,-0.03527778,-30.077833,269.44703)"
         clip-path="url(#clipPath147)" />
      <path
         id="path148"
         d="M 3316.53,3327.29 3660.12,4621.3"
         style="fill:none;stroke:#000000;stroke-width:5.97758;stroke-linecap:butt;stroke-linejoin:miter;stroke-miterlimit:10;stroke-dasharray:none;stroke-opacity:1"
         transform="matrix(0.03527778,0,0,-0.03527778,-30.077833,269.44703)"
         clip-path="url(#clipPath149)" />
      <path
         id="path150"
         d="m 5064.77,3941.9 c 0,473.85 -384.13,857.98 -857.98,857.98 -473.84,0 -857.98,-384.13 -857.98,-857.98 0,-473.85 384.14,-857.98 857.98,-857.98 473.85,0 857.98,384.13 857.98,857.98 z"
         style="fill:none;stroke:#ff8000;stroke-width:5.97758;stroke-linecap:butt;stroke-linejoin:miter;stroke-miterlimit:10;stroke-dasharray:none;stroke-opacity:1"
         transform="matrix(0.03527778,0,0,-0.03527778,-30.077833,269.44703)"
         clip-path="url(#clipPath151)" />
      <path
         id="path152"
         d="m -1.9926797,3.59375e-4 c 0,1.101562525 0.890625,1.992187525 1.9921875125,1.992187525 1.1015624875,0 1.9921874875,-0.890625 1.9921874875,-1.992187525 0,-1.101562475 -0.890625,-1.992187475 -1.9921874875,-1.992187475 -1.1015625125,0 -1.9921875125,0.890625 -1.9921875125,1.992187475 z m 0,0"
         style="fill:#ffffff;fill-opacity:1;fill-rule:nonzero;stroke:none"
         aria-label="b"
         transform="matrix(0.35277776,0,0,0.35277776,87.139991,151.24636)"
         clip-path="url(#clipPath153)" />
      <g
         id="g153"
         aria-label="c&#10;A"
         transform="matrix(0.35277776,0,0,0.35277776,87.139991,151.24636)"
         clip-path="url(#clipPath156)">
        <path
           id="path154"
           d="m -1.7934609,3.59375e-4 c 0,-0.984374995 0.80859371,-1.792968775 1.7929687125,-1.792968775 0.9843749975,0 1.7929687875,0.80859378 1.7929687875,1.792968775 0,0.984375005 -0.80859379,1.792968725 -1.7929687875,1.792968725 C -0.98486719,1.7933281 -1.7934609,0.98473438 -1.7934609,3.59375e-4 Z m -0.1992188,0 c 0,1.101562525 0.890625,1.992187525 1.9921875125,1.992187525 1.1015624875,0 1.9921874875,-0.890625 1.9921874875,-1.992187525 0,-1.101562475 -0.890625,-1.992187475 -1.9921874875,-1.992187475 -1.1015625125,0 -1.9921875125,0.890625 -1.9921875125,1.992187475 z m 0,0"
           style="fill:#000000;fill-opacity:1;fill-rule:nonzero;stroke:none" />
        <path
           id="path155"
           d="m -6.48975,-3.8463203 -4.066406,6.46875 c -0.398438,0.609375 -0.585938,0.7851562 -0.960938,0.8671875 l -0.222656,0.058594 v 0.328125 c 1.007813,-0.035156 1.007813,-0.035156 1.230469,-0.035156 0.199219,0 0.222656,0 1.160156,0.035156 V 3.5716484 l -0.5625,-0.035156 c -0.175781,-0.011719 -0.339844,-0.1054688 -0.339844,-0.2109375 0,-0.082031 0.07031,-0.234375 0.2812503,-0.5976563 l 1.1132812,-1.91015621 h 2.6835938 l 0.2695312,2.05078121 v 0.035156 c 0,0.011719 0.011719,0.046875 0.023437,0.09375 0.011719,0.09375 0.023437,0.1992187 0.023437,0.2460937 0,0.1757813 -0.1640625,0.2695313 -0.46875,0.2929688 l -0.4804687,0.035156 v 0.3046875 c 1.1132812,-0.035156 1.1132812,-0.035156 1.3359375,-0.035156 0.2109375,0 0.2109375,0 1.3242187,0.035156 V 3.5716484 l -0.28125,-0.035156 c -0.515625,-0.082031 -0.5273437,-0.082031 -0.609375,-0.5625 l -0.9492187,-6.8203125 z m -0.140625,1.125 0.3984375,3.15234374 h -2.3554687 z m 0,0"
           style="fill:#000000;fill-opacity:1;fill-rule:nonzero;stroke:none" />
      </g>
      <path
         id="path157"
         d="m -1.9934766,6.25e-5 c 0,1.1015625 0.890625,1.9921875 1.99218754,1.9921875 1.10156246,0 1.99218746,-0.890625 1.99218746,-1.9921875 0,-1.1015625 -0.890625,-1.9921875 -1.99218746,-1.9921875 -1.10156254,0 -1.99218754,0.890625 -1.99218754,1.9921875 z m 0,0"
         style="fill:#ffffff;fill-opacity:1;fill-rule:nonzero;stroke:none"
         aria-label="b"
         transform="matrix(0.35277776,0,0,0.35277776,128.07421,159.04134)"
         clip-path="url(#clipPath158)" />
      <g
         id="g158"
         aria-label="c&#10;B"
         transform="matrix(0.35277776,0,0,0.35277776,128.07421,159.04134)"
         clip-path="url(#clipPath161)">
        <path
           id="path159"
           d="m -1.7942578,6.25e-5 c 0,-0.984375 0.80859374,-1.7929688 1.79296874,-1.7929688 0.984375,0 1.79296876,0.8085938 1.79296876,1.7929688 0,0.984375 -0.80859376,1.7929687 -1.79296876,1.7929687 -0.984375,0 -1.79296874,-0.8085937 -1.79296874,-1.7929687 z m -0.1992188,0 c 0,1.1015625 0.890625,1.9921875 1.99218754,1.9921875 1.10156246,0 1.99218746,-0.890625 1.99218746,-1.9921875 0,-1.1015625 -0.890625,-1.9921875 -1.99218746,-1.9921875 -1.10156254,0 -1.99218754,0.890625 -1.99218754,1.9921875 z m 0,0"
           style="fill:#000000;fill-opacity:1;fill-rule:nonzero;stroke:none" />
        <path
           id="path160"
           d="m -2.1839063,3.9756484 0.5859375,0.023437 c 0.2578125,0.011719 0.375,0.09375 0.375,0.2929688 0,0.1523437 -0.035156,0.5039062 -0.09375,0.8320312 L -2.2659375,10.62018 c -0.046875,0.199218 -0.1757813,0.269531 -0.6328125,0.351562 l -0.058594,0.28125 0.4101563,-0.01172 c 0.2929687,-0.02344 0.4570312,-0.02344 0.5859375,-0.02344 0.1171875,0 0.3984375,0.01172 0.6914062,0.02344 l 0.39843755,0.01172 0.22265625,0.01172 c 0.19921875,0.01172 0.33984375,0.02344 0.43359375,0.02344 0.52734375,0 1.04296875,-0.152343 1.55859375,-0.46875 0.8671875,-0.503906 1.3476562,-1.2539058 1.3476562,-2.0742183 0,-0.46875 -0.1640625,-0.8320313 -0.4570312,-1.078125 -0.28125,-0.2226563 -0.609375,-0.328125 -1.359375,-0.4335938 0.6210937,-0.2109375 0.890625,-0.3515625 1.2304687,-0.65625 0.5039063,-0.421875 0.75,-0.9375 0.75,-1.4882812 0,-0.9023438 -0.6328125,-1.4179688 -1.7226562,-1.4179688 -0.023437,0 -0.1289063,0 -0.29296875,0.011719 l -0.6796875,0.011719 c -0.140625,0.011719 -0.52734375,0.011719 -0.65625,0.011719 -0.2109375,0 -0.55078125,-0.011719 -1.07812505,-0.023437 L -2.14875,3.6709609 Z m 1.31250005,3.5273438 H 0.054375 c 1.125,0 1.6757812,0.46875 1.6757812,1.4179687 0,1.1132811 -0.79687495,1.9218751 -1.8867187,1.9218751 -0.22265625,0 -0.5390625,-0.01172 -0.9023438,-0.03516 -0.058594,-0.01172 -0.1992187,-0.02344 -0.3632812,-0.03516 z m 0.59765625,-3.375 c 0.1171875,0 0.140625,-0.011719 0.375,-0.023437 0.22265625,-0.023437 0.375,-0.035156 0.50390625,-0.035156 0.87890625,0 1.31249995,0.3984375 1.31249995,1.21875 0,1.1367188 -0.8085937,1.828125 -2.15624995,1.828125 h -0.5625 z m 0,0"
           style="fill:#000000;fill-opacity:1;fill-rule:nonzero;stroke:none" />
      </g>
      <path
         id="path162"
         d="m -1.992375,0.00117187 c 0,1.10156253 0.890625,1.99218753 1.9921875,1.99218753 1.1015625,0 1.9921875,-0.890625 1.9921875,-1.99218753 0,-1.10156247 -0.890625,-1.99218747 -1.9921875,-1.99218747 -1.1015625,0 -1.9921875,0.890625 -1.9921875,1.99218747 z m 0,0"
         style="fill:#ffffff;fill-opacity:1;fill-rule:nonzero;stroke:none"
         aria-label="b"
         transform="matrix(0.35277776,0,0,0.35277776,98.732974,153.45369)"
         clip-path="url(#clipPath163)" />
      <g
         id="g163"
         aria-label="c&#10;F"
         transform="matrix(0.35277776,0,0,0.35277776,98.732974,153.45369)"
         clip-path="url(#clipPath166)">
        <path
           id="path164"
           d="m -1.7931562,0.00117187 c 0,-0.984375 0.8085937,-1.79296877 1.7929687,-1.79296877 0.984375,0 1.7929688,0.80859377 1.7929688,1.79296877 0,0.984375 -0.8085938,1.79296873 -1.7929688,1.79296873 -0.984375,0 -1.7929687,-0.80859373 -1.7929687,-1.79296873 z m -0.1992188,0 c 0,1.10156253 0.890625,1.99218753 1.9921875,1.99218753 1.1015625,0 1.9921875,-0.890625 1.9921875,-1.99218753 0,-1.10156247 -0.890625,-1.99218747 -1.9921875,-1.99218747 -1.1015625,0 -1.9921875,0.890625 -1.9921875,1.99218747 z m 0,0"
           style="fill:#000000;fill-opacity:1;fill-rule:nonzero;stroke:none" />
        <path
           id="path165"
           d="m -1.1076094,4.1759766 1.16015628,-0.046875 c 0.6796875,0 1.11328122,0.09375 1.12500002,0.2578125 l 0.082031,0.9726562 H 1.5291094 C 1.5525469,4.6681641 1.6345781,4.1173828 1.7517656,3.7072266 1.5173906,3.6837891 1.2127031,3.6720703 1.0252031,3.6720703 l -0.44531247,0.011719 -1.80468753,0.023437 h -0.3164062 c -0.2695313,0 -0.703125,-0.011719 -1.125,-0.023437 l -0.5273438,-0.011719 -0.035156,0.3046875 0.609375,0.023437 c 0.2578125,0.011719 0.375,0.1054688 0.375,0.2929688 0,0.1523437 -0.035156,0.5039062 -0.09375,0.8320312 l -0.8203125,4.734375 c -0.1875,0.9960932 -0.1875,1.0078132 -0.6328125,1.0546882 l -0.3867188,0.03516 -0.046875,0.304689 0.375,-0.01172 c 0.4335938,-0.01172 0.7851563,-0.02344 1.0078125,-0.02344 0.1992188,0 0.515625,0.01172 0.9375,0.02344 l 0.5742188,0.01172 0.035156,-0.304689 -0.703125,-0.03516 c -0.2929687,-0.01172 -0.3984375,-0.09375 -0.3984375,-0.316407 0,-0.07031 0.011719,-0.1875 0.023437,-0.234375 l 0.3984375,-2.4257812 h 1.27734378 c 0.29296875,0 0.6328125,0.011719 1.1484375,0.035156 h 0.29296925 l 0.19921875,-0.480468 -0.0351563,-0.082031 c -0.890625,0.046875 -1.546875,0.070312 -2.39062498,0.070312 H -1.8927656 L -1.3888594,4.51582 c 0.035156,-0.1757812 0.046875,-0.2226562 0.09375,-0.3398437 z m 0,0"
           style="fill:#000000;fill-opacity:1;fill-rule:nonzero;stroke:none" />
      </g>
      <path
         id="path167"
         d="M -1.9924609,5.703125e-4 C -1.9924609,1.1021328 -1.1018359,1.9927578 -2.734375e-4,1.9927578 1.1012891,1.9927578 1.9919141,1.1021328 1.9919141,5.703125e-4 1.9919141,-1.1009922 1.1012891,-1.9916172 -2.734375e-4,-1.9916172 -1.1018359,-1.9916172 -1.9924609,-1.1009922 -1.9924609,5.703125e-4 Z m 0,0"
         style="fill:#ffffff;fill-opacity:1;fill-rule:nonzero;stroke:none"
         aria-label="b"
         transform="matrix(0.35277776,0,0,0.35277776,150.71019,141.85048)"
         clip-path="url(#clipPath168)" />
      <g
         id="g168"
         aria-label="c&#10;C"
         transform="matrix(0.35277776,0,0,0.35277776,150.71019,141.85048)"
         clip-path="url(#clipPath171)">
        <path
           id="path169"
           d="m -1.7932422,5.703125e-4 c 0,-0.9843750025 0.80859376,-1.7929687125 1.7929687625,-1.7929687125 0.9843749975,0 1.7929687375,0.80859371 1.7929687375,1.7929687125 C 1.7926953,0.98494531 0.98410156,1.7935391 -2.734375e-4,1.7935391 -0.98464844,1.7935391 -1.7932422,0.98494531 -1.7932422,5.703125e-4 Z m -0.1992187,0 C -1.9924609,1.1021328 -1.1018359,1.9927578 -2.734375e-4,1.9927578 1.1012891,1.9927578 1.9919141,1.1021328 1.9919141,5.703125e-4 1.9919141,-1.1009922 1.1012891,-1.9916172 -2.734375e-4,-1.9916172 -1.1018359,-1.9916172 -1.9924609,-1.1009922 -1.9924609,5.703125e-4 Z m 0,0"
           style="fill:#000000;fill-opacity:1;fill-rule:nonzero;stroke:none" />
        <path
           id="path170"
           d="m 2.7946484,-9.4681797 h 0.2929688 c 0.058594,-0.6210933 0.140625,-1.0898433 0.2929687,-1.5937503 -0.8320312,-0.316406 -1.453125,-0.445312 -2.1210937,-0.445312 -0.90234376,0 -1.79296876,0.269531 -2.5546875,0.785156 -1.2773438,0.8554688 -1.9335938,2.1445313 -1.9335938,3.8203126 0,2.109375 1.171875,3.2929687 3.24609379,3.2929687 1.05468751,0 1.82812501,-0.2578125 2.81250001,-0.9257812 l 0.1054687,-0.3984375 -0.1054687,-0.070312 c -1.03125,0.6210937 -1.59375,0.8085937 -2.44921876,0.8085937 -1.71093754,0 -2.64843754,-1.0429687 -2.64843754,-2.9882812 0,-1.2070313 0.3632813,-2.2851563 1.03125,-2.9648431 0.51562504,-0.527344 1.21875004,-0.785157 2.07421879,-0.785157 0.77343751,0 1.34765621,0.152343 1.95703121,0.550782 z m 0,0"
           style="fill:#000000;fill-opacity:1;fill-rule:nonzero;stroke:none" />
      </g>
      <path
         id="path172"
         d="m -1.9932422,3.515625e-4 c 0,1.1015625375 0.890625,1.9921875375 1.99218751,1.9921875375 1.10156249,0 1.99218749,-0.890625 1.99218749,-1.9921875375 0,-1.1015624625 -0.890625,-1.9921874625 -1.99218749,-1.9921874625 -1.10156251,0 -1.99218751,0.890625 -1.99218751,1.9921874625 z m 0,0"
         style="fill:#ffffff;fill-opacity:1;fill-rule:nonzero;stroke:none"
         aria-label="b"
         transform="matrix(0.35277776,0,0,0.35277776,112.41617,128.81569)"
         clip-path="url(#clipPath173)" />
      <g
         id="g173"
         aria-label="c&#10;O"
         transform="matrix(0.35277776,0,0,0.35277776,112.41617,128.81569)"
         clip-path="url(#clipPath176)">
        <path
           id="path174"
           d="m -1.7940234,3.515625e-4 c 0,-0.9843750025 0.80859371,-1.7929687625 1.79296871,-1.7929687625 0.984375,0 1.79296879,0.80859376 1.79296879,1.7929687625 0,0.9843749975 -0.80859379,1.7929687375 -1.79296879,1.7929687375 -0.984375,0 -1.79296871,-0.80859374 -1.79296871,-1.7929687375 z m -0.1992188,0 c 0,1.1015625375 0.890625,1.9921875375 1.99218751,1.9921875375 1.10156249,0 1.99218749,-0.890625 1.99218749,-1.9921875375 0,-1.1015624625 -0.890625,-1.9921874625 -1.99218749,-1.9921874625 -1.10156251,0 -1.99218751,0.890625 -1.99218751,1.9921874625 z m 0,0"
           style="fill:#000000;fill-opacity:1;fill-rule:nonzero;stroke:none" />
        <path
           id="path175"
           d="m 0.74308594,-11.507461 c -2.58984374,0 -4.48828124,1.9921876 -4.48828124,4.7343751 0,2.0625 1.03125,3.1640625 2.95312499,3.1640625 0.92578125,0 1.69921875,-0.2109375 2.40234371,-0.65625 1.3828125,-0.8554688 2.2265625,-2.4609375 2.2265625,-4.1835938 0,-1.9335938 -1.125,-3.0585938 -3.09374996,-3.0585938 z m -0.33984375,0.457031 c 0.52734375,0 1.05468751,0.128907 1.41796871,0.351563 0.7148438,0.410156 1.0546875,1.2304686 1.0546875,2.4257811 0,1.3828125 -0.4335937,2.6132812 -1.171875,3.375 -0.5390625,0.5390625 -1.24218746,0.8320312 -2.09765621,0.8320312 -1.57031249,0 -2.39062499,-0.9375 -2.39062499,-2.765625 0,-1.4179687 0.4453125,-2.6953125 1.1953125,-3.4453123 0.515625,-0.527344 1.16015624,-0.773438 1.99218749,-0.773438 z m 0,0"
           style="fill:#000000;fill-opacity:1;fill-rule:nonzero;stroke:none" />
      </g>
      <path
         id="path177"
         d="m -1.9922578,5.15625e-4 c 0,1.101562475 0.890625,1.992187475 1.9921874875,1.992187475 1.1015625125,0 1.9921875125,-0.890625 1.9921875125,-1.992187475 0,-1.101562525 -0.890625,-1.992187525 -1.9921875125,-1.992187525 -1.1015624875,0 -1.9921874875,0.890625 -1.9921874875,1.992187525 z m 0,0"
         style="fill:#ffffff;fill-opacity:1;fill-rule:nonzero;stroke:none"
         aria-label="b"
         transform="matrix(0.35277776,0,0,0.35277776,89.911765,140.80767)"
         clip-path="url(#clipPath178)" />
      <g
         id="g178"
         aria-label="c&#10;U"
         transform="matrix(0.35277776,0,0,0.35277776,89.911765,140.80767)"
         clip-path="url(#clipPath181)">
        <path
           id="path179"
           d="m -1.7930391,5.15625e-4 c 0,-0.984374995 0.80859379,-1.792968725 1.7929687875,-1.792968725 0.9843750025,0 1.7929687125,0.80859373 1.7929687125,1.792968725 C 1.7928984,0.98489063 0.98430469,1.7934844 -7.03125e-5,1.7934844 -0.98444531,1.7934844 -1.7930391,0.98489063 -1.7930391,5.15625e-4 Z m -0.1992187,0 c 0,1.101562475 0.890625,1.992187475 1.9921874875,1.992187475 1.1015625125,0 1.9921875125,-0.890625 1.9921875125,-1.992187475 0,-1.101562525 -0.890625,-1.992187525 -1.9921875125,-1.992187525 -1.1015624875,0 -1.9921874875,0.890625 -1.9921874875,1.992187525 z m 0,0"
           style="fill:#000000;fill-opacity:1;fill-rule:nonzero;stroke:none" />
        <path
           id="path180"
           d="m -3.8057344,-2.2084687 0.035156,-0.3046875 h -0.175781 L -4.9424531,-2.478 c -0.1640625,0 -0.3867188,0 -0.8671875,-0.011719 l -0.6914063,-0.023437 -0.035156,0.3046875 0.5273437,0.023437 c 0.2578125,0.011719 0.3867188,0.09375 0.3867188,0.3046875 0,0.046875 0,0.082031 -0.011719,0.1289062 L -6.4072969,3.100125 c -0.5273437,0.6328125 -0.8554687,0.9140625 -1.40625,1.1953125 -0.421875,0.2109375 -0.8203125,0.3164063 -1.2421875,0.3164063 -0.9257812,0 -1.5117186,-0.4921875 -1.5117186,-1.2539063 0,-0.1875 0.02344,-0.3632812 0.07031,-0.6679687 l 0.9609379,-5.203125 -0.328125,0.011719 c -0.3046879,0.011719 -0.5156249,0.023437 -0.6328129,0.023437 -0.117187,0 -0.328125,-0.011719 -0.632812,-0.023437 l -0.351563,-0.011719 -0.03516,0.3046875 0.5625,0.023437 c 0.292969,0.011719 0.375,0.058594 0.375,0.2460937 0,0.09375 -0.03516,0.4101563 -0.08203,0.6328125 l -0.691406,4.0898438 c -0.04687,0.234375 -0.07031,0.5039062 -0.07031,0.6796875 0,1.1015625 0.738281,1.78125 1.9570314,1.78125 0.4804687,0 0.9257812,-0.1171875 1.453125,-0.375 0.6445312,-0.3164063 0.984375,-0.5859375 1.5585937,-1.2421875 -0.09375,0.5039062 -0.1523437,0.7851562 -0.2929687,1.3828125 l 0.046875,0.058594 h 0.2460937 l 0.6796875,-0.035156 c 0.035156,0 0.28125,0.011719 0.6328125,0.023437 l 0.3398438,0.011719 0.058594,-0.3046875 -0.65625,-0.046875 c -0.2460937,-0.023437 -0.3515625,-0.082031 -0.3515625,-0.234375 0,-0.1640625 0.011719,-0.2109375 0.070312,-0.609375 l 0.9257813,-5.53125 c 0.070312,-0.4101562 0.140625,-0.4804687 0.5625,-0.515625 z m 0,0"
           style="fill:#000000;fill-opacity:1;fill-rule:nonzero;stroke:none" />
      </g>
      <path
         id="path182"
         d="m -1.9916328,0.00119531 c 0,1.10156249 0.890625,1.99218749 1.9921874875,1.99218749 1.1015625125,0 1.9921875125,-0.890625 1.9921875125,-1.99218749 0,-1.10156251 -0.890625,-1.99218751 -1.9921875125,-1.99218751 -1.1015624875,0 -1.9921874875,0.890625 -1.9921874875,1.99218751 z m 0,0"
         style="fill:#ffffff;fill-opacity:1;fill-rule:nonzero;stroke:none"
         aria-label="b"
         transform="matrix(0.35277776,0,0,0.35277776,98.824697,107.23945)"
         clip-path="url(#clipPath183)" />
      <g
         id="g183"
         aria-label="c&#10;V"
         transform="matrix(0.35277776,0,0,0.35277776,98.824697,107.23945)"
         clip-path="url(#clipPath186)">
        <path
           id="path184"
           d="m -1.7924141,0.00119531 c 0,-0.984375 0.80859379,-1.79296871 1.7929687875,-1.79296871 0.9843750025,0 1.7929687125,0.80859371 1.7929687125,1.79296871 0,0.984375 -0.80859371,1.79296879 -1.7929687125,1.79296879 -0.9843749975,0 -1.7929687875,-0.80859379 -1.7929687875,-1.79296879 z m -0.1992187,0 c 0,1.10156249 0.890625,1.99218749 1.9921874875,1.99218749 1.1015625125,0 1.9921875125,-0.890625 1.9921875125,-1.99218749 0,-1.10156251 -0.890625,-1.99218751 -1.9921875125,-1.99218751 -1.1015624875,0 -1.9921874875,0.890625 -1.9921874875,1.99218751 z m 0,0"
           style="fill:#000000;fill-opacity:1;fill-rule:nonzero;stroke:none" />
        <path
           id="path185"
           d="m -0.81389844,-4.7273203 -0.77343746,-5.7656247 -0.011719,-0.07031 c -0.023437,-0.210937 0.140625,-0.328125 0.46875,-0.339844 l 0.45703126,-0.02344 v -0.304688 l -0.44531246,0.01172 c -0.4101563,0.01172 -0.7148438,0.02344 -0.9140625,0.02344 -0.1875,0 -0.5039063,-0.01172 -0.9023438,-0.02344 l -0.4453125,-0.01172 v 0.304688 l 0.2695313,0.02344 c 0.4804687,0.02344 0.5742187,0.117188 0.6445312,0.515625 l 0.9609375,6.7851567 h 0.53906251 L 3.1470391,-10.35232 c 0.28125,-0.433594 0.3632812,-0.515625 0.6796875,-0.550782 l 0.1992187,-0.02344 v -0.304688 l -0.328125,0.01172 c -0.2929687,0.01172 -0.5507812,0.02344 -0.7148437,0.02344 -0.1171875,0 -0.4101563,-0.01172 -0.8554688,-0.02344 l -0.5039062,-0.01172 v 0.304688 l 0.28125,0.02344 c 0.421875,0.02344 0.6210937,0.140625 0.6210937,0.339844 0,0.128906 -0.035156,0.246094 -0.1640625,0.46875 z m 0,0"
           style="fill:#000000;fill-opacity:1;fill-rule:nonzero;stroke:none" />
      </g>
      <path
         id="path187"
         d="m 5.6353828,-1.7819609 c 0,-0.070312 -0.058594,-0.082031 -0.1171875,-0.082031 -0.1875,0 -0.4570312,0.1640625 -0.46875,0.1640625 -0.234375,0.1523438 -0.28125,0.234375 -0.4101562,0.421875 -0.3515625,0.53906251 -0.8554688,0.92578126 -1.59375,0.92578126 -1.0195313,0 -1.9453125,-0.73828126 -1.9453125,-2.44921876 0,-1.0195312 0.4101562,-2.3671875 1.0078125,-3.2695312 0.5039062,-0.7265625 1.1132812,-1.3242188 2.2851562,-1.3242188 0.4335938,0 0.7148438,0.1640625 0.7148438,0.5859375 0,0.3984375 -0.421875,1.2070313 -0.5625,1.4296875 -0.070312,0.1289063 -0.070312,0.1523438 -0.070312,0.1757813 0,0.082031 0.058594,0.082031 0.1289062,0.082031 0.2226563,0 0.6445313,-0.2578125 0.7851563,-0.4335937 0.023437,-0.046875 0.6796875,-1.1601563 0.6796875,-1.7460938 0,-0.6210937 -0.515625,-0.7148437 -0.9257813,-0.7148437 -1.640625,0 -3,1.078125 -3.515625,1.7226562 -1.35937499,1.6289063 -1.48828124,3.3984375 -1.48828124,3.984375 0,1.66406251 0.83203125,2.57812501 2.15625004,2.57812501 1.828125,0 3.3398437,-1.76953121 3.3398432,-2.05078131 z m 0,0"
         style="fill:#0000ff;fill-opacity:1;fill-rule:nonzero;stroke:none"
         aria-label="C"
         transform="matrix(0.35277776,0,0,0.35277776,131.20581,110.23736)"
         clip-path="url(#clipPath188)" />
    </g>
  </g>
</svg>
