<?xml version="1.0" encoding="UTF-8" standalone="no"?>
<!-- Created with Inkscape (http://www.inkscape.org/) -->

<svg
   width="96.14669mm"
   height="87.73922mm"
   viewBox="0 0 96.14669 87.739219"
   version="1.1"
   id="svg1"
   inkscape:version="1.4 (86a8ad7, 2024-10-11)"
   sodipodi:docname="figura7.svg"
   xmlns:inkscape="http://www.inkscape.org/namespaces/inkscape"
   xmlns:sodipodi="http://sodipodi.sourceforge.net/DTD/sodipodi-0.dtd"
   xmlns="http://www.w3.org/2000/svg"
   xmlns:svg="http://www.w3.org/2000/svg">
  <sodipodi:namedview
     id="namedview1"
     pagecolor="#ffffff"
     bordercolor="#000000"
     borderopacity="0.25"
     inkscape:showpageshadow="2"
     inkscape:pageopacity="0.0"
     inkscape:pagecheckerboard="0"
     inkscape:deskcolor="#d1d1d1"
     inkscape:document-units="mm"
     inkscape:zoom="0.49264169"
     inkscape:cx="122.80731"
     inkscape:cy="214.15159"
     inkscape:window-width="1366"
     inkscape:window-height="705"
     inkscape:window-x="-8"
     inkscape:window-y="-8"
     inkscape:window-maximized="1"
     inkscape:current-layer="layer1" />
  <defs
     id="defs1">
    <clipPath
       clipPathUnits="userSpaceOnUse"
       id="clipPath6">
      <path
         d="M 1884,4777.2 H 4236.75 V 6903.18 H 1884 Z"
         id="path6" />
    </clipPath>
    <clipPath
       clipPathUnits="userSpaceOnUse"
       id="clipPath8">
      <path
         d="M 1884,4777.2 H 4236.75 V 6903.18 H 1884 Z"
         id="path8" />
    </clipPath>
    <clipPath
       clipPathUnits="userSpaceOnUse"
       id="clipPath10">
      <path
         d="M 1884,4777.2 H 4236.75 V 6903.18 H 1884 Z"
         id="path10" />
    </clipPath>
    <clipPath
       clipPathUnits="userSpaceOnUse"
       id="clipPath12">
      <path
         d="M 1884,4777.2 H 4236.75 V 6903.18 H 1884 Z"
         id="path12" />
    </clipPath>
    <clipPath
       clipPathUnits="userSpaceOnUse"
       id="clipPath14">
      <path
         d="M 1884,4777.2 H 4236.75 V 6903.18 H 1884 Z"
         id="path14" />
    </clipPath>
    <clipPath
       clipPathUnits="userSpaceOnUse"
       id="clipPath16">
      <path
         d="M 1884,4777.2 H 4236.75 V 6903.18 H 1884 Z"
         id="path16" />
    </clipPath>
    <clipPath
       clipPathUnits="userSpaceOnUse"
       id="clipPath18">
      <path
         d="M 1884,4777.2 H 4236.75 V 6903.18 H 1884 Z"
         id="path18" />
    </clipPath>
    <clipPath
       clipPathUnits="userSpaceOnUse"
       id="clipPath20">
      <path
         d="M 1884,4777.2 H 4236.75 V 6903.18 H 1884 Z"
         id="path20" />
    </clipPath>
    <clipPath
       clipPathUnits="userSpaceOnUse"
       id="clipPath22">
      <path
         d="M 1884,4777.2 H 4236.75 V 6903.18 H 1884 Z"
         id="path22" />
    </clipPath>
    <clipPath
       clipPathUnits="userSpaceOnUse"
       id="clipPath24">
      <path
         d="M 1884,4777.2 H 4236.75 V 6903.18 H 1884 Z"
         id="path24" />
    </clipPath>
    <clipPath
       clipPathUnits="userSpaceOnUse"
       id="clipPath26">
      <path
         d="M 1884,4777.2 H 4236.75 V 6903.18 H 1884 Z"
         id="path26" />
    </clipPath>
    <clipPath
       clipPathUnits="userSpaceOnUse"
       id="clipPath28">
      <path
         d="M 1884,4777.2 H 4236.75 V 6903.18 H 1884 Z"
         id="path28" />
    </clipPath>
    <clipPath
       clipPathUnits="userSpaceOnUse"
       id="clipPath30">
      <path
         d="M 1884,4777.2 H 4236.75 V 6903.18 H 1884 Z"
         id="path30" />
    </clipPath>
    <clipPath
       clipPathUnits="userSpaceOnUse"
       id="clipPath32">
      <path
         d="M 1884,4777.2 H 4236.75 V 6903.18 H 1884 Z"
         id="path32" />
    </clipPath>
    <clipPath
       clipPathUnits="userSpaceOnUse"
       id="clipPath34">
      <path
         d="M 1884,4777.2 H 4236.75 V 6903.18 H 1884 Z"
         id="path34" />
    </clipPath>
    <clipPath
       clipPathUnits="userSpaceOnUse"
       id="clipPath36">
      <path
         d="M 1884,4777.2 H 4236.75 V 6903.18 H 1884 Z"
         id="path36" />
    </clipPath>
    <clipPath
       clipPathUnits="userSpaceOnUse"
       id="clipPath38">
      <path
         d="M 1884,4777.2 H 4236.75 V 6903.18 H 1884 Z"
         id="path38" />
    </clipPath>
    <clipPath
       clipPathUnits="userSpaceOnUse"
       id="clipPath40">
      <path
         d="M 1884,4777.2 H 4236.75 V 6903.18 H 1884 Z"
         id="path40" />
    </clipPath>
    <clipPath
       clipPathUnits="userSpaceOnUse"
       id="clipPath42">
      <path
         d="M 1884,4777.2 H 4236.75 V 6903.18 H 1884 Z"
         id="path42" />
    </clipPath>
    <clipPath
       clipPathUnits="userSpaceOnUse"
       id="clipPath44">
      <path
         d="M 1884,4777.2 H 4236.75 V 6903.18 H 1884 Z"
         transform="matrix(0.1,0,0,-0.1,-203.22801,524.83702)"
         id="path44" />
    </clipPath>
    <clipPath
       clipPathUnits="userSpaceOnUse"
       id="clipPath47">
      <path
         d="M 1884,4777.2 H 4236.75 V 6903.18 H 1884 Z"
         transform="matrix(0.1,0,0,-0.1,-203.22801,524.83702)"
         id="path47" />
    </clipPath>
    <clipPath
       clipPathUnits="userSpaceOnUse"
       id="clipPath49">
      <path
         d="M 1884,4777.2 H 4236.75 V 6903.18 H 1884 Z"
         transform="matrix(0.1,0,0,-0.1,-339.73701,498.84201)"
         id="path49" />
    </clipPath>
    <clipPath
       clipPathUnits="userSpaceOnUse"
       id="clipPath52">
      <path
         d="M 1884,4777.2 H 4236.75 V 6903.18 H 1884 Z"
         transform="matrix(0.1,0,0,-0.1,-339.73701,498.84201)"
         id="path52" />
    </clipPath>
    <clipPath
       clipPathUnits="userSpaceOnUse"
       id="clipPath54">
      <path
         d="M 1884,4777.2 H 4236.75 V 6903.18 H 1884 Z"
         transform="matrix(0.1,0,0,-0.1,-372.55301,598.63601)"
         id="path54" />
    </clipPath>
    <clipPath
       clipPathUnits="userSpaceOnUse"
       id="clipPath56">
      <path
         d="M 1884,4777.2 H 4236.75 V 6903.18 H 1884 Z"
         transform="matrix(0.1,0,0,-0.1,-372.55301,598.63601)"
         id="path56" />
    </clipPath>
    <clipPath
       clipPathUnits="userSpaceOnUse"
       id="clipPath58">
      <path
         d="M 1884,4777.2 H 4236.75 V 6903.18 H 1884 Z"
         transform="matrix(0.1,0,0,-0.1,-375.42401,601.24502)"
         id="path58" />
    </clipPath>
    <clipPath
       clipPathUnits="userSpaceOnUse"
       id="clipPath60">
      <path
         d="M 1884,4777.2 H 4236.75 V 6903.18 H 1884 Z"
         transform="matrix(0.1,0,0,-0.1,-241.888,517.47502)"
         id="path60" />
    </clipPath>
    <clipPath
       clipPathUnits="userSpaceOnUse"
       id="clipPath63">
      <path
         d="M 1884,4777.2 H 4236.75 V 6903.18 H 1884 Z"
         transform="matrix(0.1,0,0,-0.1,-241.888,517.47502)"
         id="path63" />
    </clipPath>
    <clipPath
       clipPathUnits="userSpaceOnUse"
       id="clipPath65">
      <path
         d="M 1884,4777.2 H 4236.75 V 6903.18 H 1884 Z"
         transform="matrix(0.1,0,0,-0.1,-205.06701,578.82701)"
         id="path65" />
    </clipPath>
    <clipPath
       clipPathUnits="userSpaceOnUse"
       id="clipPath68">
      <path
         d="M 1884,4777.2 H 4236.75 V 6903.18 H 1884 Z"
         transform="matrix(0.1,0,0,-0.1,-205.06701,578.82701)"
         id="path68" />
    </clipPath>
    <clipPath
       clipPathUnits="userSpaceOnUse"
       id="clipPath70">
      <path
         d="M 1884,4777.2 H 4236.75 V 6903.18 H 1884 Z"
         transform="matrix(0.1,0,0,-0.1,-415.22501,556.17101)"
         id="path70" />
    </clipPath>
    <clipPath
       clipPathUnits="userSpaceOnUse"
       id="clipPath73">
      <path
         d="M 1884,4777.2 H 4236.75 V 6903.18 H 1884 Z"
         transform="matrix(0.1,0,0,-0.1,-415.22501,556.17101)"
         id="path73" />
    </clipPath>
    <clipPath
       clipPathUnits="userSpaceOnUse"
       id="clipPath75">
      <path
         d="M 1884,4777.2 H 4236.75 V 6903.18 H 1884 Z"
         transform="matrix(0.1,0,0,-0.1,-356.55401,549.98002)"
         id="path75" />
    </clipPath>
    <clipPath
       clipPathUnits="userSpaceOnUse"
       id="clipPath77">
      <path
         d="M 1884,4777.2 H 4236.75 V 6903.18 H 1884 Z"
         transform="matrix(0.1,0,0,-0.1,-356.55401,549.98002)"
         id="path77" />
    </clipPath>
    <clipPath
       clipPathUnits="userSpaceOnUse"
       id="clipPath79">
      <path
         d="M 1884,4777.2 H 4236.75 V 6903.18 H 1884 Z"
         transform="matrix(0.1,0,0,-0.1,-347.55001,553.66501)"
         id="path79" />
    </clipPath>
    <clipPath
       clipPathUnits="userSpaceOnUse"
       id="clipPath81">
      <path
         d="M 1884,4777.2 H 4236.75 V 6903.18 H 1884 Z"
         transform="matrix(0.1,0,0,-0.1,-287.52001,599.64001)"
         id="path81" />
    </clipPath>
    <clipPath
       clipPathUnits="userSpaceOnUse"
       id="clipPath84">
      <path
         d="M 1884,4777.2 H 4236.75 V 6903.18 H 1884 Z"
         transform="matrix(0.1,0,0,-0.1,-287.52001,599.64001)"
         id="path84" />
    </clipPath>
    <clipPath
       clipPathUnits="userSpaceOnUse"
       id="clipPath86">
      <path
         d="M 1884,4777.2 H 4236.75 V 6903.18 H 1884 Z"
         transform="matrix(0.1,0,0,-0.1,-250.68901,519.44002)"
         id="path86" />
    </clipPath>
    <clipPath
       clipPathUnits="userSpaceOnUse"
       id="clipPath89">
      <path
         d="M 1884,4777.2 H 4236.75 V 6903.18 H 1884 Z"
         transform="matrix(0.1,0,0,-0.1,-250.68901,519.44002)"
         id="path89" />
    </clipPath>
    <clipPath
       clipPathUnits="userSpaceOnUse"
       id="clipPath91">
      <path
         d="M 1884,4777.2 H 4236.75 V 6903.18 H 1884 Z"
         transform="matrix(0.1,0,0,-0.1,-230.37001,536.66701)"
         id="path91" />
    </clipPath>
    <clipPath
       clipPathUnits="userSpaceOnUse"
       id="clipPath93">
      <path
         d="M 1884,4777.2 H 4236.75 V 6903.18 H 1884 Z"
         transform="matrix(0.1,0,0,-0.1,-230.37001,536.66701)"
         id="path93" />
    </clipPath>
    <clipPath
       clipPathUnits="userSpaceOnUse"
       id="clipPath95">
      <path
         d="M 1884,4777.2 H 4236.75 V 6903.18 H 1884 Z"
         transform="matrix(0.1,0,0,-0.1,-222.12301,525.49001)"
         id="path95" />
    </clipPath>
    <clipPath
       clipPathUnits="userSpaceOnUse"
       id="clipPath97">
      <path
         d="M 1884,4777.2 H 4236.75 V 6903.18 H 1884 Z"
         transform="matrix(0.1,0,0,-0.1,-325.42701,501.56701)"
         id="path97" />
    </clipPath>
    <clipPath
       clipPathUnits="userSpaceOnUse"
       id="clipPath100">
      <path
         d="M 1884,4777.2 H 4236.75 V 6903.18 H 1884 Z"
         transform="matrix(0.1,0,0,-0.1,-325.42701,501.56701)"
         id="path100" />
    </clipPath>
    <clipPath
       clipPathUnits="userSpaceOnUse"
       id="clipPath102">
      <path
         d="M 1884,4777.2 H 4236.75 V 6903.18 H 1884 Z"
         transform="matrix(0.1,0,0,-0.1,-408.96501,485.65901)"
         id="path102" />
    </clipPath>
    <clipPath
       clipPathUnits="userSpaceOnUse"
       id="clipPath105">
      <path
         d="M 1884,4777.2 H 4236.75 V 6903.18 H 1884 Z"
         transform="matrix(0.1,0,0,-0.1,-408.96501,485.65901)"
         id="path105" />
    </clipPath>
    <clipPath
       clipPathUnits="userSpaceOnUse"
       id="clipPath107">
      <path
         d="M 1884,4777.2 H 4236.75 V 6903.18 H 1884 Z"
         transform="matrix(0.1,0,0,-0.1,-394.26801,551.49202)"
         id="path107" />
    </clipPath>
    <clipPath
       clipPathUnits="userSpaceOnUse"
       id="clipPath110">
      <path
         d="M 1884,4777.2 H 4236.75 V 6903.18 H 1884 Z"
         transform="matrix(0.1,0,0,-0.1,-394.26801,551.49202)"
         id="path110" />
    </clipPath>
    <clipPath
       clipPathUnits="userSpaceOnUse"
       id="clipPath112">
      <path
         d="M 1884,4777.2 H 4236.75 V 6903.18 H 1884 Z"
         transform="matrix(0.1,0,0,-0.1,-401.61601,518.57602)"
         id="path112" />
    </clipPath>
    <clipPath
       clipPathUnits="userSpaceOnUse"
       id="clipPath115">
      <path
         d="M 1884,4777.2 H 4236.75 V 6903.18 H 1884 Z"
         transform="matrix(0.1,0,0,-0.1,-401.61601,518.57602)"
         id="path115" />
    </clipPath>
    <clipPath
       clipPathUnits="userSpaceOnUse"
       id="clipPath117">
      <path
         d="M 1884,4777.2 H 4236.75 V 6903.18 H 1884 Z"
         transform="matrix(0.1,0,0,-0.1,-349.35701,660.99701)"
         id="path117" />
    </clipPath>
  </defs>
  <g
     inkscape:label="Capa 1"
     inkscape:groupmode="layer"
     id="layer1"
     transform="translate(-70.114583,-89.164536)">
    <path
       id="path5"
       d="m 2506.7,5194.39 15.62,0.86 15.61,0.85 15.62,0.86 15.63,0.85 15.61,0.86 15.62,0.85 15.62,0.86 15.62,0.85 15.62,0.86 15.62,0.86 15.62,0.85 15.62,0.86 15.62,0.85 15.62,0.86 15.62,0.85 15.62,0.86 15.62,0.86 15.62,0.85 15.61,0.86 15.63,0.85 15.62,0.86 15.61,0.85 15.63,0.86 15.61,0.86 15.62,0.85 15.62,0.86 15.62,0.85 15.62,0.86 15.62,0.85 15.62,0.86 15.62,0.85 15.62,0.86 15.62,0.86 15.62,0.85 15.62,0.86 15.62,0.85 15.62,0.86 15.61,0.85 15.63,0.86 15.62,0.85 15.61,0.86 15.62,0.85 15.62,0.86 15.62,0.86 15.62,0.85 15.62,0.86 15.62,0.86 15.62,0.85 15.62,0.86"
       style="fill:none;stroke:#bfbfbf;stroke-width:5.97758;stroke-linecap:butt;stroke-linejoin:miter;stroke-miterlimit:10;stroke-dasharray:none;stroke-opacity:1"
       transform="matrix(0.04233334,0,0,-0.04233334,-10.948377,379.13855)"
       clip-path="url(#clipPath6)" />
    <path
       id="path7"
       d="m 1939.77,5932.64 11.57,-15.07 11.57,-15.05 11.57,-15.07 11.57,-15.06 11.57,-15.06 11.57,-15.06 11.57,-15.06 11.57,-15.06 11.57,-15.06 11.57,-15.06 11.57,-15.06 11.57,-15.06 11.57,-15.06 11.57,-15.06 11.57,-15.06 11.57,-15.07 11.57,-15.05 11.57,-15.07 11.57,-15.06 11.57,-15.06 11.57,-15.06 11.57,-15.06 11.57,-15.06 11.57,-15.06 11.57,-15.06 11.57,-15.06 11.57,-15.06 11.57,-15.06 11.57,-15.06 11.57,-15.06 11.57,-15.07 11.57,-15.06 11.57,-15.06 11.57,-15.06 11.56,-15.06 11.58,-15.06 11.57,-15.06 11.57,-15.06 11.57,-15.06 11.57,-15.06 11.57,-15.06 11.57,-15.06 11.57,-15.07 11.57,-15.06 11.57,-15.06 11.56,-15.06 11.57,-15.06 11.58,-15.06 11.57,-15.06"
       style="fill:none;stroke:#bfbfbf;stroke-width:5.97758;stroke-linecap:butt;stroke-linejoin:miter;stroke-miterlimit:10;stroke-dasharray:none;stroke-opacity:1"
       transform="matrix(0.04233334,0,0,-0.04233334,-10.948377,379.13855)"
       clip-path="url(#clipPath8)" />
    <path
       id="path9"
       d="m 3645.54,5743.08 79.99,243.28 -1421.83,-619.69 1261.84,133.13 z"
       style="fill:#ff0000;fill-opacity:0.08;fill-rule:nonzero;stroke:#000000;stroke-width:1;stroke-linecap:butt;stroke-linejoin:miter;stroke-miterlimit:10;stroke-dasharray:none;stroke-opacity:1"
       transform="matrix(0.04233334,0,0,-0.04233334,-10.948377,379.13855)"
       clip-path="url(#clipPath10)" />
    <path
       id="path11"
       d="m 3725.59,5996.4 c 0,469.65 -380.73,850.39 -850.39,850.39 -469.66,0 -850.39,-380.74 -850.39,-850.39 0,-469.66 380.73,-850.39 850.39,-850.39 469.66,0 850.39,380.73 850.39,850.39 z"
       style="fill:none;stroke:#0000ff;stroke-width:5.97758;stroke-linecap:butt;stroke-linejoin:miter;stroke-miterlimit:10;stroke-dasharray:none;stroke-opacity:1"
       transform="matrix(0.04233334,0,0,-0.04233334,-10.948377,379.13855)"
       clip-path="url(#clipPath12)" />
    <path
       id="path13"
       d="m 4104.66,5015.67 c 0,469.66 -380.73,850.4 -850.39,850.4 -469.66,0 -850.4,-380.74 -850.4,-850.4 0,-469.66 380.74,-850.39 850.4,-850.39 469.66,0 850.39,380.73 850.39,850.39 z"
       style="fill:none;stroke:#0000ff;stroke-width:5.97758;stroke-linecap:butt;stroke-linejoin:miter;stroke-miterlimit:10;stroke-dasharray:none;stroke-opacity:1"
       transform="matrix(0.04233334,0,0,-0.04233334,-10.948377,379.13855)"
       clip-path="url(#clipPath14)" />
    <path
       id="path15"
       d="m 3655.85,5996.4 v 0 c 0,431.14 -349.51,780.65 -780.65,780.65 -431.14,0 -780.65,-349.51 -780.65,-780.65 0,-431.14 349.51,-780.65 780.65,-780.65 431.14,0 780.65,349.51 780.65,780.65 z"
       style="fill:none;stroke:#9ab8b4;stroke-width:5.97758;stroke-linecap:butt;stroke-linejoin:miter;stroke-miterlimit:10;stroke-dasharray:none;stroke-opacity:1"
       transform="matrix(0.04233334,0,0,-0.04233334,-10.948377,379.13855)"
       clip-path="url(#clipPath16)" />
    <path
       id="path17"
       d="M 2004.43,5253.68 4117.5,4851.29"
       style="fill:none;stroke:#000000;stroke-width:5.97758;stroke-linecap:butt;stroke-linejoin:miter;stroke-miterlimit:10;stroke-dasharray:none;stroke-opacity:1"
       transform="matrix(0.04233334,0,0,-0.04233334,-10.948377,379.13855)"
       clip-path="url(#clipPath18)" />
    <path
       id="path19"
       d="M 2004.43,5253.68 3425.22,4983.12"
       style="fill:none;stroke:#000000;stroke-width:5.97758;stroke-linecap:butt;stroke-linejoin:miter;stroke-miterlimit:10;stroke-dasharray:none;stroke-opacity:1"
       transform="matrix(0.04233334,0,0,-0.04233334,-10.948377,379.13855)"
       clip-path="url(#clipPath20)" />
    <path
       id="path21"
       d="m 3388.52,4961.49 185.87,565.24"
       style="fill:none;stroke:#000000;stroke-width:5.97758;stroke-linecap:butt;stroke-linejoin:miter;stroke-miterlimit:10;stroke-dasharray:none;stroke-opacity:1"
       transform="matrix(0.04233334,0,0,-0.04233334,-10.948377,379.13855)"
       clip-path="url(#clipPath22)" />
    <path
       id="path23"
       d="M 3725.53,5986.36 3565.54,5499.8"
       style="fill:none;stroke:#ff0000;stroke-width:5.97758;stroke-linecap:butt;stroke-linejoin:miter;stroke-miterlimit:10;stroke-dasharray:none;stroke-opacity:1"
       transform="matrix(0.04233334,0,0,-0.04233334,-10.948377,379.13855)"
       clip-path="url(#clipPath24)" />
    <path
       id="path25"
       d="m 2433.47,5150.45 -397.39,662.13"
       style="fill:none;stroke:#000000;stroke-width:5.97758;stroke-linecap:butt;stroke-linejoin:miter;stroke-miterlimit:10;stroke-dasharray:none;stroke-opacity:1"
       transform="matrix(0.04233334,0,0,-0.04233334,-10.948377,379.13855)"
       clip-path="url(#clipPath26)" />
    <path
       id="path27"
       d="m 2391.21,5168.58 1788.71,399.3"
       style="fill:none;stroke:#000000;stroke-width:5.97758;stroke-linecap:butt;stroke-linejoin:miter;stroke-miterlimit:10;stroke-dasharray:none;stroke-opacity:1"
       transform="matrix(0.04233334,0,0,-0.04233334,-10.948377,379.13855)"
       clip-path="url(#clipPath28)" />
    <path
       id="path29"
       d="M 3593.38,5494.5 2022.82,5793.58"
       style="fill:none;stroke:#000000;stroke-width:5.97758;stroke-linecap:butt;stroke-linejoin:miter;stroke-miterlimit:10;stroke-dasharray:none;stroke-opacity:1"
       transform="matrix(0.04233334,0,0,-0.04233334,-10.948377,379.13855)"
       clip-path="url(#clipPath30)" />
    <path
       id="path31"
       d="m 2329.69,5378 -323.4,-140.95"
       style="fill:none;stroke:#000000;stroke-width:5.97758;stroke-linecap:butt;stroke-linejoin:miter;stroke-miterlimit:10;stroke-dasharray:none;stroke-opacity:1"
       transform="matrix(0.04233334,0,0,-0.04233334,-10.948377,379.13855)"
       clip-path="url(#clipPath32)" />
    <path
       id="path33"
       d="m 2303.7,5366.67 1421.83,619.69"
       style="fill:none;stroke:#ff0000;stroke-width:5.97758;stroke-linecap:butt;stroke-linejoin:miter;stroke-miterlimit:10;stroke-dasharray:none;stroke-opacity:1"
       transform="matrix(0.04233334,0,0,-0.04233334,-10.948377,379.13855)"
       clip-path="url(#clipPath34)" />
    <path
       id="path35"
       d="m 4180.45,5564.68 -643.11,-67.85"
       style="fill:none;stroke:#000000;stroke-width:5.97758;stroke-linecap:butt;stroke-linejoin:miter;stroke-miterlimit:10;stroke-dasharray:none;stroke-opacity:1"
       transform="matrix(0.04233334,0,0,-0.04233334,-10.948377,379.13855)"
       clip-path="url(#clipPath36)" />
    <path
       id="path37"
       d="M 2303.7,5366.67 3565.54,5499.8"
       style="fill:none;stroke:#ff0000;stroke-width:5.97758;stroke-linecap:butt;stroke-linejoin:miter;stroke-miterlimit:10;stroke-dasharray:none;stroke-opacity:1"
       transform="matrix(0.04233334,0,0,-0.04233334,-10.948377,379.13855)"
       clip-path="url(#clipPath38)" />
    <path
       id="path39"
       d="m 3226.6,5009.5 817.23,182.43"
       style="fill:none;stroke:#000000;stroke-width:5.97758;stroke-linecap:butt;stroke-linejoin:miter;stroke-miterlimit:10;stroke-dasharray:none;stroke-opacity:1"
       transform="matrix(0.04233334,0,0,-0.04233334,-10.948377,379.13855)"
       clip-path="url(#clipPath40)" />
    <path
       id="path41"
       d="m 4095.82,4828.93 -159.31,713.66"
       style="fill:none;stroke:#000000;stroke-width:5.97758;stroke-linecap:butt;stroke-linejoin:miter;stroke-miterlimit:10;stroke-dasharray:none;stroke-opacity:1"
       transform="matrix(0.04233334,0,0,-0.04233334,-10.948377,379.13855)"
       clip-path="url(#clipPath42)" />
    <path
       id="path43"
       d="m -1.993625,0.0010625 c 0,1.1015625 0.890625,1.9921875 1.9921875,1.9921875 1.1015625,0 1.9921875,-0.890625 1.9921875,-1.9921875 0,-1.1015625 -0.890625,-1.9921875 -1.9921875,-1.9921875 -1.1015625,0 -1.9921875,0.890625 -1.9921875,1.9921875 z m 0,0"
       style="fill:#ffffff;fill-opacity:1;fill-rule:nonzero;stroke:none"
       aria-label="b"
       transform="matrix(0.42333331,0,0,0.42333331,75.08481,156.95755)"
       clip-path="url(#clipPath44)" />
    <g
       id="g44"
       aria-label="c&#10;A"
       transform="matrix(0.42333331,0,0,0.42333331,75.08481,156.95755)"
       clip-path="url(#clipPath47)">
      <path
         id="path45"
         d="m -1.7944063,0.0010625 c 0,-0.984375 0.8085938,-1.7929688 1.7929688,-1.7929688 0.984375,0 1.7929687,0.8085938 1.7929687,1.7929688 0,0.984375 -0.8085937,1.7929687 -1.7929687,1.7929687 -0.984375,0 -1.7929688,-0.8085937 -1.7929688,-1.7929687 z m -0.1992187,0 c 0,1.1015625 0.890625,1.9921875 1.9921875,1.9921875 1.1015625,0 1.9921875,-0.890625 1.9921875,-1.9921875 0,-1.1015625 -0.890625,-1.9921875 -1.9921875,-1.9921875 -1.1015625,0 -1.9921875,0.890625 -1.9921875,1.9921875 z m 0,0"
         style="fill:#000000;fill-opacity:1;fill-rule:nonzero;stroke:none" />
      <path
         id="path46"
         d="m -6.4906953,-3.8485469 -4.0664067,6.46875 c -0.398437,0.609375 -0.585937,0.7851563 -0.960937,0.8671875 l -0.222656,0.058594 v 0.328125 c 1.007812,-0.035156 1.007812,-0.035156 1.230468,-0.035156 0.199219,0 0.222657,0 1.1601567,0.035156 V 3.5694219 l -0.5625,-0.035156 c -0.1757817,-0.011719 -0.3398437,-0.1054687 -0.3398437,-0.2109375 0,-0.082031 0.07031,-0.234375 0.2812499,-0.5976562 l 1.1132813,-1.91015628 h 2.6835937 l 0.2695313,2.05078128 v 0.035156 c 0,0.011719 0.011719,0.046875 0.023437,0.09375 0.011719,0.09375 0.023437,0.1992188 0.023437,0.2460938 0,0.1757812 -0.1640625,0.2695312 -0.46875,0.2929687 l -0.4804688,0.035156 v 0.3046875 c 1.1132813,-0.035156 1.1132813,-0.035156 1.3359375,-0.035156 0.2109375,0 0.2109375,0 1.3242188,0.035156 V 3.5694219 l -0.28125,-0.035156 c -0.515625,-0.082031 -0.5273438,-0.082031 -0.609375,-0.5625 l -0.9492188,-6.8203125 z m -0.140625,1.125 0.3984375,3.15234377 h -2.3554688 z m 0,0"
         style="fill:#000000;fill-opacity:1;fill-rule:nonzero;stroke:none" />
    </g>
    <path
       id="path48"
       d="m -1.9909062,0.00117969 c 0,1.10156251 0.890625,1.99218751 1.99218745,1.99218751 1.10156255,0 1.99218755,-0.890625 1.99218755,-1.99218751 0,-1.10156249 -0.890625,-1.99218749 -1.99218755,-1.99218749 -1.10156245,0 -1.99218745,0.890625 -1.99218745,1.99218749 z m 0,0"
       style="fill:#ffffff;fill-opacity:1;fill-rule:nonzero;stroke:none"
       aria-label="b"
       transform="matrix(0.42333331,0,0,0.42333331,132.87362,167.9621)"
       clip-path="url(#clipPath49)" />
    <g
       id="g49"
       aria-label="c&#10;B"
       transform="matrix(0.42333331,0,0,0.42333331,132.87362,167.9621)"
       clip-path="url(#clipPath52)">
      <path
         id="path50"
         d="m -1.7916875,0.00117969 c 0,-0.984375 0.80859375,-1.79296879 1.79296875,-1.79296879 0.984375,0 1.79296875,0.80859379 1.79296875,1.79296879 0,0.984375 -0.80859375,1.79296871 -1.79296875,1.79296871 -0.984375,0 -1.79296875,-0.80859371 -1.79296875,-1.79296871 z m -0.1992187,0 c 0,1.10156251 0.890625,1.99218751 1.99218745,1.99218751 1.10156255,0 1.99218755,-0.890625 1.99218755,-1.99218751 0,-1.10156249 -0.890625,-1.99218749 -1.99218755,-1.99218749 -1.10156245,0 -1.99218745,0.890625 -1.99218745,1.99218749 z m 0,0"
         style="fill:#000000;fill-opacity:1;fill-rule:nonzero;stroke:none" />
      <path
         id="path51"
         d="m -2.1842656,3.8566484 0.5859375,0.023437 c 0.2578125,0.011719 0.375,0.09375 0.375,0.2929688 0,0.1523437 -0.035156,0.5039062 -0.09375,0.8320312 L -2.2662969,10.50118 c -0.046875,0.199218 -0.1757812,0.269531 -0.6328125,0.351562 l -0.058594,0.28125 0.4101562,-0.01172 c 0.2929688,-0.02344 0.4570313,-0.02344 0.5859375,-0.02344 0.1171875,0 0.3984375,0.01172 0.6914063,0.02344 l 0.39843748,0.01172 0.22265625,0.01172 c 0.19921875,0.01172 0.33984375,0.02344 0.43359375,0.02344 0.52734375,0 1.04296875,-0.152343 1.55859372,-0.46875 0.8671875,-0.503906 1.3476563,-1.2539058 1.3476563,-2.0742183 0,-0.46875 -0.1640625,-0.8320313 -0.4570313,-1.078125 C 1.9524531,7.3253984 1.6243281,7.2199297 0.87432813,7.1144609 1.4954219,6.9035234 1.7649531,6.7628984 2.1047969,6.4582109 c 0.5039062,-0.421875 0.75,-0.9375 0.75,-1.4882812 0,-0.9023438 -0.6328125,-1.4179688 -1.7226563,-1.4179688 -0.023437,0 -0.1289062,0 -0.29296872,0.011719 l -0.6796875,0.011719 c -0.140625,0.011719 -0.52734375,0.011719 -0.65625,0.011719 -0.2109375,0 -0.55078128,-0.011719 -1.07812498,-0.023437 l -0.5742188,-0.011719 z m 1.31249998,3.5273438 h 0.92578125 c 1.12499997,0 1.67578127,0.46875 1.67578127,1.4179687 0,1.1132813 -0.79687502,1.9218751 -1.88671877,1.9218751 -0.22265625,0 -0.5390625,-0.01172 -0.90234373,-0.03516 -0.058594,-0.01172 -0.1992188,-0.02344 -0.3632813,-0.03516 z m 0.59765625,-3.375 c 0.1171875,0 0.140625,-0.011719 0.375,-0.023437 0.22265625,-0.023437 0.375,-0.035156 0.50390625,-0.035156 0.87890622,0 1.31250002,0.3984375 1.31250002,1.21875 0,1.1367188 -0.8085938,1.828125 -2.15625002,1.828125 h -0.5625 z m 0,0"
         style="fill:#000000;fill-opacity:1;fill-rule:nonzero;stroke:none" />
    </g>
    <path
       id="path53"
       d="m -1.9914766,0.00123437 c 0,1.10156253 0.890625,1.99218753 1.9921875375,1.99218753 1.1015624625,0 1.9921874625,-0.890625 1.9921874625,-1.99218753 0,-1.10156247 -0.890625,-1.99218747 -1.9921874625,-1.99218747 -1.1015625375,0 -1.9921875375,0.890625 -1.9921875375,1.99218747 z m 0,0"
       style="fill:#ffffff;fill-opacity:1;fill-rule:nonzero;stroke:none"
       aria-label="b"
       transform="matrix(0.42333331,0,0,0.42333331,146.76572,125.71597)"
       clip-path="url(#clipPath54)" />
    <path
       id="path55"
       d="m -1.7922578,0.00123437 c 0,-0.984375 0.80859374,-1.79296877 1.7929687375,-1.79296877 0.9843750025,0 1.7929687625,0.80859377 1.7929687625,1.79296877 0,0.984375 -0.80859376,1.79296873 -1.7929687625,1.79296873 -0.9843749975,0 -1.7929687375,-0.80859373 -1.7929687375,-1.79296873 z m -0.1992188,0 c 0,1.10156253 0.890625,1.99218753 1.9921875375,1.99218753 1.1015624625,0 1.9921874625,-0.890625 1.9921874625,-1.99218753 0,-1.10156247 -0.890625,-1.99218747 -1.9921874625,-1.99218747 -1.1015625375,0 -1.9921875375,0.890625 -1.9921875375,1.99218747 z m 0,0"
       style="fill:#000000;fill-opacity:1;fill-rule:nonzero;stroke:none"
       aria-label="c"
       transform="matrix(0.42333331,0,0,0.42333331,146.76572,125.71597)"
       clip-path="url(#clipPath56)" />
    <path
       id="path57"
       d="m 1.1492422,-7.2423047 0.5976562,0.023437 c 0.2578125,0.011719 0.3867188,0.09375 0.3867188,0.2929688 0,0.1523437 -0.046875,0.4921875 -0.1054688,0.8320312 l -0.8085937,4.734375 c -0.1875,0.98437501 -0.1875,1.01953126 -0.63281251,1.05468751 l -0.4453125,0.0351563 -0.046875,0.3046875 0.45703125,-0.01171875 C 1.0086172,0.01160156 1.3484609,-1.171875e-4 1.5359609,-1.171875e-4 c 0.1875,0 0.5039063,0.0117187475 0.9375,0.0234374975 l 0.5859375,0.01171875 0.023437,-0.3046875 -0.703125,-0.0351563 c -0.28125,-0.0117188 -0.3984375,-0.09375 -0.3984375,-0.328125 0,-0.09375 0.011719,-0.17578125 0.046875,-0.38671866 l 0.9023438,-5.3085938 c 0,-0.011719 0.035156,-0.234375 0.09375,-0.4335937 0.011719,-0.058594 0.046875,-0.1640625 0.070312,-0.3046875 0.3984375,-0.070312 0.5742187,-0.09375 0.7851562,-0.09375 1.1015625,0 1.640625,0.4804687 1.640625,1.5 0,1.171875 -0.7851562,2.1328124 -1.7460937,2.1328124 -0.234375,0 -0.4570313,-0.046875 -0.8554688,-0.1992188 l 0.011719,0.328125 c 0.4101562,0.1992188 0.6328125,0.2578125 0.9492187,0.2578125 1.40625,0 2.6015625,-1.2773436 2.6015625,-2.765625 0,-1.1015625 -0.6914062,-1.6757812 -1.9804687,-1.640625 l -1.5117188,0.035156 -1.2304687,-0.023437 -0.5742188,-0.011719 z m 0,0"
       style="fill:#ff0000;fill-opacity:1;fill-rule:nonzero;stroke:none"
       aria-label="P"
       transform="matrix(0.42333331,0,0,0.42333331,147.98112,124.6115)"
       clip-path="url(#clipPath58)" />
    <path
       id="path59"
       d="m -1.9934688,0.00136719 c 0,1.10156251 0.890625,1.99218751 1.99218755,1.99218751 1.10156245,0 1.99218745,-0.890625 1.99218745,-1.99218751 0,-1.10156249 -0.890625,-1.99218749 -1.99218745,-1.99218749 -1.10156255,0 -1.99218755,0.890625 -1.99218755,1.99218749 z m 0,0"
       style="fill:#ffffff;fill-opacity:1;fill-rule:nonzero;stroke:none"
       aria-label="b"
       transform="matrix(0.42333331,0,0,0.42333331,91.450873,160.07413)"
       clip-path="url(#clipPath60)" />
    <g
       id="g60"
       aria-label="c&#10;F"
       transform="matrix(0.42333331,0,0,0.42333331,91.450873,160.07413)"
       clip-path="url(#clipPath63)">
      <path
         id="path61"
         d="m -1.79425,0.00136719 c 0,-0.984375 0.80859375,-1.79296879 1.79296875,-1.79296879 0.984375,0 1.79296875,0.80859379 1.79296875,1.79296879 0,0.984375 -0.80859375,1.79296871 -1.79296875,1.79296871 -0.984375,0 -1.79296875,-0.80859371 -1.79296875,-1.79296871 z m -0.1992188,0 c 0,1.10156251 0.890625,1.99218751 1.99218755,1.99218751 1.10156245,0 1.99218745,-0.890625 1.99218745,-1.99218751 0,-1.10156249 -0.890625,-1.99218749 -1.99218745,-1.99218749 -1.10156255,0 -1.99218755,0.890625 -1.99218755,1.99218749 z m 0,0"
         style="fill:#000000;fill-opacity:1;fill-rule:nonzero;stroke:none" />
      <path
         id="path62"
         d="m -5.2131953,3.4642578 1.1601562,-0.046875 c 0.6796875,0 1.1132813,0.09375 1.125,0.2578125 l 0.082031,0.9726563 h 0.2695312 c 0.023437,-0.6914063 0.1054688,-1.2421875 0.2226563,-1.6523438 -0.234375,-0.023437 -0.5390625,-0.035156 -0.7265625,-0.035156 l -0.4453125,0.011719 -1.8046875,0.023437 h -0.3164063 c -0.2695312,0 -0.703125,-0.011719 -1.125,-0.023437 l -0.5273437,-0.011719 -0.035156,0.3046875 0.609375,0.023437 c 0.2578125,0.011719 0.375,0.1054687 0.375,0.2929687 0,0.1523438 -0.035156,0.5039063 -0.09375,0.8320313 l -0.8203125,4.734375 c -0.1875,0.9960937 -0.1875,1.0078127 -0.6328125,1.0546877 l -0.3867187,0.03516 -0.046875,0.304688 0.375,-0.01172 c 0.4335937,-0.01172 0.7851562,-0.02344 1.0078125,-0.02344 0.1992187,0 0.515625,0.01172 0.9375,0.02344 l 0.5742187,0.01172 0.035156,-0.304688 -0.703125,-0.03516 c -0.2929688,-0.01172 -0.3984375,-0.09375 -0.3984375,-0.3164065 0,-0.070312 0.011719,-0.1875 0.023437,-0.234375 l 0.3984375,-2.4257812 h 1.2773437 c 0.2929688,0 0.6328125,0.011719 1.1484375,0.035156 h 0.2929688 l 0.1992187,-0.4804687 -0.035156,-0.082031 c -0.890625,0.046875 -1.546875,0.070312 -2.390625,0.070312 h -0.4101563 l 0.5039063,-2.9648437 c 0.035156,-0.1757813 0.046875,-0.2226563 0.09375,-0.3398438 z m 0,0"
         style="fill:#000000;fill-opacity:1;fill-rule:nonzero;stroke:none" />
    </g>
    <path
       id="path64"
       d="m -1.9927813,-1.484375e-4 c 0,1.1015625375 0.890625,1.9921875375 1.99218755,1.9921875375 1.10156245,0 1.99218745,-0.890625 1.99218745,-1.9921875375 0,-1.1015624625 -0.890625,-1.9921874625 -1.99218745,-1.9921874625 -1.10156255,0 -1.99218755,0.890625 -1.99218755,1.9921874625 z m 0,0"
       style="fill:#ffffff;fill-opacity:1;fill-rule:nonzero;stroke:none"
       aria-label="b"
       transform="matrix(0.42333331,0,0,0.42333331,75.86332,134.10179)"
       clip-path="url(#clipPath65)" />
    <g
       id="g65"
       aria-label="c&#10;E"
       transform="matrix(0.42333331,0,0,0.42333331,75.86332,134.10179)"
       clip-path="url(#clipPath68)">
      <path
         id="path66"
         d="m -1.7935625,-1.484375e-4 c 0,-0.9843750025 0.80859375,-1.7929687625 1.79296875,-1.7929687625 0.984375,0 1.79296875,0.80859376 1.79296875,1.7929687625 0,0.9843749975 -0.80859375,1.7929687375 -1.79296875,1.7929687375 -0.984375,0 -1.79296875,-0.80859374 -1.79296875,-1.7929687375 z m -0.1992188,0 c 0,1.1015625375 0.890625,1.9921875375 1.99218755,1.9921875375 1.10156245,0 1.99218745,-0.890625 1.99218745,-1.9921875375 0,-1.1015624625 -0.890625,-1.9921874625 -1.99218745,-1.9921874625 -1.10156255,0 -1.99218755,0.890625 -1.99218755,1.9921874625 z m 0,0"
         style="fill:#000000;fill-opacity:1;fill-rule:nonzero;stroke:none" />
      <path
         id="path67"
         d="m -8.0777422,0.07602344 h 1.2773438 c 0.2929687,0 0.6328125,0.01171875 1.1484375,0.03515625 l 0.2929687,0.0117188 0.1992188,-0.4921875 -0.035156,-0.0820313 c -0.890625,0.046875 -1.546875,0.0703125 -2.390625,0.0703125 h -0.4101562 l 0.4570312,-2.60156249 c 0.035156,-0.1757813 0.058594,-0.2578125 0.1054688,-0.3398438 l 0.5039062,-0.023437 c 0.3515625,-0.011719 0.703125,-0.023437 0.9492188,-0.023437 0.6679687,0 1.1132812,0.09375 1.125,0.2578125 l 0.09375,0.9726563 h 0.2578125 c 0.035156,-0.703125 0.1054687,-1.2421875 0.234375,-1.6523438 -0.234375,-0.023437 -0.5625,-0.035156 -0.7617188,-0.035156 -0.023437,0 -0.1523437,0 -0.4101562,0.011719 l -1.3125,0.011719 c -0.09375,0.011719 -0.7382813,0.011719 -0.84375,0.011719 -0.4101563,0 -0.703125,0 -1.2539063,-0.023437 l -0.4921875,-0.011719 -0.035156,0.3046875 0.5859375,0.023437 c 0.2695312,0.011719 0.3867187,0.09375 0.3867187,0.2929687 0,0.1523438 -0.046875,0.5039063 -0.1054687,0.8320313 l -0.9492188,5.4960937 c -0.035156,0.1992188 -0.1640625,0.2695313 -0.6445318,0.3515625 l -0.05859,0.28125 0.4453133,-0.011719 c 0.3398438,-0.011719 1.0195313,-0.023437 1.2304688,-0.023437 l 2.34375,0.035156 h 0.1171875 c 0.1523437,0 0.421875,-0.011719 0.7851562,-0.023437 l 0.3632813,-0.011719 0.035156,-0.3984375 c 0.023437,-0.2109375 0.082031,-0.5390625 0.1757813,-1.078125 l 0.058594,-0.28125 h -0.2929687 l -0.1757813,0.65625 c -0.1171875,0.3867187 -0.2109375,0.5273437 -0.4453125,0.5742187 -0.2226562,0.046875 -1.0195312,0.1054688 -1.6054687,0.1054688 -0.4453125,0 -0.6914063,-0.011719 -1.4414063,-0.082031 v -0.046875 c 0,-0.1523437 0.011719,-0.234375 0.023437,-0.328125 z m 0,0"
         style="fill:#000000;fill-opacity:1;fill-rule:nonzero;stroke:none" />
    </g>
    <path
       id="path69"
       d="m -1.9925781,-8.75e-4 c 0,1.1015625 0.890625,1.9921875 1.992187475,1.9921875 1.101562525,0 1.992187525,-0.890625 1.992187525,-1.9921875 0,-1.1015625 -0.890625,-1.9921875 -1.992187525,-1.9921875 -1.101562475,0 -1.992187475,0.890625 -1.992187475,1.9921875 z m 0,0"
       style="fill:#ffffff;fill-opacity:1;fill-rule:nonzero;stroke:none"
       aria-label="b"
       transform="matrix(0.42333331,0,0,0.42333331,164.83021,143.69282)"
       clip-path="url(#clipPath70)" />
    <g
       id="g70"
       aria-label="c&#10;C"
       transform="matrix(0.42333331,0,0,0.42333331,164.83021,143.69282)"
       clip-path="url(#clipPath73)">
      <path
         id="path71"
         d="m -1.7933594,-8.75e-4 c 0,-0.984375 0.80859378,-1.7929688 1.792968775,-1.7929688 0.984375005,0 1.792968725,0.8085938 1.792968725,1.7929688 0,0.984375 -0.80859372,1.7929687 -1.792968725,1.7929687 C -0.98476562,1.7920937 -1.7933594,0.9835 -1.7933594,-8.75e-4 Z m -0.1992187,0 c 0,1.1015625 0.890625,1.9921875 1.992187475,1.9921875 1.101562525,0 1.992187525,-0.890625 1.992187525,-1.9921875 0,-1.1015625 -0.890625,-1.9921875 -1.992187525,-1.9921875 -1.101562475,0 -1.992187475,0.890625 -1.992187475,1.9921875 z m 0,0"
         style="fill:#000000;fill-opacity:1;fill-rule:nonzero;stroke:none" />
      <path
         id="path72"
         d="M 2.7945313,-9.4666953 H 3.0875 c 0.058594,-0.6210937 0.140625,-1.0898437 0.2929688,-1.5937497 -0.8320313,-0.316407 -1.453125,-0.445313 -2.1210938,-0.445313 -0.90234375,0 -1.79296875,0.269531 -2.5546875,0.785156 -1.2773437,0.8554692 -1.9335937,2.1445317 -1.9335937,3.8203129 0,2.109375 1.171875,3.2929688 3.2460937,3.2929688 1.0546875,0 1.828125,-0.2578125 2.8125,-0.9257813 l 0.1054688,-0.3984375 -0.1054688,-0.070312 c -1.03125,0.6210938 -1.59375,0.8085938 -2.44921875,0.8085938 -1.71093745,0 -2.64843745,-1.0429688 -2.64843745,-2.9882813 0,-1.2070312 0.3632812,-2.2851562 1.03125,-2.9648444 0.51562495,-0.527344 1.21874995,-0.785156 2.0742187,-0.785156 0.7734375,0 1.3476563,0.152344 1.9570313,0.550781 z m 0,0"
         style="fill:#000000;fill-opacity:1;fill-rule:nonzero;stroke:none" />
    </g>
    <path
       id="path74"
       d="m -1.9915,-0.00144531 c 0,1.10156251 0.890625,1.99218751 1.9921875,1.99218751 1.1015625,0 1.9921875,-0.890625 1.9921875,-1.99218751 0,-1.10156249 -0.890625,-1.99218749 -1.9921875,-1.99218749 -1.1015625,0 -1.9921875,0.890625 -1.9921875,1.99218749 z m 0,0"
       style="fill:#ffffff;fill-opacity:1;fill-rule:nonzero;stroke:none"
       aria-label="b"
       transform="matrix(0.42333331,0,0,0.42333331,139.99281,146.31368)"
       clip-path="url(#clipPath75)" />
    <path
       id="path76"
       d="m -1.7922813,-0.00144531 c 0,-0.984375 0.8085938,-1.79296879 1.7929688,-1.79296879 0.984375,0 1.7929687,0.80859379 1.7929687,1.79296879 0,0.984375 -0.8085937,1.79296871 -1.7929687,1.79296871 -0.984375,0 -1.7929688,-0.80859371 -1.7929688,-1.79296871 z m -0.1992187,0 c 0,1.10156251 0.890625,1.99218751 1.9921875,1.99218751 1.1015625,0 1.9921875,-0.890625 1.9921875,-1.99218751 0,-1.10156249 -0.890625,-1.99218749 -1.9921875,-1.99218749 -1.1015625,0 -1.9921875,0.890625 -1.9921875,1.99218749 z m 0,0"
       style="fill:#000000;fill-opacity:1;fill-rule:nonzero;stroke:none"
       aria-label="c"
       transform="matrix(0.42333331,0,0,0.42333331,139.99281,146.31368)"
       clip-path="url(#clipPath77)" />
    <path
       id="path78"
       d="m 2.5886719,-7.5459375 -0.890625,0.035156 H 1.4402344 c -0.035156,0 -0.1992188,-0.011719 -0.44531252,-0.023437 L 0.81914063,-7.5459375 0.76054683,-7.24125 1.1472655,-7.217813 c 0.1875,0.011719 0.421875,0.082031 0.5390625,0.1875 0.1640625,0.1289062 0.3281251,0.328125 0.3281251,0.421875 0,0.011719 0,0.046875 -0.011719,0.070312 0,0.011719 0,0.035156 -0.011719,0.058594 -0.011719,0.082031 -0.011719,0.1640625 -0.023437,0.1992188 L 1.0066406,-1.1123438 C 0.86601563,-0.43265625 0.80742188,-0.350625 0.40898438,-0.30375 L 0.08085938,-0.2685937 0.02226563,0.03609375 1.2292969,9.375e-4 c 0.1289062,0 0.140625,0 1.2070312,0.03515625 L 2.4832031,-0.26859375 2.0261719,-0.30375 C 1.5925781,-0.3389063 1.4988281,-0.4209375 1.4988281,-0.78421875 c 0,-0.0820313 0,-0.2109375 0.023437,-0.32812505 l 0.8789063,-5.0625 3.6796875,6.2929688 h 0.5507812 l 1.03125,-6.0351563 C 7.8855469,-7.1475 7.9089844,-7.194375 8.3074219,-7.2178125 l 0.4101562,-0.023437 0.058594,-0.3046875 h -0.234375 l -0.9726563,0.035156 -0.9375,-0.035156 H 6.4207031 l -0.046875,0.3046875 0.5039063,0.023437 c 0.2929687,0.011719 0.3984375,0.082031 0.3984375,0.2578125 0,0.082031 -0.035156,0.3632812 -0.058594,0.5039062 l -0.8671875,5.3320313 z m 0,0"
       style="fill:#ff0000;fill-opacity:1;fill-rule:nonzero;stroke:none"
       aria-label="N"
       transform="matrix(0.42333331,0,0,0.42333331,136.18112,144.7537)"
       clip-path="url(#clipPath79)" />
    <path
       id="path80"
       d="m -1.9926562,3.515625e-4 c 0,1.1015625375 0.890625,1.9921875375 1.99218745,1.9921875375 1.10156255,0 1.99218755,-0.890625 1.99218755,-1.9921875375 0,-1.1015624625 -0.890625,-1.9921874625 -1.99218755,-1.9921874625 -1.10156245,0 -1.99218745,0.890625 -1.99218745,1.9921874625 z m 0,0"
       style="fill:#ffffff;fill-opacity:1;fill-rule:nonzero;stroke:none"
       aria-label="b"
       transform="matrix(0.42333331,0,0,0.42333331,110.76842,125.29094)"
       clip-path="url(#clipPath81)" />
    <g
       id="g81"
       aria-label="c&#10;O"
       transform="matrix(0.42333331,0,0,0.42333331,110.76842,125.29094)"
       clip-path="url(#clipPath84)">
      <path
         id="path82"
         d="m -1.7934375,3.515625e-4 c 0,-0.9843750025 0.80859375,-1.7929687625 1.79296875,-1.7929687625 0.984375,0 1.79296875,0.80859376 1.79296875,1.7929687625 C 1.7925,0.98472656 0.98390625,1.7933203 -4.6875e-4,1.7933203 c -0.984375,0 -1.79296875,-0.80859374 -1.79296875,-1.7929687375 z m -0.1992187,0 c 0,1.1015625375 0.890625,1.9921875375 1.99218745,1.9921875375 1.10156255,0 1.99218755,-0.890625 1.99218755,-1.9921875375 0,-1.1015624625 -0.890625,-1.9921874625 -1.99218755,-1.9921874625 -1.10156245,0 -1.99218745,0.890625 -1.99218745,1.9921874625 z m 0,0"
         style="fill:#000000;fill-opacity:1;fill-rule:nonzero;stroke:none" />
      <path
         id="path83"
         d="m 0.74367188,-11.507461 c -2.58984378,0 -4.48828128,1.9921876 -4.48828128,4.7343751 0,2.0625 1.03125,3.1640625 2.95312503,3.1640625 0.92578125,0 1.69921875,-0.2109375 2.40234377,-0.65625 1.3828125,-0.8554688 2.2265625,-2.4609375 2.2265625,-4.1835938 0,-1.9335938 -1.125,-3.0585938 -3.09375002,-3.0585938 z m -0.33984375,0.457031 c 0.52734375,0 1.05468747,0.128907 1.41796877,0.351563 0.7148437,0.410156 1.0546875,1.2304686 1.0546875,2.4257811 0,1.3828125 -0.4335938,2.6132812 -1.171875,3.375 -0.5390625,0.5390625 -1.24218752,0.8320312 -2.09765627,0.8320312 -1.57031253,0 -2.39062503,-0.9375 -2.39062503,-2.765625 0,-1.4179687 0.4453125,-2.6953125 1.1953125,-3.4453123 0.515625,-0.527344 1.16015628,-0.773438 1.99218753,-0.773438 z m 0,0"
         style="fill:#000000;fill-opacity:1;fill-rule:nonzero;stroke:none" />
    </g>
    <path
       id="path85"
       d="m -1.9907578,5.46875e-4 c 0,1.101562525 0.890625,1.992187525 1.99218749,1.992187525 1.10156251,0 1.99218751,-0.890625 1.99218751,-1.992187525 0,-1.101562475 -0.890625,-1.992187475 -1.99218751,-1.992187475 -1.10156249,0 -1.99218749,0.890625 -1.99218749,1.992187475 z m 0,0"
       style="fill:#ffffff;fill-opacity:1;fill-rule:nonzero;stroke:none"
       aria-label="b"
       transform="matrix(0.42333331,0,0,0.42333331,95.176632,159.24228)"
       clip-path="url(#clipPath86)" />
    <g
       id="g86"
       aria-label="c&#10;H"
       transform="matrix(0.42333331,0,0,0.42333331,95.176632,159.24228)"
       clip-path="url(#clipPath89)">
      <path
         id="path87"
         d="m -1.7915391,5.46875e-4 c 0,-0.984375005 0.80859379,-1.792968775 1.79296879,-1.792968775 0.984375,0 1.79296871,0.80859377 1.79296871,1.792968775 0,0.984374995 -0.80859371,1.792968725 -1.79296871,1.792968725 -0.984375,0 -1.79296879,-0.80859373 -1.79296879,-1.792968725 z m -0.1992187,0 c 0,1.101562525 0.890625,1.992187525 1.99218749,1.992187525 1.10156251,0 1.99218751,-0.890625 1.99218751,-1.992187525 0,-1.101562475 -0.890625,-1.992187475 -1.99218751,-1.992187475 -1.10156249,0 -1.99218749,0.890625 -1.99218749,1.992187475 z m 0,0"
         style="fill:#000000;fill-opacity:1;fill-rule:nonzero;stroke:none" />
      <path
         id="path88"
         d="M 1.2406875,6.9028906 1.6977188,4.4067969 C 1.7680313,3.9849219 1.8500625,3.9146094 2.2485,3.8911719 L 2.7055313,3.8560156 2.7406875,3.5513281 H 2.482875 L 1.4985,3.5864844 c -0.1757812,0 -0.375,0 -0.84375,-0.011719 l -0.69140625,-0.023437 -0.03515625,0.3046875 0.515625,0.023437 c 0.2578125,0.011719 0.375,0.09375 0.375,0.2929688 0,0.1523437 -0.0351563,0.4921875 -0.09375,0.8320312 l -0.80859375,4.734375 c -0.1875,0.9960941 -0.19921875,1.0078131 -0.6328125,1.0546881 l -0.44531245,0.03516 -0.046875,0.304687 0.4570312,-0.01172 c 0.52734375,-0.01172 0.7734375,-0.02344 0.984375,-0.02344 l 1.0546875,0.03516 h 0.2929688 l 0.023437,-0.304687 -0.5273438,-0.03516 C 0.78365575,10.770076 0.678187,10.699766 0.678187,10.465391 c 0,-0.09375 0.0117188,-0.175782 0.046875,-0.386719 L 1.1820938,7.3833594 H 1.8500625 C 2.52975,7.3716406 2.9867813,7.3599219 3.186,7.3599219 c 0.2109375,0 0.65625,0.011719 1.3476563,0.023437 H 5.201625 L 4.7563125,9.7388281 C 4.6625625,10.266172 4.59225,10.570859 4.5336563,10.641172 4.4867813,10.723203 4.3695938,10.770078 4.1235,10.793516 l -0.5390625,0.03516 -0.046875,0.304687 0.609375,-0.01172 c 0.4804688,-0.01172 0.8085938,-0.02344 0.9257813,-0.02344 0.1757812,0 0.515625,0.01172 0.984375,0.02344 l 0.4570312,0.01172 0.035156,-0.304687 -0.6328125,-0.03516 C 5.6352188,10.781797 5.52975,10.699766 5.52975,10.465391 c 0,-0.09375 0.011719,-0.199219 0.035156,-0.386719 L 6.5727188,4.4067969 C 6.65475,3.9849219 6.7133438,3.9263281 7.1235,3.8911719 L 7.5219375,3.8560156 7.5570938,3.5513281 H 7.3813125 l -0.9960937,0.035156 c -0.1640625,0 -0.3867188,0 -0.8671875,-0.011719 L 4.826625,3.5513281 4.7914688,3.8560156 5.3188125,3.8794531 c 0.2578125,0.011719 0.3867188,0.09375 0.3867188,0.2929688 0,0.1523437 -0.046875,0.5039062 -0.1054688,0.8320312 l -0.328125,1.8984375 z m 0,0"
         style="fill:#000000;fill-opacity:1;fill-rule:nonzero;stroke:none" />
    </g>
    <path
       id="path90"
       d="m -1.9920703,9.84375e-4 c 0,1.101562525 0.890625,1.992187525 1.9921874875,1.992187525 1.1015625125,0 1.9921875125,-0.890625 1.9921875125,-1.992187525 0,-1.101562475 -0.890625,-1.992187475 -1.9921875125,-1.992187475 -1.1015624875,0 -1.9921874875,0.890625 -1.9921874875,1.992187475 z m 0,0"
       style="fill:#ffffff;fill-opacity:1;fill-rule:nonzero;stroke:none"
       aria-label="b"
       transform="matrix(0.42333331,0,0,0.42333331,86.574922,151.94952)"
       clip-path="url(#clipPath91)" />
    <path
       id="path92"
       d="m -1.7928516,9.84375e-4 c 0,-0.984375005 0.80859379,-1.792968775 1.7929687875,-1.792968775 0.9843750025,0 1.7929687125,0.80859377 1.7929687125,1.792968775 C 1.7930859,0.98535937 0.98449219,1.7939531 1.171875e-4,1.7939531 -0.98425781,1.7939531 -1.7928516,0.98535937 -1.7928516,9.84375e-4 Z m -0.1992187,0 c 0,1.101562525 0.890625,1.992187525 1.9921874875,1.992187525 1.1015625125,0 1.9921875125,-0.890625 1.9921875125,-1.992187525 0,-1.101562475 -0.890625,-1.992187475 -1.9921875125,-1.992187475 -1.1015624875,0 -1.9921874875,0.890625 -1.9921874875,1.992187475 z m 0,0"
       style="fill:#000000;fill-opacity:1;fill-rule:nonzero;stroke:none"
       aria-label="c"
       transform="matrix(0.42333331,0,0,0.42333331,86.574922,151.94952)"
       clip-path="url(#clipPath93)" />
    <path
       id="path94"
       d="m 10.218797,-7.2414453 0.03516,-0.3046875 -0.3046874,0.011719 c -0.3046875,0.023437 -0.46875,0.023437 -0.609375,0.023437 H 9.0820781 l -0.6445312,-0.035156 -0.1757813,0.3398437 c -0.2929687,0.5507813 -0.5039062,0.9257813 -0.75,1.359375 l -2.6835937,4.6054688 -1.640625,-6.3046875 -0.3046875,0.011719 c -0.3046875,0.023437 -0.46875,0.023437 -0.609375,0.023437 H 2.0039531 l -0.6445312,-0.035156 -0.023437,0.3046875 0.28125,0.023437 c 0.5625,0.035156 0.7617187,0.1523437 0.7617187,0.4335937 0,0.070312 -0.011719,0.140625 -0.035156,0.2226563 l -1.58203127,5.5429687 c -0.17578125,0.57421879 -0.33984375,0.71484379 -0.9375,0.77343754 l -0.0351563,0.28125 0.43359375,-0.01171875 C 0.58598438,0.01246094 0.86723438,7.421875e-4 1.0195781,7.421875e-4 c 0.1523438,0 0.4335938,0.0117187525 0.8085938,0.0234375025 l 0.3867187,0.01171875 0.035156,-0.3046875 -0.421875,-0.0351563 c -0.3398438,-0.0234375 -0.5273438,-0.12890625 -0.5273438,-0.29296875 0,-0.1171875 0.023437,-0.2578125 0.070312,-0.44531249 l 1.359375,-5.0625 1.6171875,6.30468749 h 0.2578125 l 0.6210938,-1.13671875 c 0.8554687,-1.53515634 1.875,-3.30468744 2.6015625,-4.51171874 l 0.5742187,-0.9492187 -0.4101562,5.67187494 c -0.035156,0.3046875 -0.1640625,0.375 -0.7265625,0.421875 l -0.3398438,0.0351563 -0.035156,0.3046875 0.515625,-0.01171875 C 7.8633281,0.01246094 8.1914531,7.421875e-4 8.3555156,7.421875e-4 c 0.1757813,0 0.5039063,0.0117187525 0.9492188,0.0234375025 l 0.5039062,0.01171875 0.035156,-0.3046875 -0.4101563,-0.0351563 c -0.3867184,-0.0351562 -0.5859372,-0.1523437 -0.5859372,-0.3867187 l 0.011719,-0.39843754 0.4453125,-5.7890625 c 0.023437,-0.2109375 0.1875,-0.3164062 0.5039062,-0.3398437 z m 0,0"
       style="fill:#ff0000;fill-opacity:1;fill-rule:nonzero;stroke:none"
       aria-label="M"
       transform="matrix(0.42333331,0,0,0.42333331,83.083692,156.68112)"
       clip-path="url(#clipPath95)" />
    <path
       id="path96"
       d="m -1.9924297,-0.00135937 c 0,1.10156247 0.890625,1.99218747 1.9921875125,1.99218747 1.1015624875,0 1.9921874875,-0.890625 1.9921874875,-1.99218747 0,-1.10156253 -0.890625,-1.99218753 -1.9921874875,-1.99218753 -1.1015625125,0 -1.9921875125,0.890625 -1.9921875125,1.99218753 z m 0,0"
       style="fill:#ffffff;fill-opacity:1;fill-rule:nonzero;stroke:none"
       aria-label="b"
       transform="matrix(0.42333331,0,0,0.42333331,126.81572,166.80852)"
       clip-path="url(#clipPath97)" />
    <g
       id="g97"
       aria-label="c&#10;K"
       transform="matrix(0.42333331,0,0,0.42333331,126.81572,166.80852)"
       clip-path="url(#clipPath100)">
      <path
         id="path98"
         d="m -1.7932109,-0.00135937 c 0,-0.984375 0.80859371,-1.79296873 1.7929687125,-1.79296873 0.9843749975,0 1.7929687875,0.80859373 1.7929687875,1.79296873 0,0.984375 -0.80859379,1.79296877 -1.7929687875,1.79296877 -0.9843750025,0 -1.7929687125,-0.80859377 -1.7929687125,-1.79296877 z m -0.1992188,0 c 0,1.10156247 0.890625,1.99218747 1.9921875125,1.99218747 1.1015624875,0 1.9921874875,-0.890625 1.9921874875,-1.99218747 0,-1.10156253 -0.890625,-1.99218753 -1.9921874875,-1.99218753 -1.1015625125,0 -1.9921875125,0.890625 -1.9921875125,1.99218753 z m 0,0"
         style="fill:#000000;fill-opacity:1;fill-rule:nonzero;stroke:none" />
      <path
         id="path99"
         d="m -2.3879375,3.8541094 0.035156,-0.3046875 H -2.610594 l -0.984375,0.035156 c -0.1757813,0 -0.375,0 -0.84375,-0.011719 l -0.6914063,-0.023437 -0.035156,0.3046875 0.515625,0.023437 c 0.2578125,0.011719 0.375,0.09375 0.375,0.2929687 0,0.1523438 -0.023437,0.46875 -0.09375,0.8320313 l -0.796875,4.734375 c -0.1875,0.9960946 -0.1992188,1.0078126 -0.6328125,1.0546876 l -0.4453125,0.03516 -0.046875,0.304687 0.4570312,-0.01172 c 0.5273438,-0.01172 0.7734375,-0.02344 0.984375,-0.02344 l 1.0546875,0.03516 h 0.2929688 l 0.023437,-0.304687 -0.5273438,-0.03516 c -0.2929687,-0.02344 -0.3984375,-0.09375 -0.3984375,-0.316406 0,-0.07031 0.011719,-0.1875 0.023437,-0.234375 l 0.46875,-2.8593744 c 1.640625,1.875 1.8867188,2.1914063 3.03515625,3.7499994 l 0.75,-0.03516 c 0.3984375,0.01172 0.45703125,0.02344 0.73828125,0.03516 V 10.803328 H 0.401125 c -0.2578125,0 -0.46875,-0.128906 -0.703125,-0.421875 L -2.9855937,7.0884844 0.20190625,4.1119219 C 0.3776875,3.9478594 0.60034375,3.8423906 0.78784375,3.8423906 H 1.0222188 V 3.5494219 L 0.76440625,3.5611406 C 0.54175,3.5728594 0.36596875,3.5845781 0.2839375,3.5845781 c -0.1171875,0 -0.29296875,-0.011719 -0.515625,-0.023437 l -0.22265625,-0.011719 v 0.3164062 c 0,0.082031 -0.10546875,0.2226563 -0.41015625,0.5273438 L -2.2590312,5.8111406 C -2.7395,6.3033281 -3.1848125,6.7017656 -3.8879375,7.2408281 L -3.39575,4.4048906 c 0.070312,-0.4101562 0.1523438,-0.4921875 0.5507813,-0.515625 z m 0,0"
         style="fill:#000000;fill-opacity:1;fill-rule:nonzero;stroke:none" />
    </g>
    <path
       id="path101"
       d="m -1.9933203,-0.00115625 c 0,1.10156245 0.890625,1.99218745 1.99218749,1.99218745 1.10156251,0 1.99218751,-0.890625 1.99218751,-1.99218745 0,-1.10156255 -0.890625,-1.99218755 -1.99218751,-1.99218755 -1.10156249,0 -1.99218749,0.890625 -1.99218749,1.99218755 z m 0,0"
       style="fill:#ffffff;fill-opacity:1;fill-rule:nonzero;stroke:none"
       aria-label="b"
       transform="matrix(0.42333331,0,0,0.42333331,162.18014,173.54291)"
       clip-path="url(#clipPath102)" />
    <g
       id="g102"
       aria-label="c&#10;"
       transform="matrix(0.42333331,0,0,0.42333331,162.18014,173.54291)"
       clip-path="url(#clipPath105)">
      <path
         id="path103"
         d="m -1.7941016,-0.00115625 c 0,-0.984375 0.80859379,-1.79296875 1.79296879,-1.79296875 0.984375,0 1.79296871,0.80859375 1.79296871,1.79296875 0,0.984375 -0.80859371,1.79296875 -1.79296871,1.79296875 -0.984375,0 -1.79296879,-0.80859375 -1.79296879,-1.79296875 z m -0.1992187,0 c 0,1.10156245 0.890625,1.99218745 1.99218749,1.99218745 1.10156251,0 1.99218751,-0.890625 1.99218751,-1.99218745 0,-1.10156255 -0.890625,-1.99218755 -1.99218751,-1.99218755 -1.10156249,0 -1.99218749,0.890625 -1.99218749,1.99218755 z m 0,0"
         style="fill:#000000;fill-opacity:1;fill-rule:nonzero;stroke:none" />
      <path
         id="path104"
         d="m 4.0594141,8.6882969 c 0.2695312,-0.09375 0.3632812,-0.140625 0.6679687,-0.1875 0.082031,-0.9726563 0.1640625,-2.203125 0.3515625,-3.0585938 0.4335938,0.2460938 0.8320313,0.3398438 1.3945313,0.3398438 1.6640625,0 3.0234375,-1.1953125 3.0234375,-2.6835938 0,-0.5625 -0.1875,-0.8789062 -0.5742188,-1.1601562 C 8.6648828,1.7390781 8.4305078,1.6336094 7.9031641,1.5047031 v -0.046875 c 0.035156,-0.140625 0.1054687,-0.28125 0.28125,-0.50390623 0.035156,-0.046875 0.09375,-0.1171875 0.1289062,-0.15234375 0.7148438,-0.85546875 0.9140625,-1.1953125 0.9140625,-1.79296875 0,-0.59765627 -0.4453125,-1.10156247 -0.9960937,-1.10156247 -0.4453125,0 -1.2304688,0.3515625 -1.8632813,0.8320312 -0.6328125,0.46875002 -0.7851562,0.84375002 -0.9375,1.48828127 L 5.1375391,1.5984531 C 4.7742578,3.3211094 4.3992578,5.6179844 3.8953516,8.5945469 Z m 2.109375,-6.8203125 0.058594,0.1289062 c 0.3984375,-0.140625 0.5859375,-0.1757812 0.84375,-0.1757812 0.9492188,0 1.4882813,0.4335937 1.4882813,1.359375 0,0.6679687 -0.2578125,1.3125 -0.703125,1.7695312 -0.3046875,0.3164063 -0.6796875,0.46875 -1.1484375,0.46875 -0.8203125,0 -1.3242188,-0.4570312 -1.3242188,-1.171875 0,-0.1054687 0,-0.2226562 0.035156,-0.3984375 L 5.9226953,1.5281406 C 6.1687891,0.42657812 6.3562891,-0.41717188 6.4383203,-0.65154688 6.6492578,-1.2140469 7.1062891,-1.5421719 7.6453516,-1.5421719 c 0.5390625,0 0.9140625,0.375 0.9140625,0.93750002 0,0.48046875 -0.1640625,0.76171875 -0.7734375,1.60546878 -0.2929688,0.28125 -0.4921875,0.421875 -0.9375,0.421875 -0.09375,0 -0.1992188,0 -0.2460938,-0.011719 -0.070312,-0.011719 -0.1289062,-0.011719 -0.234375,-0.011719 z m 0,0"
         style="fill:#000000;fill-opacity:1;fill-rule:nonzero;stroke:none" />
    </g>
    <path
       id="path106"
       d="m -1.9916328,-0.00116406 c 0,1.10156246 0.890625,1.99218746 1.9921874875,1.99218746 1.1015625125,0 1.9921875125,-0.890625 1.9921875125,-1.99218746 0,-1.10156254 -0.890625,-1.99218754 -1.9921875125,-1.99218754 -1.1015624875,0 -1.9921874875,0.890625 -1.9921874875,1.99218754 z m 0,0"
       style="fill:#ffffff;fill-opacity:1;fill-rule:nonzero;stroke:none"
       aria-label="b"
       transform="matrix(0.42333331,0,0,0.42333331,155.9584,145.6736)"
       clip-path="url(#clipPath107)" />
    <g
       id="g107"
       aria-label="c&#10;"
       transform="matrix(0.42333331,0,0,0.42333331,155.9584,145.6736)"
       clip-path="url(#clipPath110)">
      <path
         id="path108"
         d="m -1.7924141,-0.00116406 c 0,-0.984375 0.80859379,-1.79296874 1.7929687875,-1.79296874 0.9843750025,0 1.7929687125,0.80859374 1.7929687125,1.79296874 0,0.984375 -0.80859371,1.79296876 -1.7929687125,1.79296876 -0.9843749975,0 -1.7929687875,-0.80859376 -1.7929687875,-1.79296876 z m -0.1992187,0 c 0,1.10156246 0.890625,1.99218746 1.9921874875,1.99218746 1.1015625125,0 1.9921875125,-0.890625 1.9921875125,-1.99218746 0,-1.10156254 -0.890625,-1.99218754 -1.9921875125,-1.99218754 -1.1015624875,0 -1.9921874875,0.890625 -1.9921874875,1.99218754 z m 0,0"
         style="fill:#000000;fill-opacity:1;fill-rule:nonzero;stroke:none" />
      <path
         id="path109"
         d="m -6.5355781,5.8318437 c 0.1289062,-0.4570312 0.4101562,-1.0195312 0.796875,-1.3710937 0.140625,-0.1289063 0.4570312,-0.3867188 0.7382812,-0.3867188 0.5742188,0 0.9140625,0.4453125 1.0078125,0.703125 0.421875,0.9726563 0.4804688,1.5234375 0.4804688,2.5078125 -0.140625,0.6445313 -0.3164063,1.2890625 -0.4453125,1.9335938 l -0.3984375,1.9921875 0.3515625,0.09375 c 0.1757812,-0.164063 0.3515625,-0.363281 0.5625,-0.480469 l 0.2929687,-1.8749998 c 0.082031,-0.75 0.375,-1.5820312 0.6328125,-2.1796875 0.3046875,-0.6796875 0.8554688,-1.3476562 1.0898438,-1.4179687 0.082031,-0.023437 0.1054687,-0.046875 0.1054687,-0.070312 0.023437,-0.1054688 0.070312,-0.3164063 0.38671878,-0.7617188 -0.11718748,-0.046875 -0.11718748,-0.210938 -0.18749998,-0.210938 -0.421875,0.1054688 -1.3007813,1.21875 -1.875,2.6015625 C -3.0199531,6.2302812 -3.0668281,5.913875 -3.1488594,5.58575 -3.3012031,4.9529375 -3.5121406,4.5427812 -3.7465156,4.2146562 c -0.4101563,-0.5625 -0.890625,-0.6328125 -1.2070313,-0.6328125 -0.28125,0 -0.7148437,0.082031 -1.265625,0.5859375 -0.2226562,0.1640625 -0.7851562,0.796875 -0.9492187,1.1835938 0.1640625,0.2109375 0.2226562,0.328125 0.328125,0.5390625 z m 0,0"
         style="fill:#000000;fill-opacity:1;fill-rule:nonzero;stroke:none" />
    </g>
    <path
       id="path111"
       d="M -1.9919766,8.046875e-4 C -1.9919766,1.1023672 -1.1013516,1.9929922 2.109375e-4,1.9929922 1.1017734,1.9929922 1.9923984,1.1023672 1.9923984,8.046875e-4 1.9923984,-1.1007578 1.1017734,-1.9913828 2.109375e-4,-1.9913828 -1.1013516,-1.9913828 -1.9919766,-1.1007578 -1.9919766,8.046875e-4 Z m 0,0"
       style="fill:#ffffff;fill-opacity:1;fill-rule:nonzero;stroke:none"
       aria-label="b"
       transform="matrix(0.42333331,0,0,0.42333331,159.06906,159.60804)"
       clip-path="url(#clipPath112)" />
    <g
       id="g112"
       aria-label="c&#10;"
       transform="matrix(0.42333331,0,0,0.42333331,159.06906,159.60804)"
       clip-path="url(#clipPath115)">
      <path
         id="path113"
         d="M -1.7927578,8.046875e-4 C -1.7927578,-0.98357031 -0.98416406,-1.7921641 2.109375e-4,-1.7921641 0.98458594,-1.7921641 1.7931797,-0.98357031 1.7931797,8.046875e-4 1.7931797,0.98517969 0.98458594,1.7937734 2.109375e-4,1.7937734 -0.98416406,1.7937734 -1.7927578,0.98517969 -1.7927578,8.046875e-4 Z m -0.1992188,0 C -1.9919766,1.1023672 -1.1013516,1.9929922 2.109375e-4,1.9929922 1.1017734,1.9929922 1.9923984,1.1023672 1.9923984,8.046875e-4 1.9923984,-1.1007578 1.1017734,-1.9913828 2.109375e-4,-1.9913828 -1.1013516,-1.9913828 -1.9919766,-1.1007578 -1.9919766,8.046875e-4 Z m 0,0"
         style="fill:#000000;fill-opacity:1;fill-rule:nonzero;stroke:none" />
      <path
         id="path114"
         d="m -1.2390469,3.7888906 c -0.1875,-0.140625 -1.0429687,-0.3046875 -1.3125,-0.3046875 -0.8671875,0 -1.2421875,0.4804688 -1.2421875,1.1367188 0,0.5859375 0.1640625,0.9375 0.5039063,1.6054687 -0.1054688,0.058594 -0.1992188,0.140625 -0.28125,0.1875 -0.5625,0.4921875 -1.125,1.03125 -1.5585938,1.6289063 -0.3164062,0.4335937 -0.7265625,1.0664062 -0.7265625,1.6757812 0,1.3593749 0.5039063,1.6406249 1.2070313,1.6406249 0.4804687,0 0.9023437,-0.222656 1.453125,-0.691406 0.09375,-0.08203 0.1875,-0.164063 0.2695312,-0.269531 0.5390625,-0.5390629 1.2304688,-1.3945316 1.2304688,-2.2500004 0,-0.9960937 -0.3984375,-1.5585937 -0.7734375,-2.0273437 -0.3867188,-0.4921875 -1.0195313,-1.2890625 -1.0195313,-1.7695313 0,-0.2460937 0.2109375,-0.515625 0.5859375,-0.515625 0.328125,0 0.5625,0.1289063 0.8085938,0.2460938 0.082031,0.046875 0.4101562,0.2578125 0.5625,0.5273437 l 0.1054687,-0.058594 c 0.046875,-0.1757813 0.09375,-0.4570313 0.2109375,-0.65625 z m -1.2890625,5.296875 c -0.3515625,0.8203125 -1.0664062,1.7343754 -1.6640625,1.7343754 -0.5273437,0 -0.8320312,-0.503907 -0.8320312,-1.2304691 0,-0.1640625 0.070312,-0.46875 0.1289062,-0.65625 0.2460938,-0.9023438 0.84375,-1.640625 1.59375,-2.2382813 0.046875,-0.046875 0.1171875,-0.09375 0.2109375,-0.140625 0.3164063,0.5390625 0.6796875,1.171875 0.6796875,1.9570313 0,0.1757812 -0.070312,0.4570312 -0.1171875,0.5742187 z m 0,0"
         style="fill:#000000;fill-opacity:1;fill-rule:nonzero;stroke:none" />
    </g>
    <path
       id="path116"
       d="m 5.6361641,-1.7803438 c 0,-0.070312 -0.058594,-0.082031 -0.1171875,-0.082031 -0.1875,0 -0.4570313,0.1640625 -0.46875,0.1640625 -0.234375,0.1523437 -0.28125,0.234375 -0.4101563,0.421875 -0.3515625,0.5390625 -0.8554687,0.92578125 -1.59375,0.92578125 -1.0195312,0 -1.9453125,-0.73828125 -1.9453125,-2.44921875 0,-1.0195313 0.4101563,-2.3671875 1.0078125,-3.2695313 0.5039063,-0.7265625 1.1132813,-1.3242187 2.2851563,-1.3242187 0.4335937,0 0.7148437,0.1640625 0.7148437,0.5859375 0,0.3984375 -0.421875,1.2070312 -0.5625,1.4296875 -0.070312,0.1289062 -0.070312,0.1523437 -0.070312,0.1757812 0,0.082031 0.058594,0.082031 0.1289063,0.082031 0.2226562,0 0.6445312,-0.2578125 0.7851562,-0.4335938 0.023437,-0.046875 0.6796875,-1.1601562 0.6796875,-1.7460937 0,-0.6210938 -0.515625,-0.7148438 -0.9257812,-0.7148438 -1.640625,0 -3,1.078125 -3.515625,1.7226563 -1.35937504,1.6289062 -1.48828129,3.3984375 -1.48828129,3.984375 0,1.6640625 0.83203125,2.578125 2.15624999,2.578125 1.828125,0 3.3398438,-1.7695313 3.3398433,-2.0507812 z m 0,0"
       style="fill:#0000ff;fill-opacity:1;fill-rule:nonzero;stroke:none"
       aria-label="C"
       transform="matrix(0.42333331,0,0,0.42333331,136.94608,99.316488)"
       clip-path="url(#clipPath117)" />
  </g>
</svg>
