<?xml version="1.0" encoding="UTF-8" standalone="no"?>
<!-- Created with Inkscape (http://www.inkscape.org/) -->

<svg
   width="153.29196mm"
   height="44.783161mm"
   viewBox="0 0 153.29196 44.783162"
   version="1.1"
   id="svg1"
   inkscape:version="1.4 (86a8ad7, 2024-10-11)"
   sodipodi:docname="figura10.svg"
   xmlns:inkscape="http://www.inkscape.org/namespaces/inkscape"
   xmlns:sodipodi="http://sodipodi.sourceforge.net/DTD/sodipodi-0.dtd"
   xmlns="http://www.w3.org/2000/svg"
   xmlns:svg="http://www.w3.org/2000/svg">
  <sodipodi:namedview
     id="namedview1"
     pagecolor="#ffffff"
     bordercolor="#000000"
     borderopacity="0.25"
     inkscape:showpageshadow="2"
     inkscape:pageopacity="0.0"
     inkscape:pagecheckerboard="0"
     inkscape:deskcolor="#d1d1d1"
     inkscape:document-units="mm"
     inkscape:zoom="0.98528339"
     inkscape:cx="229.37563"
     inkscape:cy="167.97198"
     inkscape:window-width="1366"
     inkscape:window-height="705"
     inkscape:window-x="-8"
     inkscape:window-y="-8"
     inkscape:window-maximized="1"
     inkscape:current-layer="layer1" />
  <defs
     id="defs1">
    <clipPath
       clipPathUnits="userSpaceOnUse"
       id="clipPath1594">
      <path
         d="M 433.036,683.565 H 70.929 V 576.849 h 362.107 z"
         id="path1594" />
    </clipPath>
    <clipPath
       clipPathUnits="userSpaceOnUse"
       id="clipPath1625">
      <path
         d="M 433.036,683.565 H 70.929 V 576.849 h 362.107 z"
         id="path1625" />
    </clipPath>
  </defs>
  <g
     inkscape:label="Capa 1"
     inkscape:groupmode="layer"
     id="layer1"
     transform="translate(-29.633252,-87.57709)">
    <path
       id="path1561"
       d="m 53.186248,101.31383 -6.1595,4.45347 2.346114,7.25297 h 7.626773 l 2.319866,-7.25297 z m 62.824782,-6.505784 1.14638,9.465734 4.64016,8.48063 6.23994,2.02608 M 53.186248,130.51283 74.812231,114.78049 66.5458,89.341543 H 39.773355 l -8.266429,25.438947 z m 9.519496,-35.704784 1.14681,9.465734 4.639733,8.48063 6.240356,2.02608 M 39.800025,89.4478 l 3.866303,5.280236 9.43991,1.679364 9.626176,-1.653116 3.706706,-5.279814 m 2.053167,23.35954 -8.692726,4.05298 -6.693323,7.04004 0.0271,6.45329 m 6.719571,-13.49333 -2.933277,-3.9463 m -14.453026,-8.66691 4.560146,1.4406 m -9.013189,6.98627 4.346363,-8.42687 1.25349,-9.545744 m 2.986616,22.132714 2.799504,-3.92006 m 3.733799,10.95967 -6.613313,-7.03961 -8.693573,-4.1601 -6.079489,1.99982 m 32.132268,-10.42669 -4.639733,1.49352 m -6.026573,-9.306136 v 4.906436 m 53.278608,29.14523 21.62556,-15.73234 -8.266,-25.438947 H 93.078639 L 84.811786,114.78049 Z M 93.104886,89.4478 l 3.866304,5.280236 9.43991,1.679364 9.62617,-1.653116 3.70714,-5.279814 m 2.05316,23.35954 -8.69315,4.05298 -6.69332,7.04004 0.0267,6.45329 m 0.0538,-29.06649 -6.16034,4.45347 2.34653,7.25297 h 7.62635 l 2.32029,-7.25297 z m 6.66581,15.57316 -2.93243,-3.9463 m -14.453446,-8.66691 4.559726,1.4406 m -9.012345,6.98627 4.345939,-8.42687 1.25349,-9.545744 m 2.986617,22.132714 2.799499,-3.92006 m 3.73338,10.95967 -6.613312,-7.03961 -8.692726,-4.1601 -6.079913,1.99982 m 32.132271,-10.42669 -4.63931,1.49352 m -6.02658,-9.306136 v 4.906436 m 53.01107,29.14523 21.62598,-15.73234 -8.266,-25.438947 H 146.1173 l -8.26686,25.438947 z m 9.51992,-35.704784 1.14766,9.465734 4.63846,8.48063 6.24035,2.02608 m -34.93261,-25.33269 3.86758,5.280236 9.43905,1.679364 9.62661,-1.653116 3.70628,-5.279814 m 2.05274,23.35954 -8.69316,4.05298 -6.69247,7.04004 0.0271,6.45329 m 0.0524,-29.06649 -6.15949,4.45347 2.34611,7.25297 h 7.62762 l 2.31944,-7.25297 z m 6.66623,15.57316 -2.93285,-3.9463 m -14.45175,-8.66691 4.55888,1.4406 m -9.01319,6.98627 4.34679,-8.42687 1.25264,-9.545744 m 2.98661,22.132714 2.79993,-3.92006 m 3.73422,10.95967 -6.61374,-7.03961 -8.69314,-4.1601 -6.07865,1.99982 m 32.13143,-10.42669 -4.63973,1.49352 m -6.02616,-9.306136 v 4.906436"
       style="fill:none;stroke:#231f20;stroke-width:0.211667;stroke-linecap:butt;stroke-linejoin:miter;stroke-miterlimit:10;stroke-dasharray:none;stroke-opacity:1" />
    <path
       id="path1562"
       d="m 150.51058,104.22806 c 0,1.00075 -0.81195,1.81314 -1.81314,1.81314 -1.00034,0 -1.81314,-0.81239 -1.81314,-1.81314 0,-1.00076 0.8128,-1.81314 1.81314,-1.81314 1.00119,0 1.81314,0.81238 1.81314,1.81314"
       style="fill:#ffffff;fill-opacity:1;fill-rule:evenodd;stroke:none;stroke-width:0.423334" />
    <path
       id="path1563"
       d="m 150.51058,104.22806 c 0,1.00075 -0.81195,1.81314 -1.81314,1.81314 -1.00034,0 -1.81314,-0.81239 -1.81314,-1.81314 0,-1.00076 0.8128,-1.81314 1.81314,-1.81314 1.00119,0 1.81314,0.81238 1.81314,1.81314 z"
       style="fill:none;stroke:#231f20;stroke-width:0.211667;stroke-linecap:butt;stroke-linejoin:miter;stroke-miterlimit:10;stroke-dasharray:none;stroke-opacity:1" />
    <path
       id="path1564"
       d="m 155.23582,105.80328 c 0,1.00034 -0.81323,1.81314 -1.81356,1.81314 -1.00202,0 -1.81398,-0.8128 -1.81398,-1.81314 0,-1.00075 0.81196,-1.81398 1.81398,-1.81398 1.00033,0 1.81356,0.81323 1.81356,1.81398"
       style="fill:#ffffff;fill-opacity:1;fill-rule:evenodd;stroke:none;stroke-width:0.423334" />
    <path
       id="path1565"
       d="m 155.23582,105.80328 c 0,1.00034 -0.81323,1.81314 -1.81356,1.81314 -1.00202,0 -1.81398,-0.8128 -1.81398,-1.81314 0,-1.00075 0.81196,-1.81398 1.81398,-1.81398 1.00033,0 1.81356,0.81323 1.81356,1.81398 z"
       style="fill:none;stroke:#231f20;stroke-width:0.211667;stroke-linecap:butt;stroke-linejoin:miter;stroke-miterlimit:10;stroke-dasharray:none;stroke-opacity:1" />
    <path
       id="path1566"
       d="m 154.67618,116.82645 c 0,1.00077 -0.81238,1.81356 -1.81229,1.81356 -1.0016,0 -1.81356,-0.81279 -1.81356,-1.81356 0,-1.00075 0.81196,-1.81312 1.81356,-1.81312 0.99991,0 1.81229,0.81237 1.81229,1.81312"
       style="fill:#ffffff;fill-opacity:1;fill-rule:evenodd;stroke:none;stroke-width:0.423334" />
    <path
       id="path1567"
       d="m 154.67618,116.82645 c 0,1.00077 -0.81238,1.81356 -1.81229,1.81356 -1.0016,0 -1.81356,-0.81279 -1.81356,-1.81356 0,-1.00075 0.81196,-1.81312 1.81356,-1.81312 0.99991,0 1.81229,0.81237 1.81229,1.81312 z"
       style="fill:none;stroke:#231f20;stroke-width:0.211667;stroke-linecap:butt;stroke-linejoin:miter;stroke-miterlimit:10;stroke-dasharray:none;stroke-opacity:1" />
    <path
       id="path1568"
       d="m 161.28059,101.38326 c 0,1.00076 -0.81279,1.81314 -1.81356,1.81314 -1.00033,0 -1.81356,-0.81238 -1.81356,-1.81314 0,-1.00118 0.81323,-1.813137 1.81356,-1.813137 1.00077,0 1.81356,0.811957 1.81356,1.813137"
       style="fill:#ffffff;fill-opacity:1;fill-rule:evenodd;stroke:none;stroke-width:0.423334" />
    <path
       id="path1569"
       d="m 161.28059,101.38326 c 0,1.00076 -0.81279,1.81314 -1.81356,1.81314 -1.00033,0 -1.81356,-0.81238 -1.81356,-1.81314 0,-1.00118 0.81323,-1.813137 1.81356,-1.813137 1.00077,0 1.81356,0.811957 1.81356,1.813137 z"
       style="fill:none;stroke:#231f20;stroke-width:0.211667;stroke-linecap:butt;stroke-linejoin:miter;stroke-miterlimit:10;stroke-dasharray:none;stroke-opacity:1" />
    <path
       id="path1570"
       d="m 167.37617,105.70083 c 0,1.00161 -0.81195,1.81356 -1.8127,1.81356 -1.00161,0 -1.81356,-0.81195 -1.81356,-1.81356 0,-1.00075 0.81195,-1.8127 1.81356,-1.8127 1.00075,0 1.8127,0.81195 1.8127,1.8127"
       style="fill:#ffffff;fill-opacity:1;fill-rule:evenodd;stroke:none;stroke-width:0.423334" />
    <path
       id="path1571"
       d="m 167.37617,105.70083 c 0,1.00161 -0.81195,1.81356 -1.8127,1.81356 -1.00161,0 -1.81356,-0.81195 -1.81356,-1.81356 0,-1.00075 0.81195,-1.8127 1.81356,-1.8127 1.00075,0 1.8127,0.81195 1.8127,1.8127 z"
       style="fill:none;stroke:#231f20;stroke-width:0.211667;stroke-linecap:butt;stroke-linejoin:miter;stroke-miterlimit:10;stroke-dasharray:none;stroke-opacity:1" />
    <path
       id="path1572"
       d="m 165.03938,112.96608 c 0,1.00076 -0.81196,1.81314 -1.81272,1.81314 -1.00075,0 -1.81356,-0.81238 -1.81356,-1.81314 0,-1.00161 0.81281,-1.81356 1.81356,-1.81356 1.00076,0 1.81272,0.81195 1.81272,1.81356"
       style="fill:#ffffff;fill-opacity:1;fill-rule:evenodd;stroke:none;stroke-width:0.423334" />
    <path
       id="path1573"
       d="m 165.03938,112.96608 c 0,1.00076 -0.81196,1.81314 -1.81272,1.81314 -1.00075,0 -1.81356,-0.81238 -1.81356,-1.81314 0,-1.00161 0.81281,-1.81356 1.81356,-1.81356 1.00076,0 1.81272,0.81195 1.81272,1.81356 z"
       style="fill:none;stroke:#231f20;stroke-width:0.211667;stroke-linecap:butt;stroke-linejoin:miter;stroke-miterlimit:10;stroke-dasharray:none;stroke-opacity:1" />
    <path
       id="path1574"
       d="m 139.7414,114.74408 c 0,1.00077 -0.81238,1.81271 -1.81313,1.81271 -1.00118,0 -1.81314,-0.81194 -1.81314,-1.81271 0,-1.00118 0.81196,-1.81356 1.81314,-1.81356 1.00075,0 1.81313,0.81238 1.81313,1.81356"
       style="fill:#ffffff;fill-opacity:1;fill-rule:evenodd;stroke:none;stroke-width:0.423334" />
    <path
       id="path1575"
       d="m 139.7414,114.74408 c 0,1.00077 -0.81238,1.81271 -1.81313,1.81271 -1.00118,0 -1.81314,-0.81194 -1.81314,-1.81271 0,-1.00118 0.81196,-1.81356 1.81314,-1.81356 1.00075,0 1.81313,0.81238 1.81313,1.81356 z"
       style="fill:none;stroke:#231f20;stroke-width:0.211667;stroke-linecap:butt;stroke-linejoin:miter;stroke-miterlimit:10;stroke-dasharray:none;stroke-opacity:1" />
    <path
       id="path1576"
       d="m 146.0914,112.71209 c 0,1.00033 -0.81279,1.8127 -1.81356,1.8127 -1.00076,0 -1.81272,-0.81237 -1.81272,-1.8127 0,-1.00119 0.81196,-1.81356 1.81272,-1.81356 1.00077,0 1.81356,0.81237 1.81356,1.81356"
       style="fill:#ffffff;fill-opacity:1;fill-rule:evenodd;stroke:none;stroke-width:0.423334" />
    <path
       id="path1577"
       d="m 146.0914,112.71209 c 0,1.00033 -0.81279,1.8127 -1.81356,1.8127 -1.00076,0 -1.81272,-0.81237 -1.81272,-1.8127 0,-1.00119 0.81196,-1.81356 1.81272,-1.81356 1.00077,0 1.81356,0.81237 1.81356,1.81356 z"
       style="fill:none;stroke:#231f20;stroke-width:0.211667;stroke-linecap:butt;stroke-linejoin:miter;stroke-miterlimit:10;stroke-dasharray:none;stroke-opacity:1" />
    <path
       id="path1578"
       d="m 161.17858,123.83685 c 0,1.00119 -0.81195,1.81314 -1.8123,1.81314 -1.00118,0 -1.8144,-0.81195 -1.8144,-1.81314 0,-1.00075 0.81322,-1.81312 1.8144,-1.81312 1.00035,0 1.8123,0.81237 1.8123,1.81312"
       style="fill:#ffffff;fill-opacity:1;fill-rule:evenodd;stroke:none;stroke-width:0.423334" />
    <path
       id="path1579"
       d="m 161.17858,123.83685 c 0,1.00119 -0.81195,1.81314 -1.8123,1.81314 -1.00118,0 -1.8144,-0.81195 -1.8144,-1.81314 0,-1.00075 0.81322,-1.81312 1.8144,-1.81312 1.00035,0 1.8123,0.81237 1.8123,1.81312 z"
       style="fill:none;stroke:#231f20;stroke-width:0.211667;stroke-linecap:butt;stroke-linejoin:miter;stroke-miterlimit:10;stroke-dasharray:none;stroke-opacity:1" />
    <path
       id="path1580"
       d="m 167.88502,116.82645 c 0,1.00077 -0.81279,1.81356 -1.81398,1.81356 -1.00076,0 -1.81356,-0.81279 -1.81356,-1.81356 0,-1.00075 0.8128,-1.81312 1.81356,-1.81312 1.00119,0 1.81398,0.81237 1.81398,1.81312"
       style="fill:#ffffff;fill-opacity:1;fill-rule:evenodd;stroke:none;stroke-width:0.423334" />
    <path
       id="path1581"
       d="m 167.88502,116.82645 c 0,1.00077 -0.81279,1.81356 -1.81398,1.81356 -1.00076,0 -1.81356,-0.81279 -1.81356,-1.81356 0,-1.00075 0.8128,-1.81312 1.81356,-1.81312 1.00119,0 1.81398,0.81237 1.81398,1.81312 z"
       style="fill:none;stroke:#231f20;stroke-width:0.211667;stroke-linecap:butt;stroke-linejoin:miter;stroke-miterlimit:10;stroke-dasharray:none;stroke-opacity:1" />
    <path
       id="path1582"
       d="m 174.48902,89.49606 c 0,1.000761 -0.81322,1.813137 -1.81356,1.813137 -1.00075,0 -1.81356,-0.812376 -1.81356,-1.813137 0,-1.00076 0.81281,-1.813136 1.81356,-1.813136 1.00034,0 1.81356,0.812376 1.81356,1.813136"
       style="fill:#ffffff;fill-opacity:1;fill-rule:evenodd;stroke:none;stroke-width:0.423334" />
    <path
       id="path1583"
       d="m 174.48902,89.49606 c 0,1.000761 -0.81322,1.813137 -1.81356,1.813137 -1.00075,0 -1.81356,-0.812376 -1.81356,-1.813137 0,-1.00076 0.81281,-1.813136 1.81356,-1.813136 1.00034,0 1.81356,0.812376 1.81356,1.813136 z"
       style="fill:none;stroke:#231f20;stroke-width:0.211667;stroke-linecap:butt;stroke-linejoin:miter;stroke-miterlimit:10;stroke-dasharray:none;stroke-opacity:1" />
    <path
       id="path1584"
       d="m 161.28059,96.456083 c 0,1.00076 -0.81279,1.813136 -1.81356,1.813136 -1.00033,0 -1.81356,-0.812376 -1.81356,-1.813136 0,-1.001606 0.81323,-1.813982 1.81356,-1.813982 1.00077,0 1.81356,0.812376 1.81356,1.813982"
       style="fill:#ffffff;fill-opacity:1;fill-rule:evenodd;stroke:none;stroke-width:0.423334" />
    <path
       id="path1585"
       d="m 161.28059,96.456083 c 0,1.00076 -0.81279,1.813136 -1.81356,1.813136 -1.00033,0 -1.81356,-0.812376 -1.81356,-1.813136 0,-1.001606 0.81323,-1.813982 1.81356,-1.813982 1.00077,0 1.81356,0.812376 1.81356,1.813982 z"
       style="fill:none;stroke:#231f20;stroke-width:0.211667;stroke-linecap:butt;stroke-linejoin:miter;stroke-miterlimit:10;stroke-dasharray:none;stroke-opacity:1" />
    <path
       id="path1586"
       d="m 147.91978,89.49606 c 0,1.000761 -0.81195,1.813137 -1.81272,1.813137 -1.00076,0 -1.81398,-0.812376 -1.81398,-1.813137 0,-1.00076 0.81322,-1.813136 1.81398,-1.813136 1.00077,0 1.81272,0.812376 1.81272,1.813136"
       style="fill:#ffffff;fill-opacity:1;fill-rule:evenodd;stroke:none;stroke-width:0.423334" />
    <path
       id="path1587"
       d="m 147.91978,89.49606 c 0,1.000761 -0.81195,1.813137 -1.81272,1.813137 -1.00076,0 -1.81398,-0.812376 -1.81398,-1.813137 0,-1.00076 0.81322,-1.813136 1.81398,-1.813136 1.00077,0 1.81272,0.812376 1.81272,1.813136 z"
       style="fill:none;stroke:#231f20;stroke-width:0.211667;stroke-linecap:butt;stroke-linejoin:miter;stroke-miterlimit:10;stroke-dasharray:none;stroke-opacity:1" />
    <path
       id="path1588"
       d="m 176.57097,112.71209 c 0,1.00033 -0.81194,1.8127 -1.81229,1.8127 -1.0016,0 -1.81398,-0.81237 -1.81398,-1.8127 0,-1.00119 0.81238,-1.81356 1.81398,-1.81356 1.00035,0 1.81229,0.81237 1.81229,1.81356"
       style="fill:#ffffff;fill-opacity:1;fill-rule:evenodd;stroke:none;stroke-width:0.423334" />
    <path
       id="path1589"
       d="m 176.57097,112.71209 c 0,1.00033 -0.81194,1.8127 -1.81229,1.8127 -1.0016,0 -1.81398,-0.81237 -1.81398,-1.8127 0,-1.00119 0.81238,-1.81356 1.81398,-1.81356 1.00035,0 1.81229,0.81237 1.81229,1.81356 z"
       style="fill:none;stroke:#231f20;stroke-width:0.211667;stroke-linecap:butt;stroke-linejoin:miter;stroke-miterlimit:10;stroke-dasharray:none;stroke-opacity:1" />
    <path
       id="path1590"
       d="m 170.72939,94.83006 c 0,1.000759 -0.81321,1.81356 -1.8127,1.81356 -1.00161,0 -1.81356,-0.812801 -1.81356,-1.81356 0,-1.00076 0.81195,-1.813136 1.81356,-1.813136 0.99949,0 1.8127,0.812376 1.8127,1.813136"
       style="fill:#ffffff;fill-opacity:1;fill-rule:evenodd;stroke:none;stroke-width:0.423334" />
    <path
       id="path1591"
       d="m 170.72939,94.83006 c 0,1.000759 -0.81321,1.81356 -1.8127,1.81356 -1.00161,0 -1.81356,-0.812801 -1.81356,-1.81356 0,-1.00076 0.81195,-1.813136 1.81356,-1.813136 0.99949,0 1.8127,0.812376 1.8127,1.813136 z"
       style="fill:none;stroke:#231f20;stroke-width:0.211667;stroke-linecap:butt;stroke-linejoin:miter;stroke-miterlimit:10;stroke-dasharray:none;stroke-opacity:1" />
    <path
       id="path1592"
       d="m 182.81937,114.69329 c 0,1.00075 -0.81194,1.8127 -1.81271,1.8127 -1.00076,0 -1.81356,-0.81195 -1.81356,-1.8127 0,-1.00162 0.8128,-1.81356 1.81356,-1.81356 1.00077,0 1.81271,0.81194 1.81271,1.81356"
       style="fill:#ffffff;fill-opacity:1;fill-rule:evenodd;stroke:none;stroke-width:0.423334" />
    <path
       id="path1593"
       d="m 432.786,619.511 c 0,-2.364 -1.918,-4.282 -4.282,-4.282 -2.364,0 -4.284,1.918 -4.284,4.282 0,2.366 1.92,4.284 4.284,4.284 2.364,0 4.282,-1.918 4.282,-4.284 z"
       style="fill:none;stroke:#231f20;stroke-width:0.5;stroke-linecap:butt;stroke-linejoin:miter;stroke-miterlimit:10;stroke-dasharray:none;stroke-opacity:1"
       transform="matrix(0.42333331,0,0,-0.42333331,-0.39335605,376.95293)"
       clip-path="url(#clipPath1594)" />
    <path
       id="path1595"
       d="m 97.475379,104.22806 c 0,1.00075 -0.812377,1.81314 -1.813136,1.81314 -1.001184,0 -1.81356,-0.81239 -1.81356,-1.81314 0,-1.00076 0.812376,-1.81314 1.81356,-1.81314 1.000759,0 1.813136,0.81238 1.813136,1.81314"
       style="fill:#ffffff;fill-opacity:1;fill-rule:evenodd;stroke:none;stroke-width:0.423334" />
    <path
       id="path1596"
       d="m 97.475379,104.22806 c 0,1.00075 -0.812377,1.81314 -1.813136,1.81314 -1.001184,0 -1.81356,-0.81239 -1.81356,-1.81314 0,-1.00076 0.812376,-1.81314 1.81356,-1.81314 1.000759,0 1.813136,0.81238 1.813136,1.81314 z"
       style="fill:none;stroke:#231f20;stroke-width:0.211667;stroke-linecap:butt;stroke-linejoin:miter;stroke-miterlimit:10;stroke-dasharray:none;stroke-opacity:1" />
    <path
       id="path1597"
       d="m 102.19978,105.80328 c 0,1.00034 -0.81195,1.81314 -1.81314,1.81314 -1.000758,0 -1.813135,-0.8128 -1.813135,-1.81314 0,-1.00075 0.812377,-1.81398 1.813135,-1.81398 1.00119,0 1.81314,0.81323 1.81314,1.81398"
       style="fill:#ffffff;fill-opacity:1;fill-rule:evenodd;stroke:none;stroke-width:0.423334" />
    <path
       id="path1598"
       d="m 102.19978,105.80328 c 0,1.00034 -0.81195,1.81314 -1.81314,1.81314 -1.000758,0 -1.813135,-0.8128 -1.813135,-1.81314 0,-1.00075 0.812377,-1.81398 1.813135,-1.81398 1.00119,0 1.81314,0.81323 1.81314,1.81398 z"
       style="fill:none;stroke:#231f20;stroke-width:0.211667;stroke-linecap:butt;stroke-linejoin:miter;stroke-miterlimit:10;stroke-dasharray:none;stroke-opacity:1" />
    <path
       id="path1599"
       d="m 108.2454,101.38326 c 0,1.00076 -0.8128,1.81314 -1.81313,1.81314 -1.00161,0 -1.81356,-0.81238 -1.81356,-1.81314 0,-1.00118 0.81195,-1.813137 1.81356,-1.813137 1.00033,0 1.81313,0.811957 1.81313,1.813137"
       style="fill:#ffffff;fill-opacity:1;fill-rule:evenodd;stroke:none;stroke-width:0.423334" />
    <path
       id="path1600"
       d="m 108.2454,101.38326 c 0,1.00076 -0.8128,1.81314 -1.81313,1.81314 -1.00161,0 -1.81356,-0.81238 -1.81356,-1.81314 0,-1.00118 0.81195,-1.813137 1.81356,-1.813137 1.00033,0 1.81313,0.811957 1.81313,1.813137 z"
       style="fill:none;stroke:#231f20;stroke-width:0.211667;stroke-linecap:butt;stroke-linejoin:miter;stroke-miterlimit:10;stroke-dasharray:none;stroke-opacity:1" />
    <path
       id="path1601"
       d="m 114.34141,105.70083 c 0,1.00161 -0.81239,1.81356 -1.81314,1.81356 -1.00119,0 -1.81356,-0.81195 -1.81356,-1.81356 0,-1.00075 0.81237,-1.8127 1.81356,-1.8127 1.00075,0 1.81314,0.81195 1.81314,1.8127"
       style="fill:#ffffff;fill-opacity:1;fill-rule:evenodd;stroke:none;stroke-width:0.423334" />
    <path
       id="path1602"
       d="m 114.34141,105.70083 c 0,1.00161 -0.81239,1.81356 -1.81314,1.81356 -1.00119,0 -1.81356,-0.81195 -1.81356,-1.81356 0,-1.00075 0.81237,-1.8127 1.81356,-1.8127 1.00075,0 1.81314,0.81195 1.81314,1.8127 z"
       style="fill:none;stroke:#231f20;stroke-width:0.211667;stroke-linecap:butt;stroke-linejoin:miter;stroke-miterlimit:10;stroke-dasharray:none;stroke-opacity:1" />
    <path
       id="path1603"
       d="m 112.00502,112.96608 c 0,1.00076 -0.81279,1.81314 -1.81356,1.81314 -1.00118,0 -1.81356,-0.81238 -1.81356,-1.81314 0,-1.00161 0.81238,-1.81356 1.81356,-1.81356 1.00077,0 1.81356,0.81195 1.81356,1.81356"
       style="fill:#ffffff;fill-opacity:1;fill-rule:evenodd;stroke:none;stroke-width:0.423334" />
    <path
       id="path1604"
       d="m 112.00502,112.96608 c 0,1.00076 -0.81279,1.81314 -1.81356,1.81314 -1.00118,0 -1.81356,-0.81238 -1.81356,-1.81314 0,-1.00161 0.81238,-1.81356 1.81356,-1.81356 1.00077,0 1.81356,0.81195 1.81356,1.81356 z"
       style="fill:none;stroke:#231f20;stroke-width:0.211667;stroke-linecap:butt;stroke-linejoin:miter;stroke-miterlimit:10;stroke-dasharray:none;stroke-opacity:1" />
    <path
       id="path1605"
       d="m 86.70578,114.74408 c 0,1.00077 -0.811954,1.81271 -1.813136,1.81271 -1.000761,0 -1.81356,-0.81194 -1.81356,-1.81271 0,-1.00118 0.812799,-1.81356 1.81356,-1.81356 1.001182,0 1.813136,0.81238 1.813136,1.81356"
       style="fill:#ffffff;fill-opacity:1;fill-rule:evenodd;stroke:none;stroke-width:0.423334" />
    <path
       id="path1606"
       d="m 86.70578,114.74408 c 0,1.00077 -0.811954,1.81271 -1.813136,1.81271 -1.000761,0 -1.81356,-0.81194 -1.81356,-1.81271 0,-1.00118 0.812799,-1.81356 1.81356,-1.81356 1.001182,0 1.813136,0.81238 1.813136,1.81356 z"
       style="fill:none;stroke:#231f20;stroke-width:0.211667;stroke-linecap:butt;stroke-linejoin:miter;stroke-miterlimit:10;stroke-dasharray:none;stroke-opacity:1" />
    <path
       id="path1607"
       d="m 114.84898,116.82645 c 0,1.00077 -0.81196,1.81356 -1.81314,1.81356 -1.00076,0 -1.81313,-0.81279 -1.81313,-1.81356 0,-1.00075 0.81237,-1.81312 1.81313,-1.81312 1.00118,0 1.81314,0.81237 1.81314,1.81312"
       style="fill:#ffffff;fill-opacity:1;fill-rule:evenodd;stroke:none;stroke-width:0.423334" />
    <path
       id="path1608"
       d="m 114.84898,116.82645 c 0,1.00077 -0.81196,1.81356 -1.81314,1.81356 -1.00076,0 -1.81313,-0.81279 -1.81313,-1.81356 0,-1.00075 0.81237,-1.81312 1.81313,-1.81312 1.00118,0 1.81314,0.81237 1.81314,1.81312 z"
       style="fill:none;stroke:#231f20;stroke-width:0.211667;stroke-linecap:butt;stroke-linejoin:miter;stroke-miterlimit:10;stroke-dasharray:none;stroke-opacity:1" />
    <path
       id="path1609"
       d="m 94.884579,89.49606 c 0,1.000761 -0.811953,1.813137 -1.813136,1.813137 -1.000761,0 -1.81356,-0.812376 -1.81356,-1.813137 0,-1.00076 0.812799,-1.813136 1.81356,-1.813136 1.001183,0 1.813136,0.812376 1.813136,1.813136"
       style="fill:#ffffff;fill-opacity:1;fill-rule:evenodd;stroke:none;stroke-width:0.423334" />
    <path
       id="path1610"
       d="m 94.884579,89.49606 c 0,1.000761 -0.811953,1.813137 -1.813136,1.813137 -1.000761,0 -1.81356,-0.812376 -1.81356,-1.813137 0,-1.00076 0.812799,-1.813136 1.81356,-1.813136 1.001183,0 1.813136,0.812376 1.813136,1.813136 z"
       style="fill:none;stroke:#231f20;stroke-width:0.211667;stroke-linecap:butt;stroke-linejoin:miter;stroke-miterlimit:10;stroke-dasharray:none;stroke-opacity:1" />
    <path
       id="path1611"
       d="m 123.5362,112.71209 c 0,1.00033 -0.81237,1.8127 -1.81271,1.8127 -1.00203,0 -1.81441,-0.81237 -1.81441,-1.8127 0,-1.00119 0.81238,-1.81356 1.81441,-1.81356 1.00034,0 1.81271,0.81237 1.81271,1.81356"
       style="fill:#ffffff;fill-opacity:1;fill-rule:evenodd;stroke:none;stroke-width:0.423334" />
    <path
       id="path1612"
       d="m 123.5362,112.71209 c 0,1.00033 -0.81237,1.8127 -1.81271,1.8127 -1.00203,0 -1.81441,-0.81237 -1.81441,-1.8127 0,-1.00119 0.81238,-1.81356 1.81441,-1.81356 1.00034,0 1.81271,0.81237 1.81271,1.81356 z"
       style="fill:none;stroke:#231f20;stroke-width:0.211667;stroke-linecap:butt;stroke-linejoin:miter;stroke-miterlimit:10;stroke-dasharray:none;stroke-opacity:1" />
    <path
       id="path1613"
       d="m 129.78502,114.69329 c 0,1.00075 -0.81279,1.8127 -1.81398,1.8127 -1.00076,0 -1.81356,-0.81195 -1.81356,-1.8127 0,-1.00162 0.8128,-1.81356 1.81356,-1.81356 1.00119,0 1.81398,0.81194 1.81398,1.81356"
       style="fill:#ffffff;fill-opacity:1;fill-rule:evenodd;stroke:none;stroke-width:0.423334" />
    <path
       id="path1614"
       d="m 129.78502,114.69329 c 0,1.00075 -0.81279,1.8127 -1.81398,1.8127 -1.00076,0 -1.81356,-0.81195 -1.81356,-1.8127 0,-1.00162 0.8128,-1.81356 1.81356,-1.81356 1.00119,0 1.81398,0.81194 1.81398,1.81356 z"
       style="fill:none;stroke:#231f20;stroke-width:0.211667;stroke-linecap:butt;stroke-linejoin:miter;stroke-miterlimit:10;stroke-dasharray:none;stroke-opacity:1" />
    <path
       id="path1615"
       d="m 48.911005,105.80328 c 0,1.00034 -0.8128,1.81314 -1.81356,1.81314 -1.001183,0 -1.813137,-0.8128 -1.813137,-1.81314 0,-1.00075 0.811954,-1.81398 1.813137,-1.81398 1.00076,0 1.81356,0.81323 1.81356,1.81398"
       style="fill:#ffffff;fill-opacity:1;fill-rule:evenodd;stroke:none;stroke-width:0.423334" />
    <path
       id="path1616"
       d="m 48.911005,105.80328 c 0,1.00034 -0.8128,1.81314 -1.81356,1.81314 -1.001183,0 -1.813137,-0.8128 -1.813137,-1.81314 0,-1.00075 0.811954,-1.81398 1.813137,-1.81398 1.00076,0 1.81356,0.81323 1.81356,1.81398 z"
       style="fill:none;stroke:#231f20;stroke-width:0.211667;stroke-linecap:butt;stroke-linejoin:miter;stroke-miterlimit:10;stroke-dasharray:none;stroke-opacity:1" />
    <path
       id="path1617"
       d="m 54.955782,101.38326 c 0,1.00076 -0.812378,1.81314 -1.813137,1.81314 -1.001184,0 -1.813137,-0.81238 -1.813137,-1.81314 0,-1.00118 0.811953,-1.813137 1.813137,-1.813137 1.000759,0 1.813137,0.811957 1.813137,1.813137"
       style="fill:#ffffff;fill-opacity:1;fill-rule:evenodd;stroke:none;stroke-width:0.423334" />
    <path
       id="path1618"
       d="m 54.955782,101.38326 c 0,1.00076 -0.812378,1.81314 -1.813137,1.81314 -1.001184,0 -1.813137,-0.81238 -1.813137,-1.81314 0,-1.00118 0.811953,-1.813137 1.813137,-1.813137 1.000759,0 1.813137,0.811957 1.813137,1.813137 z"
       style="fill:none;stroke:#231f20;stroke-width:0.211667;stroke-linecap:butt;stroke-linejoin:miter;stroke-miterlimit:10;stroke-dasharray:none;stroke-opacity:1" />
    <path
       id="path1619"
       d="m 61.000981,105.70083 c 0,1.00161 -0.812376,1.81356 -1.81356,1.81356 -1.000337,0 -1.813137,-0.81195 -1.813137,-1.81356 0,-1.00075 0.8128,-1.8127 1.813137,-1.8127 1.001184,0 1.81356,0.81195 1.81356,1.8127"
       style="fill:#ffffff;fill-opacity:1;fill-rule:evenodd;stroke:none;stroke-width:0.423334" />
    <path
       id="path1620"
       d="m 61.000981,105.70083 c 0,1.00161 -0.812376,1.81356 -1.81356,1.81356 -1.000337,0 -1.813137,-0.81195 -1.813137,-1.81356 0,-1.00075 0.8128,-1.8127 1.813137,-1.8127 1.001184,0 1.81356,0.81195 1.81356,1.8127 z"
       style="fill:none;stroke:#231f20;stroke-width:0.211667;stroke-linecap:butt;stroke-linejoin:miter;stroke-miterlimit:10;stroke-dasharray:none;stroke-opacity:1" />
    <path
       id="path1621"
       d="m 58.664181,112.96608 c 0,1.00076 -0.812377,1.81314 -1.813136,1.81314 -1.001184,0 -1.813137,-0.81238 -1.813137,-1.81314 0,-1.00161 0.811953,-1.81356 1.813137,-1.81356 1.000759,0 1.813136,0.81195 1.813136,1.81356"
       style="fill:#ffffff;fill-opacity:1;fill-rule:evenodd;stroke:none;stroke-width:0.423334" />
    <path
       id="path1622"
       d="m 58.664181,112.96608 c 0,1.00076 -0.812377,1.81314 -1.813136,1.81314 -1.001184,0 -1.813137,-0.81238 -1.813137,-1.81314 0,-1.00161 0.811953,-1.81356 1.813137,-1.81356 1.000759,0 1.813136,0.81195 1.813136,1.81356 z"
       style="fill:none;stroke:#231f20;stroke-width:0.211667;stroke-linecap:butt;stroke-linejoin:miter;stroke-miterlimit:10;stroke-dasharray:none;stroke-opacity:1" />
    <path
       id="path1623"
       d="m 33.365782,114.74408 c 0,1.00077 -0.812377,1.81271 -1.813136,1.81271 -1.00076,0 -1.81356,-0.81194 -1.81356,-1.81271 0,-1.00118 0.8128,-1.81356 1.81356,-1.81356 1.000759,0 1.813136,0.81238 1.813136,1.81356"
       style="fill:#ffffff;fill-opacity:1;fill-rule:evenodd;stroke:none;stroke-width:0.423334" />
    <path
       id="path1624"
       d="m 79.746,619.391 c 0,-2.364 -1.919,-4.282 -4.283,-4.282 -2.364,0 -4.284,1.918 -4.284,4.282 0,2.365 1.92,4.284 4.284,4.284 2.364,0 4.283,-1.919 4.283,-4.284 z"
       style="fill:none;stroke:#231f20;stroke-width:0.5;stroke-linecap:butt;stroke-linejoin:miter;stroke-miterlimit:10;stroke-dasharray:none;stroke-opacity:1"
       transform="matrix(0.42333331,0,0,-0.42333331,-0.39335605,376.95293)"
       clip-path="url(#clipPath1625)" />
    <path
       id="path1626"
       d="m 39.766582,112.71209 c 0,1.00033 -0.812377,1.8127 -1.81356,1.8127 -1.00076,0 -1.812714,-0.81237 -1.812714,-1.8127 0,-1.00119 0.811954,-1.81356 1.812714,-1.81356 1.001183,0 1.81356,0.81237 1.81356,1.81356"
       style="fill:#ffffff;fill-opacity:1;fill-rule:evenodd;stroke:none;stroke-width:0.423334" />
    <path
       id="path1627"
       d="m 39.766582,112.71209 c 0,1.00033 -0.812377,1.8127 -1.81356,1.8127 -1.00076,0 -1.812714,-0.81237 -1.812714,-1.8127 0,-1.00119 0.811954,-1.81356 1.812714,-1.81356 1.001183,0 1.81356,0.81237 1.81356,1.81356 z"
       style="fill:none;stroke:#231f20;stroke-width:0.211667;stroke-linecap:butt;stroke-linejoin:miter;stroke-miterlimit:10;stroke-dasharray:none;stroke-opacity:1" />
    <path
       id="path1628"
       d="m 54.854605,123.83685 c 0,1.00119 -0.8128,1.81314 -1.813984,1.81314 -1.00076,0 -1.813136,-0.81195 -1.813136,-1.81314 0,-1.00075 0.812376,-1.81312 1.813136,-1.81312 1.001184,0 1.813984,0.81237 1.813984,1.81312"
       style="fill:#ffffff;fill-opacity:1;fill-rule:evenodd;stroke:none;stroke-width:0.423334" />
    <path
       id="path1629"
       d="m 54.854605,123.83685 c 0,1.00119 -0.8128,1.81314 -1.813984,1.81314 -1.00076,0 -1.813136,-0.81195 -1.813136,-1.81314 0,-1.00075 0.812376,-1.81312 1.813136,-1.81312 1.001184,0 1.813984,0.81237 1.813984,1.81312 z"
       style="fill:none;stroke:#231f20;stroke-width:0.211667;stroke-linecap:butt;stroke-linejoin:miter;stroke-miterlimit:10;stroke-dasharray:none;stroke-opacity:1" />
    <path
       id="path1630"
       d="m 108.1946,130.33968 c 0,1.00076 -0.8128,1.81314 -1.81356,1.81314 -1.00118,0 -1.81313,-0.81238 -1.81313,-1.81314 0,-1.00161 0.81195,-1.81356 1.81313,-1.81356 1.00076,0 1.81356,0.81195 1.81356,1.81356"
       style="fill:#ffffff;fill-opacity:1;fill-rule:evenodd;stroke:none;stroke-width:0.423334" />
    <path
       id="path1631"
       d="m 108.1946,130.33968 c 0,1.00076 -0.8128,1.81314 -1.81356,1.81314 -1.00118,0 -1.81313,-0.81238 -1.81313,-1.81314 0,-1.00161 0.81195,-1.81356 1.81313,-1.81356 1.00076,0 1.81356,0.81195 1.81356,1.81356 z"
       style="fill:none;stroke:#231f20;stroke-width:0.211667;stroke-linecap:butt;stroke-linejoin:miter;stroke-miterlimit:10;stroke-dasharray:none;stroke-opacity:1" />
    <path
       id="path1632"
       d="m 98.695003,94.779683 c 0,1.00076 -0.812801,1.813136 -1.81356,1.813136 -1.001184,0 -1.813137,-0.812376 -1.813137,-1.813136 0,-1.001183 0.811953,-1.813982 1.813137,-1.813982 1.000759,0 1.81356,0.812799 1.81356,1.813982"
       style="fill:#ffffff;fill-opacity:1;fill-rule:evenodd;stroke:none;stroke-width:0.423334" />
    <path
       id="path1633"
       d="m 98.695003,94.779683 c 0,1.00076 -0.812801,1.813136 -1.81356,1.813136 -1.001184,0 -1.813137,-0.812376 -1.813137,-1.813136 0,-1.001183 0.811953,-1.813982 1.813137,-1.813982 1.000759,0 1.81356,0.812799 1.81356,1.813982 z"
       style="fill:none;stroke:#231f20;stroke-width:0.211667;stroke-linecap:butt;stroke-linejoin:miter;stroke-miterlimit:10;stroke-dasharray:none;stroke-opacity:1" />
    <path
       id="path1634"
       d="m 54.955782,130.44128 c 0,1.00033 -0.812378,1.81314 -1.813137,1.81314 -1.001184,0 -1.813137,-0.81281 -1.813137,-1.81314 0,-1.00076 0.811953,-1.81356 1.813137,-1.81356 1.000759,0 1.813137,0.8128 1.813137,1.81356"
       style="fill:#ffffff;fill-opacity:1;fill-rule:evenodd;stroke:none;stroke-width:0.423334" />
    <path
       id="path1635"
       d="m 54.955782,130.44128 c 0,1.00033 -0.812378,1.81314 -1.813137,1.81314 -1.001184,0 -1.813137,-0.81281 -1.813137,-1.81314 0,-1.00076 0.811953,-1.81356 1.813137,-1.81356 1.000759,0 1.813137,0.8128 1.813137,1.81356 z"
       style="fill:none;stroke:#231f20;stroke-width:0.211667;stroke-linecap:butt;stroke-linejoin:miter;stroke-miterlimit:10;stroke-dasharray:none;stroke-opacity:1" />
    <path
       style="font-style:italic;font-size:4.65667px;font-family:'Palatino Linotype';-inkscape-font-specification:'Palatino Linotype Italic';stroke-width:0.0423334;stroke-linejoin:round"
       d="m 40.745945,122.25138 0.05684,0.0432 q -0.106867,0.4502 -0.243293,1.10277 l -0.268304,1.28241 q -0.06367,0.32742 -0.07958,0.46384 -0.0045,0.0432 -0.0045,0.0887 0,0.10914 0.06367,0.10914 0.0864,0 0.361529,-0.21828 l 0.02501,0.007 0.02274,0.0523 -0.0068,0.0296 q -0.21146,0.18417 -0.416099,0.31605 -0.204639,0.1296 -0.291042,0.1296 -0.04775,0 -0.07958,-0.0523 -0.02956,-0.05 -0.02956,-0.15234 0,-0.0841 0.03183,-0.25239 0.03411,-0.17054 0.122783,-0.54116 l -0.01137,-0.002 q -0.245566,0.41382 -0.586631,0.70714 -0.338791,0.29331 -0.529787,0.29331 -0.06821,0 -0.115962,-0.0478 -0.04775,-0.0477 -0.07731,-0.17508 -0.02956,-0.12733 -0.02956,-0.2683 0,-0.19327 0.06367,-0.49341 0.06367,-0.30013 0.161438,-0.51841 0.09777,-0.22056 0.19327,-0.33197 0.09777,-0.11142 0.259209,-0.22056 0.161437,-0.10914 0.277399,-0.15689 0.118236,-0.0477 0.241019,-0.0477 0.131879,0 0.381993,0.0568 l 0.118235,-0.68895 q 0.01819,-0.0864 0.01819,-0.14553 0,-0.05 -0.03638,-0.0705 -0.03411,-0.0205 -0.125057,-0.0205 l -0.190996,-0.002 -0.01819,-0.0182 0.0068,-0.0568 0.01819,-0.0205 q 0.425194,-0.0682 0.716236,-0.17963 z m -0.550251,1.46431 q -0.213734,-0.11142 -0.44111,-0.11142 -0.140974,0 -0.22965,0.0318 -0.0864,0.0296 -0.131879,0.075 -0.0432,0.0455 -0.115962,0.19782 -0.07049,0.15007 -0.138699,0.37062 -0.06821,0.21828 -0.106867,0.43202 -0.03638,0.21146 -0.03638,0.40928 0,0.12278 0.02501,0.17053 0.02501,0.0478 0.07731,0.0478 0.0864,0 0.245566,-0.10005 0.241019,-0.15461 0.432016,-0.41382 0.190996,-0.25921 0.286494,-0.55253 0.0432,-0.13415 0.134152,-0.55707 z"
       id="text1"
       aria-label="d" />
    <path
       style="font-style:italic;font-size:4.65667px;font-family:'Palatino Linotype';-inkscape-font-specification:'Palatino Linotype Italic';stroke-width:0.0423334;stroke-linejoin:round"
       d="m 44.762246,108.57366 0.01592,0.0614 -0.0091,0.0273 q -0.47749,0.41155 -0.650297,0.41155 -0.113688,0 -0.113688,-0.14552 0,-0.0705 0.01364,-0.17736 0.01592,-0.10914 0.04547,-0.23874 l 0.05684,-0.24329 0.03411,-0.13416 -0.01364,-0.007 q -0.338791,0.48204 -0.63438,0.72306 -0.293316,0.24102 -0.411552,0.24102 -0.159163,0 -0.159163,-0.38882 0,-0.24329 0.07276,-0.55252 0.07503,-0.30923 0.181901,-0.57299 0.106867,-0.26376 0.170533,-0.34561 0.06594,-0.0841 0.216007,-0.191 0.152343,-0.10686 0.284221,-0.16371 0.131878,-0.0568 0.293316,-0.0568 0.197817,0 0.420646,0.0819 l 0.145521,-0.0864 0.05002,0.0409 q -0.0068,0.0341 -0.0955,0.34106 l -0.104593,0.38654 -0.05685,0.2251 q -0.06139,0.24102 -0.113688,0.50478 -0.0523,0.26148 -0.0523,0.35698 0,0.0909 0.06139,0.0909 0.03865,0 0.10232,-0.0341 0.06367,-0.0341 0.22965,-0.16144 z m -0.384266,-1.44839 q -0.172807,-0.0796 -0.372898,-0.0796 -0.165985,0 -0.295589,0.0614 -0.04775,0.0364 -0.09777,0.12961 -0.05002,0.091 -0.140974,0.34333 -0.09095,0.25012 -0.147794,0.53661 -0.05684,0.28422 -0.05684,0.45248 0,0.12506 0.02046,0.16144 0.02274,0.0364 0.06594,0.0364 0.08186,0 0.320601,-0.22056 0.238745,-0.22055 0.402456,-0.51159 0.165985,-0.29104 0.272852,-0.77763 z m -0.213734,-0.44566 z m -0.420647,2.58755 z"
       id="text1-1"
       aria-label="a" />
    <path
       style="font-style:italic;font-size:4.65667px;font-family:'Palatino Linotype';-inkscape-font-specification:'Palatino Linotype Italic';stroke-width:0.0423334;stroke-linejoin:round"
       d="m 53.710529,115.51317 0.02501,0.0637 -0.0068,0.0273 q -0.275126,0.22965 -0.50705,0.35471 -0.22965,0.12278 -0.44111,0.12278 -0.279673,0 -0.422921,-0.17281 -0.143247,-0.17508 -0.143247,-0.51614 0,-0.20919 0.05002,-0.44338 0.05002,-0.23648 0.134152,-0.41156 0.08413,-0.17508 0.17508,-0.27739 0.09322,-0.10232 0.277399,-0.21829 0.247841,-0.15461 0.384267,-0.20236 0.136426,-0.0478 0.261483,-0.0478 0.222829,0 0.384266,0.11141 l 0.0068,0.0296 q -0.06594,0.27058 -0.100046,0.54798 l -0.01819,0.0182 h -0.07049 l -0.01819,-0.0182 v -0.15234 q 0.0023,-0.0455 0.0023,-0.0773 0,-0.075 -0.02728,-0.11596 -0.02729,-0.0409 -0.127331,-0.075 -0.100045,-0.0341 -0.225102,-0.0341 -0.238746,0 -0.381993,0.12505 -0.140973,0.12279 -0.254662,0.49569 -0.111414,0.37062 -0.111414,0.65484 0,0.28422 0.111414,0.41382 0.111415,0.12734 0.286495,0.12734 0.143247,0 0.300137,-0.0659 0.15689,-0.0659 0.434289,-0.27058 z"
       id="text1-2"
       aria-label="c" />
    <path
       style="font-style:italic;font-size:4.65667px;font-family:'Palatino Linotype';-inkscape-font-specification:'Palatino Linotype Italic';stroke-width:0.0423334;stroke-linejoin:round"
       d="m 58.75932,96.149646 0.05912,0.0432 -0.159163,0.725331 -0.231924,1.091407 q 0.300137,-0.397909 0.570715,-0.559346 0.272851,-0.163711 0.475216,-0.163711 0.09777,0 0.154616,0.05002 0.05684,0.05002 0.08413,0.165984 0.02729,0.113689 0.02729,0.2774 0,0.327422 -0.109141,0.638928 -0.10914,0.311505 -0.236471,0.497954 -0.125057,0.186449 -0.279673,0.320601 -0.152343,0.134152 -0.35016,0.231924 -0.197818,0.09777 -0.379719,0.09777 -0.19327,0 -0.329696,-0.106867 -0.134152,-0.109141 -0.134152,-0.279673 0,-0.106867 0.07958,-0.518419 l 0.159164,-0.818555 q 0.04547,-0.24784 0.0955,-0.529787 l 0.08868,-0.493407 q 0.03865,-0.213734 0.04093,-0.243293 0.0045,-0.03183 0.0045,-0.05684 0,-0.0523 -0.03638,-0.07276 -0.03411,-0.02046 -0.125058,-0.02046 l -0.190996,-0.0023 -0.01592,-0.01819 0.0068,-0.05684 0.01819,-0.02046 q 0.422921,-0.06821 0.713962,-0.179628 z m -0.507049,2.874039 q 0,0.143247 0.07958,0.24784 0.07958,0.10232 0.26603,0.10232 0.254662,0 0.420647,-0.229651 0.168258,-0.22965 0.277399,-0.591178 0.111414,-0.361529 0.111414,-0.607096 0,-0.24784 -0.04547,-0.313779 -0.0432,-0.06594 -0.140973,-0.06594 -0.150069,0 -0.318327,0.102319 -0.165985,0.10232 -0.33197,0.329696 -0.163711,0.227377 -0.241019,0.56162 -0.07731,0.33197 -0.07731,0.463848 z"
       id="text1-3"
       aria-label="b" />
    <path
       style="font-size:3.38666px;font-family:'Palatino Linotype';-inkscape-font-specification:'Palatino Linotype';stroke-width:0.0423334;stroke-linejoin:round"
       d="m 46.542859,105.10088 -0.02976,-0.01 -0.01654,-0.1356 0.01654,-0.0165 q 0.165364,-0.048 0.418371,-0.15378 0.253008,-0.10584 0.362148,-0.16206 l 0.04299,0.0165 q -0.02646,0.72429 -0.02646,0.86981 v 0.6135 q 0,0.22655 0.005,0.42664 0.005,0.19844 0.01488,0.23482 0.0099,0.0347 0.03307,0.0546 0.0248,0.0198 0.0678,0.0265 0.04299,0.005 0.256314,0.0165 l 0.01158,0.0132 v 0.0744 l -0.01158,0.0132 q -0.362148,-0.0132 -0.510975,-0.0132 -0.112448,0 -0.550663,0.0132 l -0.01158,-0.0132 v -0.0744 l 0.01323,-0.0132 q 0.248047,-0.0182 0.282773,-0.0264 0.03638,-0.008 0.05457,-0.0281 0.01984,-0.0215 0.03142,-0.0794 0.01158,-0.0579 0.01819,-0.3423 0.0083,-0.28443 0.0083,-0.29105 v -0.65153 q 0,-0.47956 -0.0033,-0.5209 -0.0017,-0.0413 -0.02811,-0.0413 -0.0066,0 -0.01819,0.003 -0.01158,0.003 -0.07276,0.0298 l -0.16371,0.0728 q -0.102526,0.0447 -0.193477,0.0943 z"
       id="text1-1-8"
       aria-label="1" />
    <path
       style="font-size:3.38666px;font-family:'Palatino Linotype';-inkscape-font-specification:'Palatino Linotype';stroke-width:0.0423334;stroke-linejoin:round"
       d="m 52.400984,102.55238 -0.01984,-0.0165 v -0.0761 l 0.55397,-0.58705 q 0.342304,-0.36215 0.443176,-0.56058 0.100872,-0.19844 0.100872,-0.37042 0,-0.20174 -0.122369,-0.33569 -0.12237,-0.13394 -0.330729,-0.13394 -0.133945,0 -0.233163,0.0413 -0.09922,0.0413 -0.133945,0.0926 -0.03307,0.0513 -0.09756,0.28774 l -0.01488,0.0132 h -0.0678 l -0.01654,-0.0149 q 0.03803,-0.22324 0.05292,-0.44152 0.155442,-0.15214 0.289387,-0.19348 0.135599,-0.043 0.282773,-0.043 0.175286,0 0.33569,0.0661 0.160403,0.0661 0.257968,0.21498 0.09757,0.14717 0.09757,0.3423 0,0.14552 -0.05788,0.2927 -0.05622,0.14552 -0.167018,0.28277 -0.10914,0.1356 -0.299309,0.32577 l -0.515937,0.52586 h 0.653189 q 0.300963,0 0.501054,-0.0215 l 0.01158,0.0132 q -0.0099,0.0562 -0.0099,0.14717 0,0.0827 0.0099,0.13064 l -0.01158,0.0182 q -0.119062,-0.007 -0.365455,-0.0116 -0.246393,-0.005 -0.325768,-0.005 -0.160403,0 -0.4316,0.003 -0.271198,0.005 -0.368763,0.0132 z"
       id="text1-1-8-8"
       aria-label="2" />
    <path
       style="font-size:3.38666px;font-family:'Palatino Linotype';-inkscape-font-specification:'Palatino Linotype';stroke-width:0.0423334;stroke-linejoin:round"
       d="m 58.547669,106.80176 q -0.02976,-0.19513 -0.110794,-0.46964 l 0.0083,-0.0248 0.06119,-0.0232 0.02315,0.0116 q 0.05788,0.15214 0.124023,0.25136 0.06615,0.0992 0.190169,0.15213 0.124024,0.0529 0.26789,0.0529 0.181901,0 0.287734,-0.0761 0.107487,-0.0761 0.165365,-0.20671 0.05788,-0.13063 0.05788,-0.29434 0,-0.21994 -0.115755,-0.34562 -0.114101,-0.12567 -0.317499,-0.12567 -0.06945,0 -0.124024,0.0132 -0.05457,0.0132 -0.168671,0.0595 l -0.01819,-0.0165 0.03638,-0.18025 q 0.133945,0.008 0.178593,0.008 0.193477,0 0.305924,-0.13725 0.114102,-0.13725 0.114102,-0.32411 0,-0.16371 -0.119063,-0.27451 -0.117408,-0.11079 -0.291041,-0.11079 -0.114101,0 -0.216627,0.0463 -0.100872,0.0463 -0.167018,0.11245 -0.02811,0.0562 -0.0893,0.22159 l -0.01654,0.0149 h -0.07441 l -0.01323,-0.0149 0.09922,-0.38365 q 0.206706,-0.23316 0.560585,-0.23316 0.269544,0 0.434908,0.14386 0.167018,0.14222 0.167018,0.35884 0,0.16537 -0.09756,0.30427 -0.09757,0.13726 -0.271197,0.25963 0.28608,0.0347 0.401835,0.17198 0.117409,0.13559 0.117409,0.32907 0,0.3175 -0.287734,0.57216 -0.287734,0.25301 -0.664764,0.25301 -0.112448,0 -0.210013,-0.0199 -0.09757,-0.0182 -0.228203,-0.0761 z"
       id="text1-1-8-5"
       aria-label="3" />
    <path
       style="font-size:3.38666px;font-family:'Palatino Linotype';-inkscape-font-specification:'Palatino Linotype';stroke-width:0.0423334;stroke-linejoin:round"
       d="m 56.584808,114.14161 -0.01323,-0.0132 v -0.0711 l 0.01323,-0.0132 q 0.24474,-0.007 0.289388,-0.0149 0.0463,-0.008 0.0678,-0.0347 0.0215,-0.0264 0.03142,-0.12898 0.01158,-0.10253 0.01158,-0.21828 v -0.12237 h -0.362148 q -0.315845,0 -0.534126,0.01 l -0.02811,-0.0893 q 0.287734,-0.53909 0.960766,-1.56104 l 0.233164,-0.0943 0.04134,0.0198 q -0.01819,0.28112 -0.01819,0.69619 l -0.005,0.46632 v 0.34231 q 0.228202,-0.002 0.352226,-0.01 l 0.01488,0.0165 q -0.0033,0.0628 -0.0033,0.091 0.0017,0.0546 0.005,0.10749 l -0.01654,0.0149 q -0.160404,-0.01 -0.26789,-0.01 h -0.08434 v 0.11079 q 0,0.18521 0.0099,0.26293 0.0099,0.0777 0.03142,0.10088 0.0215,0.0215 0.08599,0.0331 0.06615,0.01 0.226549,0.0116 l 0.01488,0.0132 v 0.0711 l -0.01323,0.0132 q -0.291041,-0.0132 -0.487825,-0.0132 -0.320806,0 -0.555624,0.0132 z m -0.305923,-0.82682 h 0.706105 l 0.01488,-1.17574 q -0.15875,0.22655 -0.400182,0.62177 -0.241432,0.39522 -0.320806,0.55397 z"
       id="text1-1-8-3"
       aria-label="4" />
    <path
       style="font-size:3.38666px;font-family:'Palatino Linotype';-inkscape-font-specification:'Palatino Linotype';stroke-width:0.0423334;stroke-linejoin:round"
       d="m 52.453173,124.93322 q -0.03969,-0.12899 -0.163711,-0.42664 l 0.0033,-0.0215 0.05788,-0.0331 0.01984,0.005 q 0.137252,0.2497 0.170325,0.28442 0.03473,0.0331 0.155442,0.0794 0.120716,0.0447 0.254661,0.0447 0.167018,0 0.296002,-0.0728 0.128984,-0.0728 0.191823,-0.21498 0.06284,-0.14221 0.06284,-0.32246 0,-0.17694 -0.06284,-0.30427 -0.06119,-0.12898 -0.188516,-0.19513 -0.12733,-0.0661 -0.274504,-0.0661 -0.0926,0 -0.168672,0.0248 -0.07441,0.0248 -0.125677,0.0645 -0.04961,0.038 -0.119062,0.11411 l -0.0678,-0.0198 0.01819,-0.35553 q 0.0066,-0.10087 0.0066,-0.2034 v -0.29435 q 0,-0.13229 -0.0083,-0.25301 -0.005,-0.0744 -0.005,-0.0943 l 0.0215,-0.0165 q 0.253007,0.0198 0.577121,0.0198 0.246393,0 0.59035,-0.0198 l 0.0066,0.0165 q -0.01158,0.081 -0.01158,0.15048 0,0.0347 0.005,0.11575 l -0.01654,0.01 q -0.188515,-0.0132 -0.506015,-0.0132 -0.4316,0 -0.501053,0.003 -0.02481,0.19513 -0.03473,0.68792 0.135599,-0.0992 0.244739,-0.13395 0.109141,-0.0364 0.236471,-0.0364 0.180247,0 0.345611,0.0827 0.165365,0.0827 0.246393,0.23977 0.08268,0.1571 0.08268,0.339 0,0.33569 -0.277812,0.61846 -0.276158,0.28112 -0.707759,0.28112 -0.115755,0 -0.191822,-0.0198 -0.07441,-0.0198 -0.162057,-0.0645 z"
       id="text1-1-8-38"
       aria-label="5" />
    <path
       style="font-size:3.38666px;font-family:'Palatino Linotype';-inkscape-font-specification:'Palatino Linotype';stroke-width:0.0423334;stroke-linejoin:round"
       d="m 53.723902,129.29593 v 0.0198 q -0.180247,0.038 -0.411757,0.18025 -0.229857,0.14221 -0.386953,0.38199 -0.157096,0.23978 -0.1819,0.57878 0.05622,-0.0397 0.128984,-0.0959 0.09426,-0.0711 0.137252,-0.0976 0.04465,-0.0265 0.117409,-0.0463 0.07441,-0.0198 0.170325,-0.0198 0.170325,0 0.305924,0.0761 0.135599,0.0744 0.203398,0.22159 0.0678,0.14552 0.0678,0.34065 0,0.27616 -0.133945,0.46302 -0.133945,0.18521 -0.284426,0.26624 -0.150482,0.0794 -0.345612,0.0794 -0.332382,0 -0.515936,-0.24805 -0.183554,-0.2497 -0.183554,-0.64822 0,-0.26459 0.07607,-0.50767 0.07772,-0.24474 0.234817,-0.44152 0.157096,-0.19844 0.400182,-0.35223 0.244739,-0.15379 0.48121,-0.20836 z m -1.012029,1.57757 q 0,0.16371 0.0463,0.32412 0.04796,0.1604 0.152135,0.24804 0.104179,0.0876 0.244739,0.0876 0.120716,0 0.223241,-0.0678 0.102526,-0.0678 0.155443,-0.21167 0.05457,-0.14552 0.05457,-0.30592 0,-0.16041 -0.05292,-0.28608 -0.05292,-0.12733 -0.153789,-0.19679 -0.100872,-0.0711 -0.234817,-0.0711 -0.09922,0 -0.198438,0.048 -0.09922,0.048 -0.153788,0.10914 -0.05292,0.0612 -0.0678,0.13064 -0.01488,0.0678 -0.01488,0.19182 z"
       id="text1-1-8-7"
       aria-label="6" />
    <path
       style="font-size:3.38666px;font-family:'Palatino Linotype';-inkscape-font-specification:'Palatino Linotype';stroke-width:0.0423334;stroke-linejoin:round"
       d="m 30.859556,115.90782 -0.03473,-0.0347 q 0.05953,-0.0893 0.246392,-0.38364 l 0.302617,-0.48286 0.284427,-0.46468 0.248046,-0.42664 q 0.07937,-0.1389 0.125677,-0.22489 l -0.01654,-0.0165 h -0.512629 q -0.193476,0 -0.343958,0.007 -0.150481,0.007 -0.176939,0.0198 -0.02646,0.0116 -0.03803,0.0298 -0.0099,0.0182 -0.02315,0.12568 l -0.02977,0.23317 -0.01488,0.0132 h -0.06945 l -0.01488,-0.0132 0.0083,-0.4531 q 0,-0.0777 -0.0083,-0.23978 l 0.03307,-0.0165 q 0.09095,0.01 0.368762,0.0215 0.279466,0.0116 0.373723,0.0116 0.33569,0 0.732564,-0.0232 l 0.01323,0.0132 v 0.086 l -0.238125,0.42168 q -0.216627,0.38695 -0.494439,0.91777 -0.277812,0.52917 -0.405142,0.86651 l -0.01654,0.0132 q -0.09426,-0.008 -0.142213,-0.008 -0.07607,0 -0.157096,0.008 z"
       id="text1-1-8-6"
       aria-label="7" />
    <path
       style="font-size:3.38666px;font-family:'Palatino Linotype';-inkscape-font-specification:'Palatino Linotype';stroke-width:0.0423334;stroke-linejoin:round"
       d="m 37.672327,112.66949 q -0.183554,-0.0976 -0.279466,-0.22325 -0.09426,-0.12733 -0.09426,-0.30757 0,-0.25301 0.186861,-0.43326 0.186862,-0.1819 0.509322,-0.1819 0.163711,0 0.302617,0.0579 0.140559,0.0562 0.216627,0.17032 0.07607,0.11245 0.07607,0.25136 0,0.14552 -0.0893,0.27946 -0.0893,0.1323 -0.315846,0.26955 v 0.0149 q 0.193476,0.0926 0.28608,0.1571 0.09426,0.0645 0.153789,0.17528 0.05953,0.10914 0.05953,0.25301 0,0.19678 -0.114101,0.37868 -0.112448,0.18025 -0.297656,0.27451 -0.185208,0.0943 -0.383645,0.0943 -0.289387,0 -0.477903,-0.16206 -0.188515,-0.16206 -0.188515,-0.4316 0,-0.21828 0.128984,-0.37538 0.130638,-0.15875 0.320807,-0.24639 z m 0.385299,-0.15875 q 0.176939,-0.1108 0.239778,-0.22159 0.06284,-0.11245 0.06284,-0.24143 0,-0.19017 -0.10914,-0.30097 -0.109141,-0.11079 -0.292695,-0.11079 -0.175286,0 -0.291041,0.0992 -0.115755,0.0976 -0.115755,0.2745 0,0.13395 0.07441,0.23317 0.07607,0.0976 0.431601,0.26789 z m -0.251354,0.21828 q -0.19513,0.11575 -0.271197,0.2497 -0.07607,0.13229 -0.07607,0.30096 0,0.23647 0.132291,0.37207 0.132292,0.13395 0.340651,0.13395 0.142213,0 0.257968,-0.0662 0.115755,-0.0661 0.171979,-0.18025 0.05788,-0.11575 0.05788,-0.25135 0,-0.19513 -0.137252,-0.30427 -0.135599,-0.10914 -0.476249,-0.25466 z"
       id="text1-1-8-60"
       aria-label="8" />
    <path
       style="font-size:3.38666px;font-family:'Palatino Linotype';-inkscape-font-specification:'Palatino Linotype';stroke-width:0.0423334;stroke-linejoin:round"
       d="m 91.588739,88.76763 -0.02977,-0.0099 -0.01654,-0.135599 0.01654,-0.01654 q 0.165365,-0.04796 0.418372,-0.153789 0.253007,-0.105833 0.362148,-0.162057 l 0.04299,0.01654 q -0.02646,0.724296 -0.02646,0.869816 v 0.613502 q 0,0.226549 0.005,0.42664 0.005,0.198437 0.01488,0.234817 0.0099,0.03473 0.03307,0.05457 0.0248,0.01984 0.0678,0.02646 0.043,0.005 0.256315,0.01654 l 0.01158,0.01323 v 0.07441 l -0.01158,0.01323 q -0.362148,-0.01323 -0.510976,-0.01323 -0.112448,0 -0.550663,0.01323 l -0.01158,-0.01323 v -0.07441 l 0.01323,-0.01323 q 0.248046,-0.01819 0.282772,-0.02646 0.03638,-0.0083 0.05457,-0.02811 0.01984,-0.0215 0.03142,-0.07937 0.01157,-0.05788 0.01819,-0.342304 0.0083,-0.284427 0.0083,-0.291042 v -0.651535 q 0,-0.479556 -0.0033,-0.520897 -0.0017,-0.04134 -0.02811,-0.04134 -0.0066,0 -0.01819,0.0033 -0.01158,0.0033 -0.07276,0.02977 l -0.163711,0.07276 q -0.102526,0.04465 -0.193476,0.09426 z m 1.542848,0.85824 q 0,-0.294348 0.02977,-0.529166 0.02977,-0.23647 0.130638,-0.420025 0.102526,-0.185208 0.254661,-0.276158 0.153788,-0.0926 0.348918,-0.0926 0.221588,0 0.388606,0.114101 0.168672,0.114102 0.241432,0.350572 0.07441,0.236471 0.07441,0.643267 0,0.661458 -0.203398,0.973996 -0.201744,0.312538 -0.560585,0.312538 -0.180247,0 -0.319153,-0.07772 -0.137252,-0.07772 -0.226549,-0.224895 -0.08764,-0.147174 -0.124023,-0.347265 -0.03473,-0.200091 -0.03473,-0.42664 z m 0.284427,-0.09591 q 0,0.314192 0.0463,0.57216 0.04796,0.257968 0.157096,0.37207 0.110794,0.112447 0.262929,0.112447 0.147174,0 0.244739,-0.100872 0.09922,-0.100872 0.143867,-0.345611 0.0463,-0.244739 0.0463,-0.605233 0,-0.565546 -0.107487,-0.836743 -0.107486,-0.271198 -0.355533,-0.271198 -0.216627,0 -0.327421,0.210013 -0.110794,0.210012 -0.110794,0.892967 z"
       id="text1-1-8-50"
       aria-label="10" />
    <path
       style="font-size:3.38666px;font-family:'Palatino Linotype';-inkscape-font-specification:'Palatino Linotype';stroke-width:0.0423334;stroke-linejoin:round"
       d="m 95.480188,94.077291 -0.02977,-0.0099 -0.01654,-0.135599 0.01654,-0.01654 q 0.165364,-0.04796 0.418372,-0.153788 0.253007,-0.105833 0.362148,-0.162057 l 0.04299,0.01654 q -0.02646,0.724296 -0.02646,0.869816 v 0.613502 q 0,0.226549 0.005,0.426639 0.005,0.198437 0.01488,0.234818 0.0099,0.03473 0.03307,0.05457 0.0248,0.01984 0.0678,0.02646 0.04299,0.005 0.256315,0.01654 l 0.01157,0.01323 v 0.07441 l -0.01157,0.01323 q -0.362148,-0.01323 -0.510976,-0.01323 -0.112448,0 -0.550663,0.01323 l -0.01158,-0.01323 v -0.07441 l 0.01323,-0.01323 q 0.248046,-0.01819 0.282772,-0.02646 0.03638,-0.0083 0.05457,-0.02811 0.01984,-0.0215 0.03142,-0.07937 0.01158,-0.05788 0.01819,-0.342304 0.0083,-0.284426 0.0083,-0.291041 v -0.651535 q 0,-0.479556 -0.0033,-0.520897 -0.0017,-0.04134 -0.02811,-0.04134 -0.0066,0 -0.01819,0.0033 -0.01158,0.0033 -0.07276,0.02977 l -0.163711,0.07276 q -0.102526,0.04465 -0.193476,0.09426 z m 1.69333,0 -0.02977,-0.0099 -0.01654,-0.135599 0.01654,-0.01654 q 0.165365,-0.04796 0.418372,-0.153788 0.253007,-0.105833 0.362148,-0.162057 l 0.04299,0.01654 q -0.02646,0.724296 -0.02646,0.869816 v 0.613502 q 0,0.226549 0.005,0.426639 0.005,0.198437 0.01488,0.234818 0.0099,0.03473 0.03307,0.05457 0.0248,0.01984 0.0678,0.02646 0.04299,0.005 0.256315,0.01654 l 0.01157,0.01323 v 0.07441 l -0.01157,0.01323 q -0.362148,-0.01323 -0.510976,-0.01323 -0.112448,0 -0.550663,0.01323 l -0.01158,-0.01323 v -0.07441 l 0.01323,-0.01323 q 0.248046,-0.01819 0.282773,-0.02646 0.03638,-0.0083 0.05457,-0.02811 0.01984,-0.0215 0.03142,-0.07937 0.01158,-0.05788 0.01819,-0.342304 0.0083,-0.284426 0.0083,-0.291041 v -0.651535 q 0,-0.479556 -0.0033,-0.520897 -0.0017,-0.04134 -0.02811,-0.04134 -0.0066,0 -0.01819,0.0033 -0.01158,0.0033 -0.07276,0.02977 l -0.163711,0.07276 q -0.102526,0.04465 -0.193476,0.09426 z"
       id="text1-1-8-50-3"
       aria-label="11" />
    <path
       style="font-size:3.38666px;font-family:'Palatino Linotype';-inkscape-font-specification:'Palatino Linotype';stroke-width:0.0423334;stroke-linejoin:round"
       d="m 94.175409,103.52444 -0.02977,-0.01 -0.01654,-0.1356 0.01654,-0.0165 q 0.165364,-0.048 0.418372,-0.15379 0.253007,-0.10584 0.362148,-0.16206 l 0.04299,0.0165 q -0.02646,0.72429 -0.02646,0.86981 v 0.6135 q 0,0.22655 0.005,0.42664 0.005,0.19844 0.01488,0.23482 0.0099,0.0347 0.03307,0.0546 0.02481,0.0198 0.0678,0.0265 0.04299,0.005 0.256314,0.0165 l 0.01158,0.0132 v 0.0744 l -0.01158,0.0132 q -0.362147,-0.0132 -0.510975,-0.0132 -0.112448,0 -0.550663,0.0132 l -0.01158,-0.0132 v -0.0744 l 0.01323,-0.0132 q 0.248046,-0.0182 0.282772,-0.0265 0.03638,-0.008 0.05457,-0.0281 0.01984,-0.0215 0.03142,-0.0794 0.01158,-0.0579 0.01819,-0.3423 0.0083,-0.28443 0.0083,-0.29104 v -0.65154 q 0,-0.47956 -0.0033,-0.5209 -0.0017,-0.0413 -0.02811,-0.0413 -0.0066,0 -0.01819,0.003 -0.01158,0.003 -0.07276,0.0298 l -0.163711,0.0728 q -0.102526,0.0447 -0.193476,0.0943 z m 1.51639,1.88516 -0.01984,-0.0165 v -0.0761 l 0.553971,-0.58704 q 0.342304,-0.36215 0.443176,-0.56059 0.100872,-0.19843 0.100872,-0.37041 0,-0.20175 -0.12237,-0.33569 -0.122369,-0.13395 -0.330728,-0.13395 -0.133945,0 -0.233164,0.0413 -0.09922,0.0413 -0.133945,0.0926 -0.03307,0.0513 -0.09756,0.28773 l -0.01488,0.0132 h -0.0678 l -0.01654,-0.0149 q 0.03803,-0.22324 0.05292,-0.44152 0.155443,-0.15214 0.289388,-0.19348 0.135599,-0.043 0.282773,-0.043 0.175286,0 0.335689,0.0661 0.160404,0.0661 0.257968,0.21497 0.09757,0.14718 0.09757,0.34231 0,0.14552 -0.05788,0.29269 -0.05622,0.14552 -0.167018,0.28278 -0.10914,0.13559 -0.299309,0.32576 l -0.515937,0.52586 h 0.653189 q 0.300963,0 0.501054,-0.0215 l 0.01157,0.0132 q -0.0099,0.0562 -0.0099,0.14718 0,0.0827 0.0099,0.13064 l -0.01157,0.0182 q -0.119063,-0.007 -0.365455,-0.0116 -0.246393,-0.005 -0.325768,-0.005 -0.160403,0 -0.431601,0.003 -0.271197,0.005 -0.368762,0.0132 z"
       id="text1-1-8-50-4"
       aria-label="12" />
    <path
       style="font-size:3.38666px;font-family:'Palatino Linotype';-inkscape-font-specification:'Palatino Linotype';stroke-width:0.0423334;stroke-linejoin:round"
       d="m 99.831849,105.10088 -0.02977,-0.01 -0.01654,-0.1356 0.01654,-0.0165 q 0.165364,-0.048 0.418376,-0.15378 0.253,-0.10584 0.36214,-0.16206 l 0.043,0.0165 q -0.0265,0.72429 -0.0265,0.86981 v 0.6135 q 0,0.22655 0.005,0.42664 0.005,0.19844 0.0149,0.23482 0.01,0.0347 0.0331,0.0546 0.0248,0.0198 0.0678,0.0265 0.043,0.005 0.25631,0.0165 l 0.0116,0.0132 v 0.0744 l -0.0116,0.0132 q -0.36215,-0.0132 -0.51098,-0.0132 -0.11244,0 -0.550658,0.0132 l -0.01158,-0.0132 v -0.0744 l 0.01323,-0.0132 q 0.248045,-0.0182 0.282775,-0.0264 0.0364,-0.008 0.0546,-0.0281 0.0198,-0.0215 0.0314,-0.0794 0.0116,-0.0579 0.0182,-0.3423 0.008,-0.28443 0.008,-0.29105 v -0.65153 q 0,-0.47956 -0.003,-0.5209 -0.002,-0.0413 -0.0281,-0.0413 -0.007,0 -0.0182,0.003 -0.0116,0.003 -0.0728,0.0298 l -0.16371,0.0728 q -0.10253,0.0447 -0.193481,0.0943 z"
       id="text1-1-8-50-1"
       aria-label="1" />
    <path
       style="font-size:3.38666px;font-family:'Palatino Linotype';-inkscape-font-specification:'Palatino Linotype';stroke-width:0.0423334;stroke-linejoin:round"
       d="m 105.69039,102.55238 -0.0198,-0.0165 v -0.0761 l 0.55397,-0.58705 q 0.3423,-0.36215 0.44318,-0.56058 0.10087,-0.19844 0.10087,-0.37042 0,-0.20174 -0.12237,-0.33569 -0.12237,-0.13394 -0.33073,-0.13394 -0.13394,0 -0.23316,0.0413 -0.0992,0.0413 -0.13395,0.0926 -0.0331,0.0513 -0.0976,0.28774 l -0.0149,0.0132 h -0.0678 l -0.0165,-0.0149 q 0.038,-0.22324 0.0529,-0.44152 0.15544,-0.15214 0.28938,-0.19348 0.1356,-0.043 0.28278,-0.043 0.17528,0 0.33569,0.0661 0.1604,0.0661 0.25796,0.21498 0.0976,0.14717 0.0976,0.3423 0,0.14552 -0.0579,0.2927 -0.0562,0.14552 -0.16702,0.28277 -0.10914,0.1356 -0.29931,0.32577 l -0.51593,0.52586 h 0.65319 q 0.30096,0 0.50105,-0.0215 l 0.0116,0.0132 q -0.01,0.0562 -0.01,0.14717 0,0.0827 0.01,0.13064 l -0.0116,0.0182 q -0.11906,-0.007 -0.36546,-0.0116 -0.24639,-0.005 -0.32576,-0.005 -0.16041,0 -0.4316,0.003 -0.2712,0.005 -0.36877,0.0132 z"
       id="text1-1-8-50-7"
       aria-label="2" />
    <path
       style="font-size:3.38666px;font-family:'Palatino Linotype';-inkscape-font-specification:'Palatino Linotype';stroke-width:0.0423334;stroke-linejoin:round"
       d="m 111.88809,106.80176 q -0.0298,-0.19513 -0.11079,-0.46964 l 0.008,-0.0248 0.0612,-0.0232 0.0232,0.0116 q 0.0579,0.15214 0.12402,0.25136 0.0661,0.0992 0.19017,0.15213 0.12402,0.0529 0.26789,0.0529 0.1819,0 0.28774,-0.0761 0.10748,-0.0761 0.16536,-0.20671 0.0579,-0.13063 0.0579,-0.29434 0,-0.21994 -0.11576,-0.34562 -0.1141,-0.12567 -0.3175,-0.12567 -0.0695,0 -0.12402,0.0132 -0.0546,0.0132 -0.16867,0.0595 l -0.0182,-0.0165 0.0364,-0.18025 q 0.13394,0.008 0.17859,0.008 0.19348,0 0.30593,-0.13725 0.1141,-0.13725 0.1141,-0.32411 0,-0.16371 -0.11907,-0.27451 -0.1174,-0.11079 -0.29104,-0.11079 -0.1141,0 -0.21662,0.0463 -0.10088,0.0463 -0.16702,0.11245 -0.0281,0.0562 -0.0893,0.22159 l -0.0165,0.0149 h -0.0744 l -0.0132,-0.0149 0.0992,-0.38365 q 0.20671,-0.23316 0.56059,-0.23316 0.26954,0 0.4349,0.14386 0.16702,0.14222 0.16702,0.35884 0,0.16537 -0.0976,0.30427 -0.0976,0.13726 -0.2712,0.25963 0.28608,0.0347 0.40183,0.17198 0.11741,0.13559 0.11741,0.32907 0,0.3175 -0.28773,0.57216 -0.28774,0.25301 -0.66477,0.25301 -0.11244,0 -0.21001,-0.0199 -0.0976,-0.0182 -0.2282,-0.0761 z"
       id="text1-1-8-50-35"
       aria-label="3" />
    <path
       style="font-size:3.38666px;font-family:'Palatino Linotype';-inkscape-font-specification:'Palatino Linotype';stroke-width:0.0423334;stroke-linejoin:round"
       d="m 109.92523,114.14161 -0.0132,-0.0132 v -0.0711 l 0.0132,-0.0132 q 0.24474,-0.007 0.28939,-0.0149 0.0463,-0.008 0.0678,-0.0347 0.0215,-0.0264 0.0314,-0.12898 0.0116,-0.10253 0.0116,-0.21828 v -0.12237 h -0.36215 q -0.31584,0 -0.53412,0.01 l -0.0281,-0.0893 q 0.28774,-0.53909 0.96077,-1.56104 l 0.23316,-0.0943 0.0413,0.0198 q -0.0182,0.28112 -0.0182,0.69619 l -0.005,0.46632 v 0.34231 q 0.22821,-0.002 0.35223,-0.01 l 0.0149,0.0165 q -0.003,0.0628 -0.003,0.091 0.002,0.0546 0.005,0.10749 l -0.0165,0.0149 q -0.1604,-0.01 -0.26789,-0.01 h -0.0843 v 0.11079 q 0,0.18521 0.01,0.26293 0.01,0.0777 0.0314,0.10088 0.0215,0.0215 0.086,0.0331 0.0661,0.01 0.22655,0.0116 l 0.0149,0.0132 v 0.0711 l -0.0132,0.0132 q -0.29104,-0.0132 -0.48783,-0.0132 -0.3208,0 -0.55562,0.0132 z m -0.30593,-0.82682 h 0.70611 l 0.0149,-1.17574 q -0.15875,0.22655 -0.40018,0.62177 -0.24143,0.39522 -0.32081,0.55397 z"
       id="text1-1-8-50-76"
       aria-label="4" />
    <path
       style="font-size:3.38666px;font-family:'Palatino Linotype';-inkscape-font-specification:'Palatino Linotype';stroke-width:0.0423334;stroke-linejoin:round"
       d="m 112.44798,117.92303 q -0.0397,-0.12898 -0.16371,-0.42664 l 0.003,-0.0215 0.0579,-0.0331 0.0198,0.005 q 0.13725,0.2497 0.17032,0.28443 0.0347,0.0331 0.15545,0.0794 0.12071,0.0447 0.25466,0.0447 0.16702,0 0.296,-0.0728 0.12898,-0.0728 0.19182,-0.21497 0.0628,-0.14222 0.0628,-0.32246 0,-0.17694 -0.0628,-0.30427 -0.0612,-0.12899 -0.18851,-0.19513 -0.12733,-0.0661 -0.27451,-0.0661 -0.0926,0 -0.16867,0.0248 -0.0744,0.0248 -0.12568,0.0645 -0.0496,0.038 -0.11906,0.1141 l -0.0678,-0.0198 0.0182,-0.35554 q 0.007,-0.10087 0.007,-0.20339 v -0.29435 q 0,-0.13229 -0.008,-0.25301 -0.005,-0.0744 -0.005,-0.0943 l 0.0215,-0.0165 q 0.25301,0.0198 0.57713,0.0198 0.24639,0 0.59035,-0.0198 l 0.007,0.0165 q -0.0116,0.081 -0.0116,0.15048 0,0.0347 0.005,0.11576 l -0.0165,0.01 q -0.18852,-0.0132 -0.50601,-0.0132 -0.43161,0 -0.50106,0.003 -0.0248,0.19513 -0.0347,0.68791 0.13559,-0.0992 0.24473,-0.13394 0.10914,-0.0364 0.23648,-0.0364 0.18024,0 0.34561,0.0827 0.16536,0.0827 0.24639,0.23978 0.0827,0.15709 0.0827,0.339 0,0.33568 -0.27781,0.61846 -0.27616,0.28112 -0.70776,0.28112 -0.11575,0 -0.19182,-0.0198 -0.0744,-0.0198 -0.16206,-0.0645 z"
       id="text1-1-8-50-42"
       aria-label="5" />
    <path
       style="font-size:3.38666px;font-family:'Palatino Linotype';-inkscape-font-specification:'Palatino Linotype';stroke-width:0.0423334;stroke-linejoin:round"
       d="m 122.3039,111.56651 v 0.0199 q -0.18025,0.038 -0.41176,0.18024 -0.22985,0.14222 -0.38695,0.38199 -0.1571,0.23978 -0.1819,0.57878 0.0562,-0.0397 0.12898,-0.0959 0.0943,-0.0711 0.13726,-0.0976 0.0446,-0.0264 0.1174,-0.0463 0.0744,-0.0198 0.17033,-0.0198 0.17033,0 0.30592,0.0761 0.1356,0.0744 0.2034,0.22158 0.0678,0.14552 0.0678,0.34065 0,0.27616 -0.13394,0.46302 -0.13395,0.18521 -0.28443,0.26624 -0.15048,0.0794 -0.34561,0.0794 -0.33238,0 -0.51594,-0.24805 -0.18355,-0.2497 -0.18355,-0.64823 0,-0.26458 0.0761,-0.50767 0.0777,-0.24474 0.23481,-0.44152 0.1571,-0.19844 0.40018,-0.35223 0.24474,-0.15378 0.48121,-0.20835 z m -1.01203,1.57758 q 0,0.16371 0.0463,0.32411 0.048,0.1604 0.15214,0.24805 0.10418,0.0876 0.24474,0.0876 0.12071,0 0.22324,-0.0678 0.10252,-0.0678 0.15544,-0.21166 0.0546,-0.14553 0.0546,-0.30593 0,-0.1604 -0.0529,-0.28608 -0.0529,-0.12733 -0.15378,-0.19678 -0.10088,-0.0711 -0.23482,-0.0711 -0.0992,0 -0.19844,0.048 -0.0992,0.048 -0.15379,0.10914 -0.0529,0.0612 -0.0678,0.13064 -0.0149,0.0678 -0.0149,0.19182 z"
       id="text1-1-8-50-72"
       aria-label="6" />
    <path
       style="font-size:3.38666px;font-family:'Palatino Linotype';-inkscape-font-specification:'Palatino Linotype';stroke-width:0.0423334;stroke-linejoin:round"
       d="m 106.10013,130.29731 q -0.18355,-0.0976 -0.27946,-0.22324 -0.0943,-0.12733 -0.0943,-0.30758 0,-0.25301 0.18686,-0.43325 0.18686,-0.18191 0.50932,-0.18191 0.16371,0 0.30262,0.0579 0.14056,0.0562 0.21663,0.17033 0.0761,0.11245 0.0761,0.25135 0,0.14552 -0.0893,0.27947 -0.0893,0.13229 -0.31585,0.26954 v 0.0149 q 0.19348,0.0926 0.28608,0.1571 0.0943,0.0645 0.15379,0.17529 0.0595,0.10914 0.0595,0.253 0,0.19679 -0.1141,0.37869 -0.11245,0.18024 -0.29765,0.2745 -0.18521,0.0943 -0.38365,0.0943 -0.28939,0 -0.4779,-0.16206 -0.18852,-0.16205 -0.18852,-0.4316 0,-0.21828 0.12899,-0.37538 0.13063,-0.15874 0.3208,-0.24639 z m 0.3853,-0.15875 q 0.17694,-0.11079 0.23978,-0.22159 0.0628,-0.11245 0.0628,-0.24143 0,-0.19017 -0.10914,-0.30096 -0.10914,-0.1108 -0.2927,-0.1108 -0.17528,0 -0.29104,0.0992 -0.11575,0.0976 -0.11575,0.27451 0,0.13394 0.0744,0.23316 0.0761,0.0976 0.4316,0.26789 z m -0.25135,0.21828 q -0.19513,0.11576 -0.2712,0.2497 -0.0761,0.13229 -0.0761,0.30096 0,0.23647 0.1323,0.37207 0.13229,0.13395 0.34065,0.13395 0.14221,0 0.25796,-0.0661 0.11576,-0.0661 0.17198,-0.18024 0.0579,-0.11576 0.0579,-0.25136 0,-0.19513 -0.13725,-0.30427 -0.1356,-0.10914 -0.47625,-0.25466 z"
       id="text1-1-8-50-0"
       aria-label="8" />
    <path
       style="font-size:3.38666px;font-family:'Palatino Linotype';-inkscape-font-specification:'Palatino Linotype';stroke-width:0.0423334;stroke-linejoin:round"
       d="m 84.290499,115.8855 v -0.0314 q 0.459712,-0.10583 0.722642,-0.40349 0.262929,-0.29931 0.296002,-0.73091 -0.243086,0.28939 -0.544049,0.28939 -0.190169,0 -0.332382,-0.0909 -0.14056,-0.091 -0.208359,-0.23647 -0.0678,-0.14552 -0.0678,-0.34065 0,-0.35884 0.214973,-0.57547 0.216627,-0.21663 0.53578,-0.21663 0.322461,0 0.520898,0.23316 0.200091,0.23317 0.200091,0.67138 0,0.19348 -0.03638,0.37207 -0.03638,0.17694 -0.137252,0.3638 -0.100872,0.18687 -0.26789,0.34727 -0.165364,0.1604 -0.375377,0.26789 -0.208359,0.10583 -0.411757,0.13394 z m 0.152135,-1.65199 q 0,0.14387 0.04961,0.28277 0.05126,0.13725 0.155443,0.21332 0.104179,0.0744 0.244739,0.0744 0.195129,0 0.314192,-0.13064 0.119062,-0.13229 0.119062,-0.39357 0,-0.2712 -0.117409,-0.44318 -0.117408,-0.17363 -0.32246,-0.17363 -0.196783,0 -0.320807,0.14552 -0.122369,0.14552 -0.122369,0.42499 z"
       id="text1-1-8-50-71"
       aria-label="9" />
    <path
       style="font-size:3.38668px;font-family:'Palatino Linotype';-inkscape-font-specification:'Palatino Linotype';stroke-width:0.0423334;stroke-linejoin:round"
       d="m 127.27837,115.85703 -0.0347,-0.0347 q 0.0595,-0.0893 0.24639,-0.38365 l 0.30262,-0.48287 0.28443,-0.46467 0.24804,-0.42665 q 0.0794,-0.1389 0.12568,-0.22489 l -0.0165,-0.0165 h -0.51264 q -0.19347,0 -0.34396,0.007 -0.15048,0.007 -0.17694,0.0199 -0.0265,0.0116 -0.038,0.0298 -0.01,0.0182 -0.0232,0.12568 l -0.0298,0.23317 -0.0149,0.0132 h -0.0695 l -0.0149,-0.0132 0.008,-0.4531 q 0,-0.0777 -0.008,-0.23978 l 0.0331,-0.0165 q 0.0909,0.01 0.36876,0.0215 0.27947,0.0116 0.37373,0.0116 0.33569,0 0.73256,-0.0232 l 0.0132,0.0132 v 0.086 l -0.23812,0.42168 q -0.21663,0.38696 -0.49444,0.91778 -0.27782,0.52917 -0.40515,0.86651 l -0.0165,0.0132 q -0.0943,-0.008 -0.14221,-0.008 -0.0761,0 -0.1571,0.008 z"
       id="text2"
       aria-label="7" />
    <path
       style="font-size:3.38666px;font-family:'Palatino Linotype';-inkscape-font-specification:'Palatino Linotype';stroke-width:0.0423334;stroke-linejoin:round"
       d="m 142.79576,111.98322 -0.0298,-0.01 -0.0165,-0.1356 0.0165,-0.0165 q 0.16536,-0.048 0.41837,-0.15378 0.25301,-0.10584 0.36215,-0.16206 l 0.043,0.0165 q -0.0265,0.7243 -0.0265,0.86982 v 0.6135 q 0,0.22655 0.005,0.42664 0.005,0.19844 0.0149,0.23482 0.01,0.0347 0.0331,0.0546 0.0248,0.0198 0.0678,0.0265 0.043,0.005 0.25631,0.0165 l 0.0116,0.0132 v 0.0744 l -0.0116,0.0132 q -0.36214,-0.0132 -0.51097,-0.0132 -0.11245,0 -0.55067,0.0132 l -0.0116,-0.0132 v -0.0744 l 0.0132,-0.0132 q 0.24804,-0.0182 0.28277,-0.0264 0.0364,-0.008 0.0546,-0.0281 0.0198,-0.0215 0.0314,-0.0794 0.0116,-0.0579 0.0182,-0.3423 0.008,-0.28443 0.008,-0.29105 v -0.65153 q 0,-0.47956 -0.003,-0.5209 -0.002,-0.0413 -0.0281,-0.0413 -0.007,0 -0.0182,0.003 -0.0116,0.003 -0.0728,0.0298 l -0.16371,0.0728 q -0.10253,0.0447 -0.19348,0.0943 z m 1.54285,0.85824 q 0,-0.29435 0.0298,-0.52916 0.0298,-0.23648 0.13063,-0.42003 0.10253,-0.18521 0.25467,-0.27616 0.15378,-0.0926 0.34891,-0.0926 0.22159,0 0.38861,0.1141 0.16867,0.1141 0.24143,0.35057 0.0744,0.23647 0.0744,0.64327 0,0.66146 -0.2034,0.97399 -0.20175,0.31254 -0.56059,0.31254 -0.18024,0 -0.31915,-0.0777 -0.13725,-0.0777 -0.22655,-0.22489 -0.0876,-0.14718 -0.12402,-0.34727 -0.0347,-0.20009 -0.0347,-0.42664 z m 0.28443,-0.0959 q 0,0.31419 0.0463,0.57216 0.048,0.25797 0.1571,0.37207 0.11079,0.11245 0.26292,0.11245 0.14718,0 0.24474,-0.10087 0.0992,-0.10088 0.14387,-0.34562 0.0463,-0.24473 0.0463,-0.60523 0,-0.56554 -0.10748,-0.83674 -0.10749,-0.2712 -0.35554,-0.2712 -0.21662,0 -0.32742,0.21001 -0.11079,0.21002 -0.11079,0.89297 z"
       id="text1-1-8-50-33"
       aria-label="10" />
    <path
       style="font-size:3.38666px;font-family:'Palatino Linotype';-inkscape-font-specification:'Palatino Linotype';stroke-width:0.0423334;stroke-linejoin:round"
       d="m 136.5268,114.04169 -0.0298,-0.01 -0.0165,-0.1356 0.0165,-0.0165 q 0.16536,-0.048 0.41837,-0.15379 0.25301,-0.10584 0.36215,-0.16206 l 0.043,0.0165 q -0.0264,0.72429 -0.0264,0.86981 v 0.6135 q 0,0.22655 0.005,0.42664 0.005,0.19844 0.0149,0.23482 0.01,0.0347 0.0331,0.0546 0.0248,0.0198 0.0678,0.0265 0.043,0.005 0.25632,0.0165 l 0.0116,0.0132 v 0.0744 l -0.0116,0.0132 q -0.36215,-0.0132 -0.51098,-0.0132 -0.11245,0 -0.55066,0.0132 l -0.0116,-0.0132 v -0.0744 l 0.0132,-0.0132 q 0.24805,-0.0182 0.28277,-0.0265 0.0364,-0.008 0.0546,-0.0281 0.0199,-0.0215 0.0314,-0.0794 0.0116,-0.0579 0.0182,-0.3423 0.008,-0.28443 0.008,-0.29104 v -0.65154 q 0,-0.47956 -0.003,-0.5209 -0.002,-0.0413 -0.0281,-0.0413 -0.007,0 -0.0182,0.003 -0.0116,0.003 -0.0728,0.0298 l -0.16371,0.0728 q -0.10252,0.0446 -0.19347,0.0943 z m 1.69333,0 -0.0298,-0.01 -0.0165,-0.1356 0.0165,-0.0165 q 0.16536,-0.048 0.41837,-0.15379 0.25301,-0.10584 0.36215,-0.16206 l 0.043,0.0165 q -0.0265,0.72429 -0.0265,0.86981 v 0.6135 q 0,0.22655 0.005,0.42664 0.005,0.19844 0.0149,0.23482 0.01,0.0347 0.0331,0.0546 0.0248,0.0198 0.0678,0.0265 0.043,0.005 0.25632,0.0165 l 0.0116,0.0132 v 0.0744 l -0.0116,0.0132 q -0.36215,-0.0132 -0.51098,-0.0132 -0.11245,0 -0.55066,0.0132 l -0.0116,-0.0132 v -0.0744 l 0.0132,-0.0132 q 0.24805,-0.0182 0.28277,-0.0265 0.0364,-0.008 0.0546,-0.0281 0.0199,-0.0215 0.0314,-0.0794 0.0116,-0.0579 0.0182,-0.3423 0.008,-0.28443 0.008,-0.29104 v -0.65154 q 0,-0.47956 -0.003,-0.5209 -0.002,-0.0413 -0.0281,-0.0413 -0.007,0 -0.0182,0.003 -0.0116,0.003 -0.0728,0.0298 l -0.16371,0.0728 q -0.10252,0.0446 -0.19347,0.0943 z"
       id="text1-1-8-50-3-9"
       aria-label="11" />
    <path
       style="font-size:3.38666px;font-family:'Palatino Linotype';-inkscape-font-specification:'Palatino Linotype';stroke-width:0.0423334;stroke-linejoin:round"
       d="m 144.6198,88.792433 -0.0298,-0.0099 -0.0165,-0.135599 0.0165,-0.01654 q 0.16537,-0.04796 0.41837,-0.153789 0.25301,-0.105833 0.36215,-0.162057 l 0.043,0.01654 q -0.0265,0.724296 -0.0265,0.869816 v 0.613502 q 0,0.226549 0.005,0.42664 0.005,0.198437 0.0149,0.234817 0.01,0.03473 0.0331,0.05457 0.0248,0.01984 0.0678,0.02646 0.043,0.005 0.25632,0.01654 l 0.0116,0.01323 v 0.07441 l -0.0116,0.01323 q -0.36215,-0.01323 -0.51098,-0.01323 -0.11244,0 -0.55066,0.01323 l -0.0116,-0.01323 v -0.07441 l 0.0132,-0.01323 q 0.24805,-0.01819 0.28278,-0.02646 0.0364,-0.0083 0.0546,-0.02811 0.0198,-0.0215 0.0314,-0.07937 0.0116,-0.05788 0.0182,-0.342304 0.008,-0.284427 0.008,-0.291041 V 89.15458 q 0,-0.479556 -0.003,-0.520897 -0.002,-0.04134 -0.0281,-0.04134 -0.007,0 -0.0182,0.0033 -0.0116,0.0033 -0.0728,0.02977 l -0.16371,0.07276 q -0.10252,0.04465 -0.19347,0.09426 z m 1.51639,1.885152 -0.0198,-0.01654 v -0.07607 l 0.55397,-0.587043 q 0.34231,-0.362148 0.44318,-0.560585 0.10087,-0.198437 0.10087,-0.370416 0,-0.201744 -0.12237,-0.335689 -0.12237,-0.133945 -0.33072,-0.133945 -0.13395,0 -0.23317,0.04134 -0.0992,0.04134 -0.13394,0.0926 -0.0331,0.05126 -0.0976,0.287734 l -0.0149,0.01323 h -0.0678 l -0.0165,-0.01488 q 0.038,-0.223242 0.0529,-0.441522 0.15544,-0.152136 0.28939,-0.193477 0.1356,-0.04299 0.28277,-0.04299 0.17529,0 0.33569,0.06614 0.1604,0.06615 0.25797,0.214974 0.0976,0.147174 0.0976,0.342304 0,0.14552 -0.0579,0.292695 -0.0562,0.14552 -0.16702,0.282773 -0.10914,0.135598 -0.29931,0.325767 l -0.51594,0.525858 h 0.65319 q 0.30096,0 0.50105,-0.0215 l 0.0116,0.01323 q -0.01,0.05622 -0.01,0.147174 0,0.08268 0.01,0.130638 l -0.0116,0.01819 q -0.11906,-0.0066 -0.36545,-0.01157 -0.24639,-0.005 -0.32577,-0.005 -0.1604,0 -0.4316,0.0033 -0.2712,0.005 -0.36876,0.01323 z"
       id="text1-1-8-50-4-8"
       aria-label="12" />
    <path
       style="font-size:3.38666px;font-family:'Palatino Linotype';-inkscape-font-specification:'Palatino Linotype';stroke-width:0.0423334;stroke-linejoin:round"
       d="m 152.86725,105.10088 -0.0298,-0.01 -0.0165,-0.1356 0.0165,-0.0165 q 0.16537,-0.048 0.41838,-0.15378 0.253,-0.10584 0.36214,-0.16206 l 0.043,0.0165 q -0.0265,0.72429 -0.0265,0.86981 v 0.6135 q 0,0.22655 0.005,0.42664 0.005,0.19844 0.0149,0.23482 0.01,0.0347 0.0331,0.0546 0.0248,0.0198 0.0678,0.0265 0.043,0.005 0.25631,0.0165 l 0.0116,0.0132 v 0.0744 l -0.0116,0.0132 q -0.36215,-0.0132 -0.51097,-0.0132 -0.11245,0 -0.55067,0.0132 l -0.0116,-0.0132 v -0.0744 l 0.0132,-0.0132 q 0.24804,-0.0182 0.28277,-0.0264 0.0364,-0.008 0.0546,-0.0281 0.0198,-0.0215 0.0314,-0.0794 0.0116,-0.0579 0.0182,-0.3423 0.008,-0.28443 0.008,-0.29105 v -0.65153 q 0,-0.47956 -0.003,-0.5209 -0.002,-0.0413 -0.0281,-0.0413 -0.007,0 -0.0182,0.003 -0.0116,0.003 -0.0728,0.0298 l -0.16371,0.0728 q -0.10253,0.0447 -0.19348,0.0943 z"
       id="text1-1-8-50-1-8"
       aria-label="1" />
    <path
       style="font-size:3.38666px;font-family:'Palatino Linotype';-inkscape-font-specification:'Palatino Linotype';stroke-width:0.0423334;stroke-linejoin:round"
       d="m 158.72537,102.55238 -0.0198,-0.0165 v -0.0761 l 0.55397,-0.58705 q 0.34231,-0.36215 0.44318,-0.56058 0.10087,-0.19844 0.10087,-0.37042 0,-0.20174 -0.12237,-0.33569 -0.12237,-0.13394 -0.33073,-0.13394 -0.13394,0 -0.23316,0.0413 -0.0992,0.0413 -0.13395,0.0926 -0.0331,0.0513 -0.0976,0.28774 l -0.0149,0.0132 h -0.0678 l -0.0165,-0.0149 q 0.038,-0.22324 0.0529,-0.44152 0.15544,-0.15214 0.28938,-0.19348 0.1356,-0.043 0.28278,-0.043 0.17528,0 0.33569,0.0661 0.1604,0.0661 0.25796,0.21498 0.0976,0.14717 0.0976,0.3423 0,0.14552 -0.0579,0.2927 -0.0562,0.14552 -0.16702,0.28277 -0.10914,0.1356 -0.29931,0.32577 l -0.51593,0.52586 h 0.65319 q 0.30096,0 0.50105,-0.0215 l 0.0116,0.0132 q -0.01,0.0562 -0.01,0.14717 0,0.0827 0.01,0.13064 l -0.0116,0.0182 q -0.11906,-0.007 -0.36545,-0.0116 -0.2464,-0.005 -0.32577,-0.005 -0.16041,0 -0.4316,0.003 -0.2712,0.005 -0.36877,0.0132 z"
       id="text1-1-8-50-7-6"
       aria-label="2" />
    <path
       style="font-size:3.38666px;font-family:'Palatino Linotype';-inkscape-font-specification:'Palatino Linotype';stroke-width:0.0423334;stroke-linejoin:round"
       d="m 164.92308,106.80176 q -0.0298,-0.19513 -0.1108,-0.46964 l 0.008,-0.0248 0.0612,-0.0232 0.0231,0.0116 q 0.0579,0.15214 0.12402,0.25136 0.0661,0.0992 0.19017,0.15213 0.12402,0.0529 0.26789,0.0529 0.1819,0 0.28773,-0.0761 0.10749,-0.0761 0.16537,-0.20671 0.0579,-0.13063 0.0579,-0.29434 0,-0.21994 -0.11576,-0.34562 -0.1141,-0.12567 -0.3175,-0.12567 -0.0695,0 -0.12402,0.0132 -0.0546,0.0132 -0.16867,0.0595 l -0.0182,-0.0165 0.0364,-0.18025 q 0.13394,0.008 0.17859,0.008 0.19348,0 0.30592,-0.13725 0.1141,-0.13725 0.1141,-0.32411 0,-0.16371 -0.11906,-0.27451 -0.11741,-0.11079 -0.29104,-0.11079 -0.1141,0 -0.21663,0.0463 -0.10087,0.0463 -0.16701,0.11245 -0.0281,0.0562 -0.0893,0.22159 l -0.0165,0.0149 h -0.0744 l -0.0132,-0.0149 0.0992,-0.38365 q 0.2067,-0.23316 0.56058,-0.23316 0.26955,0 0.43491,0.14386 0.16702,0.14222 0.16702,0.35884 0,0.16537 -0.0976,0.30427 -0.0976,0.13726 -0.27119,0.25963 0.28608,0.0347 0.40183,0.17198 0.11741,0.13559 0.11741,0.32907 0,0.3175 -0.28773,0.57216 -0.28774,0.25301 -0.66477,0.25301 -0.11244,0 -0.21001,-0.0199 -0.0976,-0.0182 -0.2282,-0.0761 z"
       id="text1-1-8-50-35-0"
       aria-label="3" />
    <path
       style="font-size:3.38666px;font-family:'Palatino Linotype';-inkscape-font-specification:'Palatino Linotype';stroke-width:0.0423334;stroke-linejoin:round"
       d="m 162.96,114.14161 -0.0132,-0.0132 v -0.0711 l 0.0132,-0.0132 q 0.24474,-0.007 0.28939,-0.0149 0.0463,-0.008 0.0678,-0.0347 0.0215,-0.0264 0.0314,-0.12898 0.0116,-0.10253 0.0116,-0.21828 v -0.12237 h -0.36214 q -0.31585,0 -0.53413,0.01 l -0.0281,-0.0893 q 0.28773,-0.53909 0.96076,-1.56104 l 0.23317,-0.0943 0.0413,0.0198 q -0.0182,0.28112 -0.0182,0.69619 l -0.005,0.46632 v 0.34231 q 0.2282,-0.002 0.35222,-0.01 l 0.0149,0.0165 q -0.003,0.0628 -0.003,0.091 0.002,0.0546 0.005,0.10749 l -0.0165,0.0149 q -0.1604,-0.01 -0.26789,-0.01 h -0.0843 v 0.11079 q 0,0.18521 0.01,0.26293 0.01,0.0777 0.0314,0.10088 0.0215,0.0215 0.086,0.0331 0.0661,0.01 0.22655,0.0116 l 0.0149,0.0132 v 0.0711 l -0.0132,0.0132 q -0.29104,-0.0132 -0.48782,-0.0132 -0.32081,0 -0.55563,0.0132 z m -0.30592,-0.82682 h 0.7061 l 0.0149,-1.17574 q -0.15875,0.22655 -0.40018,0.62177 -0.24144,0.39522 -0.32081,0.55397 z"
       id="text1-1-8-50-76-8"
       aria-label="4" />
    <path
       style="font-size:3.38666px;font-family:'Palatino Linotype';-inkscape-font-specification:'Palatino Linotype';stroke-width:0.0423334;stroke-linejoin:round"
       d="m 165.48337,117.92303 q -0.0397,-0.12898 -0.16371,-0.42664 l 0.003,-0.0215 0.0579,-0.0331 0.0198,0.005 q 0.13726,0.2497 0.17033,0.28443 0.0347,0.0331 0.15544,0.0794 0.12072,0.0447 0.25466,0.0447 0.16702,0 0.296,-0.0728 0.12899,-0.0728 0.19183,-0.21497 0.0628,-0.14222 0.0628,-0.32246 0,-0.17694 -0.0628,-0.30427 -0.0612,-0.12899 -0.18852,-0.19513 -0.12733,-0.0661 -0.2745,-0.0661 -0.0926,0 -0.16867,0.0248 -0.0744,0.0248 -0.12568,0.0645 -0.0496,0.038 -0.11906,0.1141 l -0.0678,-0.0198 0.0182,-0.35554 q 0.007,-0.10087 0.007,-0.20339 v -0.29435 q 0,-0.13229 -0.008,-0.25301 -0.005,-0.0744 -0.005,-0.0943 l 0.0215,-0.0165 q 0.25301,0.0198 0.57712,0.0198 0.24639,0 0.59035,-0.0198 l 0.007,0.0165 q -0.0116,0.081 -0.0116,0.15048 0,0.0347 0.005,0.11576 l -0.0165,0.01 q -0.18852,-0.0132 -0.50602,-0.0132 -0.4316,0 -0.50105,0.003 -0.0248,0.19513 -0.0347,0.68791 0.1356,-0.0992 0.24474,-0.13394 0.10914,-0.0364 0.23647,-0.0364 0.18025,0 0.34561,0.0827 0.16537,0.0827 0.24639,0.23978 0.0827,0.15709 0.0827,0.339 0,0.33568 -0.27782,0.61846 -0.27615,0.28112 -0.70775,0.28112 -0.11576,0 -0.19183,-0.0198 -0.0744,-0.0198 -0.16205,-0.0645 z"
       id="text1-1-8-50-42-1"
       aria-label="5" />
    <path
       style="font-size:3.38666px;font-family:'Palatino Linotype';-inkscape-font-specification:'Palatino Linotype';stroke-width:0.0423334;stroke-linejoin:round"
       d="m 175.3391,111.56651 v 0.0199 q -0.18025,0.038 -0.41176,0.18024 -0.22985,0.14222 -0.38695,0.38199 -0.15709,0.23978 -0.1819,0.57878 0.0562,-0.0397 0.12899,-0.0959 0.0942,-0.0711 0.13725,-0.0976 0.0446,-0.0264 0.11741,-0.0463 0.0744,-0.0198 0.17032,-0.0198 0.17033,0 0.30593,0.0761 0.13559,0.0744 0.20339,0.22158 0.0678,0.14552 0.0678,0.34065 0,0.27616 -0.13394,0.46302 -0.13395,0.18521 -0.28443,0.26624 -0.15048,0.0794 -0.34561,0.0794 -0.33238,0 -0.51594,-0.24805 -0.18355,-0.2497 -0.18355,-0.64823 0,-0.26458 0.0761,-0.50767 0.0777,-0.24474 0.23481,-0.44152 0.1571,-0.19844 0.40019,-0.35223 0.24474,-0.15378 0.48121,-0.20835 z m -1.01203,1.57758 q 0,0.16371 0.0463,0.32411 0.048,0.1604 0.15214,0.24805 0.10418,0.0876 0.24474,0.0876 0.12071,0 0.22324,-0.0678 0.10253,-0.0678 0.15544,-0.21166 0.0546,-0.14553 0.0546,-0.30593 0,-0.1604 -0.0529,-0.28608 -0.0529,-0.12733 -0.15379,-0.19678 -0.10087,-0.0711 -0.23482,-0.0711 -0.0992,0 -0.19844,0.048 -0.0992,0.048 -0.15379,0.10914 -0.0529,0.0612 -0.0678,0.13064 -0.0149,0.0678 -0.0149,0.19182 z"
       id="text1-1-8-50-72-5"
       aria-label="6" />
    <path
       style="font-size:3.38666px;font-family:'Palatino Linotype';-inkscape-font-specification:'Palatino Linotype';stroke-width:0.0423334;stroke-linejoin:round"
       d="m 159.18592,96.41349 q -0.18356,-0.09757 -0.27947,-0.223242 -0.0943,-0.127331 -0.0943,-0.307578 0,-0.253007 0.18686,-0.433254 0.18686,-0.181901 0.50932,-0.181901 0.16371,0 0.30262,0.05788 0.14056,0.05622 0.21662,0.170325 0.0761,0.112448 0.0761,0.251354 0,0.14552 -0.0893,0.279465 -0.0893,0.132292 -0.31584,0.269544 v 0.01488 q 0.19347,0.0926 0.28608,0.157096 0.0943,0.06449 0.15379,0.175286 0.0595,0.10914 0.0595,0.253007 0,0.196784 -0.1141,0.378684 -0.11245,0.180247 -0.29766,0.274505 -0.18521,0.09426 -0.38364,0.09426 -0.28939,0 -0.47791,-0.162057 -0.18851,-0.162057 -0.18851,-0.431601 0,-0.218281 0.12898,-0.375377 0.13064,-0.15875 0.32081,-0.246393 z m 0.3853,-0.15875 q 0.17694,-0.110794 0.23978,-0.221588 0.0628,-0.112448 0.0628,-0.241432 0,-0.190169 -0.10914,-0.300963 -0.10914,-0.110794 -0.29269,-0.110794 -0.17529,0 -0.29104,0.09922 -0.11576,0.09756 -0.11576,0.274504 0,0.133945 0.0744,0.233164 0.0761,0.09757 0.4316,0.26789 z m -0.25136,0.218281 q -0.19513,0.115755 -0.27119,0.2497 -0.0761,0.132291 -0.0761,0.300963 0,0.236471 0.13229,0.372069 0.13229,0.133945 0.34065,0.133945 0.14221,0 0.25797,-0.06614 0.11575,-0.06615 0.17198,-0.180247 0.0579,-0.115755 0.0579,-0.251354 0,-0.19513 -0.13726,-0.30427 -0.1356,-0.109141 -0.47625,-0.254661 z"
       id="text1-1-8-50-0-9"
       aria-label="8" />
    <path
       style="font-size:3.38666px;font-family:'Palatino Linotype';-inkscape-font-specification:'Palatino Linotype';stroke-width:0.0423334;stroke-linejoin:round"
       d="m 148.0955,105.3699 v -0.0314 q 0.45971,-0.10584 0.72264,-0.40349 0.26293,-0.29931 0.296,-0.73091 -0.24308,0.28939 -0.54405,0.28939 -0.19016,0 -0.33238,-0.091 -0.14056,-0.091 -0.20836,-0.23647 -0.0678,-0.14552 -0.0678,-0.34065 0,-0.35884 0.21498,-0.57546 0.21662,-0.21663 0.53578,-0.21663 0.32246,0 0.5209,0.23316 0.20009,0.23317 0.20009,0.67138 0,0.19348 -0.0364,0.37207 -0.0364,0.17694 -0.13726,0.3638 -0.10087,0.18686 -0.26789,0.34727 -0.16536,0.1604 -0.37537,0.26789 -0.20836,0.10583 -0.41176,0.13394 z m 0.15213,-1.65199 q 0,0.14386 0.0496,0.28277 0.0513,0.13725 0.15545,0.21332 0.10418,0.0744 0.24473,0.0744 0.19513,0 0.3142,-0.13063 0.11906,-0.1323 0.11906,-0.39357 0,-0.2712 -0.11741,-0.44318 -0.11741,-0.17363 -0.32246,-0.17363 -0.19678,0 -0.32081,0.14552 -0.12237,0.14552 -0.12237,0.42499 z"
       id="text1-1-8-50-71-7"
       aria-label="9" />
    <path
       style="font-size:3.38668px;font-family:'Palatino Linotype';-inkscape-font-specification:'Palatino Linotype';stroke-width:0.0423334;stroke-linejoin:round"
       d="m 168.22338,95.994446 -0.0347,-0.03473 q 0.0595,-0.0893 0.2464,-0.383647 l 0.30262,-0.482867 0.28442,-0.464676 0.24805,-0.426642 q 0.0794,-0.138907 0.12568,-0.224897 l -0.0165,-0.01654 h -0.51263 q -0.19348,0 -0.34396,0.0066 -0.15048,0.0066 -0.17694,0.01984 -0.0265,0.01157 -0.038,0.02977 -0.01,0.01819 -0.0231,0.125677 l -0.0298,0.233165 -0.0149,0.01323 h -0.0695 l -0.0149,-0.01323 0.008,-0.453101 q 0,-0.07772 -0.008,-0.239779 l 0.0331,-0.01654 q 0.0909,0.0099 0.36877,0.0215 0.27947,0.01157 0.37372,0.01157 0.33569,0 0.73257,-0.02315 l 0.0132,0.01323 v 0.08599 l -0.23813,0.421682 q -0.21662,0.386954 -0.49444,0.917777 -0.27781,0.529168 -0.40514,0.866513 l -0.0165,0.01323 q -0.0943,-0.0083 -0.14221,-0.0083 -0.0761,0 -0.1571,0.0083 z"
       id="text2-3"
       aria-label="7" />
    <path
       style="font-size:3.38666px;font-family:'Palatino Linotype';-inkscape-font-specification:'Palatino Linotype';stroke-width:0.0423334;stroke-linejoin:round"
       d="m 171.1971,88.771772 -0.0298,-0.0099 -0.0165,-0.135598 0.0165,-0.01654 q 0.16537,-0.04795 0.41838,-0.153788 0.253,-0.105834 0.36214,-0.162057 l 0.043,0.01654 q -0.0265,0.724295 -0.0265,0.869816 v 0.613501 q 0,0.22655 0.005,0.42664 0.005,0.198437 0.0149,0.234818 0.01,0.03473 0.0331,0.05457 0.0248,0.01984 0.0678,0.02646 0.043,0.005 0.25631,0.01654 l 0.0116,0.01323 v 0.07441 l -0.0116,0.01323 q -0.36215,-0.01323 -0.51098,-0.01323 -0.11244,0 -0.55066,0.01323 l -0.0116,-0.01323 v -0.07441 l 0.0132,-0.01323 q 0.24805,-0.01819 0.28278,-0.02646 0.0364,-0.0083 0.0546,-0.02811 0.0198,-0.0215 0.0314,-0.07937 0.0116,-0.05788 0.0182,-0.342304 0.008,-0.284426 0.008,-0.291041 V 89.13392 q 0,-0.479556 -0.003,-0.520897 -0.002,-0.04134 -0.0281,-0.04134 -0.007,0 -0.0182,0.0033 -0.0116,0.0033 -0.0728,0.02976 l -0.16371,0.07276 q -0.10253,0.04465 -0.19348,0.09426 z m 1.6123,1.830583 q -0.0298,-0.19513 -0.11079,-0.469635 l 0.008,-0.0248 0.0612,-0.02315 0.0232,0.01157 q 0.0579,0.152135 0.12402,0.251354 0.0661,0.09922 0.19017,0.152135 0.12403,0.05292 0.26789,0.05292 0.1819,0 0.28774,-0.07607 0.10748,-0.07607 0.16536,-0.206705 0.0579,-0.130638 0.0579,-0.294349 0,-0.219934 -0.11576,-0.345611 -0.1141,-0.125677 -0.3175,-0.125677 -0.0694,0 -0.12402,0.01323 -0.0546,0.01323 -0.16867,0.05953 l -0.0182,-0.01654 0.0364,-0.180247 q 0.13394,0.0083 0.17859,0.0083 0.19348,0 0.30593,-0.137252 0.1141,-0.137253 0.1141,-0.324114 0,-0.163711 -0.11906,-0.274505 -0.11741,-0.110794 -0.29105,-0.110794 -0.1141,0 -0.21662,0.0463 -0.10087,0.0463 -0.16702,0.112448 -0.0281,0.05622 -0.0893,0.221588 l -0.0165,0.01488 h -0.0744 l -0.0132,-0.01488 0.0992,-0.383645 q 0.20671,-0.233164 0.56059,-0.233164 0.26954,0 0.4349,0.143867 0.16702,0.142213 0.16702,0.35884 0,0.165365 -0.0976,0.304271 -0.0976,0.137252 -0.2712,0.259622 0.28608,0.03473 0.40184,0.171978 0.1174,0.135599 0.1174,0.329075 0,0.3175 -0.28773,0.572161 -0.28773,0.253007 -0.66476,0.253007 -0.11245,0 -0.21002,-0.01984 -0.0976,-0.01819 -0.2282,-0.07607 z"
       id="text1-1-8-50-4-8-1"
       aria-label="13" />
    <path
       style="font-size:3.38666px;font-family:'Palatino Linotype';-inkscape-font-specification:'Palatino Linotype';stroke-width:0.0423334;stroke-linejoin:round"
       d="m 179.50887,113.99088 -0.0298,-0.01 -0.0165,-0.1356 0.0165,-0.0165 q 0.16537,-0.048 0.41837,-0.15378 0.25301,-0.10584 0.36215,-0.16206 l 0.043,0.0165 q -0.0265,0.7243 -0.0265,0.86982 v 0.6135 q 0,0.22655 0.005,0.42664 0.005,0.19844 0.0149,0.23482 0.01,0.0347 0.0331,0.0546 0.0248,0.0198 0.0678,0.0265 0.043,0.005 0.25632,0.0165 l 0.0116,0.0132 v 0.0744 l -0.0116,0.0132 q -0.36215,-0.0132 -0.51098,-0.0132 -0.11245,0 -0.55066,0.0132 l -0.0116,-0.0132 v -0.0744 l 0.0132,-0.0132 q 0.24805,-0.0182 0.28278,-0.0264 0.0364,-0.008 0.0546,-0.0281 0.0198,-0.0215 0.0314,-0.0794 0.0116,-0.0579 0.0182,-0.34231 0.008,-0.28442 0.008,-0.29104 v -0.65153 q 0,-0.47956 -0.003,-0.5209 -0.002,-0.0413 -0.0281,-0.0413 -0.007,0 -0.0182,0.003 -0.0116,0.003 -0.0728,0.0298 l -0.16371,0.0728 q -0.10252,0.0447 -0.19347,0.0943 z m 1.98437,1.88185 -0.0132,-0.0132 v -0.0711 l 0.0132,-0.0132 q 0.24474,-0.007 0.28939,-0.0149 0.0463,-0.008 0.0678,-0.0347 0.0215,-0.0265 0.0314,-0.12898 0.0116,-0.10253 0.0116,-0.21828 v -0.12237 h -0.36215 q -0.31584,0 -0.53412,0.01 l -0.0281,-0.0893 q 0.28774,-0.53908 0.96077,-1.56104 l 0.23316,-0.0943 0.0413,0.0198 q -0.0182,0.28112 -0.0182,0.69618 l -0.005,0.46633 v 0.3423 q 0.22821,-0.002 0.35223,-0.01 l 0.0149,0.0165 q -0.003,0.0628 -0.003,0.0909 0.002,0.0546 0.005,0.10749 l -0.0165,0.0149 q -0.1604,-0.01 -0.26789,-0.01 h -0.0843 v 0.11079 q 0,0.18521 0.01,0.26293 0.01,0.0777 0.0314,0.10087 0.0215,0.0215 0.086,0.0331 0.0661,0.01 0.22655,0.0116 l 0.0149,0.0132 v 0.0711 l -0.0132,0.0132 q -0.29104,-0.0132 -0.48783,-0.0132 -0.3208,0 -0.55562,0.0132 z m -0.30593,-0.82683 h 0.70611 l 0.0149,-1.17574 q -0.15875,0.22655 -0.40018,0.62177 -0.24143,0.39523 -0.32081,0.55397 z"
       id="text1-1-8-50-4-8-18"
       aria-label="14" />
    <path
       style="font-size:3.38666px;font-family:'Palatino Linotype';-inkscape-font-specification:'Palatino Linotype';stroke-width:0.0423334;stroke-linejoin:round"
       d="m 157.89018,123.11091 -0.0298,-0.01 -0.0165,-0.1356 0.0165,-0.0165 q 0.16536,-0.048 0.41837,-0.15379 0.25301,-0.10583 0.36215,-0.16206 l 0.043,0.0165 q -0.0265,0.72429 -0.0265,0.86981 v 0.61351 q 0,0.22654 0.005,0.42664 0.005,0.19843 0.0149,0.23481 0.01,0.0347 0.0331,0.0546 0.0248,0.0199 0.0678,0.0265 0.043,0.005 0.25631,0.0165 l 0.0116,0.0132 v 0.0744 l -0.0116,0.0132 q -0.36214,-0.0132 -0.51097,-0.0132 -0.11245,0 -0.55066,0.0132 l -0.0116,-0.0132 v -0.0744 l 0.0132,-0.0132 q 0.24805,-0.0182 0.28277,-0.0265 0.0364,-0.008 0.0546,-0.0281 0.0198,-0.0215 0.0314,-0.0794 0.0116,-0.0579 0.0182,-0.3423 0.008,-0.28443 0.008,-0.29104 v -0.65154 q 0,-0.47955 -0.003,-0.5209 -0.002,-0.0413 -0.0281,-0.0413 -0.007,0 -0.0182,0.003 -0.0116,0.003 -0.0728,0.0298 l -0.16371,0.0728 q -0.10253,0.0446 -0.19348,0.0943 z m 1.65695,1.84547 q -0.0397,-0.12898 -0.16371,-0.42664 l 0.003,-0.0215 0.0579,-0.0331 0.0198,0.005 q 0.13725,0.2497 0.17033,0.28443 0.0347,0.0331 0.15544,0.0794 0.12072,0.0447 0.25466,0.0447 0.16702,0 0.296,-0.0728 0.12899,-0.0728 0.19182,-0.21497 0.0628,-0.14222 0.0628,-0.32246 0,-0.17694 -0.0628,-0.30427 -0.0612,-0.12899 -0.18851,-0.19513 -0.12733,-0.0661 -0.27451,-0.0661 -0.0926,0 -0.16867,0.0248 -0.0744,0.0248 -0.12567,0.0645 -0.0496,0.038 -0.11907,0.1141 l -0.0678,-0.0199 0.0182,-0.35553 q 0.007,-0.10087 0.007,-0.2034 v -0.29435 q 0,-0.13229 -0.008,-0.253 -0.005,-0.0744 -0.005,-0.0943 l 0.0215,-0.0165 q 0.253,0.0199 0.57712,0.0199 0.24639,0 0.59035,-0.0199 l 0.007,0.0165 q -0.0116,0.081 -0.0116,0.15048 0,0.0347 0.005,0.11576 l -0.0165,0.01 q -0.18851,-0.0132 -0.50601,-0.0132 -0.4316,0 -0.50106,0.003 -0.0248,0.19513 -0.0347,0.68791 0.1356,-0.0992 0.24474,-0.13394 0.10914,-0.0364 0.23647,-0.0364 0.18025,0 0.34561,0.0827 0.16536,0.0827 0.24639,0.23978 0.0827,0.15709 0.0827,0.33899 0,0.33569 -0.27781,0.61847 -0.27616,0.28112 -0.70776,0.28112 -0.11575,0 -0.19182,-0.0198 -0.0744,-0.0198 -0.16206,-0.0645 z"
       id="text1-1-8-50-4-8-4"
       aria-label="15" />
    <path
       style="font-size:3.38666px;font-family:'Palatino Linotype';-inkscape-font-specification:'Palatino Linotype';stroke-width:0.0423334;stroke-linejoin:round"
       d="m 151.37663,116.10072 -0.0298,-0.01 -0.0165,-0.1356 0.0165,-0.0165 q 0.16536,-0.048 0.41837,-0.15378 0.25301,-0.10584 0.36215,-0.16206 l 0.043,0.0165 q -0.0265,0.72429 -0.0265,0.86981 v 0.6135 q 0,0.22655 0.005,0.42664 0.005,0.19844 0.0149,0.23482 0.01,0.0347 0.0331,0.0546 0.0248,0.0198 0.0678,0.0265 0.043,0.005 0.25631,0.0165 l 0.0116,0.0132 v 0.0744 l -0.0116,0.0132 q -0.36214,-0.0132 -0.51097,-0.0132 -0.11245,0 -0.55066,0.0132 l -0.0116,-0.0132 v -0.0744 l 0.0132,-0.0132 q 0.24805,-0.0182 0.28277,-0.0265 0.0364,-0.008 0.0546,-0.0281 0.0199,-0.0215 0.0314,-0.0794 0.0116,-0.0579 0.0182,-0.3423 0.008,-0.28443 0.008,-0.29105 v -0.65153 q 0,-0.47956 -0.003,-0.5209 -0.002,-0.0413 -0.0281,-0.0413 -0.007,0 -0.0182,0.003 -0.0116,0.003 -0.0728,0.0298 l -0.16371,0.0728 q -0.10253,0.0446 -0.19348,0.0943 z m 2.86907,-0.41837 v 0.0198 q -0.18024,0.038 -0.41175,0.18025 -0.22986,0.14221 -0.38696,0.38199 -0.15709,0.23978 -0.1819,0.57878 0.0562,-0.0397 0.12899,-0.0959 0.0943,-0.0711 0.13725,-0.0976 0.0446,-0.0265 0.11741,-0.0463 0.0744,-0.0199 0.17032,-0.0199 0.17033,0 0.30593,0.0761 0.1356,0.0744 0.2034,0.22159 0.0678,0.14552 0.0678,0.34065 0,0.27616 -0.13395,0.46302 -0.13394,0.18521 -0.28443,0.26624 -0.15048,0.0794 -0.34561,0.0794 -0.33238,0 -0.51593,-0.24804 -0.18356,-0.2497 -0.18356,-0.64823 0,-0.26458 0.0761,-0.50767 0.0777,-0.24474 0.23482,-0.44152 0.15709,-0.19844 0.40018,-0.35223 0.24474,-0.15379 0.48121,-0.20836 z m -1.01203,1.57757 q 0,0.16372 0.0463,0.32412 0.048,0.1604 0.15213,0.24805 0.10418,0.0876 0.24474,0.0876 0.12072,0 0.22324,-0.0678 0.10253,-0.0678 0.15545,-0.21167 0.0546,-0.14552 0.0546,-0.30592 0,-0.1604 -0.0529,-0.28608 -0.0529,-0.12733 -0.15379,-0.19678 -0.10087,-0.0711 -0.23482,-0.0711 -0.0992,0 -0.19843,0.048 -0.0992,0.048 -0.15379,0.10914 -0.0529,0.0612 -0.0678,0.13064 -0.0149,0.0678 -0.0149,0.19182 z"
       id="text1-1-8-50-4-8-0"
       aria-label="16" />
  </g>
</svg>
