<?xml version="1.0" encoding="UTF-8" standalone="no"?>
<!-- Created with Inkscape (http://www.inkscape.org/) -->

<svg
   width="66.053818mm"
   height="62.968304mm"
   viewBox="0 0 66.053818 62.968304"
   version="1.1"
   id="svg1"
   inkscape:version="1.4 (86a8ad7, 2024-10-11)"
   sodipodi:docname="figura6.svg"
   xmlns:inkscape="http://www.inkscape.org/namespaces/inkscape"
   xmlns:sodipodi="http://sodipodi.sourceforge.net/DTD/sodipodi-0.dtd"
   xmlns="http://www.w3.org/2000/svg"
   xmlns:svg="http://www.w3.org/2000/svg">
  <sodipodi:namedview
     id="namedview1"
     pagecolor="#ffffff"
     bordercolor="#000000"
     borderopacity="0.25"
     inkscape:showpageshadow="2"
     inkscape:pageopacity="0.0"
     inkscape:pagecheckerboard="0"
     inkscape:deskcolor="#d1d1d1"
     inkscape:document-units="mm"
     inkscape:zoom="1.3934011"
     inkscape:cx="181.21128"
     inkscape:cy="101.55008"
     inkscape:window-width="1366"
     inkscape:window-height="705"
     inkscape:window-x="-8"
     inkscape:window-y="-8"
     inkscape:window-maximized="1"
     inkscape:current-layer="layer1" />
  <defs
     id="defs1">
    <clipPath
       clipPathUnits="userSpaceOnUse"
       id="clipPath145">
      <path
         d="M 3207.6,3014.4 H 5159.26 V 4821.5 H 3207.6 Z"
         id="path145-5" />
    </clipPath>
    <clipPath
       clipPathUnits="userSpaceOnUse"
       id="clipPath147-0">
      <path
         d="M 3207.6,3014.4 H 5159.26 V 4821.5 H 3207.6 Z"
         id="path147-8" />
    </clipPath>
    <clipPath
       clipPathUnits="userSpaceOnUse"
       id="clipPath149-3">
      <path
         d="M 3207.6,3014.4 H 5159.26 V 4821.5 H 3207.6 Z"
         id="path149-9" />
    </clipPath>
    <clipPath
       clipPathUnits="userSpaceOnUse"
       id="clipPath151-3">
      <path
         d="M 3207.6,3014.4 H 5159.26 V 4821.5 H 3207.6 Z"
         id="path151-9" />
    </clipPath>
    <clipPath
       clipPathUnits="userSpaceOnUse"
       id="clipPath153">
      <path
         d="M 3207.6,3014.4 H 5159.26 V 4821.5 H 3207.6 Z"
         transform="matrix(0.1,0,0,-0.1,-332.27101,334.21701)"
         id="path153-67" />
    </clipPath>
    <clipPath
       clipPathUnits="userSpaceOnUse"
       id="clipPath158-7">
      <path
         d="M 3207.6,3014.4 H 5159.26 V 4821.5 H 3207.6 Z"
         transform="matrix(0.1,0,0,-0.1,-448.30501,312.12101)"
         id="path158-6" />
    </clipPath>
    <clipPath
       clipPathUnits="userSpaceOnUse"
       id="clipPath163-5">
      <path
         d="M 3207.6,3014.4 H 5159.26 V 4821.5 H 3207.6 Z"
         transform="matrix(0.1,0,0,-0.1,-365.13301,327.95901)"
         id="path163-7" />
    </clipPath>
    <clipPath
       clipPathUnits="userSpaceOnUse"
       id="clipPath168">
      <path
         d="M 3207.6,3014.4 H 5159.26 V 4821.5 H 3207.6 Z"
         transform="matrix(0.1,0,0,-0.1,-512.47001,360.85101)"
         id="path168-5" />
    </clipPath>
    <clipPath
       clipPathUnits="userSpaceOnUse"
       id="clipPath173-5">
      <path
         d="M 3207.6,3014.4 H 5159.26 V 4821.5 H 3207.6 Z"
         transform="matrix(0.1,0,0,-0.1,-403.92001,397.80001)"
         id="path173-4" />
    </clipPath>
    <clipPath
       clipPathUnits="userSpaceOnUse"
       id="clipPath178-1">
      <path
         d="M 3207.6,3014.4 H 5159.26 V 4821.5 H 3207.6 Z"
         transform="matrix(0.1,0,0,-0.1,-340.12801,363.80701)"
         id="path178-6" />
    </clipPath>
    <clipPath
       clipPathUnits="userSpaceOnUse"
       id="clipPath183">
      <path
         d="M 3207.6,3014.4 H 5159.26 V 4821.5 H 3207.6 Z"
         transform="matrix(0.1,0,0,-0.1,-365.39301,458.96101)"
         id="path183-33" />
    </clipPath>
    <clipPath
       clipPathUnits="userSpaceOnUse"
       id="clipPath188-3">
      <path
         d="M 3207.6,3014.4 H 5159.26 V 4821.5 H 3207.6 Z"
         transform="matrix(0.1,0,0,-0.1,-457.18201,450.58201)"
         id="path188-2" />
    </clipPath>
  </defs>
  <g
     inkscape:label="Capa 1"
     inkscape:groupmode="layer"
     id="layer1"
     transform="translate(-38.36462,-89.958315)">
    <path
       id="path144-14"
       d="m 4762.04,3978 c 0,399.21 -323.63,722.84 -722.84,722.84 -399.21,0 -722.84,-323.63 -722.84,-722.84 0,-399.21 323.63,-722.84 722.84,-722.84 399.21,0 722.84,323.63 722.84,722.84 z"
       style="fill:none;stroke:#0000ff;stroke-width:5.97758;stroke-linecap:butt;stroke-linejoin:miter;stroke-miterlimit:10;stroke-dasharray:none;stroke-opacity:1"
       transform="matrix(0.03527778,0,0,-0.03527778,-77.562187,259.09653)"
       clip-path="url(#clipPath145)" />
    <path
       id="path146-8"
       d="M 3299.04,3346.68 4506.72,3116.71"
       style="fill:none;stroke:#000000;stroke-width:5.97758;stroke-linecap:butt;stroke-linejoin:miter;stroke-miterlimit:10;stroke-dasharray:none;stroke-opacity:1"
       transform="matrix(0.03527778,0,0,-0.03527778,-77.562187,259.09653)"
       clip-path="url(#clipPath147-0)" />
    <path
       id="path148-4"
       d="M 3316.53,3318.89 3660.12,4612.9"
       style="fill:none;stroke:#000000;stroke-width:5.97758;stroke-linecap:butt;stroke-linejoin:miter;stroke-miterlimit:10;stroke-dasharray:none;stroke-opacity:1"
       transform="matrix(0.03527778,0,0,-0.03527778,-77.562187,259.09653)"
       clip-path="url(#clipPath149-3)" />
    <path
       id="path150-9"
       d="m 5064.77,3933.5 c 0,473.85 -384.13,857.98 -857.98,857.98 -473.84,0 -857.98,-384.13 -857.98,-857.98 0,-473.85 384.14,-857.98 857.98,-857.98 473.85,0 857.98,384.13 857.98,857.98 z"
       style="fill:none;stroke:#ff8000;stroke-width:5.97758;stroke-linecap:butt;stroke-linejoin:miter;stroke-miterlimit:10;stroke-dasharray:none;stroke-opacity:1"
       transform="matrix(0.03527778,0,0,-0.03527778,-77.562187,259.09653)"
       clip-path="url(#clipPath151-3)" />
    <path
       id="path152-2"
       d="m -1.9926797,0.00117969 c 0,1.10156251 0.890625,1.99218751 1.9921875125,1.99218751 1.1015624875,0 1.9921874875,-0.890625 1.9921874875,-1.99218751 0,-1.10156249 -0.890625,-1.99218749 -1.9921874875,-1.99218749 -1.1015625125,0 -1.9921875125,0.890625 -1.9921875125,1.99218749 z m 0,0"
       style="fill:#ffffff;fill-opacity:1;fill-rule:nonzero;stroke:none"
       aria-label="b"
       transform="matrix(0.35277776,0,0,0.35277776,39.655637,141.1922)"
       clip-path="url(#clipPath153)" />
    <path
       id="path157-0"
       d="m -1.9934766,8.828125e-4 c 0,1.1015624875 0.890625,1.9921874875 1.99218754,1.9921874875 1.10156246,0 1.99218746,-0.890625 1.99218746,-1.9921874875 0,-1.1015625125 -0.890625,-1.9921875125 -1.99218746,-1.9921875125 -1.10156254,0 -1.99218754,0.890625 -1.99218754,1.9921875125 z m 0,0"
       style="fill:#ffffff;fill-opacity:1;fill-rule:nonzero;stroke:none"
       aria-label="b"
       transform="matrix(0.35277776,0,0,0.35277776,80.589853,148.98718)"
       clip-path="url(#clipPath158-7)" />
    <path
       id="path159-60"
       d="m 79.956879,148.98749 c 0,-0.34726 0.285254,-0.63252 0.632519,-0.63252 0.347266,0 0.63252,0.28526 0.63252,0.63252 0,0.34727 -0.285254,0.63252 -0.63252,0.63252 -0.347265,0 -0.632519,-0.28525 -0.632519,-0.63252 z m -0.07028,0 c 0,0.38861 0.314192,0.7028 0.702799,0.7028 0.388607,0 0.7028,-0.31419 0.7028,-0.7028 0,-0.38861 -0.314193,-0.7028 -0.7028,-0.7028 -0.388607,0 -0.702799,0.31419 -0.702799,0.7028 z m 0,0"
       style="fill:#000000;fill-opacity:1;fill-rule:nonzero;stroke:none;stroke-width:0.352778" />
    <path
       id="path160-7"
       d="m 79.819419,150.34762 0.206706,0.008 c 0.09095,0.004 0.132292,0.0331 0.132292,0.10336 0,0.0537 -0.0124,0.17776 -0.03307,0.29352 l -0.334863,1.9389 c -0.01654,0.0703 -0.06201,0.0951 -0.223243,0.12402 l -0.02067,0.0992 0.144694,-0.004 c 0.103353,-0.008 0.16123,-0.008 0.206706,-0.008 0.04134,0 0.140559,0.004 0.243912,0.008 l 0.14056,0.004 0.07855,0.004 c 0.07028,0.004 0.11989,0.008 0.152963,0.008 0.186035,0 0.367936,-0.0537 0.549837,-0.16536 0.305924,-0.17777 0.475423,-0.44235 0.475423,-0.73174 0,-0.16536 -0.05788,-0.29352 -0.161231,-0.38034 -0.09922,-0.0785 -0.214973,-0.11575 -0.479557,-0.15296 0.219108,-0.0744 0.314193,-0.12402 0.434082,-0.23151 0.177767,-0.14883 0.264584,-0.33073 0.264584,-0.52503 0,-0.31833 -0.223243,-0.50023 -0.607715,-0.50023 -0.0083,0 -0.04548,0 -0.103353,0.004 l -0.239779,0.004 c -0.04961,0.004 -0.186035,0.004 -0.23151,0.004 -0.07441,0 -0.194304,-0.004 -0.380339,-0.008 l -0.202571,-0.004 z m 0.463021,1.24436 h 0.326595 c 0.396875,0 0.591179,0.16537 0.591179,0.50023 0,0.39274 -0.28112,0.678 -0.665593,0.678 -0.07855,0 -0.190169,-0.004 -0.318327,-0.0124 -0.02067,-0.004 -0.07028,-0.008 -0.128157,-0.0124 z m 0.21084,-1.19062 c 0.04134,0 0.04961,-0.004 0.132292,-0.008 0.07855,-0.008 0.132291,-0.0124 0.177767,-0.0124 0.310058,0 0.46302,0.14056 0.46302,0.42995 0,0.401 -0.285253,0.64492 -0.760677,0.64492 h -0.198437 z m 0,0"
       style="fill:#000000;fill-opacity:1;fill-rule:nonzero;stroke:none;stroke-width:0.352778" />
    <text
       xml:space="preserve"
       style="font-size:2.82223px;font-family:'Palatino Linotype';-inkscape-font-specification:'Palatino Linotype';text-align:start;writing-mode:lr-tb;direction:ltr;text-anchor:start;fill:#000000;stroke-width:0.0352777;stroke-linejoin:round"
       x="81.886475"
       y="154.40778"
       id="text1"><tspan
         sodipodi:role="line"
         id="tspan1"
         style="stroke-width:0.0352778"
         x="81.886475"
         y="154.40778"></tspan></text>
    <path
       id="path162-0"
       d="M -1.992375,9.921875e-4 C -1.992375,1.1025547 -1.10175,1.9931797 -1.875e-4,1.9931797 1.101375,1.9931797 1.992,1.1025547 1.992,9.921875e-4 1.992,-1.1005703 1.101375,-1.9911953 -1.875e-4,-1.9911953 c -1.1015625,0 -1.9921875,0.890625 -1.9921875,1.9921874875 z m 0,0"
       style="fill:#ffffff;fill-opacity:1;fill-rule:nonzero;stroke:none"
       aria-label="b"
       transform="matrix(0.35277776,0,0,0.35277776,51.24862,143.39988)"
       clip-path="url(#clipPath163-5)" />
    <path
       id="path164-5"
       d="m 50.616034,143.40023 c 0,-0.34727 0.285254,-0.63252 0.63252,-0.63252 0.347265,0 0.632519,0.28525 0.632519,0.63252 0,0.34727 -0.285254,0.63252 -0.632519,0.63252 -0.347266,0 -0.63252,-0.28525 -0.63252,-0.63252 z m -0.07028,0 c 0,0.38861 0.314193,0.7028 0.7028,0.7028 0.388607,0 0.702799,-0.31419 0.702799,-0.7028 0,-0.38861 -0.314192,-0.7028 -0.702799,-0.7028 -0.388607,0 -0.7028,0.31419 -0.7028,0.7028 z m 0,0"
       style="fill:#000000;fill-opacity:1;fill-rule:nonzero;stroke:none;stroke-width:0.352778" />
    <path
       id="path165-6"
       d="m 50.85788,144.83063 0.409277,-0.0165 c 0.239779,0 0.392741,0.0331 0.396875,0.0909 l 0.02894,0.34313 h 0.09508 c 0.0083,-0.24391 0.03721,-0.43822 0.07855,-0.58291 -0.08268,-0.008 -0.190169,-0.0124 -0.256315,-0.0124 l -0.157096,0.004 -0.636654,0.008 h -0.111621 c -0.09508,0 -0.248047,-0.004 -0.396875,-0.008 l -0.186035,-0.004 -0.0124,0.10748 0.214974,0.008 c 0.09095,0.004 0.132292,0.0372 0.132292,0.10335 0,0.0538 -0.0124,0.17777 -0.03307,0.29353 l -0.289388,1.67018 c -0.06615,0.3514 -0.06615,0.35553 -0.223242,0.37207 l -0.136426,0.0124 -0.01654,0.10749 0.132291,-0.004 c 0.152963,-0.004 0.276986,-0.008 0.355534,-0.008 0.07028,0 0.181901,0.004 0.330729,0.008 l 0.202572,0.004 0.0124,-0.10749 -0.248047,-0.0124 c -0.103352,-0.004 -0.14056,-0.0331 -0.14056,-0.11162 0,-0.0248 0.0041,-0.0661 0.0083,-0.0827 l 0.140559,-0.85577 h 0.450619 c 0.103353,0 0.223242,0.004 0.405143,0.0124 h 0.103353 l 0.07028,-0.1695 -0.0124,-0.0289 c -0.314193,0.0165 -0.545703,0.0248 -0.84336,0.0248 h -0.144694 l 0.177767,-1.04593 c 0.0124,-0.062 0.01654,-0.0786 0.03307,-0.11989 z m 0,0"
       style="fill:#000000;fill-opacity:1;fill-rule:nonzero;stroke:none;stroke-width:0.352778" />
    <path
       id="path167-7"
       d="m -1.9924609,0.00139062 c 0,1.10156248 0.890625,1.99218748 1.9921874625,1.99218748 1.1015625375,0 1.9921875375,-0.890625 1.9921875375,-1.99218748 0,-1.10156252 -0.890625,-1.99218752 -1.9921875375,-1.99218752 -1.1015624625,0 -1.9921874625,0.890625 -1.9921874625,1.99218752 z m 0,0"
       style="fill:#ffffff;fill-opacity:1;fill-rule:nonzero;stroke:none"
       aria-label="b"
       transform="matrix(0.35277776,0,0,0.35277776,103.22584,131.79632)"
       clip-path="url(#clipPath168)" />
    <path
       id="path169-3"
       d="m 102.59322,131.79681 c 0,-0.34727 0.28526,-0.63252 0.63252,-0.63252 0.34727,0 0.63252,0.28525 0.63252,0.63252 0,0.34727 -0.28525,0.63252 -0.63252,0.63252 -0.34726,0 -0.63252,-0.28525 -0.63252,-0.63252 z m -0.0703,0 c 0,0.38861 0.3142,0.7028 0.7028,0.7028 0.38861,0 0.7028,-0.31419 0.7028,-0.7028 0,-0.38861 -0.31419,-0.7028 -0.7028,-0.7028 -0.3886,0 -0.7028,0.31419 -0.7028,0.7028 z m 0,0"
       style="fill:#000000;fill-opacity:1;fill-rule:nonzero;stroke:none;stroke-width:0.352778" />
    <path
       id="path170-84"
       d="m 104.21173,128.45645 h 0.10335 c 0.0207,-0.21911 0.0496,-0.38448 0.10336,-0.56224 -0.29353,-0.11162 -0.51263,-0.1571 -0.74828,-0.1571 -0.31833,0 -0.63252,0.0951 -0.90124,0.27699 -0.45061,0.30179 -0.68212,0.75654 -0.68212,1.34772 0,0.74414 0.41341,1.16168 1.14514,1.16168 0.37208,0 0.64493,-0.091 0.99219,-0.32659 l 0.0372,-0.14056 -0.0372,-0.0248 c -0.3638,0.21911 -0.56224,0.28526 -0.86403,0.28526 -0.60358,0 -0.93431,-0.36794 -0.93431,-1.0542 0,-0.42582 0.12816,-0.80615 0.3638,-1.04593 0.18191,-0.18604 0.42995,-0.27699 0.73174,-0.27699 0.27285,0 0.47543,0.0538 0.6904,0.19431 z m 0,0"
       style="fill:#000000;fill-opacity:1;fill-rule:nonzero;stroke:none;stroke-width:0.352778" />
    <path
       id="path172-9"
       d="m -1.9932422,0.00117187 c 0,1.10156253 0.890625,1.99218753 1.99218751,1.99218753 1.10156249,0 1.99218749,-0.890625 1.99218749,-1.99218753 0,-1.10156247 -0.890625,-1.99218747 -1.99218749,-1.99218747 -1.10156251,0 -1.99218751,0.890625 -1.99218751,1.99218747 z m 0,0"
       style="fill:#ffffff;fill-opacity:1;fill-rule:nonzero;stroke:none"
       aria-label="b"
       transform="matrix(0.35277776,0,0,0.35277776,64.931811,118.76153)"
       clip-path="url(#clipPath173-5)" />
    <path
       id="path174-2"
       d="m 64.298919,118.76194 c 0,-0.34726 0.285254,-0.63252 0.63252,-0.63252 0.347266,0 0.632519,0.28526 0.632519,0.63252 0,0.34727 -0.285253,0.63252 -0.632519,0.63252 -0.347266,0 -0.63252,-0.28525 -0.63252,-0.63252 z m -0.07028,0 c 0,0.38861 0.314193,0.7028 0.7028,0.7028 0.388607,0 0.702799,-0.31419 0.702799,-0.7028 0,-0.3886 -0.314192,-0.7028 -0.702799,-0.7028 -0.388607,0 -0.7028,0.3142 -0.7028,0.7028 z m 0,0"
       style="fill:#000000;fill-opacity:1;fill-rule:nonzero;stroke:none;stroke-width:0.352778" />
    <path
       id="path175-65"
       d="m 65.193955,114.70224 c -0.913639,0 -1.583366,0.7028 -1.583366,1.67019 0,0.7276 0.363802,1.11621 1.041797,1.11621 0.326595,0 0.599447,-0.0744 0.847494,-0.23151 0.487825,-0.30179 0.785481,-0.86817 0.785481,-1.47588 0,-0.68213 -0.396875,-1.07901 -1.091406,-1.07901 z m -0.119889,0.16123 c 0.186035,0 0.37207,0.0455 0.500228,0.12403 0.252181,0.14469 0.37207,0.43408 0.37207,0.85576 0,0.48782 -0.152962,0.92191 -0.413411,1.19062 -0.19017,0.19017 -0.438217,0.29353 -0.740007,0.29353 -0.553971,0 -0.843359,-0.33073 -0.843359,-0.97566 0,-0.50022 0.157096,-0.95084 0.421679,-1.21542 0.181901,-0.18604 0.409278,-0.27286 0.7028,-0.27286 z m 0,0"
       style="fill:#000000;fill-opacity:1;fill-rule:nonzero;stroke:none;stroke-width:0.352778" />
    <path
       id="path177-7"
       d="m -1.9922578,0.00133594 c 0,1.10156246 0.890625,1.99218746 1.9921874875,1.99218746 1.1015625125,0 1.9921875125,-0.890625 1.9921875125,-1.99218746 0,-1.10156254 -0.890625,-1.99218754 -1.9921875125,-1.99218754 -1.1015624875,0 -1.9921874875,0.890625 -1.9921874875,1.99218754 z m 0,0"
       style="fill:#ffffff;fill-opacity:1;fill-rule:nonzero;stroke:none"
       aria-label="b"
       transform="matrix(0.35277776,0,0,0.35277776,42.427411,130.75351)"
       clip-path="url(#clipPath178-1)" />
    <path
       id="path179-7"
       d="m 41.794867,130.75398 c 0,-0.34726 0.285254,-0.63252 0.632519,-0.63252 0.347266,0 0.63252,0.28526 0.63252,0.63252 0,0.34727 -0.285254,0.63252 -0.63252,0.63252 -0.347265,0 -0.632519,-0.28525 -0.632519,-0.63252 z m -0.07028,0 c 0,0.38861 0.314192,0.7028 0.702799,0.7028 0.388607,0 0.7028,-0.31419 0.7028,-0.7028 0,-0.38861 -0.314193,-0.7028 -0.7028,-0.7028 -0.388607,0 -0.702799,0.31419 -0.702799,0.7028 z m 0,0"
       style="fill:#000000;fill-opacity:1;fill-rule:nonzero;stroke:none;stroke-width:0.352778" />
    <path
       id="path180-4"
       d="m 41.084833,129.93233 0.0124,-0.10749 h -0.06201 l -0.3514,0.0124 c -0.05788,0 -0.136425,0 -0.305924,-0.004 l -0.243913,-0.008 -0.0124,0.10749 0.186035,0.008 c 0.09095,0.004 0.136426,0.0331 0.136426,0.10749 0,0.0165 0,0.0289 -0.0041,0.0455 l -0.272852,1.71152 c -0.186035,0.22324 -0.30179,0.32246 -0.496094,0.42168 -0.148828,0.0744 -0.289388,0.11162 -0.438216,0.11162 -0.326595,0 -0.5333,-0.17363 -0.5333,-0.44235 0,-0.0661 0.0083,-0.12816 0.0248,-0.23564 l 0.338998,-1.83555 -0.115755,0.004 c -0.107487,0.004 -0.181901,0.008 -0.223243,0.008 -0.04134,0 -0.115755,-0.004 -0.223242,-0.008 l -0.124023,-0.004 -0.0124,0.10749 0.198438,0.008 c 0.103353,0.004 0.132291,0.0207 0.132291,0.0868 0,0.0331 -0.0124,0.14469 -0.02894,0.22324 l -0.243913,1.44281 c -0.01653,0.0827 -0.0248,0.17777 -0.0248,0.23978 0,0.3886 0.26045,0.62838 0.690398,0.62838 0.169498,0 0.326595,-0.0413 0.51263,-0.13229 0.227376,-0.11162 0.347265,-0.2067 0.549837,-0.43822 -0.03307,0.17777 -0.05374,0.27699 -0.103353,0.48783 l 0.01654,0.0207 h 0.08682 l 0.239779,-0.0124 c 0.0124,0 0.09922,0.004 0.223242,0.008 l 0.119889,0.004 0.02067,-0.10749 -0.231511,-0.0165 c -0.08682,-0.008 -0.124023,-0.0289 -0.124023,-0.0827 0,-0.0579 0.0041,-0.0744 0.0248,-0.21498 l 0.326595,-1.9513 c 0.02481,-0.14469 0.04961,-0.1695 0.198438,-0.1819 z m 0,0"
       style="fill:#000000;fill-opacity:1;fill-rule:nonzero;stroke:none;stroke-width:0.352778" />
    <path
       id="path182-5"
       d="M -1.9916328,-9.140625e-4 C -1.9916328,1.1006484 -1.1010078,1.9912734 5.546875e-4,1.9912734 1.1021172,1.9912734 1.9927422,1.1006484 1.9927422,-9.140625e-4 1.9927422,-1.1024766 1.1021172,-1.9931016 5.546875e-4,-1.9931016 c -1.1015624875,0 -1.9921874875,0.890625 -1.9921874875,1.9921875375 z m 0,0"
       style="fill:#ffffff;fill-opacity:1;fill-rule:nonzero;stroke:none"
       aria-label="b"
       transform="matrix(0.35277776,0,0,0.35277776,51.340343,97.18529)"
       clip-path="url(#clipPath183)" />
    <path
       id="path184-7"
       d="m 50.708019,97.184968 c 0,-0.347266 0.285254,-0.63252 0.63252,-0.63252 0.347265,0 0.632519,0.285254 0.632519,0.63252 0,0.347265 -0.285254,0.632519 -0.632519,0.632519 -0.347266,0 -0.63252,-0.285254 -0.63252,-0.632519 z m -0.07028,0 c 0,0.388606 0.314193,0.702799 0.7028,0.702799 0.388606,0 0.702799,-0.314193 0.702799,-0.702799 0,-0.388607 -0.314193,-0.7028 -0.702799,-0.7028 -0.388607,0 -0.7028,0.314193 -0.7028,0.7028 z m 0,0"
       style="fill:#000000;fill-opacity:1;fill-rule:nonzero;stroke:none;stroke-width:0.352778" />
    <path
       id="path185-98"
       d="m 51.053218,95.516852 -0.272852,-2.033984 -0.0041,-0.0248 c -0.0083,-0.07441 0.04961,-0.115755 0.165365,-0.119889 l 0.16123,-0.0083 v -0.107487 l -0.157096,0.0041 c -0.144694,0.0041 -0.252181,0.0083 -0.322461,0.0083 -0.06615,0 -0.177767,-0.0041 -0.318327,-0.0083 l -0.157096,-0.0041 v 0.107487 l 0.09508,0.0083 c 0.169499,0.0083 0.202572,0.04134 0.227377,0.181901 l 0.338997,2.393652 h 0.190169 l 1.451074,-2.381251 c 0.09922,-0.152962 0.128158,-0.181901 0.239779,-0.194303 l 0.07028,-0.0083 v -0.107487 l -0.115755,0.0041 c -0.103353,0.0041 -0.194304,0.0083 -0.252181,0.0083 -0.04134,0 -0.144694,-0.0041 -0.301791,-0.0083 l -0.177766,-0.0041 v 0.107487 l 0.09922,0.0083 c 0.148828,0.0083 0.219108,0.04961 0.219108,0.119889 0,0.04548 -0.0124,0.08682 -0.05788,0.165365 z m 0,0"
       style="fill:#000000;fill-opacity:1;fill-rule:nonzero;stroke:none;stroke-width:0.352778" />
    <path
       id="path187-30"
       d="m 5.6353828,-1.7822578 c 0,-0.070312 -0.058594,-0.082031 -0.1171875,-0.082031 -0.1875,0 -0.4570312,0.1640625 -0.46875,0.1640625 -0.234375,0.1523438 -0.28125,0.234375 -0.4101562,0.421875 -0.3515625,0.53906254 -0.8554688,0.92578129 -1.59375,0.92578129 -1.0195313,0 -1.9453125,-0.73828129 -1.9453125,-2.44921879 0,-1.0195312 0.4101562,-2.3671875 1.0078125,-3.2695312 0.5039062,-0.7265625 1.1132812,-1.3242188 2.2851562,-1.3242188 0.4335938,0 0.7148438,0.1640625 0.7148438,0.5859375 0,0.3984375 -0.421875,1.2070313 -0.5625,1.4296875 -0.070312,0.1289063 -0.070312,0.1523438 -0.070312,0.1757813 0,0.082031 0.058594,0.082031 0.1289062,0.082031 0.2226563,0 0.6445313,-0.2578125 0.7851563,-0.4335937 0.023437,-0.046875 0.6796875,-1.1601563 0.6796875,-1.7460938 0,-0.6210937 -0.515625,-0.7148437 -0.9257813,-0.7148437 -1.640625,0 -3,1.078125 -3.515625,1.7226562 -1.35937499,1.6289063 -1.48828124,3.3984375 -1.48828124,3.984375 0,1.66406254 0.83203125,2.57812504 2.15625004,2.57812504 1.828125,0 3.3398437,-1.76953124 3.3398432,-2.05078134 z m 0,0"
       style="fill:#0000ff;fill-opacity:1;fill-rule:nonzero;stroke:none"
       aria-label="C"
       transform="matrix(0.35277776,0,0,0.35277776,83.721461,100.14121)"
       clip-path="url(#clipPath188-3)" />
  </g>
</svg>
