<?xml version="1.0" encoding="UTF-8" standalone="no"?>
<!-- Created with Inkscape (http://www.inkscape.org/) -->

<svg
   width="79.264557mm"
   height="75.562988mm"
   viewBox="0 0 79.264557 75.562989"
   version="1.1"
   id="svg1"
   inkscape:version="1.4 (86a8ad7, 2024-10-11)"
   sodipodi:docname="figura6.svg"
   xmlns:inkscape="http://www.inkscape.org/namespaces/inkscape"
   xmlns:sodipodi="http://sodipodi.sourceforge.net/DTD/sodipodi-0.dtd"
   xmlns="http://www.w3.org/2000/svg"
   xmlns:svg="http://www.w3.org/2000/svg">
  <sodipodi:namedview
     id="namedview1"
     pagecolor="#ffffff"
     bordercolor="#000000"
     borderopacity="0.25"
     inkscape:showpageshadow="2"
     inkscape:pageopacity="0.0"
     inkscape:pagecheckerboard="0"
     inkscape:deskcolor="#d1d1d1"
     inkscape:document-units="mm"
     inkscape:zoom="0.69670055"
     inkscape:cx="169.36975"
     inkscape:cy="-38.036428"
     inkscape:window-width="1366"
     inkscape:window-height="705"
     inkscape:window-x="-8"
     inkscape:window-y="-8"
     inkscape:window-maximized="1"
     inkscape:current-layer="layer1" />
  <defs
     id="defs1">
    <clipPath
       clipPathUnits="userSpaceOnUse"
       id="clipPath145">
      <path
         d="M 3207.6,3014.4 H 5159.26 V 4821.5 H 3207.6 Z"
         id="path145-5" />
    </clipPath>
    <clipPath
       clipPathUnits="userSpaceOnUse"
       id="clipPath147-0">
      <path
         d="M 3207.6,3014.4 H 5159.26 V 4821.5 H 3207.6 Z"
         id="path147-8" />
    </clipPath>
    <clipPath
       clipPathUnits="userSpaceOnUse"
       id="clipPath149-3">
      <path
         d="M 3207.6,3014.4 H 5159.26 V 4821.5 H 3207.6 Z"
         id="path149-9" />
    </clipPath>
    <clipPath
       clipPathUnits="userSpaceOnUse"
       id="clipPath151-3">
      <path
         d="M 3207.6,3014.4 H 5159.26 V 4821.5 H 3207.6 Z"
         id="path151-9" />
    </clipPath>
    <clipPath
       clipPathUnits="userSpaceOnUse"
       id="clipPath153">
      <path
         d="M 3207.6,3014.4 H 5159.26 V 4821.5 H 3207.6 Z"
         transform="matrix(0.1,0,0,-0.1,-332.27101,334.21701)"
         id="path153-67" />
    </clipPath>
    <clipPath
       clipPathUnits="userSpaceOnUse"
       id="clipPath158-7">
      <path
         d="M 3207.6,3014.4 H 5159.26 V 4821.5 H 3207.6 Z"
         transform="matrix(0.1,0,0,-0.1,-448.30501,312.12101)"
         id="path158-6" />
    </clipPath>
    <clipPath
       clipPathUnits="userSpaceOnUse"
       id="clipPath163-5">
      <path
         d="M 3207.6,3014.4 H 5159.26 V 4821.5 H 3207.6 Z"
         transform="matrix(0.1,0,0,-0.1,-365.13301,327.95901)"
         id="path163-7" />
    </clipPath>
    <clipPath
       clipPathUnits="userSpaceOnUse"
       id="clipPath168">
      <path
         d="M 3207.6,3014.4 H 5159.26 V 4821.5 H 3207.6 Z"
         transform="matrix(0.1,0,0,-0.1,-512.47001,360.85101)"
         id="path168-5" />
    </clipPath>
    <clipPath
       clipPathUnits="userSpaceOnUse"
       id="clipPath173-5">
      <path
         d="M 3207.6,3014.4 H 5159.26 V 4821.5 H 3207.6 Z"
         transform="matrix(0.1,0,0,-0.1,-403.92001,397.80001)"
         id="path173-4" />
    </clipPath>
    <clipPath
       clipPathUnits="userSpaceOnUse"
       id="clipPath178-1">
      <path
         d="M 3207.6,3014.4 H 5159.26 V 4821.5 H 3207.6 Z"
         transform="matrix(0.1,0,0,-0.1,-340.12801,363.80701)"
         id="path178-6" />
    </clipPath>
    <clipPath
       clipPathUnits="userSpaceOnUse"
       id="clipPath183">
      <path
         d="M 3207.6,3014.4 H 5159.26 V 4821.5 H 3207.6 Z"
         transform="matrix(0.1,0,0,-0.1,-365.39301,458.96101)"
         id="path183-33" />
    </clipPath>
    <clipPath
       clipPathUnits="userSpaceOnUse"
       id="clipPath188-3">
      <path
         d="M 3207.6,3014.4 H 5159.26 V 4821.5 H 3207.6 Z"
         transform="matrix(0.1,0,0,-0.1,-457.18201,450.58201)"
         id="path188-2" />
    </clipPath>
  </defs>
  <g
     inkscape:label="Capa 1"
     inkscape:groupmode="layer"
     id="layer1"
     transform="translate(-38.364642,-89.958293)">
    <path
       id="path144-14"
       d="m 4762.04,3978 c 0,399.21 -323.63,722.84 -722.84,722.84 -399.21,0 -722.84,-323.63 -722.84,-722.84 0,-399.21 323.63,-722.84 722.84,-722.84 399.21,0 722.84,323.63 722.84,722.84 z"
       style="fill:none;stroke:#0000ff;stroke-width:5.97758;stroke-linecap:butt;stroke-linejoin:miter;stroke-miterlimit:10;stroke-dasharray:none;stroke-opacity:1"
       transform="matrix(0.04233334,0,0,-0.04233334,-100.74755,292.92417)"
       clip-path="url(#clipPath145)" />
    <path
       id="path146-8"
       d="M 3299.04,3346.68 4506.72,3116.71"
       style="fill:none;stroke:#000000;stroke-width:5.97758;stroke-linecap:butt;stroke-linejoin:miter;stroke-miterlimit:10;stroke-dasharray:none;stroke-opacity:1"
       transform="matrix(0.04233334,0,0,-0.04233334,-100.74755,292.92417)"
       clip-path="url(#clipPath147-0)" />
    <path
       id="path148-4"
       d="M 3316.53,3318.89 3660.12,4612.9"
       style="fill:none;stroke:#000000;stroke-width:5.97758;stroke-linecap:butt;stroke-linejoin:miter;stroke-miterlimit:10;stroke-dasharray:none;stroke-opacity:1"
       transform="matrix(0.04233334,0,0,-0.04233334,-100.74755,292.92417)"
       clip-path="url(#clipPath149-3)" />
    <path
       id="path150-9"
       d="m 5064.77,3933.5 c 0,473.85 -384.13,857.98 -857.98,857.98 -473.84,0 -857.98,-384.13 -857.98,-857.98 0,-473.85 384.14,-857.98 857.98,-857.98 473.85,0 857.98,384.13 857.98,857.98 z"
       style="fill:none;stroke:#ff8000;stroke-width:5.97758;stroke-linecap:butt;stroke-linejoin:miter;stroke-miterlimit:10;stroke-dasharray:none;stroke-opacity:1"
       transform="matrix(0.04233334,0,0,-0.04233334,-100.74755,292.92417)"
       clip-path="url(#clipPath151-3)" />
    <path
       id="path152-2"
       d="m -1.9926797,0.00117969 c 0,1.10156251 0.890625,1.99218751 1.9921875125,1.99218751 1.1015624875,0 1.9921874875,-0.890625 1.9921874875,-1.99218751 0,-1.10156249 -0.890625,-1.99218749 -1.9921874875,-1.99218749 -1.1015625125,0 -1.9921875125,0.890625 -1.9921875125,1.99218749 z m 0,0"
       style="fill:#ffffff;fill-opacity:1;fill-rule:nonzero;stroke:none"
       aria-label="b"
       transform="matrix(0.42333331,0,0,0.42333331,39.91384,151.43898)"
       clip-path="url(#clipPath153)" />
    <path
       id="path157-0"
       d="m -1.9934766,8.828125e-4 c 0,1.1015624875 0.890625,1.9921874875 1.99218754,1.9921874875 1.10156246,0 1.99218746,-0.890625 1.99218746,-1.9921874875 0,-1.1015625125 -0.890625,-1.9921875125 -1.99218746,-1.9921875125 -1.10156254,0 -1.99218754,0.890625 -1.99218754,1.9921875125 z m 0,0"
       style="fill:#ffffff;fill-opacity:1;fill-rule:nonzero;stroke:none"
       aria-label="b"
       transform="matrix(0.42333331,0,0,0.42333331,89.0349,160.79295)"
       clip-path="url(#clipPath158-7)" />
    <path
       id="path159-60"
       d="m 88.275331,160.79333 c 0,-0.41672 0.342305,-0.75903 0.759023,-0.75903 0.416719,0 0.759024,0.34231 0.759024,0.75903 0,0.41672 -0.342305,0.75902 -0.759024,0.75902 -0.416718,0 -0.759023,-0.3423 -0.759023,-0.75902 z m -0.08434,0 c 0,0.46633 0.37703,0.84336 0.843359,0.84336 0.466328,0 0.84336,-0.37703 0.84336,-0.84336 0,-0.46634 -0.377032,-0.84336 -0.84336,-0.84336 -0.466329,0 -0.843359,0.37702 -0.843359,0.84336 z m 0,0"
       style="fill:#000000;fill-opacity:1;fill-rule:nonzero;stroke:none;stroke-width:0.423334" />
    <path
       id="path160-7"
       d="m 88.110379,162.42548 0.248047,0.01 c 0.10914,0.005 0.15875,0.0397 0.15875,0.12403 0,0.0644 -0.01488,0.21332 -0.03968,0.35223 l -0.401835,2.32668 c -0.01985,0.0844 -0.07441,0.11412 -0.267892,0.14882 l -0.0248,0.11904 0.173633,-0.005 c 0.124024,-0.01 0.193476,-0.01 0.248047,-0.01 0.04961,0 0.168671,0.005 0.292695,0.01 l 0.168672,0.005 0.09426,0.005 c 0.08434,0.005 0.143868,0.01 0.183555,0.01 0.223242,0 0.441523,-0.0644 0.659805,-0.19843 0.367108,-0.21332 0.570507,-0.53082 0.570507,-0.87809 0,-0.19843 -0.06946,-0.35222 -0.193477,-0.45641 -0.119064,-0.0942 -0.257968,-0.1389 -0.575468,-0.18355 0.262929,-0.0893 0.377031,-0.14882 0.520898,-0.27781 0.21332,-0.1786 0.317501,-0.39688 0.317501,-0.63004 0,-0.38199 -0.267892,-0.60027 -0.729258,-0.60027 -0.01,0 -0.05458,0 -0.124024,0.005 l -0.287735,0.005 c -0.05953,0.005 -0.223242,0.005 -0.277812,0.005 -0.08929,0 -0.233164,-0.005 -0.456406,-0.01 l -0.243086,-0.005 z m 0.555625,1.49323 h 0.391914 c 0.47625,0 0.709415,0.19845 0.709415,0.60028 0,0.47129 -0.337344,0.8136 -0.798712,0.8136 -0.09426,0 -0.228203,-0.005 -0.381992,-0.0149 -0.0248,-0.005 -0.08434,-0.01 -0.153789,-0.0149 z m 0.253008,-1.42874 c 0.04961,0 0.05953,-0.005 0.15875,-0.01 0.09426,-0.01 0.15875,-0.0149 0.213321,-0.0149 0.372069,0 0.555624,0.16867 0.555624,0.51594 0,0.4812 -0.342304,0.7739 -0.912813,0.7739 H 88.69577 Z m 0,0"
       style="fill:#000000;fill-opacity:1;fill-rule:nonzero;stroke:none;stroke-width:0.423334" />
    <text
       xml:space="preserve"
       style="font-size:2.82223px;font-family:'Palatino Linotype';-inkscape-font-specification:'Palatino Linotype';text-align:start;writing-mode:lr-tb;direction:ltr;text-anchor:start;fill:#000000;stroke-width:0.0352777;stroke-linejoin:round"
       x="81.886475"
       y="154.40778"
       id="text1"><tspan
         sodipodi:role="line"
         id="tspan1"
         style="stroke-width:0.0352778"
         x="81.886475"
         y="154.40778" /></text>
    <path
       id="path162-0"
       d="M -1.992375,9.921875e-4 C -1.992375,1.1025547 -1.10175,1.9931797 -1.875e-4,1.9931797 1.101375,1.9931797 1.992,1.1025547 1.992,9.921875e-4 1.992,-1.1005703 1.101375,-1.9911953 -1.875e-4,-1.9911953 c -1.1015625,0 -1.9921875,0.890625 -1.9921875,1.9921874875 z m 0,0"
       style="fill:#ffffff;fill-opacity:1;fill-rule:nonzero;stroke:none"
       aria-label="b"
       transform="matrix(0.42333331,0,0,0.42333331,53.82542,154.08819)"
       clip-path="url(#clipPath163-5)" />
    <path
       id="path164-5"
       d="m 53.066317,154.08861 c 0,-0.41672 0.342305,-0.75902 0.759024,-0.75902 0.416718,0 0.759023,0.3423 0.759023,0.75902 0,0.41673 -0.342305,0.75903 -0.759023,0.75903 -0.416719,0 -0.759024,-0.3423 -0.759024,-0.75903 z m -0.08434,0 c 0,0.46634 0.377031,0.84336 0.84336,0.84336 0.466328,0 0.843359,-0.37702 0.843359,-0.84336 0,-0.46633 -0.377031,-0.84336 -0.843359,-0.84336 -0.466329,0 -0.84336,0.37703 -0.84336,0.84336 z m 0,0"
       style="fill:#000000;fill-opacity:1;fill-rule:nonzero;stroke:none;stroke-width:0.423334" />
    <path
       id="path165-6"
       d="m 53.356532,155.80509 0.491132,-0.0198 c 0.287735,0 0.47129,0.0397 0.47625,0.10908 l 0.03473,0.41176 h 0.114096 c 0.01,-0.29269 0.04465,-0.52586 0.09426,-0.69949 -0.09922,-0.01 -0.228202,-0.0149 -0.307578,-0.0149 l -0.188515,0.005 -0.763985,0.01 h -0.133945 c -0.114096,0 -0.297656,-0.005 -0.47625,-0.01 l -0.223242,-0.005 -0.01488,0.12897 0.257969,0.01 c 0.10914,0.005 0.15875,0.0446 0.15875,0.12402 0,0.0646 -0.01488,0.21333 -0.03968,0.35224 l -0.347265,2.00422 c -0.07938,0.42168 -0.07938,0.42663 -0.267891,0.44648 l -0.163711,0.0149 -0.01985,0.12899 0.158749,-0.005 c 0.183556,-0.005 0.332384,-0.01 0.426641,-0.01 0.08434,0 0.218281,0.005 0.396875,0.01 l 0.243086,0.005 0.01488,-0.12899 -0.297656,-0.0149 c -0.124022,-0.005 -0.168672,-0.0397 -0.168672,-0.13394 0,-0.0298 0.0049,-0.0793 0.01,-0.0992 l 0.168671,-1.02693 H 53.5302 c 0.124023,0 0.26789,0.005 0.486171,0.0149 h 0.124024 l 0.08434,-0.2034 -0.01488,-0.0347 c -0.377032,0.0198 -0.654844,0.0298 -1.012032,0.0298 H 53.02419 l 0.21332,-1.25511 c 0.01488,-0.0744 0.01985,-0.0943 0.03968,-0.14387 z m 0,0"
       style="fill:#000000;fill-opacity:1;fill-rule:nonzero;stroke:none;stroke-width:0.423334" />
    <path
       id="path167-7"
       d="m -1.9924609,0.00139062 c 0,1.10156248 0.890625,1.99218748 1.9921874625,1.99218748 1.1015625375,0 1.9921875375,-0.890625 1.9921875375,-1.99218748 0,-1.10156252 -0.890625,-1.99218752 -1.9921875375,-1.99218752 -1.1015624625,0 -1.9921874625,0.890625 -1.9921874625,1.99218752 z m 0,0"
       style="fill:#ffffff;fill-opacity:1;fill-rule:nonzero;stroke:none"
       aria-label="b"
       transform="matrix(0.42333331,0,0,0.42333331,116.19808,140.16392)"
       clip-path="url(#clipPath168)" />
    <path
       id="path169-3"
       d="m 115.43894,140.16451 c 0,-0.41672 0.34231,-0.75902 0.75902,-0.75902 0.41673,0 0.75903,0.3423 0.75903,0.75902 0,0.41672 -0.3423,0.75902 -0.75903,0.75902 -0.41671,0 -0.75902,-0.3423 -0.75902,-0.75902 z m -0.0844,0 c 0,0.46633 0.37704,0.84336 0.84336,0.84336 0.46633,0 0.84336,-0.37703 0.84336,-0.84336 0,-0.46633 -0.37703,-0.84336 -0.84336,-0.84336 -0.46632,0 -0.84336,0.37703 -0.84336,0.84336 z m 0,0"
       style="fill:#000000;fill-opacity:1;fill-rule:nonzero;stroke:none;stroke-width:0.423334" />
    <path
       id="path170-84"
       d="m 117.38115,136.15608 h 0.12402 c 0.0248,-0.26293 0.0595,-0.46138 0.12403,-0.67469 -0.35223,-0.13394 -0.61515,-0.18852 -0.89793,-0.18852 -0.382,0 -0.75903,0.11412 -1.08149,0.33239 -0.54073,0.36215 -0.81854,0.90785 -0.81854,1.61726 0,0.89297 0.49609,1.39402 1.37416,1.39402 0.4465,0 0.77392,-0.1092 1.19063,-0.39191 l 0.0446,-0.16867 -0.0446,-0.0298 c -0.43656,0.26293 -0.67469,0.34231 -1.03683,0.34231 -0.7243,0 -1.12118,-0.44153 -1.12118,-1.26504 0,-0.51098 0.1538,-0.96738 0.43656,-1.25512 0.2183,-0.22324 0.51594,-0.33238 0.87809,-0.33238 0.32742,0 0.57052,0.0646 0.82848,0.23317 z m 0,0"
       style="fill:#000000;fill-opacity:1;fill-rule:nonzero;stroke:none;stroke-width:0.423334" />
    <path
       id="path172-9"
       d="m -1.9932422,0.00117187 c 0,1.10156253 0.890625,1.99218753 1.99218751,1.99218753 1.10156249,0 1.99218749,-0.890625 1.99218749,-1.99218753 0,-1.10156247 -0.890625,-1.99218747 -1.99218749,-1.99218747 -1.10156251,0 -1.99218751,0.890625 -1.99218751,1.99218747 z m 0,0"
       style="fill:#ffffff;fill-opacity:1;fill-rule:nonzero;stroke:none"
       aria-label="b"
       transform="matrix(0.42333331,0,0,0.42333331,70.245249,124.52217)"
       clip-path="url(#clipPath173-5)" />
    <path
       id="path174-2"
       d="m 69.485779,124.52267 c 0,-0.41672 0.342305,-0.75903 0.759024,-0.75903 0.416719,0 0.759023,0.34231 0.759023,0.75903 0,0.41672 -0.342304,0.75902 -0.759023,0.75902 -0.416719,0 -0.759024,-0.3423 -0.759024,-0.75902 z m -0.08434,0 c 0,0.46633 0.377031,0.84336 0.84336,0.84336 0.466328,0 0.843359,-0.37703 0.843359,-0.84336 0,-0.46632 -0.377031,-0.84336 -0.843359,-0.84336 -0.466329,0 -0.84336,0.37704 -0.84336,0.84336 z m 0,0"
       style="fill:#000000;fill-opacity:1;fill-rule:nonzero;stroke:none;stroke-width:0.423334" />
    <path
       id="path175-65"
       d="m 70.559822,119.65103 c -1.096367,0 -1.900039,0.84336 -1.900039,2.00422 0,0.87312 0.436562,1.33946 1.250156,1.33946 0.391914,0 0.719337,-0.0893 1.016993,-0.27782 0.58539,-0.36214 0.942577,-1.0418 0.942577,-1.77105 0,-0.81856 -0.47625,-1.29481 -1.309687,-1.29481 z m -0.143867,0.19347 c 0.223242,0 0.446484,0.0546 0.600274,0.14884 0.302617,0.17363 0.446484,0.52089 0.446484,1.02691 0,0.58538 -0.183555,1.10629 -0.496093,1.42874 -0.228204,0.22821 -0.525861,0.35224 -0.888009,0.35224 -0.664765,0 -1.012031,-0.39688 -1.012031,-1.17079 0,-0.60027 0.188516,-1.14101 0.506015,-1.45851 0.218281,-0.22324 0.491134,-0.32743 0.84336,-0.32743 z m 0,0"
       style="fill:#000000;fill-opacity:1;fill-rule:nonzero;stroke:none;stroke-width:0.423334" />
    <path
       id="path177-7"
       d="m -1.9922578,0.00133594 c 0,1.10156246 0.890625,1.99218746 1.9921874875,1.99218746 1.1015625125,0 1.9921875125,-0.890625 1.9921875125,-1.99218746 0,-1.10156254 -0.890625,-1.99218754 -1.9921875125,-1.99218754 -1.1015624875,0 -1.9921874875,0.890625 -1.9921874875,1.99218754 z m 0,0"
       style="fill:#ffffff;fill-opacity:1;fill-rule:nonzero;stroke:none"
       aria-label="b"
       transform="matrix(0.42333331,0,0,0.42333331,43.239969,138.91255)"
       clip-path="url(#clipPath178-1)" />
    <path
       id="path179-7"
       d="m 42.480916,138.91311 c 0,-0.41671 0.342305,-0.75902 0.759023,-0.75902 0.416719,0 0.759024,0.34231 0.759024,0.75902 0,0.41673 -0.342305,0.75903 -0.759024,0.75903 -0.416718,0 -0.759023,-0.3423 -0.759023,-0.75903 z m -0.08434,0 c 0,0.46634 0.377031,0.84336 0.843359,0.84336 0.466329,0 0.84336,-0.37702 0.84336,-0.84336 0,-0.46633 -0.377031,-0.84336 -0.84336,-0.84336 -0.466328,0 -0.843359,0.37703 -0.843359,0.84336 z m 0,0"
       style="fill:#000000;fill-opacity:1;fill-rule:nonzero;stroke:none;stroke-width:0.423334" />
    <path
       id="path180-4"
       d="m 41.628876,137.92713 0.01488,-0.12898 h -0.07441 l -0.42168,0.0149 c -0.06946,0 -0.16371,0 -0.367109,-0.005 l -0.292696,-0.01 -0.01488,0.12898 0.223242,0.01 c 0.10914,0.005 0.163711,0.0397 0.163711,0.12899 0,0.0198 0,0.0347 -0.0049,0.0546 l -0.327422,2.05383 c -0.223242,0.26788 -0.362148,0.38695 -0.595313,0.50601 -0.178593,0.0893 -0.347265,0.13395 -0.525859,0.13395 -0.391914,0 -0.63996,-0.20836 -0.63996,-0.53082 0,-0.0793 0.01,-0.1538 0.02976,-0.28277 l 0.406798,-2.20266 -0.138906,0.005 c -0.128985,0.005 -0.218282,0.01 -0.267892,0.01 -0.04961,0 -0.138906,-0.005 -0.26789,-0.01 l -0.148828,-0.005 -0.01488,0.12899 0.238126,0.01 c 0.124023,0.005 0.158749,0.0248 0.158749,0.10416 0,0.0397 -0.01488,0.17362 -0.03473,0.26788 l -0.292696,1.73138 c -0.01984,0.0992 -0.02976,0.21332 -0.02976,0.28773 0,0.46632 0.31254,0.75406 0.828478,0.75406 0.203397,0 0.391914,-0.0496 0.615156,-0.15875 0.272851,-0.13394 0.416718,-0.24804 0.659804,-0.52586 -0.03968,0.21332 -0.06449,0.33238 -0.124023,0.58539 l 0.01985,0.0248 h 0.104184 l 0.287734,-0.0149 c 0.01488,0 0.119064,0.005 0.267891,0.01 l 0.143867,0.005 0.0248,-0.12899 -0.277814,-0.0198 c -0.104184,-0.01 -0.148827,-0.0347 -0.148827,-0.0992 0,-0.0695 0.0049,-0.0893 0.02976,-0.25797 l 0.391914,-2.34156 c 0.02977,-0.17363 0.05953,-0.2034 0.238125,-0.21828 z m 0,0"
       style="fill:#000000;fill-opacity:1;fill-rule:nonzero;stroke:none;stroke-width:0.423334" />
    <path
       id="path182-5"
       d="M -1.9916328,-9.140625e-4 C -1.9916328,1.1006484 -1.1010078,1.9912734 5.546875e-4,1.9912734 1.1021172,1.9912734 1.9927422,1.1006484 1.9927422,-9.140625e-4 1.9927422,-1.1024766 1.1021172,-1.9931016 5.546875e-4,-1.9931016 c -1.1015624875,0 -1.9921874875,0.890625 -1.9921874875,1.9921875375 z m 0,0"
       style="fill:#ffffff;fill-opacity:1;fill-rule:nonzero;stroke:none"
       aria-label="b"
       transform="matrix(0.42333331,0,0,0.42333331,53.935488,98.630685)"
       clip-path="url(#clipPath183)" />
    <path
       id="path184-7"
       d="m 53.176699,98.630299 c 0,-0.41672 0.342305,-0.759024 0.759024,-0.759024 0.416718,0 0.759023,0.342304 0.759023,0.759024 0,0.416718 -0.342305,0.759022 -0.759023,0.759022 -0.416719,0 -0.759024,-0.342304 -0.759024,-0.759022 z m -0.08434,0 c 0,0.466327 0.377031,0.843358 0.84336,0.843358 0.466327,0 0.843359,-0.377031 0.843359,-0.843358 0,-0.466329 -0.377032,-0.84336 -0.843359,-0.84336 -0.466329,0 -0.84336,0.377031 -0.84336,0.84336 z m 0,0"
       style="fill:#000000;fill-opacity:1;fill-rule:nonzero;stroke:none;stroke-width:0.423334" />
    <path
       id="path185-98"
       d="m 53.590938,96.628559 -0.327423,-2.44078 -0.0049,-0.02976 c -0.01,-0.08929 0.05953,-0.138906 0.198438,-0.143867 l 0.193476,-0.01 v -0.128985 l -0.188515,0.0049 c -0.173633,0.0049 -0.302617,0.01 -0.386953,0.01 -0.07938,0 -0.213321,-0.0049 -0.381993,-0.01 l -0.188515,-0.0049 v 0.128985 l 0.114096,0.01 c 0.203399,0.01 0.243087,0.04961 0.272853,0.218281 l 0.406796,2.872382 h 0.228203 l 1.741289,-2.857501 c 0.119064,-0.183554 0.153789,-0.218281 0.287734,-0.233163 l 0.08434,-0.01 v -0.128985 l -0.138906,0.0049 c -0.124023,0.0049 -0.233164,0.01 -0.302617,0.01 -0.04961,0 -0.173633,-0.0049 -0.362149,-0.01 l -0.213319,-0.0049 v 0.128985 l 0.119064,0.01 c 0.178593,0.01 0.262929,0.05953 0.262929,0.143866 0,0.05458 -0.01488,0.104184 -0.06946,0.198438 z m 0,0"
       style="fill:#000000;fill-opacity:1;fill-rule:nonzero;stroke:none;stroke-width:0.423334" />
    <path
       id="path187-30"
       d="m 5.6353828,-1.7822578 c 0,-0.070312 -0.058594,-0.082031 -0.1171875,-0.082031 -0.1875,0 -0.4570312,0.1640625 -0.46875,0.1640625 -0.234375,0.1523438 -0.28125,0.234375 -0.4101562,0.421875 -0.3515625,0.53906254 -0.8554688,0.92578129 -1.59375,0.92578129 -1.0195313,0 -1.9453125,-0.73828129 -1.9453125,-2.44921879 0,-1.0195312 0.4101562,-2.3671875 1.0078125,-3.2695312 0.5039062,-0.7265625 1.1132812,-1.3242188 2.2851562,-1.3242188 0.4335938,0 0.7148438,0.1640625 0.7148438,0.5859375 0,0.3984375 -0.421875,1.2070313 -0.5625,1.4296875 -0.070312,0.1289063 -0.070312,0.1523438 -0.070312,0.1757813 0,0.082031 0.058594,0.082031 0.1289062,0.082031 0.2226563,0 0.6445313,-0.2578125 0.7851563,-0.4335937 0.023437,-0.046875 0.6796875,-1.1601563 0.6796875,-1.7460938 0,-0.6210937 -0.515625,-0.7148437 -0.9257813,-0.7148437 -1.640625,0 -3,1.078125 -3.515625,1.7226562 -1.35937499,1.6289063 -1.48828124,3.3984375 -1.48828124,3.984375 0,1.66406254 0.83203125,2.57812504 2.15625004,2.57812504 1.828125,0 3.3398437,-1.76953124 3.3398432,-2.05078134 z m 0,0"
       style="fill:#0000ff;fill-opacity:1;fill-rule:nonzero;stroke:none"
       aria-label="C"
       transform="matrix(0.42333331,0,0,0.42333331,92.792829,102.17779)"
       clip-path="url(#clipPath188-3)" />
  </g>
</svg>
