<?xml version="1.0" encoding="UTF-8" standalone="no"?>
<!-- Created with Inkscape (http://www.inkscape.org/) -->

<svg
   width="129.63152mm"
   height="41.396mm"
   viewBox="0 0 129.63152 41.395998"
   version="1.1"
   id="svg1"
   xml:space="preserve"
   inkscape:version="1.4 (86a8ad7, 2024-10-11)"
   sodipodi:docname="figura8.svg"
   xmlns:inkscape="http://www.inkscape.org/namespaces/inkscape"
   xmlns:sodipodi="http://sodipodi.sourceforge.net/DTD/sodipodi-0.dtd"
   xmlns="http://www.w3.org/2000/svg"
   xmlns:svg="http://www.w3.org/2000/svg"><sodipodi:namedview
     id="namedview1"
     pagecolor="#ffffff"
     bordercolor="#000000"
     borderopacity="0.25"
     inkscape:showpageshadow="2"
     inkscape:pageopacity="0.0"
     inkscape:pagecheckerboard="0"
     inkscape:deskcolor="#d1d1d1"
     inkscape:document-units="mm"
     showguides="true"
     inkscape:zoom="0.69670055"
     inkscape:cx="358.11655"
     inkscape:cy="30.859743"
     inkscape:window-width="1366"
     inkscape:window-height="705"
     inkscape:window-x="-8"
     inkscape:window-y="-8"
     inkscape:window-maximized="1"
     inkscape:current-layer="g1"><inkscape:page
       x="0"
       y="0"
       width="129.63152"
       height="41.396"
       id="page1"
       margin="0"
       bleed="0" /><inkscape:page
       x="-34.308701"
       y="-81.377594"
       width="209.90277"
       height="297.03894"
       id="page2"
       margin="0"
       bleed="0" /></sodipodi:namedview><defs
     id="defs1"><clipPath
       clipPathUnits="userSpaceOnUse"
       id="clipPath60"><path
         d="m 96.135,513.69 h 308.9 v 98.419 h -308.9 z"
         transform="translate(0,2.5000001e-5)"
         id="path60" /></clipPath><clipPath
       clipPathUnits="userSpaceOnUse"
       id="clipPath62"><path
         d="m 96.135,513.69 h 308.9 v 98.419 h -308.9 z"
         transform="translate(0,2.5000001e-5)"
         id="path62" /></clipPath><clipPath
       clipPathUnits="userSpaceOnUse"
       id="clipPath94"><path
         d="m 96.135,513.69 h 308.9 v 98.419 h -308.9 z"
         transform="translate(0,2.5000001e-5)"
         id="path94" /></clipPath><clipPath
       clipPathUnits="userSpaceOnUse"
       id="clipPath96"><path
         d="m 96.135,513.69 h 308.9 v 98.419 h -308.9 z"
         transform="translate(0,2.5000001e-5)"
         id="path96" /></clipPath><clipPath
       clipPathUnits="userSpaceOnUse"
       id="clipPath98"><path
         d="m 96.135,513.69 h 308.9 v 98.419 h -308.9 z"
         transform="translate(0,2.5000001e-5)"
         id="path98" /></clipPath><clipPath
       clipPathUnits="userSpaceOnUse"
       id="clipPath100"><path
         d="m 96.135,513.69 h 308.9 v 98.419 h -308.9 z"
         transform="translate(0,2.5000001e-5)"
         id="path100" /></clipPath><clipPath
       clipPathUnits="userSpaceOnUse"
       id="clipPath102"><path
         d="m 96.135,513.69 h 308.9 v 98.419 h -308.9 z"
         transform="translate(0,2.5000001e-5)"
         id="path102" /></clipPath></defs><g
     inkscape:label="Capa 1"
     inkscape:groupmode="layer"
     id="layer1"
     transform="translate(-254.30871,-81.377589)" /><g
     id="g1"
     inkscape:groupmode="layer"
     inkscape:label="60"
     transform="matrix(0.26458333,0,0,0.26458335,-34.308695,-81.377589)"><g
       id="g18"><path
         id="path58"
         d="m 129.91066,408.7695 h 4.88321 v -7.512 7.512 h 95.02399 v -7.512 7.512 h 95.024 v -7.512 7.512 h 4.8832 m -99.9072,52.20639 V 408.7695 h 7.512 -7.512 v -95.0256 h 7.512 -7.512 v -4.8832"
         style="fill:none;stroke:#000000;stroke-width:0.48;stroke-linecap:round;stroke-linejoin:round;stroke-miterlimit:10;stroke-dasharray:none;stroke-opacity:1" /><path
         id="path59"
         d="m 219.235,548.073 v 2.113 l -0.117,0.939 v 1.057 l -0.353,3.169 -0.117,0.939 -0.116,1.056 -0.235,1.057 -0.118,1.056 -0.235,0.938 -0.235,1.057 -0.234,0.939 -0.235,1.056 -0.234,0.94 -0.353,1.056 -0.352,0.938 -0.235,1.057 -0.704,1.878 -0.469,1.057 -0.353,0.938 -0.469,0.939 -0.352,0.939 -1.408,2.817 -0.47,0.821 -0.587,0.94 -0.469,0.939 -0.587,0.822 -0.47,0.938 -1.174,1.644 -0.586,0.938 -0.705,0.822 -0.587,0.821 -0.704,0.823 -0.587,0.703 -1.408,1.644 -0.704,0.704 -0.705,0.822 -1.408,1.408 -0.821,0.705 -0.705,0.703 -1.643,1.409 -0.704,0.587 -0.822,0.704 -0.821,0.587 -0.822,0.705 -0.939,0.586 -1.643,1.173 -0.939,0.47 -0.822,0.587 -0.939,0.469 -0.939,0.587 -0.821,0.47 -2.817,1.409 -0.94,0.351 -0.938,0.47 -0.939,0.352 -1.057,0.47 -1.877,0.704 -1.057,0.235 -0.939,0.352 -1.056,0.352 -0.939,0.234 -1.057,0.235 -0.938,0.235 -1.057,0.235 -0.939,0.235 -1.056,0.117 -1.057,0.235 -1.056,0.117 -0.939,0.117 -1.057,0.117 -2.112,0.235 h -1.057 l -0.938,0.118 h -4.226 l -1.056,-0.118 h -0.939 l -4.225,-0.469 -0.939,-0.117 -1.057,-0.235 -1.056,-0.117 -0.939,-0.235 -2.113,-0.47 -0.938,-0.235 -1.057,-0.234 -0.939,-0.352 -1.056,-0.352 -0.94,-0.235 -1.878,-0.704 -1.056,-0.47 -0.939,-0.352 -0.939,-0.47 -0.939,-0.351 -2.817,-1.409 -0.822,-0.47 -0.938,-0.587 -0.939,-0.469 -0.822,-0.587 -0.939,-0.47 -1.643,-1.173 -0.939,-0.586 -0.822,-0.705 -0.821,-0.587 -0.822,-0.704 -0.704,-0.587 -1.643,-1.409 -0.705,-0.703 -0.821,-0.705 -1.408,-1.408 -0.705,-0.822 -0.704,-0.704 -1.408,-1.644 -0.587,-0.703 -0.705,-0.823 -0.586,-0.821 -0.705,-0.822 -0.586,-0.938 -1.175,-1.644 -0.468,-0.938 -0.588,-0.822 -0.47,-0.939 -0.586,-0.94 -0.47,-0.821 -1.878,-3.756 -0.703,-1.877 -0.47,-1.057 -0.704,-1.878 -0.352,-1.057 -0.235,-0.938 -0.353,-1.056 -0.234,-0.94 -0.234,-1.056 -0.235,-0.939 -0.235,-1.057 -0.235,-0.938 -0.235,-1.056 -0.235,-2.113 -0.234,-0.939 -0.117,-1.057 v -1.056 l -0.235,-2.113 v -6.22 l 0.117,-0.94 0.118,-1.056 v -1.056 l 0.117,-1.057 0.234,-1.056 0.118,-0.938 0.117,-1.058 0.235,-1.056 0.235,-0.938 0.47,-2.113 0.234,-0.939 0.234,-1.057 0.353,-0.939 0.235,-0.938 0.352,-1.057 0.351,-0.939"
         style="fill:none;stroke:#000000;stroke-width:0.6;stroke-linecap:round;stroke-linejoin:round;stroke-miterlimit:10;stroke-dasharray:none;stroke-opacity:1"
         transform="matrix(1.6,0,0,-1.6,-25.934132,1285.6863)"
         clip-path="url(#clipPath60)" /><path
         id="path61"
         d="m 103.975,527.768 0.353,-0.939 0.47,-1.056 0.703,-1.879 1.878,-3.755 0.47,-0.822 0.586,-0.939 0.47,-0.938 0.588,-0.823 0.468,-0.938 0.235,-0.235 m 99.298,0 0.234,0.235 0.47,0.938 0.587,0.823 0.469,0.938 0.587,0.939 0.47,0.822 1.408,2.817 0.352,0.938 0.469,0.94 0.353,0.939 0.469,1.056 0.704,1.878 0.235,1.057 0.705,1.877 0.234,1.057 0.235,0.939 0.469,2.113 0.235,0.938 0.118,1.056 0.235,1.058 0.116,0.938 0.47,4.225 v 0.94 l 0.117,1.056 v 2.112"
         style="fill:none;stroke:#000000;stroke-width:0.705;stroke-linecap:round;stroke-linejoin:round;stroke-miterlimit:10;stroke-dasharray:none;stroke-opacity:1"
         transform="matrix(1.6,0,0,-1.6,-25.934132,1285.6863)"
         clip-path="url(#clipPath62)" /><path
         id="path63"
         d="m 229.81786,408.7695 h 59.1552 v -74.368 m -59.1552,74.368 v -45.8224"
         style="fill:none;stroke:#000000;stroke-width:1.8768;stroke-linecap:round;stroke-linejoin:round;stroke-miterlimit:10;stroke-dasharray:none;stroke-opacity:1" /><path
         id="path64"
         d="m 134.79387,408.7695 154.17919,-74.368 m -59.1552,74.368 59.1552,-74.368"
         style="fill:none;stroke:#000000;stroke-width:0.752;stroke-linecap:round;stroke-linejoin:round;stroke-miterlimit:10;stroke-dasharray:none;stroke-opacity:1" /><path
         id="path65"
         d="m 258.36346,408.7695 -0.1872,-2.25441 -0.1888,-2.43999 -1.128,-4.5088 -0.9376,-2.06561 -0.9392,-2.25439 -1.128,-1.8768 -3.0032,-3.75521 -1.504,-1.69119 -1.8768,-1.5024 m -81.3152,22.3488 v -1.3152 l -0.1872,-1.31361 -0.1888,-1.128 v -1.31359 l -0.37599,-1.3152 -0.1872,-1.3152 -0.37601,-1.1264 -0.376,-1.31361 -0.3744,-1.128 -0.56319,-1.12639 -0.56481,-1.3152"
         style="fill:none;stroke:#000000;stroke-width:0.48;stroke-linecap:round;stroke-linejoin:round;stroke-miterlimit:10;stroke-dasharray:none;stroke-opacity:1" /><path
         id="path66"
         d="m 134.79387,408.7695 h 95.02399"
         style="fill:none;stroke:#000000;stroke-width:1.128;stroke-linecap:round;stroke-linejoin:round;stroke-miterlimit:10;stroke-dasharray:none;stroke-opacity:1" /><path
         id="path67"
         d="m 292.06416,334.4018 v 0 c 0,-1.70476 -1.38445,-3.0914 -3.0914,-3.0914 -1.70695,0 -3.0892,1.38664 -3.0892,3.0914 0,1.70696 1.38225,3.0892 3.0892,3.0892 1.70695,0 3.0914,-1.38224 3.0914,-3.0892"
         style="fill:#ffffff;fill-opacity:1;fill-rule:nonzero;stroke:#000000;stroke-width:0.16;stroke-linecap:round;stroke-linejoin:round;stroke-miterlimit:10;stroke-dasharray:none;stroke-opacity:1" /><path
         id="path68"
         d="m 232.90736,362.9468 v 0 c 0,-1.70696 -1.38443,-3.08921 -3.0892,-3.08921 -1.70477,0 -3.0914,1.38225 -3.0914,3.08921 0,1.70477 1.38663,3.09139 3.0914,3.09139 1.70477,0 3.0892,-1.38662 3.0892,-3.09139"
         style="fill:#ffffff;fill-opacity:1;fill-rule:nonzero;stroke:#000000;stroke-width:0.16;stroke-linecap:round;stroke-linejoin:round;stroke-miterlimit:10;stroke-dasharray:none;stroke-opacity:1" /><path
         id="path69"
         d="m 137.88336,408.7698 v 0 c 0,-1.70698 -1.38442,-3.09141 -3.08919,-3.09141 -1.70698,0 -3.09141,1.38443 -3.09141,3.09141 0,1.70477 1.38443,3.08919 3.09141,3.08919 1.70477,0 3.08919,-1.38442 3.08919,-3.08919"
         style="fill:#ffffff;fill-opacity:1;fill-rule:nonzero;stroke:#000000;stroke-width:0.16;stroke-linecap:round;stroke-linejoin:round;stroke-miterlimit:10;stroke-dasharray:none;stroke-opacity:1" /><path
         id="path71"
         d="m 259.27211,419.39561 v -0.58125 h -7.21874 v 0.58125 z m 0,0"
         style="fill:#000000;fill-opacity:1;fill-rule:nonzero;stroke:none;stroke-width:1.6" /><path
         id="rect73"
         style="stroke-width:4.50565"
         transform="scale(1,-1)"
         d="m 245.05418,-424.88525 h 27.12865 v 0.74832 h -27.12865 z" /><path
         id="path75"
         d="m 255.95337,432.36774 v -3.6375 h -0.58126 v 3.6375 h -3.65624 v 0.58124 h 3.65624 v 3.6375 h 0.58126 v -3.6375 h 3.65624 v -0.58124 z m 0,0"
         style="fill:#000000;fill-opacity:1;fill-rule:nonzero;stroke:none;stroke-width:1.6" /><path
         id="path84"
         d="m 246.54232,403.90812 c 0.15,0.99374 0.375,1.44374 1.21874,1.44374 0.54376,0 0.88126,-0.375 1.275,-1.03124 0.0937,-0.13126 0.16876,-0.3375 0.16876,-0.4875 0,-0.0563 0,-0.0937 -0.0563,-0.11244 -0.16874,0 -0.3,0.225 -0.46874,0.525 -0.20626,0.31874 -0.46876,0.525 -0.73126,0.525 -0.1875,0 -0.2625,-0.0937 -0.31874,-0.2625 -0.0937,-0.31876 -0.16876,-1.35 -0.1875,-1.48126 0.4875,-0.6375 1.74374,-2.175 2.30624,-4.70624 l -1.14374,0.225 c -0.4125,1.74374 -1.1625,2.8125 -1.275,2.98124 -0.11244,-1.6875 -0.80626,-3.13124 -2.3625,-3.13124 -1.6125,0 -3.35626,1.9125 -3.35626,4.3875 0,1.5375 0.975,2.60624 2.025,2.60624 1.425,0 2.56876,-1.10624 2.90626,-1.48124 z m -0.24376,-3.46876 c 0.075,0.58126 0.16876,1.93126 0.16876,2.26876 -0.6375,0.7875 -1.48126,1.875 -2.49376,1.875 -0.975,0 -0.99374,-1.66876 -0.99374,-1.9125 0,-1.9125 0.84374,-3.80626 2.11874,-3.80626 0.4125,0 1.03126,0.35626 1.2,1.575 z m 0,0"
         style="fill:#000000;fill-opacity:1;fill-rule:nonzero;stroke:none;stroke-width:1.6" /><path
         id="path86-5"
         d="m 170.22273,400.173 c 0.10805,0.71581 0.2701,1.03995 0.87789,1.03995 0.39166,0 0.63477,-0.2701 0.9184,-0.74282 0.0675,-0.0945 0.12157,-0.24312 0.12157,-0.35117 0,-0.0407 0,-0.0675 -0.0407,-0.081 -0.12157,0 -0.2161,0.16205 -0.33766,0.37815 -0.14859,0.22961 -0.33766,0.37815 -0.52674,0.37815 -0.13507,0 -0.18907,-0.0675 -0.22961,-0.18907 -0.0675,-0.22961 -0.12157,-0.97243 -0.13507,-1.06697 0.35117,-0.45922 1.25606,-1.56669 1.66123,-3.38999 l -0.82386,0.1621 c -0.29712,1.25605 -0.83737,2.02589 -0.9184,2.14744 -0.081,-1.21554 -0.58076,-2.25549 -1.70175,-2.25549 -1.16151,0 -2.41756,1.3776 -2.41756,3.16039 0,1.10748 0.7023,1.87732 1.45864,1.87732 1.02645,0 1.85031,-0.79685 2.09342,-1.06697 z m -0.17556,-2.4986 c 0.054,0.41868 0.12157,1.39111 0.12157,1.63421 -0.45922,0.56726 -1.06697,1.3506 -1.79629,1.3506 -0.70231,0 -0.71582,-1.20203 -0.71582,-1.37761 0,-1.3776 0.60777,-2.7417 1.52617,-2.7417 0.29713,0 0.74283,0.25659 0.86438,1.1345 z"
         style="fill:#000000;fill-opacity:1;fill-rule:nonzero;stroke:none;stroke-width:1.1525"
         sodipodi:nodetypes="sscsccscccccsssssccsssc" /><path
         d="m 175.81896,406.31427 -0.075,-0.0625 v -0.2875 l 2.09375,-2.21875 q 1.29375,-1.36875 1.675,-2.11875 0.38125,-0.75 0.38125,-1.4 0,-0.7625 -0.4625,-1.26875 -0.4625,-0.50625 -1.25,-0.50625 -0.50625,0 -0.88125,0.15625 -0.375,0.15625 -0.50625,0.35 -0.125,0.19375 -0.36875,1.0875 l -0.0563,0.05 h -0.25625 l -0.0625,-0.0563 q 0.14375,-0.84375 0.2,-1.66875 0.5875,-0.575 1.09375,-0.73125 0.5125,-0.1625 1.06875,-0.1625 0.6625,0 1.26875,0.25 0.60625,0.25 0.975,0.8125 0.36875,0.55625 0.36875,1.29375 0,0.55 -0.21875,1.10625 -0.2125,0.55 -0.63125,1.06875 -0.4125,0.5125 -1.13125,1.23125 l -1.95,1.9875 h 2.46875 q 1.1375,0 1.89375,-0.0813 l 0.0438,0.05 q -0.0375,0.2125 -0.0375,0.55625 0,0.3125 0.0375,0.49375 l -0.0438,0.0688 q -0.45,-0.025 -1.38125,-0.0438 -0.93125,-0.0187 -1.23125,-0.0187 -0.60625,0 -1.63125,0.0125 -1.025,0.0188 -1.39375,0.05 z"
         id="text2"
         style="font-size:12.8px;font-family:'Palatino Linotype';-inkscape-font-specification:'Palatino Linotype';stroke-width:0.96;stroke-linejoin:round"
         aria-label="2" /><path
         id="path86-1"
         d="m 176.1393,395.44621 h -0.61291 l -4.05124,10.86806 h 0.62787 z"
         style="fill:#000000;fill-opacity:1;fill-rule:nonzero;stroke:none;stroke-width:1.27566"
         sodipodi:nodetypes="ccccc" /><path
         style="font-style:italic;font-size:12.8px;font-family:'Palatino Linotype';-inkscape-font-specification:'Palatino Linotype Italic';stroke-width:0.96;stroke-linejoin:round"
         d="m 219.72836,385.78556 -0.0625,-0.14375 0.0187,-0.0875 q 0.1875,-0.14375 0.8125,-0.525 0.625,-0.3875 0.86875,-0.49375 0.24375,-0.10625 0.375,-0.10625 0.13125,0 0.20625,0.1 0.075,0.1 0.075,0.23125 0,0.14375 -0.18125,0.875 -0.8,3.28125 -0.8,3.86875 0,0.275 0.1875,0.275 0.2375,0 0.75625,-0.4125 0.525,-0.4125 1.125,-1.18125 0.60625,-0.76875 0.88125,-1.54375 0.275,-0.775 0.4875,-1.98125 0.075,-0.0125 0.85625,-0.2 l 0.0937,0.0937 q -0.006,0.0375 -0.15,0.51875 -0.25,0.80625 -0.5,1.85625 -0.25,1.05 -0.3625,1.68125 -0.1125,0.625 -0.1125,0.8875 0,0.29375 0.2,0.29375 0.10625,0 0.2625,-0.0937 0.15625,-0.1 0.70625,-0.5125 l 0.0688,0.025 0.0687,0.14375 -0.0125,0.0813 q -1.1,0.86875 -1.44375,1.05625 -0.3375,0.19375 -0.51875,0.19375 -0.15,0 -0.2375,-0.1375 -0.0813,-0.13125 -0.0813,-0.30625 0,-0.3875 0.525,-2.56875 l -0.0375,-0.0188 -0.4625,0.6625 q -0.2375,0.3375 -0.55625,0.70625 -0.31875,0.3625 -0.75,0.74375 -0.425,0.38125 -0.775,0.6 -0.35,0.21875 -0.50625,0.26875 -0.15625,0.0562 -0.24375,0.0562 -0.18125,0 -0.31875,-0.18125 -0.13125,-0.175 -0.13125,-0.525 0,-0.48125 0.24375,-1.46875 0.61875,-2.48125 0.61875,-3.0125 0,-0.2 -0.1625,-0.2 -0.1875,0 -0.95625,0.5 z m 3.2875,-1.7375 z m -1.15625,7.1125 z"
         id="text3"
         aria-label="u" /><path
         style="font-style:italic;font-size:12.8px;font-family:'Palatino Linotype';-inkscape-font-specification:'Palatino Linotype Italic';stroke-width:0.96;stroke-linejoin:round"
         d="m 261.53304,417.44248 -0.0625,-0.14375 0.0187,-0.0875 q 0.1875,-0.14375 0.8125,-0.525 0.625,-0.3875 0.86875,-0.49375 0.24375,-0.10625 0.375,-0.10625 0.13125,0 0.20625,0.1 0.075,0.1 0.075,0.23125 0,0.14375 -0.18125,0.875 -0.8,3.28125 -0.8,3.86875 0,0.275 0.1875,0.275 0.2375,0 0.75625,-0.4125 0.525,-0.4125 1.125,-1.18125 0.60625,-0.76875 0.88125,-1.54375 0.275,-0.775 0.4875,-1.98125 0.075,-0.0125 0.85625,-0.2 l 0.0937,0.0937 q -0.006,0.0375 -0.15,0.51875 -0.25,0.80625 -0.5,1.85625 -0.25,1.05 -0.3625,1.68125 -0.1125,0.625 -0.1125,0.8875 0,0.29375 0.2,0.29375 0.10625,0 0.2625,-0.0937 0.15625,-0.1 0.70625,-0.5125 l 0.0688,0.025 0.0687,0.14375 -0.0125,0.0813 q -1.1,0.86875 -1.44375,1.05625 -0.3375,0.19375 -0.51875,0.19375 -0.15,0 -0.2375,-0.1375 -0.0813,-0.13125 -0.0813,-0.30625 0,-0.3875 0.525,-2.56875 l -0.0375,-0.0187 -0.4625,0.6625 q -0.2375,0.3375 -0.55625,0.70625 -0.31875,0.3625 -0.75,0.74375 -0.425,0.38125 -0.775,0.6 -0.35,0.21875 -0.50625,0.26875 -0.15625,0.0562 -0.24375,0.0562 -0.18125,0 -0.31875,-0.18125 -0.13125,-0.175 -0.13125,-0.525 0,-0.48125 0.24375,-1.46875 0.61875,-2.48125 0.61875,-3.0125 0,-0.2 -0.1625,-0.2 -0.1875,0 -0.95625,0.5 z m 3.2875,-1.7375 z m -1.15625,7.1125 z"
         id="text3-2"
         aria-label="u" /><path
         d="m 268.20463,417.67851 -0.054,-0.045 v -0.20697 l 1.50732,-1.59731 q 0.93139,-0.98538 1.20586,-1.52532 0.27447,-0.53993 0.27447,-1.00788 0,-0.54893 -0.33297,-0.91339 -0.33296,-0.36446 -0.89989,-0.36446 -0.36445,0 -0.63442,0.11249 -0.26997,0.11249 -0.36446,0.25197 -0.09,0.13948 -0.26547,0.78291 l -0.0405,0.036 h -0.18448 l -0.045,-0.0405 q 0.10348,-0.60743 0.14398,-1.20136 0.42295,-0.41395 0.7874,-0.52644 0.36896,-0.11698 0.76941,-0.11698 0.47695,0 0.91339,0.17998 0.43645,0.17998 0.70192,0.58493 0.26547,0.40045 0.26547,0.93139 0,0.39595 -0.15748,0.7964 -0.15298,0.39595 -0.45445,0.76941 -0.29696,0.36896 -0.8144,0.88639 l -1.40383,1.43083 h 1.77728 q 0.81891,0 1.36334,-0.0585 l 0.0315,0.036 q -0.027,0.15298 -0.027,0.40045 0,0.22497 0.027,0.35545 l -0.0315,0.0495 q -0.32396,-0.018 -0.99438,-0.0315 -0.67042,-0.0135 -0.88639,-0.0135 -0.43645,0 -1.17436,0.009 -0.73792,0.0135 -1.00338,0.036 z"
         id="text2-1"
         style="font-size:9.2149px;font-family:'Palatino Linotype';-inkscape-font-specification:'Palatino Linotype';stroke-width:0.691115;stroke-linejoin:round"
         aria-label="2" /><path
         id="path93"
         d="m 265.553,524.247 h 3.052 v 4.695 -4.695 h 59.391 v 4.695 -4.695 h 59.39 v 4.695 -4.695 h 3.052 m -62.442,-8.803 v 8.803 h 4.695 -4.695 v 59.508 h 4.695 -4.695 v 26.761"
         style="fill:none;stroke:#000000;stroke-width:0.3;stroke-linecap:round;stroke-linejoin:round;stroke-miterlimit:10;stroke-dasharray:none;stroke-opacity:1"
         transform="matrix(1.6,0,0,-1.6,-25.934132,1285.6863)"
         clip-path="url(#clipPath94)" /><path
         id="path95"
         d="m 387.386,524.247 v 2.113 l -0.117,1.056 v 1.056 l -0.118,1.057 -0.117,0.939 -0.352,3.169 -0.235,0.938 -0.118,1.057 -0.234,1.056 -0.235,0.939 -0.234,1.057 -0.235,0.939 -0.235,1.056 -0.352,0.939 -0.352,1.056 -0.235,0.939 -0.352,1.057 -0.353,0.939 -0.468,0.938 -0.353,0.94 -0.469,0.938 -0.353,0.94 -1.877,3.755 -0.587,0.939 -0.47,0.822 -0.586,0.939 -0.47,0.822 -0.587,0.939 -1.174,1.643 -0.704,0.821 -0.587,0.822 -0.704,0.821 -0.587,0.822 -0.704,0.822 -0.704,0.704 -0.705,0.821 -1.408,1.409 -0.704,0.822 -0.822,0.704 -0.704,0.704 -0.822,0.704 -0.821,0.587 -0.705,0.705 -0.821,0.586 -0.822,0.705 -0.821,0.586 -0.939,0.587 -1.643,1.174 -0.94,0.587 -0.821,0.469 -0.94,0.587 -0.938,0.47 -0.821,0.469 -0.94,0.587 -0.938,0.352 -1.879,0.939 -0.938,0.352 -0.94,0.47 -1.056,0.352 -1.878,0.704 -1.056,0.353 -0.939,0.351 -1.057,0.235 -0.938,0.235 -1.057,0.352 -0.939,0.235 -1.056,0.235 -0.939,0.117 -1.057,0.234 -1.056,0.118 -1.056,0.235 -0.94,0.117 -1.056,0.118 -1.056,0.117 h -1.057 l -1.056,0.117 h -0.938 l -1.057,0.118 h -2.112 l -1.056,-0.118 h -1.058 l -0.938,-0.117 h -1.056 l -3.169,-0.352 -0.94,-0.235 -1.056,-0.118 -1.056,-0.234 -0.94,-0.117 -2.112,-0.47 -0.939,-0.352 -1.056,-0.235 -0.939,-0.235 -1.057,-0.351 -2.817,-1.057 -1.056,-0.352 -0.938,-0.47 -0.94,-0.352 -1.878,-0.939 -0.939,-0.352 -0.939,-0.587 -0.822,-0.469 -0.938,-0.47 -0.94,-0.587 -0.821,-0.469 -0.939,-0.587 -1.643,-1.174 -0.939,-0.587 -0.822,-0.586 -0.822,-0.705 -0.821,-0.586 -0.705,-0.705 -0.821,-0.587 -0.821,-0.704 -0.705,-0.704 -0.821,-0.704 -0.704,-0.822 -1.409,-1.409 -0.705,-0.821 -0.703,-0.704 -0.705,-0.822 -0.586,-0.822 -0.705,-0.821 -0.586,-0.822 -0.705,-0.821 -1.173,-1.643 -0.588,-0.939 -0.469,-0.822 -0.587,-0.939 -0.469,-0.822 -0.587,-0.939 -2.348,-4.695 -0.703,-1.878 -0.47,-0.938 -0.353,-0.939 -0.352,-1.057 -0.351,-0.939 -0.235,-1.056 -0.353,-0.939 -0.234,-1.056 -0.235,-0.939 -0.235,-1.057 -0.234,-0.939 -0.47,-2.113 -0.117,-0.938 -0.118,-1.056 -0.235,-1.057 -0.117,-1.056 v -0.939 l -0.235,-2.113 v -6.221 l 0.235,-2.112 v -0.94 l 0.117,-1.056 0.235,-1.056 v -0.587"
         style="fill:none;stroke:#000000;stroke-width:0.6;stroke-linecap:round;stroke-linejoin:round;stroke-miterlimit:10;stroke-dasharray:none;stroke-opacity:1"
         transform="matrix(1.6,0,0,-1.6,-25.934132,1285.6863)"
         clip-path="url(#clipPath96)" /><path
         id="path97"
         d="m 386.682,515.444 0.117,0.587 0.235,2.112 0.117,0.94 0.118,1.056 v 1.056 l 0.117,1.057 v 1.995"
         style="fill:none;stroke:#000000;stroke-width:0.705;stroke-linecap:round;stroke-linejoin:round;stroke-miterlimit:10;stroke-dasharray:none;stroke-opacity:1"
         transform="matrix(1.6,0,0,-1.6,-25.934132,1285.6863)"
         clip-path="url(#clipPath98)" /><path
         id="path101"
         d="m 327.996,515.444 v 95.072 m 0,-86.269 v 30.634 m 0,-30.634 v 85.095"
         style="fill:none;stroke:#000000;stroke-width:0.6;stroke-linecap:round;stroke-linejoin:round;stroke-miterlimit:10;stroke-dasharray:none;stroke-opacity:1"
         transform="matrix(1.6,0,0,-1.6,-25.934132,1285.6863)"
         clip-path="url(#clipPath102)" /><path
         id="path103"
         d="m 403.83386,446.8911 h 95.0256"
         style="fill:none;stroke:#000000;stroke-width:0.376;stroke-linecap:round;stroke-linejoin:round;stroke-miterlimit:10;stroke-dasharray:4.5072, 3.0048;stroke-dashoffset:0;stroke-opacity:1" /><path
         id="path104"
         d="m 485.52665,310.7391 -1.2528,3.7568 1.2528,-0.752 1.25121,0.752 z"
         style="fill:#000000;fill-opacity:1;fill-rule:nonzero;stroke:#000000;stroke-width:0.376;stroke-linecap:round;stroke-linejoin:miter;stroke-miterlimit:10;stroke-dasharray:none;stroke-opacity:1" /><path
         id="path105"
         d="M 485.52665,367.2655 V 310.7391"
         style="fill:none;stroke:#000000;stroke-width:0.48;stroke-linecap:round;stroke-linejoin:round;stroke-miterlimit:10;stroke-dasharray:none;stroke-opacity:1" /><path
         id="path106"
         d="m 485.52665,446.8911 1.25121,-3.75681 -1.25121,0.75201 -1.2528,-0.75201 z"
         style="fill:#000000;fill-opacity:1;fill-rule:nonzero;stroke:#000000;stroke-width:0.376;stroke-linecap:round;stroke-linejoin:miter;stroke-miterlimit:10;stroke-dasharray:none;stroke-opacity:1" /><path
         id="path107"
         d="m 485.52665,390.1759 v 56.7152"
         style="fill:none;stroke:#000000;stroke-width:0.48;stroke-linecap:round;stroke-linejoin:round;stroke-miterlimit:10;stroke-dasharray:none;stroke-opacity:1" /><path
         id="path108"
         d="m 403.83386,446.8911 150.23679,-77.3712 m -150.23679,77.3712 95.0256,-136.152"
         style="fill:none;stroke:#000000;stroke-width:0.752;stroke-linecap:round;stroke-linejoin:round;stroke-miterlimit:10;stroke-dasharray:4.5072, 3.0048;stroke-dashoffset:0;stroke-opacity:1" /><path
         id="path109"
         d="m 557.26425,369.8959 5.9168,2.9168 -0.95679,-2.2368 1.52479,-1.896 z"
         style="fill:#000000;fill-opacity:1;fill-rule:nonzero;stroke:#000000;stroke-width:1.128;stroke-linecap:round;stroke-linejoin:miter;stroke-miterlimit:10;stroke-dasharray:none;stroke-opacity:1" /><path
         id="path110"
         d="m 595.57305,375.1535 -38.3088,-5.25761"
         style="fill:none;stroke:#000000;stroke-width:0.96;stroke-linecap:round;stroke-linejoin:round;stroke-miterlimit:10;stroke-dasharray:none;stroke-opacity:1" /><path
         id="path111"
         d="m 469.56185,358.06389 5.92641,2.90081 -0.9616,-2.2336 1.5168,-1.9024 z"
         style="fill:#000000;fill-opacity:1;fill-rule:nonzero;stroke:#000000;stroke-width:1.128;stroke-linecap:round;stroke-linejoin:miter;stroke-miterlimit:10;stroke-dasharray:none;stroke-opacity:1" /><path
         id="path112"
         d="m 550.69145,368.9567 -81.1296,-10.89281"
         style="fill:none;stroke:#000000;stroke-width:0.96;stroke-linecap:round;stroke-linejoin:round;stroke-miterlimit:10;stroke-dasharray:none;stroke-opacity:1" /><path
         id="path113"
         d="m 557.16093,369.5202 v 0 c 0,-1.70694 -1.38273,-3.09138 -3.09028,-3.09138 -1.70537,0 -3.09027,1.38444 -3.09027,3.09138 0,1.70476 1.3849,3.08917 3.09027,3.08917 1.70755,0 3.09028,-1.38441 3.09028,-3.08917"
         style="fill:#ffffff;fill-opacity:1;fill-rule:nonzero;stroke:#000000;stroke-width:0.16;stroke-linecap:round;stroke-linejoin:round;stroke-miterlimit:10;stroke-dasharray:none;stroke-opacity:1" /><path
         id="path114"
         d="m 469.27373,357.5007 v 0 c 0,-1.70755 -1.38662,-3.09028 -3.09138,-3.09028 -1.70694,0 -3.08917,1.38273 -3.08917,3.09028 0,1.70537 1.38223,3.09027 3.08917,3.09027 1.70476,0 3.09138,-1.3849 3.09138,-3.09027"
         style="fill:#ffffff;fill-opacity:1;fill-rule:nonzero;stroke:#000000;stroke-width:0.16;stroke-linecap:round;stroke-linejoin:round;stroke-miterlimit:10;stroke-dasharray:none;stroke-opacity:1" /><path
         id="path115"
         d="m 501.94895,446.8908 v 0 c 0,-1.70696 -1.38443,-3.08921 -3.08919,-3.08921 -1.70477,0 -3.09141,1.38224 -3.09141,3.08921 0,1.70477 1.38664,3.09139 3.09141,3.09139 1.70476,0 3.08919,-1.38662 3.08919,-3.09139"
         style="fill:#ffffff;fill-opacity:1;fill-rule:nonzero;stroke:#000000;stroke-width:0.16;stroke-linecap:round;stroke-linejoin:round;stroke-miterlimit:10;stroke-dasharray:none;stroke-opacity:1" /><path
         id="path116"
         d="m 501.94895,397.877 v 0 c 0,-1.70697 -1.38443,-3.0914 -3.08919,-3.0914 -1.70477,0 -3.09141,1.38443 -3.09141,3.0914 0,1.70695 1.38664,3.0892 3.09141,3.0892 1.70476,0 3.08919,-1.38225 3.08919,-3.0892"
         style="fill:#ffffff;fill-opacity:1;fill-rule:nonzero;stroke:#000000;stroke-width:0.16;stroke-linecap:round;stroke-linejoin:round;stroke-miterlimit:10;stroke-dasharray:none;stroke-opacity:1" /><path
         id="path117"
         d="m 501.94893,310.7391 v 0 c 0,-1.70537 -1.38442,-3.09028 -3.08917,-3.09028 -1.70476,0 -3.09138,1.38491 -3.09138,3.09028 0,1.70755 1.38662,3.09027 3.09138,3.09027 1.70475,0 3.08917,-1.38272 3.08917,-3.09027"
         style="fill:#ffffff;fill-opacity:1;fill-rule:nonzero;stroke:#000000;stroke-width:0.16;stroke-linecap:round;stroke-linejoin:round;stroke-miterlimit:10;stroke-dasharray:none;stroke-opacity:1" /><path
         id="path118"
         d="m 406.92496,446.8908 v 0 c 0,-1.70696 -1.38445,-3.08921 -3.0914,-3.08921 -1.70477,0 -3.0892,1.38224 -3.0892,3.08921 0,1.70477 1.38443,3.09139 3.0892,3.09139 1.70695,0 3.0914,-1.38662 3.0914,-3.09139"
         style="fill:#ffffff;fill-opacity:1;fill-rule:nonzero;stroke:#000000;stroke-width:0.16;stroke-linecap:round;stroke-linejoin:round;stroke-miterlimit:10;stroke-dasharray:none;stroke-opacity:1" /><path
         id="path125"
         d="m 445.44986,450.41749 h 10.9008 v 13.36481 h -10.9008 z"
         style="fill:#ffffff;fill-opacity:1;fill-rule:nonzero;stroke:none;stroke-width:1.6" /><path
         d="m 181.28776,416.22928 -0.1125,-0.0375 -0.0625,-0.5125 0.0625,-0.0625 q 0.625,-0.18125 1.58125,-0.58125 0.95625,-0.4 1.36875,-0.6125 l 0.1625,0.0625 q -0.1,2.7375 -0.1,3.2875 v 2.31875 q 0,0.85625 0.0188,1.6125 0.0187,0.75 0.0562,0.8875 0.0375,0.13125 0.125,0.20625 0.0937,0.075 0.25625,0.1 0.1625,0.0188 0.96875,0.0625 l 0.0437,0.05 v 0.28125 l -0.0437,0.05 q -1.36875,-0.05 -1.93125,-0.05 -0.425,0 -2.08125,0.05 l -0.0437,-0.05 v -0.28125 l 0.05,-0.05 q 0.9375,-0.0688 1.06875,-0.1 0.1375,-0.0312 0.20625,-0.10625 0.075,-0.0813 0.11875,-0.3 0.0437,-0.21875 0.0687,-1.29375 0.0312,-1.075 0.0312,-1.1 v -2.4625 q 0,-1.8125 -0.0125,-1.96875 -0.006,-0.15625 -0.10625,-0.15625 -0.025,0 -0.0687,0.0125 -0.0437,0.0125 -0.275,0.1125 l -0.61875,0.275 q -0.3875,0.16875 -0.73125,0.35625 z"
         id="text2-12"
         style="font-size:12.8px;font-family:'Palatino Linotype';-inkscape-font-specification:'Palatino Linotype';stroke-width:0.96;stroke-linejoin:round"
         aria-label="1" /><path
         d="m 246.54252,416.15707 -0.1005,-0.0335 -0.0558,-0.45786 0.0558,-0.0558 q 0.55836,-0.16193 1.41267,-0.51928 0.8543,-0.35736 1.22283,-0.5472 l 0.14517,0.0558 q -0.0893,2.44566 -0.0893,2.93702 v 2.07155 q 0,0.76497 0.0168,1.4406 0.0168,0.67004 0.0502,0.79288 0.0335,0.11726 0.11167,0.18426 0.0838,0.067 0.22893,0.0893 0.14518,0.0168 0.86548,0.0558 l 0.0391,0.0447 v 0.25126 l -0.0391,0.0447 q -1.22283,-0.0447 -1.72536,-0.0447 -0.3797,0 -1.85937,0.0447 l -0.0391,-0.0447 v -0.25126 l 0.0447,-0.0447 q 0.83755,-0.0614 0.95481,-0.0893 0.12284,-0.0279 0.18426,-0.0949 0.067,-0.0726 0.10609,-0.26802 0.0391,-0.19543 0.0614,-1.15582 0.0279,-0.9604 0.0279,-0.98273 v -2.19998 q 0,-1.61927 -0.0112,-1.75886 -0.006,-0.13959 -0.0949,-0.13959 -0.0223,0 -0.0614,0.0112 -0.0391,0.0112 -0.24568,0.10051 l -0.55279,0.24568 q -0.34619,0.15076 -0.65329,0.31827 z"
         id="text2-12-8"
         style="font-size:11.4354px;font-family:'Palatino Linotype';-inkscape-font-specification:'Palatino Linotype';stroke-width:0.857651;stroke-linejoin:round"
         aria-label="1" /><path
         d="m 246.54252,430.16251 -0.1005,-0.0335 -0.0558,-0.45786 0.0558,-0.0558 q 0.55836,-0.16192 1.41267,-0.51928 0.8543,-0.35736 1.22283,-0.5472 l 0.14517,0.0558 q -0.0893,2.44565 -0.0893,2.93702 v 2.07155 q 0,0.76496 0.0168,1.44059 0.0168,0.67004 0.0502,0.79288 0.0335,0.11726 0.11167,0.18426 0.0838,0.067 0.22893,0.0893 0.14518,0.0168 0.86548,0.0558 l 0.0391,0.0447 v 0.25127 l -0.0391,0.0447 q -1.22283,-0.0447 -1.72536,-0.0447 -0.3797,0 -1.85937,0.0447 l -0.0391,-0.0447 v -0.25127 l 0.0447,-0.0447 q 0.83755,-0.0614 0.95481,-0.0893 0.12284,-0.0279 0.18426,-0.0949 0.067,-0.0726 0.10609,-0.26802 0.0391,-0.19543 0.0614,-1.15582 0.0279,-0.9604 0.0279,-0.98273 v -2.19998 q 0,-1.61927 -0.0112,-1.75886 -0.006,-0.13959 -0.0949,-0.13959 -0.0223,0 -0.0614,0.0112 -0.0391,0.0112 -0.24568,0.1005 l -0.55279,0.24568 q -0.34619,0.15076 -0.65329,0.31828 z"
         id="text2-12-8-9"
         style="font-size:11.4354px;font-family:'Palatino Linotype';-inkscape-font-specification:'Palatino Linotype';stroke-width:0.857651;stroke-linejoin:round"
         aria-label="1" /><path
         style="font-style:italic;font-size:12.8px;font-family:'Palatino Linotype';-inkscape-font-specification:'Palatino Linotype Italic';stroke-width:0.96;stroke-linejoin:round"
         d="m 261.53304,431.69977 -0.0625,-0.14375 0.0187,-0.0875 q 0.1875,-0.14375 0.8125,-0.525 0.625,-0.3875 0.86875,-0.49375 0.24375,-0.10625 0.375,-0.10625 0.13125,0 0.20625,0.1 0.075,0.1 0.075,0.23125 0,0.14375 -0.18125,0.875 -0.8,3.28125 -0.8,3.86875 0,0.275 0.1875,0.275 0.2375,0 0.75625,-0.4125 0.525,-0.4125 1.125,-1.18125 0.60625,-0.76875 0.88125,-1.54375 0.275,-0.775 0.4875,-1.98125 0.075,-0.0125 0.85625,-0.2 l 0.0937,0.0937 q -0.006,0.0375 -0.15,0.51875 -0.25,0.80625 -0.5,1.85625 -0.25,1.05 -0.3625,1.68125 -0.1125,0.625 -0.1125,0.8875 0,0.29375 0.2,0.29375 0.10625,0 0.2625,-0.0937 0.15625,-0.1 0.70625,-0.5125 l 0.0688,0.025 0.0687,0.14375 -0.0125,0.0812 q -1.1,0.86875 -1.44375,1.05625 -0.3375,0.19375 -0.51875,0.19375 -0.15,0 -0.2375,-0.1375 -0.0813,-0.13125 -0.0813,-0.30625 0,-0.3875 0.525,-2.56875 l -0.0375,-0.0188 -0.4625,0.6625 q -0.2375,0.3375 -0.55625,0.70625 -0.31875,0.3625 -0.75,0.74375 -0.425,0.38125 -0.775,0.6 -0.35,0.21875 -0.50625,0.26875 -0.15625,0.0562 -0.24375,0.0562 -0.18125,0 -0.31875,-0.18125 -0.13125,-0.175 -0.13125,-0.525 0,-0.48125 0.24375,-1.46875 0.61875,-2.48125 0.61875,-3.0125 0,-0.2 -0.1625,-0.2 -0.1875,0 -0.95625,0.5 z m 3.2875,-1.7375 z m -1.15625,7.1125 z"
         id="text3-2-5"
         aria-label="u" /><path
         d="m 268.20463,431.9358 -0.054,-0.045 v -0.20698 l 1.50732,-1.59731 q 0.93139,-0.98538 1.20586,-1.52531 0.27447,-0.53994 0.27447,-1.00788 0,-0.54894 -0.33297,-0.9134 -0.33296,-0.36445 -0.89989,-0.36445 -0.36445,0 -0.63442,0.11248 -0.26997,0.11249 -0.36446,0.25197 -0.09,0.13949 -0.26547,0.78291 l -0.0405,0.036 h -0.18448 l -0.045,-0.0405 q 0.10348,-0.60743 0.14398,-1.20135 0.42295,-0.41396 0.7874,-0.52644 0.36896,-0.11699 0.76941,-0.11699 0.47695,0 0.91339,0.17998 0.43645,0.17998 0.70192,0.58493 0.26547,0.40045 0.26547,0.93139 0,0.39595 -0.15748,0.7964 -0.15298,0.39596 -0.45445,0.76941 -0.29696,0.36896 -0.8144,0.8864 l -1.40383,1.43083 h 1.77728 q 0.81891,0 1.36334,-0.0585 l 0.0315,0.036 q -0.027,0.15298 -0.027,0.40045 0,0.22497 0.027,0.35546 l -0.0315,0.0495 q -0.32396,-0.018 -0.99438,-0.0315 -0.67042,-0.0135 -0.88639,-0.0135 -0.43645,0 -1.17436,0.009 -0.73792,0.0135 -1.00338,0.036 z"
         id="text2-1-9"
         style="font-size:9.2149px;font-family:'Palatino Linotype';-inkscape-font-specification:'Palatino Linotype';stroke-width:0.691115;stroke-linejoin:round"
         aria-label="2" /><path
         id="rect73-8"
         style="stroke-width:4.50565"
         transform="scale(1,-1)"
         d="m 291.76385,-382.08228 h 27.12865 v 0.74832 h -27.12865 z" /><path
         id="path75-4"
         d="m 302.66307,389.56471 v -3.6375 h -0.58126 v 3.6375 h -3.65624 v 0.58125 h 3.65624 v 3.63749 h 0.58126 v -3.63749 h 3.65624 v -0.58125 z m 0,0"
         style="fill:#000000;fill-opacity:1;fill-rule:nonzero;stroke:none;stroke-width:1.6" /><g
         id="text2-12-8-8"
         style="font-size:11.4354px;font-family:'Palatino Linotype';-inkscape-font-specification:'Palatino Linotype';stroke-width:0.857651;stroke-linejoin:round"
         aria-label="2u"><path
           d="m 298.54973,379.7195 -0.067,-0.0558 v -0.25685 l 1.87054,-1.98221 q 1.15582,-1.22283 1.49643,-1.89288 0.3406,-0.67004 0.3406,-1.25074 0,-0.68121 -0.41319,-1.13349 -0.41319,-0.45228 -1.11674,-0.45228 -0.45228,0 -0.7873,0.13959 -0.33502,0.13959 -0.45228,0.31269 -0.11167,0.17309 -0.32943,0.97156 l -0.0503,0.0447 h -0.22893 l -0.0558,-0.0503 q 0.12843,-0.7538 0.17868,-1.49085 0.52487,-0.5137 0.97715,-0.65329 0.45786,-0.14518 0.95481,-0.14518 0.59187,0 1.13349,0.22335 0.54162,0.22335 0.87105,0.72588 0.32944,0.49695 0.32944,1.15582 0,0.49137 -0.19543,0.98832 -0.18984,0.49136 -0.56395,0.95481 -0.36852,0.45786 -1.01065,1.09999 l -1.74211,1.77561 h 2.20556 q 1.01623,0 1.69186,-0.0726 l 0.0391,0.0447 q -0.0335,0.18985 -0.0335,0.49695 0,0.27919 0.0335,0.44111 l -0.0391,0.0614 q -0.40203,-0.0223 -1.234,-0.0391 -0.83197,-0.0168 -1.09999,-0.0168 -0.54161,0 -1.45734,0.0112 -0.91573,0.0168 -1.24516,0.0447 z"
           id="path6" /><path
           style="font-style:italic;-inkscape-font-specification:'Palatino Linotype Italic'"
           d="m 304.51869,375.47031 -0.0558,-0.12842 0.0168,-0.0782 q 0.16751,-0.12843 0.72588,-0.46903 0.55837,-0.34619 0.77613,-0.44111 0.21776,-0.0949 0.33502,-0.0949 0.11726,0 0.18426,0.0893 0.067,0.0893 0.067,0.2066 0,0.12842 -0.16193,0.78171 -0.71471,2.93144 -0.71471,3.45631 0,0.24568 0.16751,0.24568 0.21218,0 0.67563,-0.36852 0.46903,-0.36852 1.00506,-1.05532 0.54162,-0.68679 0.7873,-1.37917 0.24568,-0.69238 0.43553,-1.77003 0.067,-0.0112 0.76496,-0.17868 l 0.0838,0.0838 q -0.006,0.0335 -0.13401,0.46344 -0.22335,0.7203 -0.44669,1.65836 -0.22335,0.93806 -0.32386,1.50201 -0.1005,0.55837 -0.1005,0.79289 0,0.26243 0.17867,0.26243 0.0949,0 0.23452,-0.0838 0.13959,-0.0893 0.63096,-0.45786 l 0.0614,0.0223 0.0614,0.12842 -0.0112,0.0726 q -0.98273,0.77613 -1.28983,0.94364 -0.30152,0.1731 -0.46345,0.1731 -0.13401,0 -0.21218,-0.12284 -0.0726,-0.11726 -0.0726,-0.2736 0,-0.34619 0.46903,-2.2949 l -0.0335,-0.0168 -0.41319,0.59187 q -0.21218,0.30152 -0.49695,0.63096 -0.28477,0.32385 -0.67004,0.66445 -0.3797,0.34061 -0.69238,0.53604 -0.31269,0.19543 -0.45228,0.2401 -0.13959,0.0503 -0.21777,0.0503 -0.16192,0 -0.28476,-0.16193 -0.11726,-0.15634 -0.11726,-0.46903 0,-0.42994 0.21776,-1.31216 0.55279,-2.21673 0.55279,-2.69134 0,-0.17868 -0.14518,-0.17868 -0.16751,0 -0.8543,0.44669 z m 2.93702,-1.55226 z m -1.03298,6.35424 z"
           id="path7" /></g><path
         d="m 293.25222,387.3595 -0.1005,-0.0335 -0.0558,-0.45786 0.0558,-0.0558 q 0.55837,-0.16192 1.41267,-0.51928 0.85431,-0.35736 1.22283,-0.5472 l 0.14518,0.0558 q -0.0893,2.44565 -0.0893,2.93702 v 2.07155 q 0,0.76496 0.0168,1.44059 0.0168,0.67004 0.0503,0.79288 0.0335,0.11726 0.11167,0.18427 0.0838,0.067 0.22894,0.0893 0.14517,0.0168 0.86547,0.0558 l 0.0391,0.0447 v 0.25127 l -0.0391,0.0447 q -1.22283,-0.0447 -1.72536,-0.0447 -0.37969,0 -1.85937,0.0447 l -0.0391,-0.0447 v -0.25127 l 0.0447,-0.0447 q 0.83756,-0.0614 0.95481,-0.0893 0.12284,-0.0279 0.18426,-0.0949 0.067,-0.0726 0.10609,-0.26802 0.0391,-0.19543 0.0614,-1.15582 0.0279,-0.9604 0.0279,-0.98273 v -2.19998 q 0,-1.61927 -0.0112,-1.75886 -0.006,-0.13959 -0.0949,-0.13959 -0.0223,0 -0.0614,0.0112 -0.0391,0.0112 -0.24568,0.1005 l -0.55278,0.24569 q -0.34619,0.15076 -0.6533,0.31827 z"
         id="text2-12-8-9-9"
         style="font-size:11.4354px;font-family:'Palatino Linotype';-inkscape-font-specification:'Palatino Linotype';stroke-width:0.857651;stroke-linejoin:round"
         aria-label="1" /><path
         style="font-style:italic;font-size:12.8px;font-family:'Palatino Linotype';-inkscape-font-specification:'Palatino Linotype Italic';stroke-width:0.96;stroke-linejoin:round"
         d="m 308.24273,388.89673 -0.0625,-0.14375 0.0188,-0.0875 q 0.1875,-0.14375 0.8125,-0.525 0.625,-0.3875 0.86875,-0.49375 0.24375,-0.10625 0.375,-0.10625 0.13125,0 0.20625,0.1 0.075,0.1 0.075,0.23125 0,0.14375 -0.18125,0.875 -0.8,3.28125 -0.8,3.86875 0,0.275 0.1875,0.275 0.2375,0 0.75625,-0.4125 0.525,-0.4125 1.125,-1.18125 0.60625,-0.76875 0.88125,-1.54375 0.275,-0.775 0.4875,-1.98125 0.075,-0.0125 0.85625,-0.2 l 0.0937,0.0937 q -0.006,0.0375 -0.15,0.51875 -0.25,0.80625 -0.5,1.85625 -0.25,1.05 -0.3625,1.68125 -0.1125,0.625 -0.1125,0.8875 0,0.29375 0.2,0.29375 0.10625,0 0.2625,-0.0937 0.15625,-0.1 0.70625,-0.5125 l 0.0688,0.025 0.0688,0.14375 -0.0125,0.0813 q -1.1,0.86875 -1.44375,1.05625 -0.3375,0.19375 -0.51875,0.19375 -0.15,0 -0.2375,-0.1375 -0.0813,-0.13125 -0.0813,-0.30625 0,-0.3875 0.525,-2.56875 l -0.0375,-0.0187 -0.4625,0.6625 q -0.2375,0.3375 -0.55625,0.70625 -0.31875,0.3625 -0.75,0.74375 -0.425,0.38125 -0.775,0.6 -0.35,0.21875 -0.50625,0.26875 -0.15625,0.0562 -0.24375,0.0562 -0.18125,0 -0.31875,-0.18125 -0.13125,-0.175 -0.13125,-0.525 0,-0.48125 0.24375,-1.46875 0.61875,-2.48125 0.61875,-3.0125 0,-0.2 -0.1625,-0.2 -0.1875,0 -0.95625,0.5 z m 3.2875,-1.7375 z m -1.15625,7.1125 z"
         id="text3-2-5-5"
         aria-label="u" /><path
         d="m 314.91434,389.13276 -0.054,-0.045 v -0.20698 l 1.50732,-1.59731 q 0.93139,-0.98538 1.20585,-1.52531 0.27447,-0.53994 0.27447,-1.00788 0,-0.54894 -0.33296,-0.91339 -0.33296,-0.36446 -0.89989,-0.36446 -0.36446,0 -0.63443,0.11249 -0.26996,0.11248 -0.36445,0.25197 -0.09,0.13948 -0.26547,0.7829 l -0.0405,0.036 h -0.18447 l -0.045,-0.0405 q 0.10349,-0.60743 0.14399,-1.20135 0.42294,-0.41395 0.7874,-0.52644 0.36896,-0.11699 0.76941,-0.11699 0.47694,0 0.91339,0.17998 0.43645,0.17998 0.70192,0.58493 0.26546,0.40045 0.26546,0.93139 0,0.39595 -0.15748,0.79641 -0.15298,0.39595 -0.45444,0.7694 -0.29697,0.36896 -0.8144,0.8864 l -1.40384,1.43083 h 1.77729 q 0.8189,0 1.36334,-0.0585 l 0.0315,0.036 q -0.027,0.15298 -0.027,0.40045 0,0.22497 0.027,0.35546 l -0.0315,0.0495 q -0.32396,-0.018 -0.99438,-0.0315 -0.67042,-0.0135 -0.8864,-0.0135 -0.43645,0 -1.17436,0.009 -0.73791,0.0135 -1.00338,0.036 z"
         id="text2-1-9-8"
         style="font-size:9.2149px;font-family:'Palatino Linotype';-inkscape-font-specification:'Palatino Linotype';stroke-width:0.691115;stroke-linejoin:round"
         aria-label="2" /><g
         id="text4"
         style="font-style:italic;font-size:17.6px;font-family:'Palatino Linotype';-inkscape-font-specification:'Palatino Linotype Italic';stroke-width:0.96;stroke-linejoin:round"
         aria-label="(x, y)"><path
           style="font-style:normal;-inkscape-font-specification:'Palatino Linotype'"
           d="m 294.5379,330.88329 q -1.7961,-1.52109 -2.77578,-3.66093 -0.97969,-2.13125 -0.97969,-4.56328 0,-1.97657 0.55,-3.51485 0.55,-1.53828 1.52969,-2.82734 0.98828,-1.28906 1.74453,-1.83047 l 0.0945,0.009 0.2664,0.33516 v 0.0945 q -2.68125,2.8875 -2.68125,7.54531 0,2.57813 0.59297,4.4 0.60157,1.83047 2.08828,3.61797 l -0.009,0.10313 -0.31797,0.28359 z"
           id="path1" /><path
           d="m 295.67227,326.87001 q 0.20625,-1.1 0.21485,-1.46093 l 0.0516,-0.0688 0.22344,-0.0344 0.0859,0.0516 0.17188,0.43828 q 0.21484,0.1461 0.4125,0.1461 0.5414,0 1.1,-0.62735 0.55859,-0.63593 1.49531,-2.18281 -0.043,-0.28359 -0.20625,-1.24609 -0.16328,-0.9711 -0.36094,-1.46953 -0.19765,-0.49844 -0.37812,-0.63594 -0.17188,-0.1375 -0.40391,-0.1375 -0.29219,0 -0.51562,0.1375 -0.21485,0.12891 -0.54141,0.46406 -0.17187,0.17188 -0.18047,0.18047 l -0.0859,0.0172 -0.20625,-0.12031 -0.0172,-0.0945 0.98828,-1.40078 q 0.43828,-0.30937 1.01406,-0.30937 0.71328,0 1.15156,0.56719 0.43828,0.56718 0.63594,2.6039 l 0.91953,-1.39219 q 0.1375,-0.23203 0.61016,-0.79062 0.47265,-0.55859 0.84219,-0.78203 0.36953,-0.22344 0.73046,-0.22344 0.275,0 0.53282,0.14609 -0.19766,1.01407 -0.24922,1.43516 l -0.0602,0.0688 -0.1375,0.0344 -0.0859,-0.043 q -0.11171,-0.18907 -0.22343,-0.25782 -0.10313,-0.0773 -0.29219,-0.0773 -0.44688,0 -0.90234,0.39531 -0.44688,0.38672 -1.56407,2.00235 0.39532,2.50078 0.67891,3.13672 0.29219,0.62734 0.72187,0.62734 0.24922,0 0.50704,-0.14609 0.2664,-0.15469 0.77343,-0.60157 l 0.10313,0.009 0.12031,0.18047 -0.009,0.10312 q -0.55,0.54141 -1.03985,0.91953 -0.48125,0.37813 -0.73047,0.51563 -0.24062,0.1375 -0.55,0.1375 -0.42109,0 -0.6789,-0.33516 -0.25781,-0.33516 -0.43828,-1.02266 -0.18047,-0.6875 -0.35235,-2.00234 -0.73047,1.22891 -1.34922,2.05391 -0.61875,0.825 -1.01406,1.07422 -0.38672,0.24921 -0.80781,0.24921 -0.42969,0 -0.70469,-0.23203 z"
           id="path2" /><path
           style="font-style:normal;-inkscape-font-specification:'Palatino Linotype'"
           d="m 304.28321,329.29345 q 0.53281,-0.88516 0.76484,-1.33203 0.23204,-0.44688 0.40391,-0.94531 0.18047,-0.48985 0.23203,-0.75625 0.0602,-0.26641 0.16328,-1.1 0.043,-0.0172 0.48125,-0.12032 0.60157,-0.14609 1.27188,-0.39531 l 0.21484,0.24063 q -1.0914,2.53515 -2.58672,4.28828 l -0.73047,0.33515 z"
           id="path3" /><path
           d="m 313.1004,330.06689 0.85078,-0.57578 0.18047,0.0602 q -0.0172,0.1375 -0.0172,0.24063 0,0.61875 0.36094,0.92812 0.36093,0.31797 0.77343,0.31797 0.32657,0 0.66172,-0.17187 0.34375,-0.16328 0.66172,-0.55 0.32656,-0.38672 0.73047,-1.29766 0.40391,-0.91094 0.73047,-1.96797 0.33516,-1.04844 0.64453,-2.1914 l 0.29219,-1.07422 q -0.58438,0.89375 -1.07422,1.43515 -0.48984,0.54141 -0.9625,1.03125 -0.47266,0.48985 -0.78203,0.67891 -0.30938,0.18906 -0.55,0.18906 -0.36094,0 -0.56719,-0.43828 -0.20625,-0.44687 -0.20625,-1.1 0,-0.33516 0.12031,-1.375 0.20625,-1.88203 0.20625,-3.26562 0,-0.71329 -0.0773,-0.92813 -0.0687,-0.22344 -0.24922,-0.22344 -0.19766,0 -0.49844,0.19766 -0.30078,0.19766 -0.75625,0.55 l -0.11172,-0.0344 -0.0945,-0.20625 0.0258,-0.1289 q 1.91641,-1.61563 2.52657,-1.61563 0.25781,0 0.4039,0.22344 0.15469,0.22344 0.15469,0.84219 0,0.58437 -0.0859,1.52969 -0.2664,2.92187 -0.2664,3.90156 0,0.34375 0.0687,0.52422 0.0773,0.18047 0.2664,0.18047 0.12891,0 0.33516,-0.10313 0.21484,-0.10312 0.67891,-0.55859 0.46406,-0.45547 0.92812,-1.14297 0.46406,-0.6961 0.825,-1.52969 0.36953,-0.83359 0.57578,-1.58984 0.20625,-0.75625 0.49844,-1.96797 0.58437,-0.0859 1.29766,-0.32656 l 0.18906,0.17187 q -0.42969,0.85938 -1.58125,4.78672 -0.58438,2.01953 -0.97969,3.18828 -0.38672,1.16016 -0.91953,2.11406 -0.53281,0.9625 -1.2375,1.66719 -0.70469,0.70469 -1.33203,0.98828 -0.61875,0.29219 -1.18594,0.29219 -0.61016,0 -1.05703,-0.38672 -0.43828,-0.37812 -0.43828,-0.99687 0,-0.12891 0.043,-0.29219 z m 5.06172,-12.09141 z m 2.1914,9.77969 z"
           id="path4" /><path
           style="font-style:normal;-inkscape-font-specification:'Palatino Linotype'"
           d="m 323.06915,330.88329 -0.10313,-0.009 -0.32656,-0.28359 v -0.10313 q 1.48672,-1.7875 2.07969,-3.61797 0.60156,-1.83047 0.60156,-4.4 0,-4.65781 -2.68125,-7.54531 v -0.0945 l 0.2664,-0.33516 0.0945,-0.009 q 1.32343,0.97109 2.56953,3.11094 1.25468,2.13125 1.25468,5.06172 0,2.37187 -0.9539,4.50312 -0.94531,2.13984 -2.80156,3.72109 z"
           id="path5" /></g><path
         id="path99"
         d="m 391.846,568.849 v 0 c 0,0.777 -0.631,1.408 -1.408,1.408 -0.778,0 -1.408,-0.631 -1.408,-1.408 0,-0.778 0.63,-1.409 1.408,-1.409 0.777,0 1.408,0.631 1.408,1.409"
         style="fill:#ffffff;fill-opacity:1;fill-rule:nonzero;stroke:#000000;stroke-width:0.1;stroke-linecap:round;stroke-linejoin:round;stroke-miterlimit:10;stroke-dasharray:none;stroke-opacity:1"
         transform="matrix(2.1948007,0,0,-2.1940214,-258.16698,1623.5945)"
         clip-path="url(#clipPath100)" /><g
         id="text9"
         style="font-style:italic;font-size:17.6px;font-family:'Palatino Linotype';-inkscape-font-specification:'Palatino Linotype Italic';stroke-width:0.16;stroke-linejoin:round"
         aria-label="A1"><path
           d="m 602.02684,384.60064 -0.0602,-0.0688 0.0602,-0.37812 0.0774,-0.0602 0.49843,-0.0773 q 0.21485,-0.0344 0.29219,-0.0774 0.0774,-0.043 0.16328,-0.14609 0.0859,-0.10313 0.38672,-0.55 0.30078,-0.44688 0.79063,-1.22891 l 0.18906,-0.275 5.94687,-9.41015 h 0.80782 l 1.44375,10.38125 q 0.12031,0.86796 0.21484,1.04843 0.0945,0.18047 0.28359,0.22344 0.18907,0.043 0.97969,0.11172 l 0.0516,0.0687 -0.0687,0.36953 -0.0773,0.0688 q -1.20312,-0.0688 -2.07109,-0.0688 -0.58438,0 -2.05391,0.0688 l -0.0602,-0.0688 0.0602,-0.36953 0.0773,-0.0687 q 1.06563,-0.043 1.21172,-0.12891 0.15469,-0.0859 0.15469,-0.36953 0,-0.0688 -0.12031,-1.32344 l -0.33516,-2.54375 h -4.28828 l -1.21172,2.01094 q -0.17187,0.2836 -0.55,0.9625 -0.36953,0.67891 -0.42969,0.825 -0.0516,0.1375 -0.0516,0.22344 0,0.14609 0.16328,0.22344 0.17188,0.0688 1.26328,0.11172 l 0.0516,0.0688 -0.0602,0.37812 -0.0773,0.0688 q -0.99688,-0.0688 -1.87344,-0.0688 -0.72188,0 -1.77891,0.0688 z m 4.98438,-5.54297 h 3.78125 l -0.65313,-4.99297 z m 3.79844,-7.21875 z m -2.78438,13.62969 z"
           id="path13" /><path
           style="font-style:normal;font-size:11.44px;-inkscape-font-specification:'Palatino Linotype';baseline-shift:sub"
           d="m 615.71196,381.73978 -0.10055,-0.0335 -0.0559,-0.45805 0.0559,-0.0559 q 0.5586,-0.16199 1.41325,-0.51949 0.85464,-0.3575 1.22332,-0.54742 l 0.14523,0.0559 q -0.0894,2.44664 -0.0894,2.9382 v 2.07238 q 0,0.76527 0.0168,1.44117 0.0168,0.67032 0.0503,0.79321 0.0335,0.1173 0.11172,0.18433 0.0838,0.067 0.22902,0.0894 0.14523,0.0168 0.86582,0.0559 l 0.0391,0.0447 v 0.25137 l -0.0391,0.0447 q -1.22332,-0.0447 -1.72606,-0.0447 -0.37984,0 -1.86011,0.0447 l -0.0391,-0.0447 v -0.25137 l 0.0447,-0.0447 q 0.83789,-0.0614 0.9552,-0.0894 0.12289,-0.0279 0.18433,-0.095 0.067,-0.0726 0.10614,-0.26812 0.0391,-0.19551 0.0614,-1.15629 0.0279,-0.96078 0.0279,-0.98313 v -2.20086 q 0,-1.61992 -0.0112,-1.75957 -0.006,-0.13965 -0.095,-0.13965 -0.0223,0 -0.0614,0.0112 -0.0391,0.0112 -0.24578,0.10054 l -0.553,0.24578 q -0.34633,0.15082 -0.65356,0.3184 z"
           id="path14" /></g><g
         id="text9-6"
         style="font-style:italic;font-size:17.6px;font-family:'Palatino Linotype';-inkscape-font-specification:'Palatino Linotype Italic';stroke-width:0.16;stroke-linejoin:round"
         aria-label="B1"><path
           d="m 553.94707,363.54954 -0.0688,-0.0602 0.043,-0.36953 0.0688,-0.0687 q 0.48125,-0.0859 0.55859,-0.12891 0.0774,-0.043 0.16328,-0.16328 0.0945,-0.12031 0.20625,-0.55 0.11172,-0.42969 0.56719,-2.87891 l 0.52422,-2.93906 0.30938,-1.88203 q 0.28359,-1.91641 0.28359,-2.18281 0,-0.22344 -0.0945,-0.30078 -0.0859,-0.0859 -0.35235,-0.11172 -0.2664,-0.0344 -0.93671,-0.0602 l -0.0602,-0.0773 0.043,-0.36094 0.0859,-0.0688 q 0.78203,0.0688 2.31171,0.0688 l 2.16563,-0.0344 q 1.79609,0 2.56094,0.60156 0.77343,0.59297 0.77343,1.69297 0,0.61015 -0.24062,1.15156 -0.23203,0.54141 -0.72188,1.02266 -0.48125,0.47265 -0.97968,0.73906 -0.49844,0.2664 -1.22032,0.53281 1.16016,0.17188 1.68438,0.38672 0.53281,0.21484 0.87656,0.75625 0.34375,0.53281 0.34375,1.27187 0,0.66172 -0.28359,1.31485 -0.2836,0.65312 -0.79922,1.16015 -0.51563,0.49844 -1.28047,0.91954 -0.75625,0.4125 -1.2375,0.51562 -0.48125,0.10313 -1.35781,0.10313 -0.58438,0 -1.71016,-0.0344 -0.74765,-0.0258 -1.10859,-0.0258 -0.56719,0 -1.11719,0.0602 z m 3.28281,-6.65157 q 0.58438,0.0344 0.92813,0.0344 0.84219,0 1.39219,-0.16328 0.55859,-0.17188 1.03984,-0.56719 0.48125,-0.39531 0.76484,-0.99688 0.2836,-0.60156 0.2836,-1.28906 0,-0.97969 -0.61875,-1.44375 -0.61016,-0.46406 -1.66719,-0.46406 -0.58438,0 -1.24609,0.11172 -0.51563,2.39765 -0.87657,4.77812 z m -0.91953,5.7836 q 0.81641,0.21484 1.9336,0.21484 1.00546,0 1.65,-0.35234 0.64453,-0.36094 1.01406,-1.12578 0.36953,-0.76485 0.36953,-1.65 0,-0.71329 -0.275,-1.21172 -0.275,-0.50703 -0.86797,-0.75625 -0.59297,-0.24922 -1.85625,-0.24922 -0.58437,0 -1.16875,0.0601 l -0.24062,1.40938 -0.35235,2.14844 q -0.16328,0.98828 -0.20625,1.5125 z"
           id="path11" /><path
           style="font-style:normal;font-size:11.44px;-inkscape-font-specification:'Palatino Linotype';baseline-shift:sub"
           d="m 564.85641,360.69727 -0.10055,-0.0335 -0.0559,-0.45805 0.0559,-0.0559 q 0.55859,-0.16199 1.41324,-0.51949 0.85465,-0.3575 1.22332,-0.54743 l 0.14524,0.0559 q -0.0894,2.44664 -0.0894,2.93821 v 2.07238 q 0,0.76527 0.0168,1.44117 0.0168,0.67031 0.0503,0.7932 0.0335,0.11731 0.11172,0.18434 0.0838,0.067 0.22902,0.0894 0.14524,0.0168 0.86582,0.0559 l 0.0391,0.0447 v 0.25137 l -0.0391,0.0447 q -1.22332,-0.0447 -1.72605,-0.0447 -0.37984,0 -1.86012,0.0447 l -0.0391,-0.0447 v -0.25137 l 0.0447,-0.0447 q 0.83789,-0.0614 0.95519,-0.0894 0.12289,-0.0279 0.18434,-0.095 0.067,-0.0726 0.10613,-0.26813 0.0391,-0.1955 0.0615,-1.15628 0.0279,-0.96079 0.0279,-0.98313 v -2.20086 q 0,-1.61992 -0.0112,-1.75957 -0.006,-0.13965 -0.095,-0.13965 -0.0223,0 -0.0614,0.0112 -0.0391,0.0112 -0.24578,0.10055 l -0.55301,0.24578 q -0.34633,0.15082 -0.65355,0.3184 z"
           id="path12" /></g><g
         id="text9-7"
         style="font-style:italic;font-size:17.6px;font-family:'Palatino Linotype';-inkscape-font-specification:'Palatino Linotype Italic';stroke-width:0.16;stroke-linejoin:round"
         aria-label="B2"><path
           d="m 445.94704,353.94953 -0.0688,-0.0602 0.043,-0.36953 0.0687,-0.0687 q 0.48125,-0.0859 0.55859,-0.1289 0.0773,-0.043 0.16328,-0.16328 0.0945,-0.12032 0.20625,-0.55 0.11172,-0.42969 0.56719,-2.87891 l 0.52422,-2.93906 0.30937,-1.88204 q 0.2836,-1.9164 0.2836,-2.18281 0,-0.22344 -0.0945,-0.30078 -0.0859,-0.0859 -0.35235,-0.11172 -0.2664,-0.0344 -0.93672,-0.0601 l -0.0602,-0.0774 0.043,-0.36094 0.0859,-0.0688 q 0.78204,0.0688 2.31172,0.0688 l 2.16563,-0.0344 q 1.79609,0 2.56094,0.60156 0.77343,0.59297 0.77343,1.69297 0,0.61016 -0.24062,1.15156 -0.23203,0.54141 -0.72188,1.02266 -0.48125,0.47266 -0.97968,0.73906 -0.49844,0.26641 -1.22032,0.53281 1.16016,0.17188 1.68438,0.38672 0.53281,0.21485 0.87656,0.75625 0.34375,0.53282 0.34375,1.27188 0,0.66172 -0.28359,1.31484 -0.2836,0.65313 -0.79922,1.16016 -0.51563,0.49844 -1.28047,0.91953 -0.75625,0.4125 -1.2375,0.51563 -0.48125,0.10312 -1.35781,0.10312 -0.58438,0 -1.71016,-0.0344 -0.74766,-0.0258 -1.10859,-0.0258 -0.56719,0 -1.11719,0.0602 z m 3.28281,-6.65156 q 0.58438,0.0344 0.92813,0.0344 0.84218,0 1.39218,-0.16328 0.5586,-0.17187 1.03985,-0.56719 0.48125,-0.39531 0.76484,-0.99687 0.2836,-0.60156 0.2836,-1.28906 0,-0.97969 -0.61875,-1.44375 -0.61016,-0.46407 -1.66719,-0.46407 -0.58438,0 -1.2461,0.11172 -0.51562,2.39766 -0.87656,4.77813 z m -0.91953,5.78359 q 0.81641,0.21485 1.93359,0.21485 1.00547,0 1.65,-0.35235 0.64454,-0.36094 1.01407,-1.12578 0.36953,-0.76484 0.36953,-1.65 0,-0.71328 -0.275,-1.21172 -0.275,-0.50703 -0.86797,-0.75625 -0.59297,-0.24922 -1.85625,-0.24922 -0.58438,0 -1.16875,0.0602 l -0.24063,1.40937 -0.35234,2.14844 q -0.16328,0.98828 -0.20625,1.5125 z"
           id="path8" /><path
           style="font-style:normal;font-size:11.44px;-inkscape-font-specification:'Palatino Linotype';baseline-shift:sub"
           d="m 456.25868,357.46523 -0.067,-0.0559 v -0.25695 l 1.87129,-1.98301 q 1.15629,-1.22332 1.49703,-1.89363 0.34074,-0.67031 0.34074,-1.25125 0,-0.68148 -0.41336,-1.13395 -0.41336,-0.45246 -1.11719,-0.45246 -0.45246,0 -0.78761,0.13965 -0.33516,0.13965 -0.45246,0.31281 -0.11172,0.17317 -0.32957,0.97196 l -0.0503,0.0447 h -0.22902 l -0.0559,-0.0503 q 0.12848,-0.7541 0.17875,-1.49144 0.52508,-0.51391 0.97754,-0.65356 0.45805,-0.14523 0.95519,-0.14523 0.59211,0 1.13395,0.22344 0.54184,0.22343 0.87141,0.72617 0.32957,0.49715 0.32957,1.15629 0,0.49156 -0.19551,0.98871 -0.18992,0.49156 -0.56418,0.95519 -0.36867,0.45805 -1.01106,1.10043 l -1.74281,1.77633 h 2.20645 q 1.01664,0 1.69254,-0.0726 l 0.0391,0.0447 q -0.0335,0.18992 -0.0335,0.49715 0,0.2793 0.0335,0.44129 l -0.0391,0.0614 q -0.40219,-0.0223 -1.2345,-0.0391 -0.8323,-0.0168 -1.10043,-0.0168 -0.54183,0 -1.45793,0.0112 -0.91609,0.0168 -1.24566,0.0447 z"
           id="path9" /></g><path
         d="m 502.68219,458.43157 q 0,-1.22031 0.34375,-2.55234 0.35234,-1.33203 1.27187,-2.55234 0.91954,-1.22891 2.30313,-1.91641 1.38359,-0.69609 3.18828,-0.69609 1.52969,0 2.63828,0.51562 1.1086,0.50703 1.74453,1.58125 0.64454,1.07422 0.64454,2.73281 0,2.23438 -1.06563,4.17657 -1.06562,1.94218 -2.70703,2.83593 -1.64141,0.88516 -3.50625,0.88516 -1.00547,0 -1.91641,-0.30078 -0.91093,-0.29219 -1.59844,-0.9625 -0.6875,-0.67891 -1.01406,-1.65 -0.32656,-0.9711 -0.32656,-2.09688 z m 1.53828,-0.0945 q 0,1.36641 0.39531,2.3375 0.40391,0.9625 1.30625,1.48672 0.91094,0.52422 2.2,0.52422 1.61563,0 2.73282,-0.81641 1.11718,-0.825 1.76172,-2.62109 0.65312,-1.79609 0.65312,-3.575 0,-0.98828 -0.22344,-1.73594 -0.22343,-0.75625 -0.74765,-1.34922 -0.52422,-0.60156 -1.29766,-0.89375 -0.76484,-0.29218 -1.68437,-0.29218 -1.5125,0 -2.62969,0.75625 -1.11719,0.74765 -1.7961,2.475 -0.67031,1.72734 -0.67031,3.7039 z m 5.31094,-7.94062 z m -2.01953,13.62968 z"
         id="text9-65"
         style="font-style:italic;font-size:17.6px;font-family:'Palatino Linotype';-inkscape-font-specification:'Palatino Linotype Italic';stroke-width:0.16;stroke-linejoin:round"
         aria-label="O" /><g
         id="text3-1"
         style="font-size:17.6px;font-family:'Palatino Linotype';-inkscape-font-specification:'Palatino Linotype';stroke-width:0.96;stroke-linejoin:round"
         aria-label="u1"><path
           style="font-style:italic;-inkscape-font-specification:'Palatino Linotype Italic'"
           d="m 503.34697,421.68232 -0.0859,-0.19765 0.0258,-0.12031 q 0.25781,-0.19766 1.11718,-0.72188 0.85938,-0.53281 1.19454,-0.67891 0.33515,-0.14609 0.51562,-0.14609 0.18047,0 0.28359,0.1375 0.10313,0.1375 0.10313,0.31797 0,0.19766 -0.24922,1.20312 -1.1,4.51172 -1.1,5.31954 0,0.37812 0.25781,0.37812 0.32657,0 1.03985,-0.56719 0.72187,-0.56718 1.54687,-1.62422 0.8336,-1.05703 1.21172,-2.12265 0.37813,-1.06563 0.67031,-2.72422 0.10313,-0.0172 1.17735,-0.275 l 0.1289,0.12891 q -0.009,0.0516 -0.20625,0.71328 -0.34375,1.10859 -0.6875,2.55234 -0.34375,1.44375 -0.49843,2.31172 -0.15469,0.85937 -0.15469,1.22031 0,0.40391 0.275,0.40391 0.14609,0 0.36094,-0.12891 0.21484,-0.1375 0.97109,-0.70469 l 0.0945,0.0344 0.0945,0.19766 -0.0172,0.11171 q -1.5125,1.19454 -1.98515,1.45235 -0.46406,0.2664 -0.71328,0.2664 -0.20625,0 -0.32657,-0.18906 -0.11171,-0.18047 -0.11171,-0.42109 0,-0.53281 0.72187,-3.53203 l -0.0516,-0.0258 -0.63594,0.91093 q -0.32656,0.46407 -0.76484,0.9711 -0.43828,0.49843 -1.03125,1.02265 -0.58438,0.52422 -1.06563,0.825 -0.48125,0.30078 -0.69609,0.36953 -0.21485,0.0774 -0.33516,0.0774 -0.24922,0 -0.43828,-0.24922 -0.18047,-0.24063 -0.18047,-0.72188 0,-0.66171 0.33516,-2.01953 0.85078,-3.41172 0.85078,-4.14218 0,-0.275 -0.22344,-0.275 -0.25781,0 -1.31484,0.6875 z m 4.52032,-2.38906 z m -1.58985,9.77969 z"
           id="path17" /><path
           style="font-size:11.44px;baseline-shift:sub"
           d="m 513.20787,425.34412 -0.10055,-0.0335 -0.0558,-0.45805 0.0558,-0.0559 q 0.5586,-0.16199 1.41325,-0.51949 0.85464,-0.3575 1.22332,-0.54742 l 0.14523,0.0559 q -0.0894,2.44665 -0.0894,2.93821 v 2.07238 q 0,0.76527 0.0168,1.44117 0.0168,0.67031 0.0503,0.79321 0.0335,0.1173 0.11172,0.18433 0.0838,0.067 0.22902,0.0894 0.14523,0.0168 0.86582,0.0559 l 0.0391,0.0447 v 0.25137 l -0.0391,0.0447 q -1.22332,-0.0447 -1.72605,-0.0447 -0.37985,0 -1.86012,0.0447 l -0.0391,-0.0447 v -0.25137 l 0.0447,-0.0447 q 0.83789,-0.0615 0.9552,-0.0894 0.12289,-0.0279 0.18434,-0.095 0.067,-0.0726 0.10613,-0.26813 0.0391,-0.1955 0.0614,-1.15628 0.0279,-0.96079 0.0279,-0.98313 v -2.20086 q 0,-1.61992 -0.0112,-1.75957 -0.006,-0.13965 -0.095,-0.13965 -0.0223,0 -0.0615,0.0112 -0.0391,0.0112 -0.24578,0.10055 l -0.553,0.24578 q -0.34633,0.15082 -0.65356,0.3184 z"
           id="path18" /></g><g
         id="text3-1-6"
         style="font-size:17.6px;font-family:'Palatino Linotype';-inkscape-font-specification:'Palatino Linotype';stroke-width:0.96;stroke-linejoin:round"
         aria-label="u2"><path
           style="font-style:italic;-inkscape-font-specification:'Palatino Linotype Italic'"
           d="m 478.19658,374.75108 -0.0859,-0.19766 0.0258,-0.12031 q 0.25781,-0.19765 1.11718,-0.72187 0.85938,-0.53282 1.19453,-0.67891 0.33516,-0.14609 0.51563,-0.14609 0.18047,0 0.28359,0.1375 0.10313,0.1375 0.10313,0.31797 0,0.19765 -0.24922,1.20312 -1.1,4.51172 -1.1,5.31953 0,0.37813 0.25781,0.37813 0.32656,0 1.03985,-0.56719 0.72187,-0.56719 1.54687,-1.62422 0.83359,-1.05703 1.21172,-2.12266 0.37812,-1.06562 0.67031,-2.72421 0.10313,-0.0172 1.17735,-0.275 l 0.1289,0.1289 q -0.009,0.0516 -0.20625,0.71328 -0.34375,1.1086 -0.6875,2.55235 -0.34375,1.44375 -0.49844,2.31172 -0.15468,0.85937 -0.15468,1.22031 0,0.4039 0.275,0.4039 0.14609,0 0.36093,-0.1289 0.21485,-0.1375 0.9711,-0.70469 l 0.0945,0.0344 0.0945,0.19765 -0.0172,0.11172 q -1.5125,1.19453 -1.98515,1.45234 -0.46407,0.26641 -0.71328,0.26641 -0.20625,0 -0.32657,-0.18906 -0.11172,-0.18047 -0.11172,-0.4211 0,-0.53281 0.72188,-3.53203 l -0.0516,-0.0258 -0.63594,0.91094 q -0.32656,0.46406 -0.76484,0.97109 -0.43829,0.49844 -1.03125,1.02266 -0.58438,0.52422 -1.06563,0.825 -0.48125,0.30078 -0.69609,0.36953 -0.21485,0.0773 -0.33516,0.0773 -0.24922,0 -0.43828,-0.24921 -0.18047,-0.24063 -0.18047,-0.72188 0,-0.66172 0.33516,-2.01953 0.85078,-3.41172 0.85078,-4.14219 0,-0.275 -0.22344,-0.275 -0.25781,0 -1.31484,0.6875 z m 4.52031,-2.38906 z m -1.58984,9.77969 z"
           id="path15" /><path
           style="font-size:11.44px;baseline-shift:sub"
           d="m 487.45979,384.78085 -0.067,-0.0559 v -0.25696 l 1.87129,-1.983 q 1.15629,-1.22332 1.49703,-1.89364 0.34075,-0.67031 0.34075,-1.25125 0,-0.68148 -0.41336,-1.13394 -0.41336,-0.45246 -1.11719,-0.45246 -0.45246,0 -0.78762,0.13965 -0.33515,0.13964 -0.45246,0.31281 -0.11172,0.17316 -0.32957,0.97195 l -0.0503,0.0447 h -0.22903 l -0.0559,-0.0503 q 0.12847,-0.7541 0.17875,-1.49144 0.52507,-0.51391 0.97753,-0.65356 0.45805,-0.14523 0.9552,-0.14523 0.59211,0 1.13394,0.22344 0.54184,0.22344 0.87141,0.72617 0.32957,0.49715 0.32957,1.15629 0,0.49156 -0.19551,0.98871 -0.18992,0.49156 -0.56418,0.9552 -0.36867,0.45804 -1.01105,1.10042 l -1.74281,1.77633 h 2.20644 q 1.01664,0 1.69254,-0.0726 l 0.0391,0.0447 q -0.0335,0.18993 -0.0335,0.49715 0,0.2793 0.0335,0.44129 l -0.0391,0.0614 q -0.40219,-0.0223 -1.23449,-0.0391 -0.83231,-0.0168 -1.10043,-0.0168 -0.54184,0 -1.45793,0.0112 -0.91609,0.0168 -1.24566,0.0447 z"
           id="path16" /></g><path
         d="m 447.64552,453.89249 -0.1125,-0.0375 -0.0625,-0.5125 0.0625,-0.0625 q 0.625,-0.18125 1.58125,-0.58125 0.95625,-0.4 1.36875,-0.6125 l 0.1625,0.0625 q -0.1,2.7375 -0.1,3.2875 v 2.31875 q 0,0.85625 0.0188,1.6125 0.0187,0.75 0.0562,0.8875 0.0375,0.13125 0.125,0.20625 0.0937,0.075 0.25625,0.1 0.1625,0.0188 0.96875,0.0625 l 0.0437,0.05 v 0.28125 l -0.0437,0.05 q -1.36875,-0.05 -1.93125,-0.05 -0.425,0 -2.08125,0.05 l -0.0437,-0.05 v -0.28125 l 0.05,-0.05 q 0.9375,-0.0688 1.06875,-0.1 0.1375,-0.0312 0.20625,-0.10625 0.075,-0.0813 0.11875,-0.3 0.0437,-0.21875 0.0687,-1.29375 0.0312,-1.075 0.0312,-1.1 v -2.4625 q 0,-1.8125 -0.0125,-1.96875 -0.006,-0.15625 -0.10625,-0.15625 -0.025,0 -0.0688,0.0125 -0.0437,0.0125 -0.275,0.1125 l -0.61875,0.275 q -0.3875,0.16875 -0.73125,0.35625 z"
         id="text2-12-9"
         style="font-size:12.8px;font-family:'Palatino Linotype';-inkscape-font-specification:'Palatino Linotype';stroke-width:0.96;stroke-linejoin:round"
         aria-label="1" /></g></g></svg>
