<?xml version="1.0" encoding="UTF-8" standalone="no"?>
<!-- Created with Inkscape (http://www.inkscape.org/) -->

<svg
   width="68.134621mm"
   height="66.378555mm"
   viewBox="0 0 68.134621 66.378555"
   version="1.1"
   id="svg1"
   inkscape:version="1.4 (86a8ad7, 2024-10-11)"
   sodipodi:docname="figura1.svg"
   xmlns:inkscape="http://www.inkscape.org/namespaces/inkscape"
   xmlns:sodipodi="http://sodipodi.sourceforge.net/DTD/sodipodi-0.dtd"
   xmlns="http://www.w3.org/2000/svg"
   xmlns:svg="http://www.w3.org/2000/svg">
  <sodipodi:namedview
     id="namedview1"
     pagecolor="#ffffff"
     bordercolor="#000000"
     borderopacity="0.25"
     inkscape:showpageshadow="2"
     inkscape:pageopacity="0.0"
     inkscape:pagecheckerboard="0"
     inkscape:deskcolor="#d1d1d1"
     inkscape:document-units="mm"
     inkscape:zoom="0.49264169"
     inkscape:cx="116.71769"
     inkscape:cy="386.69078"
     inkscape:window-width="1366"
     inkscape:window-height="705"
     inkscape:window-x="-8"
     inkscape:window-y="-8"
     inkscape:window-maximized="1"
     inkscape:current-layer="layer1" />
  <defs
     id="defs1">
    <clipPath
       clipPathUnits="userSpaceOnUse"
       id="clipPath7">
      <path
         d="m 915.602,3931.2 h 1955.91 V 5887.1 H 915.602 Z"
         id="path7" />
    </clipPath>
    <clipPath
       clipPathUnits="userSpaceOnUse"
       id="clipPath9">
      <path
         d="m 915.602,3931.2 h 1955.91 V 5887.1 H 915.602 Z"
         id="path9" />
    </clipPath>
    <clipPath
       clipPathUnits="userSpaceOnUse"
       id="clipPath11">
      <path
         d="m 915.602,3931.2 h 1955.91 V 5887.1 H 915.602 Z"
         id="path11" />
    </clipPath>
    <clipPath
       clipPathUnits="userSpaceOnUse"
       id="clipPath13">
      <path
         d="m 915.602,3931.2 h 1955.91 V 5887.1 H 915.602 Z"
         id="path13" />
    </clipPath>
    <clipPath
       clipPathUnits="userSpaceOnUse"
       id="clipPath15">
      <path
         d="m 915.602,3931.2 h 1955.91 V 5887.1 H 915.602 Z"
         id="path15" />
    </clipPath>
    <clipPath
       clipPathUnits="userSpaceOnUse"
       id="clipPath17">
      <path
         d="m 915.602,3931.2 h 1955.91 V 5887.1 H 915.602 Z"
         id="path17" />
    </clipPath>
    <clipPath
       clipPathUnits="userSpaceOnUse"
       id="clipPath19">
      <path
         d="m 915.602,3931.2 h 1955.91 V 5887.1 H 915.602 Z"
         id="path19" />
    </clipPath>
    <clipPath
       clipPathUnits="userSpaceOnUse"
       id="clipPath21">
      <path
         d="m 915.602,3931.2 h 1955.91 V 5887.1 H 915.602 Z"
         id="path21" />
    </clipPath>
    <clipPath
       clipPathUnits="userSpaceOnUse"
       id="clipPath23">
      <path
         d="m 915.602,3931.2 h 1955.91 V 5887.1 H 915.602 Z"
         id="path23" />
    </clipPath>
    <clipPath
       clipPathUnits="userSpaceOnUse"
       id="clipPath25">
      <path
         d="m 915.602,3931.2 h 1955.91 V 5887.1 H 915.602 Z"
         id="path25" />
    </clipPath>
    <clipPath
       clipPathUnits="userSpaceOnUse"
       id="clipPath27">
      <path
         d="m 915.602,3931.2 h 1955.91 V 5887.1 H 915.602 Z"
         id="path27" />
    </clipPath>
    <clipPath
       clipPathUnits="userSpaceOnUse"
       id="clipPath29">
      <path
         d="m 915.602,3931.2 h 1955.91 V 5887.1 H 915.602 Z"
         id="path29" />
    </clipPath>
    <clipPath
       clipPathUnits="userSpaceOnUse"
       id="clipPath31">
      <path
         d="m 915.602,3931.2 h 1955.91 V 5887.1 H 915.602 Z"
         id="path31" />
    </clipPath>
    <clipPath
       clipPathUnits="userSpaceOnUse"
       id="clipPath33">
      <path
         d="m 915.602,3931.2 h 1955.91 V 5887.1 H 915.602 Z"
         id="path33" />
    </clipPath>
    <clipPath
       clipPathUnits="userSpaceOnUse"
       id="clipPath35">
      <path
         d="m 915.602,3931.2 h 1955.91 V 5887.1 H 915.602 Z"
         id="path35" />
    </clipPath>
    <clipPath
       clipPathUnits="userSpaceOnUse"
       id="clipPath37">
      <path
         d="m 915.602,3931.2 h 1955.91 V 5887.1 H 915.602 Z"
         id="path37" />
    </clipPath>
    <clipPath
       clipPathUnits="userSpaceOnUse"
       id="clipPath39">
      <path
         d="m 915.602,3931.2 h 1955.91 V 5887.1 H 915.602 Z"
         id="path39" />
    </clipPath>
    <clipPath
       clipPathUnits="userSpaceOnUse"
       id="clipPath41">
      <path
         d="m 915.602,3931.2 h 1955.91 V 5887.1 H 915.602 Z"
         id="path41" />
    </clipPath>
    <clipPath
       clipPathUnits="userSpaceOnUse"
       id="clipPath43">
      <path
         d="m 915.602,3931.2 h 1955.91 V 5887.1 H 915.602 Z"
         id="path43" />
    </clipPath>
    <clipPath
       clipPathUnits="userSpaceOnUse"
       id="clipPath45">
      <path
         d="m 915.602,3931.2 h 1955.91 V 5887.1 H 915.602 Z"
         transform="matrix(0.1,0,0,-0.1,-145.42401,492.29301)"
         id="path45" />
    </clipPath>
    <clipPath
       clipPathUnits="userSpaceOnUse"
       id="clipPath48">
      <path
         d="m 915.602,3931.2 h 1955.91 V 5887.1 H 915.602 Z"
         transform="matrix(0.1,0,0,-0.1,-145.42401,492.29301)"
         id="path48" />
    </clipPath>
    <clipPath
       clipPathUnits="userSpaceOnUse"
       id="clipPath50">
      <path
         d="m 915.602,3931.2 h 1955.91 V 5887.1 H 915.602 Z"
         transform="matrix(0.1,0,0,-0.1,-165.26601,444.10401)"
         id="path50" />
    </clipPath>
    <clipPath
       clipPathUnits="userSpaceOnUse"
       id="clipPath53">
      <path
         d="m 915.602,3931.2 h 1955.91 V 5887.1 H 915.602 Z"
         transform="matrix(0.1,0,0,-0.1,-165.26601,444.10401)"
         id="path53" />
    </clipPath>
    <clipPath
       clipPathUnits="userSpaceOnUse"
       id="clipPath55">
      <path
         d="m 915.602,3931.2 h 1955.91 V 5887.1 H 915.602 Z"
         transform="matrix(0.1,0,0,-0.1,-236.13201,478.12001)"
         id="path55" />
    </clipPath>
    <clipPath
       clipPathUnits="userSpaceOnUse"
       id="clipPath58">
      <path
         d="m 915.602,3931.2 h 1955.91 V 5887.1 H 915.602 Z"
         transform="matrix(0.1,0,0,-0.1,-236.13201,478.12001)"
         id="path58" />
    </clipPath>
    <clipPath
       clipPathUnits="userSpaceOnUse"
       id="clipPath60">
      <path
         d="m 915.602,3931.2 h 1955.91 V 5887.1 H 915.602 Z"
         transform="matrix(0.1,0,0,-0.1,-164.88,572.33101)"
         id="path60" />
    </clipPath>
    <clipPath
       clipPathUnits="userSpaceOnUse"
       id="clipPath63">
      <path
         d="m 915.602,3931.2 h 1955.91 V 5887.1 H 915.602 Z"
         transform="matrix(0.1,0,0,-0.1,-164.88,572.33101)"
         id="path63" />
    </clipPath>
    <clipPath
       clipPathUnits="userSpaceOnUse"
       id="clipPath65">
      <path
         d="m 915.602,3931.2 h 1955.91 V 5887.1 H 915.602 Z"
         transform="matrix(0.1,0,0,-0.1,-108.966,484.13601)"
         id="path65" />
    </clipPath>
    <clipPath
       clipPathUnits="userSpaceOnUse"
       id="clipPath69">
      <path
         d="m 915.602,3931.2 h 1955.91 V 5887.1 H 915.602 Z"
         transform="matrix(0.1,0,0,-0.1,-108.966,484.13601)"
         id="path69" />
    </clipPath>
    <clipPath
       clipPathUnits="userSpaceOnUse"
       id="clipPath71">
      <path
         d="m 915.602,3931.2 h 1955.91 V 5887.1 H 915.602 Z"
         transform="matrix(0.1,0,0,-0.1,-147.756,563.90902)"
         id="path71" />
    </clipPath>
    <clipPath
       clipPathUnits="userSpaceOnUse"
       id="clipPath74">
      <path
         d="m 915.602,3931.2 h 1955.91 V 5887.1 H 915.602 Z"
         transform="matrix(0.1,0,0,-0.1,-147.756,563.90902)"
         id="path74" />
    </clipPath>
    <clipPath
       clipPathUnits="userSpaceOnUse"
       id="clipPath76">
      <path
         d="m 915.602,3931.2 h 1955.91 V 5887.1 H 915.602 Z"
         transform="matrix(0.1,0,0,-0.1,-200.083,407.50001)"
         id="path76" />
    </clipPath>
    <clipPath
       clipPathUnits="userSpaceOnUse"
       id="clipPath80">
      <path
         d="m 915.602,3931.2 h 1955.91 V 5887.1 H 915.602 Z"
         transform="matrix(0.1,0,0,-0.1,-200.083,407.50001)"
         id="path80" />
    </clipPath>
    <clipPath
       clipPathUnits="userSpaceOnUse"
       id="clipPath82">
      <path
         d="m 915.602,3931.2 h 1955.91 V 5887.1 H 915.602 Z"
         transform="matrix(0.1,0,0,-0.1,-121.482,537.33502)"
         id="path82" />
    </clipPath>
    <clipPath
       clipPathUnits="userSpaceOnUse"
       id="clipPath85">
      <path
         d="m 915.602,3931.2 h 1955.91 V 5887.1 H 915.602 Z"
         transform="matrix(0.1,0,0,-0.1,-121.482,537.33502)"
         id="path85" />
    </clipPath>
    <clipPath
       clipPathUnits="userSpaceOnUse"
       id="clipPath87">
      <path
         d="m 915.602,3931.2 h 1955.91 V 5887.1 H 915.602 Z"
         transform="matrix(0.1,0,0,-0.1,-274.22301,465.20701)"
         id="path87" />
    </clipPath>
    <clipPath
       clipPathUnits="userSpaceOnUse"
       id="clipPath91">
      <path
         d="m 915.602,3931.2 h 1955.91 V 5887.1 H 915.602 Z"
         transform="matrix(0.1,0,0,-0.1,-274.22301,465.20701)"
         id="path91" />
    </clipPath>
  </defs>
  <g
     inkscape:label="Capa 1"
     inkscape:groupmode="layer"
     id="layer1"
     transform="translate(-74.347917,-46.302083)">
    <path
       id="path6"
       d="m 2786.52,4922.93 v 0 c 0,469.66 -380.73,850.39 -850.39,850.39 -469.66,0 -850.4,-380.73 -850.4,-850.39 0,-469.66 380.74,-850.39 850.4,-850.39 469.66,0 850.39,380.73 850.39,850.39 z"
       style="fill:none;stroke:#000000;stroke-width:5.97758;stroke-linecap:butt;stroke-linejoin:miter;stroke-miterlimit:10;stroke-dasharray:none;stroke-opacity:1"
       transform="matrix(0.03527778,0,0,-0.03527778,41.181981,252.16049)"
       clip-path="url(#clipPath7)" />
    <path
       id="path8"
       d="M 1648.8,5723.31 1313.45,4343.75"
       style="fill:none;stroke:#bfbfbf;stroke-width:5.97758;stroke-linecap:butt;stroke-linejoin:miter;stroke-miterlimit:10;stroke-dasharray:none;stroke-opacity:1"
       transform="matrix(0.03527778,0,0,-0.03527778,41.181981,252.16049)"
       clip-path="url(#clipPath9)" />
    <path
       id="path10"
       d="m 1449.38,5052.95 26.06,-42.8 42.8,26.06"
       style="fill:none;stroke:#bfbfbf;stroke-width:5.97758;stroke-linecap:butt;stroke-linejoin:miter;stroke-miterlimit:10;stroke-dasharray:none;stroke-opacity:1"
       transform="matrix(0.03527778,0,0,-0.03527778,41.181981,252.16049)"
       clip-path="url(#clipPath11)" />
    <path
       id="path12"
       d="m 1313.45,4343.75 1457.67,418.06"
       style="fill:none;stroke:#bfbfbf;stroke-width:5.97758;stroke-linecap:butt;stroke-linejoin:miter;stroke-miterlimit:10;stroke-dasharray:none;stroke-opacity:1"
       transform="matrix(0.03527778,0,0,-0.03527778,41.181981,252.16049)"
       clip-path="url(#clipPath13)" />
    <path
       id="path14"
       d="m 2041.12,4515.59 24.29,43.83 -43.82,24.29"
       style="fill:none;stroke:#bfbfbf;stroke-width:5.97758;stroke-linecap:butt;stroke-linejoin:miter;stroke-miterlimit:10;stroke-dasharray:none;stroke-opacity:1"
       transform="matrix(0.03527778,0,0,-0.03527778,41.181981,252.16049)"
       clip-path="url(#clipPath15)" />
    <path
       id="path16"
       d="m 2771.12,4761.81 -1681.46,79.54"
       style="fill:none;stroke:#bfbfbf;stroke-width:5.97758;stroke-linecap:butt;stroke-linejoin:miter;stroke-miterlimit:10;stroke-dasharray:none;stroke-opacity:1"
       transform="matrix(0.03527778,0,0,-0.03527778,41.181981,252.16049)"
       clip-path="url(#clipPath17)" />
    <path
       id="path18"
       d="m 1943.42,4836.44 -37.06,-33.72 33.71,-37.07"
       style="fill:none;stroke:#bfbfbf;stroke-width:5.97758;stroke-linecap:butt;stroke-linejoin:miter;stroke-miterlimit:10;stroke-dasharray:none;stroke-opacity:1"
       transform="matrix(0.03527778,0,0,-0.03527778,41.181981,252.16049)"
       clip-path="url(#clipPath19)" />
    <path
       id="path20"
       d="M 1477.56,5639.09 1431.94,4238.12"
       style="fill:none;stroke:#ffb2b2;stroke-width:5.97758;stroke-linecap:butt;stroke-linejoin:miter;stroke-miterlimit:10;stroke-dasharray:none;stroke-opacity:1"
       transform="matrix(0.03527778,0,0,-0.03527778,41.181981,252.16049)"
       clip-path="url(#clipPath21)" />
    <path
       id="path22"
       d="m 1428.83,5231.32 34.26,-36.57 36.57,34.26"
       style="fill:none;stroke:#ffb2b2;stroke-width:5.97758;stroke-linecap:butt;stroke-linejoin:miter;stroke-miterlimit:10;stroke-dasharray:none;stroke-opacity:1"
       transform="matrix(0.03527778,0,0,-0.03527778,41.181981,252.16049)"
       clip-path="url(#clipPath23)" />
    <path
       id="path24"
       d="M 1431.94,4238.12 2660.82,5367.89"
       style="fill:none;stroke:#ffb2b2;stroke-width:5.97758;stroke-linecap:butt;stroke-linejoin:miter;stroke-miterlimit:10;stroke-dasharray:none;stroke-opacity:1"
       transform="matrix(0.03527778,0,0,-0.03527778,41.181981,252.16049)"
       clip-path="url(#clipPath25)" />
    <path
       id="path26"
       d="m 2061.99,4769.22 2.1,50.07 -50.06,2.1"
       style="fill:none;stroke:#ffb2b2;stroke-width:5.97758;stroke-linecap:butt;stroke-linejoin:miter;stroke-miterlimit:10;stroke-dasharray:none;stroke-opacity:1"
       transform="matrix(0.03527778,0,0,-0.03527778,41.181981,252.16049)"
       clip-path="url(#clipPath27)" />
    <path
       id="path28"
       d="M 2660.82,5367.89 2000.83,4075"
       style="fill:none;stroke:#ffb2b2;stroke-width:5.97758;stroke-linecap:butt;stroke-linejoin:miter;stroke-miterlimit:10;stroke-dasharray:none;stroke-opacity:1"
       transform="matrix(0.03527778,0,0,-0.03527778,41.181981,252.16049)"
       clip-path="url(#clipPath29)" />
    <path
       id="path30"
       d="m 2304.44,4747.69 15.45,-47.67 47.66,15.44"
       style="fill:none;stroke:#ffb2b2;stroke-width:5.97758;stroke-linecap:butt;stroke-linejoin:miter;stroke-miterlimit:10;stroke-dasharray:none;stroke-opacity:1"
       transform="matrix(0.03527778,0,0,-0.03527778,41.181981,252.16049)"
       clip-path="url(#clipPath31)" />
    <path
       id="path32"
       d="M 1214.82,5373.35 1905.98,4073.07"
       style="fill:none;stroke:#b2b2ff;stroke-width:5.97758;stroke-linecap:butt;stroke-linejoin:miter;stroke-miterlimit:10;stroke-dasharray:none;stroke-opacity:1"
       transform="matrix(0.03527778,0,0,-0.03527778,41.181981,252.16049)"
       clip-path="url(#clipPath33)" />
    <path
       id="path34"
       d="m 1523.78,4716.62 47.92,-14.66 14.65,47.93"
       style="fill:none;stroke:#b2b2ff;stroke-width:5.97758;stroke-linecap:butt;stroke-linejoin:miter;stroke-miterlimit:10;stroke-dasharray:none;stroke-opacity:1"
       transform="matrix(0.03527778,0,0,-0.03527778,41.181981,252.16049)"
       clip-path="url(#clipPath35)" />
    <path
       id="path36"
       d="M 1905.98,4073.07 1131.48,5198.1"
       style="fill:none;stroke:#b2b2ff;stroke-width:5.97758;stroke-linecap:butt;stroke-linejoin:miter;stroke-miterlimit:10;stroke-dasharray:none;stroke-opacity:1"
       transform="matrix(0.03527778,0,0,-0.03527778,41.181981,252.16049)"
       clip-path="url(#clipPath37)" />
    <path
       id="path38"
       d="m 1554.37,4646.31 -49.28,9.09 -9.09,-49.27"
       style="fill:none;stroke:#b2b2ff;stroke-width:5.97758;stroke-linecap:butt;stroke-linejoin:miter;stroke-miterlimit:10;stroke-dasharray:none;stroke-opacity:1"
       transform="matrix(0.03527778,0,0,-0.03527778,41.181981,252.16049)"
       clip-path="url(#clipPath39)" />
    <path
       id="path40"
       d="M 1131.48,5198.1 2742.23,4652.07"
       style="fill:none;stroke:#b2b2ff;stroke-width:5.97758;stroke-linecap:butt;stroke-linejoin:miter;stroke-miterlimit:10;stroke-dasharray:none;stroke-opacity:1"
       transform="matrix(0.03527778,0,0,-0.03527778,41.181981,252.16049)"
       clip-path="url(#clipPath41)" />
    <path
       id="path42"
       d="m 1914.71,4895.18 44.93,22.18 -22.18,44.93"
       style="fill:none;stroke:#b2b2ff;stroke-width:5.97758;stroke-linecap:butt;stroke-linejoin:miter;stroke-miterlimit:10;stroke-dasharray:none;stroke-opacity:1"
       transform="matrix(0.03527778,0,0,-0.03527778,41.181981,252.16049)"
       clip-path="url(#clipPath43)" />
    <path
       id="path44"
       d="m -1.9923594,3.125e-5 c 0,1.10156245 0.890625,1.99218745 1.992187525,1.99218745 1.101562475,0 1.992187475,-0.890625 1.992187475,-1.99218745 0,-1.10156255 -0.890625,-1.99218755 -1.992187475,-1.99218755 -1.101562525,0 -1.992187525,0.890625 -1.992187525,1.99218755 z m 0,0"
       style="fill:#ffffff;fill-opacity:1;fill-rule:nonzero;stroke:none"
       aria-label="b"
       transform="matrix(0.35277776,0,0,0.35277776,92.484337,78.490459)"
       clip-path="url(#clipPath45)" />
    <g
       id="g45"
       aria-label="c&#10;A"
       transform="matrix(0.35277776,0,0,0.35277776,92.484337,78.490459)"
       clip-path="url(#clipPath48)">
      <path
         id="path46"
         d="m -1.7931406,3.125e-5 c 0,-0.984375 0.80859373,-1.79296875 1.792968725,-1.79296875 0.984375005,0 1.792968775,0.80859375 1.792968775,1.79296875 C 1.7927969,0.98440625 0.98420313,1.793 -1.71875e-4,1.793 -0.98454687,1.793 -1.7931406,0.98440625 -1.7931406,3.125e-5 Z m -0.1992188,0 c 0,1.10156245 0.890625,1.99218745 1.992187525,1.99218745 1.101562475,0 1.992187475,-0.890625 1.992187475,-1.99218745 0,-1.10156255 -0.890625,-1.99218755 -1.992187475,-1.99218755 -1.101562525,0 -1.992187525,0.890625 -1.992187525,1.99218755 z m 0,0"
         style="fill:#000000;fill-opacity:1;fill-rule:nonzero;stroke:none" />
      <path
         id="path47"
         d="m -5.4406016,-10.248016 -4.0664062,6.4687504 c -0.3984375,0.609375 -0.5859372,0.7851562 -0.9609372,0.8671875 l -0.222657,0.058594 v 0.328125 c 1.0078129,-0.035156 1.0078129,-0.035156 1.2304692,-0.035156 0.1992187,0 0.2226562,0 1.1601562,0.035156 v -0.3046875 l -0.5625,-0.035156 c -0.1757812,-0.011719 -0.3398437,-0.1054688 -0.3398437,-0.2109375 0,-0.082031 0.070312,-0.234375 0.28125,-0.5976563 l 1.1132812,-1.9101562 h 2.6835938 l 0.2695312,2.0507812 v 0.035156 c 0,0.011719 0.011719,0.046875 0.023437,0.09375 0.011719,0.09375 0.023437,0.1992187 0.023437,0.2460937 0,0.1757813 -0.1640625,0.2695313 -0.46875,0.2929688 l -0.4804687,0.035156 v 0.3046875 c 1.1132812,-0.035156 1.1132812,-0.035156 1.3359375,-0.035156 0.2109375,0 0.2109375,0 1.3242187,0.035156 v -0.3046875 l -0.28125,-0.035156 c -0.515625,-0.082031 -0.5273437,-0.082031 -0.609375,-0.5625 l -0.9492187,-6.8203131 z m -0.140625,1.1250004 0.3984375,3.1523437 h -2.3554687 z m 0,0"
         style="fill:#000000;fill-opacity:1;fill-rule:nonzero;stroke:none" />
    </g>
    <path
       id="path49"
       d="m -1.9915859,0.00146094 c 0,1.10156246 0.890625,1.99218746 1.9921874625,1.99218746 1.1015625375,0 1.9921875375,-0.890625 1.9921875375,-1.99218746 0,-1.10156254 -0.890625,-1.99218754 -1.9921875375,-1.99218754 -1.1015624625,0 -1.9921874625,0.890625 -1.9921874625,1.99218754 z m 0,0"
       style="fill:#ffffff;fill-opacity:1;fill-rule:nonzero;stroke:none"
       aria-label="b"
       transform="matrix(0.35277776,0,0,0.35277776,99.484153,95.490467)"
       clip-path="url(#clipPath50)" />
    <g
       id="g50"
       aria-label="c&#10;B"
       transform="matrix(0.35277776,0,0,0.35277776,99.484153,95.490467)"
       clip-path="url(#clipPath53)">
      <path
         id="path51"
         d="m -1.7923672,0.00146094 c 0,-0.984375 0.80859376,-1.79296874 1.7929687625,-1.79296874 0.9843749975,0 1.7929687375,0.80859374 1.7929687375,1.79296874 0,0.984375 -0.80859374,1.79296876 -1.7929687375,1.79296876 -0.9843750025,0 -1.7929687625,-0.80859376 -1.7929687625,-1.79296876 z m -0.1992187,0 c 0,1.10156246 0.890625,1.99218746 1.9921874625,1.99218746 1.1015625375,0 1.9921875375,-0.890625 1.9921875375,-1.99218746 0,-1.10156254 -0.890625,-1.99218754 -1.9921875375,-1.99218754 -1.1015624625,0 -1.9921874625,0.890625 -1.9921874625,1.99218754 z m 0,0"
         style="fill:#000000;fill-opacity:1;fill-rule:nonzero;stroke:none" />
      <path
         id="path52"
         d="m -2.1849453,3.8569297 0.5859375,0.023437 c 0.2578125,0.011719 0.375,0.09375 0.375,0.2929687 0,0.1523438 -0.035156,0.5039063 -0.09375,0.8320313 l -0.9492188,5.4960943 c -0.046875,0.199219 -0.1757812,0.269531 -0.6328125,0.351562 l -0.058594,0.28125 0.4101562,-0.01172 c 0.2929688,-0.02344 0.4570313,-0.02344 0.5859375,-0.02344 0.1171875,0 0.3984375,0.01172 0.6914063,0.02344 l 0.39843749,0.01172 0.22265625,0.01172 c 0.19921875,0.01172 0.33984375,0.02344 0.43359375,0.02344 0.52734375,0 1.04296875,-0.152344 1.55859371,-0.46875 0.8671875,-0.503907 1.3476563,-1.2539071 1.3476563,-2.0742196 0,-0.46875 -0.1640625,-0.8320312 -0.4570313,-1.078125 C 1.9517734,7.3256797 1.6236484,7.2202109 0.87364844,7.1147422 1.4947422,6.9038047 1.7642734,6.7631797 2.1041172,6.4584922 c 0.5039062,-0.421875 0.75,-0.9375 0.75,-1.4882813 0,-0.9023437 -0.6328125,-1.4179687 -1.7226563,-1.4179687 -0.023437,0 -0.1289062,0 -0.29296871,0.011719 l -0.6796875,0.011719 c -0.140625,0.011719 -0.52734375,0.011719 -0.65625,0.011719 -0.2109375,0 -0.55078129,-0.011719 -1.07812499,-0.023437 l -0.5742188,-0.011719 z m 1.31249999,3.5273437 h 0.92578125 c 1.12499996,0 1.67578126,0.46875 1.67578126,1.4179688 0,1.1132812 -0.79687501,1.9218748 -1.88671876,1.9218748 -0.22265625,0 -0.5390625,-0.01172 -0.90234374,-0.03516 -0.058594,-0.01172 -0.1992188,-0.02344 -0.3632813,-0.03516 z m 0.59765625,-3.375 c 0.1171875,0 0.140625,-0.011719 0.375,-0.023437 0.22265625,-0.023437 0.375,-0.035156 0.50390625,-0.035156 0.87890621,0 1.31250001,0.3984375 1.31250001,1.21875 0,1.1367187 -0.8085938,1.828125 -2.15625001,1.828125 h -0.5625 z m 0,0"
         style="fill:#000000;fill-opacity:1;fill-rule:nonzero;stroke:none" />
    </g>
    <path
       id="path54"
       d="M -1.991375,8.59375e-4 C -1.991375,1.1024219 -1.10075,1.9930469 8.125e-4,1.9930469 1.102375,1.9930469 1.993,1.1024219 1.993,8.59375e-4 1.993,-1.1007031 1.102375,-1.9913281 8.125e-4,-1.9913281 c -1.1015625,0 -1.9921875,0.890625 -1.9921875,1.992187475 z m 0,0"
       style="fill:#ffffff;fill-opacity:1;fill-rule:nonzero;stroke:none"
       aria-label="b"
       transform="matrix(0.35277776,0,0,0.35277776,124.4841,83.49038)"
       clip-path="url(#clipPath55)" />
    <g
       id="g55"
       aria-label="c&#10;C"
       transform="matrix(0.35277776,0,0,0.35277776,124.4841,83.49038)"
       clip-path="url(#clipPath58)">
      <path
         id="path56"
         d="m -1.7921563,8.59375e-4 c 0,-0.984374995 0.8085938,-1.792968775 1.7929688,-1.792968775 0.984375,0 1.7929687,0.80859378 1.7929687,1.792968775 0,0.984375005 -0.8085937,1.792968725 -1.7929687,1.792968725 -0.984375,0 -1.7929688,-0.80859372 -1.7929688,-1.792968725 z m -0.1992187,0 C -1.991375,1.1024219 -1.10075,1.9930469 8.125e-4,1.9930469 1.102375,1.9930469 1.993,1.1024219 1.993,8.59375e-4 1.993,-1.1007031 1.102375,-1.9913281 8.125e-4,-1.9913281 c -1.1015625,0 -1.9921875,0.890625 -1.9921875,1.992187475 z m 0,0"
         style="fill:#000000;fill-opacity:1;fill-rule:nonzero;stroke:none" />
      <path
         id="path57"
         d="M 9.1355781,4.5389453 H 9.4285469 C 9.4871406,3.9178516 9.5691719,3.4491016 9.7215156,2.9451953 8.8894844,2.6287891 8.2683906,2.4998828 7.6004219,2.4998828 c -0.9023438,0 -1.7929688,0.2695313 -2.5546875,0.7851563 -1.2773438,0.8554687 -1.9335938,2.1445312 -1.9335938,3.8203125 0,2.109375 1.171875,3.2929684 3.2460938,3.2929684 1.0546875,0 1.828125,-0.257812 2.8125,-0.9257809 L 9.2762031,9.0741016 9.1707344,9.0037891 c -1.03125,0.6210937 -1.59375,0.8085937 -2.4492188,0.8085937 -1.7109375,0 -2.6484375,-1.0429687 -2.6484375,-2.9882812 0,-1.2070313 0.3632813,-2.2851563 1.03125,-2.9648438 0.515625,-0.5273437 1.21875,-0.7851562 2.0742188,-0.7851562 0.7734375,0 1.3476562,0.1523437 1.9570312,0.5507812 z m 0,0"
         style="fill:#000000;fill-opacity:1;fill-rule:nonzero;stroke:none" />
    </g>
    <path
       id="path59"
       d="m -1.9923047,-0.00103125 c 0,1.10156245 0.890625,1.99218745 1.9921875125,1.99218745 1.1015624875,0 1.9921874875,-0.890625 1.9921874875,-1.99218745 0,-1.10156255 -0.890625,-1.99218755 -1.9921874875,-1.99218755 -1.1015625125,0 -1.9921875125,0.890625 -1.9921875125,1.99218755 z m 0,0"
       style="fill:#ffffff;fill-opacity:1;fill-rule:nonzero;stroke:none"
       aria-label="b"
       transform="matrix(0.35277776,0,0,0.35277776,99.34798,50.254833)"
       clip-path="url(#clipPath60)" />
    <g
       id="g60"
       aria-label="c&#10;D"
       transform="matrix(0.35277776,0,0,0.35277776,99.34798,50.254833)"
       clip-path="url(#clipPath63)">
      <path
         id="path61"
         d="m -1.7930859,-0.00103125 c 0,-0.984375 0.80859371,-1.79296875 1.7929687125,-1.79296875 0.9843749975,0 1.7929687875,0.80859375 1.7929687875,1.79296875 0,0.984375 -0.80859379,1.79296875 -1.7929687875,1.79296875 -0.9843750025,0 -1.7929687125,-0.80859375 -1.7929687125,-1.79296875 z m -0.1992188,0 c 0,1.10156245 0.890625,1.99218745 1.9921875125,1.99218745 1.1015624875,0 1.9921874875,-0.890625 1.9921874875,-1.99218745 0,-1.10156255 -0.890625,-1.99218755 -1.9921874875,-1.99218755 -1.1015625125,0 -1.9921875125,0.890625 -1.9921875125,1.99218755 z m 0,0"
         style="fill:#000000;fill-opacity:1;fill-rule:nonzero;stroke:none" />
      <path
         id="path62"
         d="m -2.4024609,-3.903375 -0.058594,0.28125 1.0195313,-0.035156 h 0.59765621 c 0.2109375,0 0.55078125,0.011719 1.01953125,0.023437 0.22265625,0.011719 0.38671875,0.011719 0.50390625,0.011719 0.78515629,0 1.32421879,-0.1171875 1.88671879,-0.4101563 1.6992187,-0.8671875 2.7539062,-2.5195312 2.7539062,-4.3242187 0,-1.0664063 -0.328125,-1.839844 -0.9960937,-2.308594 -0.5039063,-0.351562 -1.4296875,-0.550781 -2.4609375,-0.539062 l -2.22656254,0.03516 h -0.10546875 c -0.10546875,0 -0.140625,0 -1.24218751,-0.03516 l -0.023437,0.304687 0.5742188,0.02344 c 0.25781246,0.01172 0.37499996,0.09375 0.37499996,0.292968 0,0.152344 -0.0351563,0.503907 -0.09375,0.8320317 l -0.94921876,5.4960938 c -0.035156,0.1757812 -0.1523437,0.2578125 -0.4921875,0.328125 z m 2.56640621,-6.84375 c 0.15234375,0 0.2109375,-0.01172 0.50390625,-0.02344 0.33984374,-0.02344 0.56250004,-0.03516 0.76171874,-0.03516 1.9804688,0 2.8828125,0.8320315 2.8828125,2.6250002 0,1.2773438 -0.4101562,2.4140625 -1.1484375,3.1757813 -0.5976562,0.5976562 -1.3945312,0.9023437 -2.34374999,0.9023437 -0.48046875,0 -1.0078125,-0.058594 -1.7578125,-0.1640625 0,-0.1289062 0.0117188,-0.2109375 0.046875,-0.4101562 z m 0,0"
         style="fill:#000000;fill-opacity:1;fill-rule:nonzero;stroke:none" />
    </g>
    <path
       id="path64"
       d="m -1.9913906,-7.1875e-4 c 0,1.10156245 0.890625,1.99218745 1.992187475,1.99218745 1.101562525,0 1.992187525,-0.890625 1.992187525,-1.99218745 0,-1.10156255 -0.890625,-1.99218755 -1.992187525,-1.99218755 -1.101562475,0 -1.992187475,0.890625 -1.992187475,1.99218755 z m 0,0"
       style="fill:#ffffff;fill-opacity:1;fill-rule:nonzero;stroke:none"
       aria-label="b"
       transform="matrix(0.35277776,0,0,0.35277776,79.622764,81.368068)"
       clip-path="url(#clipPath65)" />
    <g
       id="g65"
       aria-label="c&#10;D&#10;′"
       transform="matrix(0.35277776,0,0,0.35277776,79.622764,81.368068)"
       clip-path="url(#clipPath69)">
      <path
         id="path66"
         d="m -1.7921719,-7.1875e-4 c 0,-0.984375 0.80859377,-1.79296875 1.792968775,-1.79296875 0.984374995,0 1.792968725,0.80859375 1.792968725,1.79296875 0,0.984375 -0.80859373,1.79296875 -1.792968725,1.79296875 -0.984375005,0 -1.792968775,-0.80859375 -1.792968775,-1.79296875 z m -0.1992187,0 c 0,1.10156245 0.890625,1.99218745 1.992187475,1.99218745 1.101562525,0 1.992187525,-0.890625 1.992187525,-1.99218745 0,-1.10156255 -0.890625,-1.99218755 -1.992187525,-1.99218755 -1.101562475,0 -1.992187475,0.890625 -1.992187475,1.99218755 z m 0,0"
         style="fill:#000000;fill-opacity:1;fill-rule:nonzero;stroke:none" />
      <path
         id="path67"
         d="m -14.893734,3.9543594 -0.05859,0.28125 1.019531,-0.035156 h 0.597656 c 0.210938,0 0.550782,0.011719 1.019532,0.023437 0.222656,0.011719 0.386718,0.011719 0.503906,0.011719 0.785156,0 1.324219,-0.1171875 1.8867186,-0.4101563 1.6992188,-0.8671875 2.7539063,-2.5195312 2.7539063,-4.32421873 0,-1.06640627 -0.328125,-1.83984377 -0.9960938,-2.30859377 -0.5039062,-0.3515625 -1.4296875,-0.5507812 -2.4609371,-0.5390625 l -2.226563,0.035156 h -0.105469 c -0.105468,0 -0.140625,0 -1.242187,-0.035156 l -0.02344,0.3046875 0.574219,0.023437 c 0.257813,0.011719 0.375,0.09375 0.375,0.2929688 0,0.1523437 -0.03516,0.5039062 -0.09375,0.8320312 l -0.949219,5.4960938 c -0.03516,0.1757812 -0.152343,0.2578125 -0.492187,0.328125 z m 2.566406,-6.84375 c 0.152344,0 0.210937,-0.011719 0.503906,-0.023437 0.339844,-0.023437 0.5625,-0.035156 0.761719,-0.035156 1.9804686,0 2.8828124,0.8320313 2.8828124,2.62500002 0,1.27734375 -0.4101563,2.41406248 -1.1484375,3.17578128 -0.5976563,0.5976562 -1.3945309,0.9023437 -2.3437499,0.9023437 -0.480469,0 -1.007813,-0.058594 -1.757813,-0.1640625 0,-0.1289062 0.01172,-0.2109375 0.04687,-0.4101562 z m 0,0"
         style="fill:#000000;fill-opacity:1;fill-rule:nonzero;stroke:none" />
      <path
         id="path68"
         d="m -4.2794766,-3.7097031 c 0.046875,-0.09375 0.082031,-0.1757813 0.082031,-0.2578125 0,-0.234375 -0.2226563,-0.4335938 -0.4804688,-0.4335938 -0.234375,0 -0.375,0.1523438 -0.4335937,0.375 l -0.9960938,3.62109377 c 0,0.0234375 -0.023437,0.1171875 -0.023437,0.1171875 0,0.09375 0.2109375,0.15234375 0.28125,0.15234375 0.046875,0 0.058594,-0.0234375 0.1054688,-0.12890625 z m 0,0"
         style="fill:#000000;fill-opacity:1;fill-rule:nonzero;stroke:none" />
    </g>
    <path
       id="path70"
       d="m -1.9923281,-1.796875e-4 c 0,1.1015624875 0.890625,1.9921874875 1.992187475,1.9921874875 1.101562525,0 1.992187525,-0.890625 1.992187525,-1.9921874875 0,-1.1015625125 -0.890625,-1.9921875125 -1.992187525,-1.9921875125 -1.101562475,0 -1.992187475,0.890625 -1.992187475,1.9921875125 z m 0,0"
       style="fill:#ffffff;fill-opacity:1;fill-rule:nonzero;stroke:none"
       aria-label="b"
       transform="matrix(0.35277776,0,0,0.35277776,93.307014,53.225926)"
       clip-path="url(#clipPath71)" />
    <g
       id="g71"
       aria-label="c&#10;E"
       transform="matrix(0.35277776,0,0,0.35277776,93.307014,53.225926)"
       clip-path="url(#clipPath74)">
      <path
         id="path72"
         d="m -1.7931094,-1.796875e-4 c 0,-0.9843750025 0.80859378,-1.7929687125 1.792968775,-1.7929687125 0.984375005,0 1.792968725,0.80859371 1.792968725,1.7929687125 0,0.9843749975 -0.80859372,1.7929687875 -1.792968725,1.7929687875 -0.984374995,0 -1.792968775,-0.80859379 -1.792968775,-1.7929687875 z m -0.1992187,0 c 0,1.1015624875 0.890625,1.9921874875 1.992187475,1.9921874875 1.101562525,0 1.992187525,-0.890625 1.992187525,-1.9921874875 0,-1.1015625125 -0.890625,-1.9921875125 -1.992187525,-1.9921875125 -1.101562475,0 -1.992187475,0.890625 -1.992187475,1.9921875125 z m 0,0"
         style="fill:#000000;fill-opacity:1;fill-rule:nonzero;stroke:none" />
      <path
         id="path73"
         d="m -2.2032656,-7.3009609 h 1.27734373 c 0.29296875,0 0.6328125,0.011719 1.1484375,0.035156 l 0.29296875,0.011719 0.19921875,-0.4921875 -0.0351563,-0.082031 c -0.890625,0.046875 -1.546875,0.070312 -2.39062503,0.070312 h -0.4101563 l 0.4570313,-2.6015626 c 0.035156,-0.175781 0.058594,-0.257812 0.1054687,-0.339843 l 0.5039064,-0.02344 c 0.35156243,-0.01172 0.70312493,-0.02344 0.94921868,-0.02344 0.66796875,0 1.11328122,0.09375 1.12499992,0.257812 l 0.09375,0.9726561 H 1.370953 c 0.035156,-0.7031251 0.1054688,-1.2421871 0.234375,-1.6523431 -0.234375,-0.02344 -0.5625,-0.03516 -0.76171867,-0.03516 -0.0234375,0 -0.15234375,0 -0.41015625,0.01172 l -1.3125,0.01172 c -0.09375,0.01172 -0.73828128,0.01172 -0.84375008,0.01172 -0.4101562,0 -0.703125,0 -1.2539062,-0.02344 l -0.4921875,-0.01172 -0.035156,0.304688 0.5859375,0.02344 c 0.2695313,0.01172 0.3867188,0.09375 0.3867188,0.292969 0,0.152344 -0.046875,0.503906 -0.1054688,0.8320311 l -0.9492187,5.4960938 c -0.035156,0.1992187 -0.1640625,0.2695312 -0.6445312,0.3515625 l -0.058594,0.28125 0.4453125,-0.011719 c 0.3398437,-0.011719 1.0195312,-0.023437 1.2304687,-0.023437 l 2.34375008,0.035156 h 0.1171875 c 0.152343745,0 0.421875,-0.011719 0.78515625,-0.023437 l 0.36328125,-0.011719 0.0351563,-0.3984375 c 0.023437,-0.2109375 0.082031,-0.5390625 0.1757812,-1.078125 l 0.058594,-0.28125 H 0.97251563 l -0.17578125,0.65625 c -0.1171875,0.3867188 -0.2109375,0.5273438 -0.4453125,0.5742188 -0.22265625,0.046875 -1.01953125,0.1054687 -1.60546878,0.1054687 -0.4453125,0 -0.6914062,-0.011719 -1.4414062,-0.082031 v -0.046875 c 0,-0.1523438 0.011719,-0.234375 0.023437,-0.328125 z m 0,0"
         style="fill:#000000;fill-opacity:1;fill-rule:nonzero;stroke:none" />
    </g>
    <path
       id="path75"
       d="M -1.9921797,9.765625e-4 C -1.9921797,1.1025391 -1.1015547,1.9931641 7.8125e-6,1.9931641 1.1015703,1.9931641 1.9921953,1.1025391 1.9921953,9.765625e-4 1.9921953,-1.1005859 1.1015703,-1.9912109 7.8125e-6,-1.9912109 -1.1015547,-1.9912109 -1.9921797,-1.1005859 -1.9921797,9.765625e-4 Z m 0,0"
       style="fill:#ffffff;fill-opacity:1;fill-rule:nonzero;stroke:none"
       aria-label="b"
       transform="matrix(0.35277776,0,0,0.35277776,111.76682,108.40355)"
       clip-path="url(#clipPath76)" />
    <g
       id="g76"
       aria-label="c&#10;E&#10;′"
       transform="matrix(0.35277776,0,0,0.35277776,111.76682,108.40355)"
       clip-path="url(#clipPath80)">
      <path
         id="path77"
         d="M -1.7929609,9.765625e-4 C -1.7929609,-0.98339844 -0.98436719,-1.7919922 7.8125e-6,-1.7919922 0.98438281,-1.7919922 1.7929766,-0.98339844 1.7929766,9.765625e-4 1.7929766,0.98535156 0.98438281,1.7939453 7.8125e-6,1.7939453 -0.98436719,1.7939453 -1.7929609,0.98535156 -1.7929609,9.765625e-4 Z m -0.1992188,0 C -1.9921797,1.1025391 -1.1015547,1.9931641 7.8125e-6,1.9931641 1.1015703,1.9931641 1.9921953,1.1025391 1.9921953,9.765625e-4 1.9921953,-1.1005859 1.1015703,-1.9912109 7.8125e-6,-1.9912109 -1.1015547,-1.9912109 -1.9921797,-1.1005859 -1.9921797,9.765625e-4 Z m 0,0"
         style="fill:#000000;fill-opacity:1;fill-rule:nonzero;stroke:none" />
      <path
         id="path78"
         d="m -2.3847578,8.4443359 h 1.2773437 c 0.29296879,0 0.63281254,0.011719 1.14843754,0.035156 l 0.29296875,0.011719 0.19921875,-0.4921875 -0.0351563,-0.082031 c -0.890625,0.046875 -1.54687504,0.070312 -2.39062504,0.070312 h -0.4101563 l 0.4570313,-2.6015625 c 0.035156,-0.1757813 0.058594,-0.2578125 0.1054687,-0.3398438 l 0.5039063,-0.023437 c 0.35156254,-0.011719 0.70312504,-0.023437 0.94921879,-0.023437 0.66796875,0 1.11328125,0.09375 1.125,0.2578125 l 0.09375,0.9726563 H 1.1894609 c 0.035156,-0.703125 0.1054688,-1.2421875 0.234375,-1.6523438 -0.234375,-0.023437 -0.56249996,-0.035156 -0.76171871,-0.035156 -0.0234375,0 -0.15234375,0 -0.41015625,0.011719 l -1.31250004,0.011719 c -0.09375,0.011719 -0.7382812,0.011719 -0.84375,0.011719 -0.4101562,0 -0.703125,0 -1.2539062,-0.023437 l -0.4921875,-0.011719 -0.035156,0.3046875 0.5859375,0.023437 c 0.2695313,0.011719 0.3867188,0.09375 0.3867188,0.2929687 0,0.1523438 -0.046875,0.5039063 -0.1054688,0.8320313 L -3.76757,11.491212 c -0.035156,0.199219 -0.1640625,0.269531 -0.6445313,0.351562 l -0.058594,0.28125 0.4453125,-0.01172 c 0.3398437,-0.01172 1.0195312,-0.02344 1.2304687,-0.02344 l 2.34375004,0.03516 h 0.1171875 c 0.15234375,0 0.421875,-0.01172 0.78515625,-0.02344 l 0.36328125,-0.01172 0.0351563,-0.398437 c 0.0234375,-0.210938 0.0820313,-0.539063 0.17578126,-1.078125 l 0.058594,-0.28125 H 0.79102344 l -0.17578125,0.65625 c -0.1171875,0.386718 -0.2109375,0.527343 -0.4453125,0.574218 -0.22265625,0.04687 -1.01953125,0.105469 -1.60546879,0.105469 -0.4453125,0 -0.6914062,-0.01172 -1.4414062,-0.08203 v -0.04687 c 0,-0.152344 0.011719,-0.234375 0.023437,-0.328125 z m 0,0"
         style="fill:#000000;fill-opacity:1;fill-rule:nonzero;stroke:none" />
      <path
         id="path79"
         d="m 4.2568438,4.1787109 c 0.046875,-0.09375 0.082031,-0.1757812 0.082031,-0.2578125 0,-0.234375 -0.2226562,-0.4335937 -0.4804687,-0.4335937 -0.234375,0 -0.375,0.1523437 -0.4335938,0.375 L 2.4287188,7.4833984 c 0,0.023437 -0.023437,0.1171875 -0.023437,0.1171875 0,0.09375 0.2109375,0.1523438 0.28125,0.1523438 0.046875,0 0.058594,-0.023437 0.1054687,-0.1289063 z m 0,0"
         style="fill:#000000;fill-opacity:1;fill-rule:nonzero;stroke:none" />
    </g>
    <path
       id="path81"
       d="m -1.9917656,0.00101562 c 0,1.10156248 0.890625,1.99218748 1.992187475,1.99218748 1.101562525,0 1.992187525,-0.890625 1.992187525,-1.99218748 0,-1.10156252 -0.890625,-1.99218752 -1.992187525,-1.99218752 -1.101562475,0 -1.992187475,0.890625 -1.992187475,1.99218752 z m 0,0"
       style="fill:#ffffff;fill-opacity:1;fill-rule:nonzero;stroke:none"
       aria-label="b"
       transform="matrix(0.35277776,0,0,0.35277776,84.03813,62.600643)"
       clip-path="url(#clipPath82)" />
    <g
       id="g82"
       aria-label="c&#10;F"
       transform="matrix(0.35277776,0,0,0.35277776,84.03813,62.600643)"
       clip-path="url(#clipPath85)">
      <path
         id="path83"
         d="m -1.7925469,0.00101562 c 0,-0.984375 0.80859378,-1.79296872 1.792968775,-1.79296872 0.984375005,0 1.792968725,0.80859372 1.792968725,1.79296872 0,0.984375 -0.80859372,1.79296878 -1.792968725,1.79296878 -0.984374995,0 -1.792968775,-0.80859378 -1.792968775,-1.79296878 z m -0.1992187,0 c 0,1.10156248 0.890625,1.99218748 1.992187475,1.99218748 1.101562525,0 1.992187525,-0.890625 1.992187525,-1.99218748 0,-1.10156252 -0.890625,-1.99218752 -1.992187525,-1.99218752 -1.101562475,0 -1.992187475,0.890625 -1.992187475,1.99218752 z m 0,0"
         style="fill:#000000;fill-opacity:1;fill-rule:nonzero;stroke:none" />
      <path
         id="path84"
         d="m -2.4107109,-10.701133 1.1601562,-0.04687 c 0.67968751,0 1.11328126,0.09375 1.12500001,0.257813 l 0.08203125,0.9726559 h 0.26953125 c 0.0234375,-0.6914059 0.10546875,-1.2421879 0.22265625,-1.6523439 -0.234375,-0.02344 -0.5390625,-0.03516 -0.7265625,-0.03516 l -0.4453125,0.01172 -1.80468746,0.02344 h -0.3164063 c -0.2695312,0 -0.703125,-0.01172 -1.125,-0.02344 l -0.5273437,-0.01172 -0.035156,0.304687 0.609375,0.02344 c 0.2578125,0.01172 0.375,0.105469 0.375,0.292969 0,0.152343 -0.035156,0.503906 -0.09375,0.8320309 l -0.8203125,4.734375 c -0.1875,0.9960938 -0.1875,1.0078125 -0.6328125,1.0546875 l -0.3867187,0.035156 -0.046875,0.3046875 0.375,-0.011719 c 0.4335937,-0.011719 0.7851562,-0.023437 1.0078125,-0.023437 0.1992187,0 0.515625,0.011719 0.9375,0.023437 l 0.5742187,0.011719 0.035156,-0.3046875 -0.703125,-0.035156 c -0.2929688,-0.011719 -0.3984375,-0.09375 -0.3984375,-0.3164062 0,-0.070312 0.011719,-0.1875 0.023437,-0.234375 l 0.3984375,-2.4257813 h 1.2773437 c 0.2929688,0 0.6328125,0.011719 1.14843751,0.035156 h 0.29296875 l 0.19921875,-0.4804688 -0.0351563,-0.082031 c -0.89062501,0.046875 -1.54687501,0.070312 -2.39062501,0.070312 h -0.4101563 l 0.5039063,-2.9648441 c 0.035156,-0.175781 0.046875,-0.222656 0.09375,-0.339844 z m 0,0"
         style="fill:#000000;fill-opacity:1;fill-rule:nonzero;stroke:none" />
    </g>
    <path
       id="path86"
       d="m -1.9935078,-0.00100781 c 0,1.10156251 0.890625,1.99218751 1.99218749,1.99218751 1.10156251,0 1.99218751,-0.890625 1.99218751,-1.99218751 0,-1.10156249 -0.890625,-1.99218749 -1.99218751,-1.99218749 -1.10156249,0 -1.99218749,0.890625 -1.99218749,1.99218749 z m 0,0"
       style="fill:#ffffff;fill-opacity:1;fill-rule:nonzero;stroke:none"
       aria-label="b"
       transform="matrix(0.35277776,0,0,0.35277776,137.92176,88.045799)"
       clip-path="url(#clipPath87)" />
    <g
       id="g87"
       aria-label="c&#10;F&#10;′&#10;C"
       transform="matrix(0.35277776,0,0,0.35277776,137.92176,88.045799)"
       clip-path="url(#clipPath91)">
      <path
         id="path88"
         d="m -1.7942891,-0.00100781 c 0,-0.984375 0.80859379,-1.79296879 1.79296879,-1.79296879 0.984375,0 1.79296871,0.80859379 1.79296871,1.79296879 0,0.984375 -0.80859371,1.79296871 -1.79296871,1.79296871 -0.984375,0 -1.79296879,-0.80859371 -1.79296879,-1.79296871 z m -0.1992187,0 c 0,1.10156251 0.890625,1.99218751 1.99218749,1.99218751 1.10156251,0 1.99218751,-0.890625 1.99218751,-1.99218751 0,-1.10156249 -0.890625,-1.99218749 -1.99218751,-1.99218749 -1.10156249,0 -1.99218749,0.890625 -1.99218749,1.99218749 z m 0,0"
         style="fill:#000000;fill-opacity:1;fill-rule:nonzero;stroke:none" />
      <path
         id="path89"
         d="m 7.1119609,-1.4512031 1.1601563,-0.046875 c 0.6796875,0 1.1132812,0.09375 1.125,0.2578125 l 0.082031,0.97265622 h 0.2695313 c 0.023437,-0.69140625 0.1054687,-1.24218752 0.2226562,-1.65234372 -0.234375,-0.023437 -0.5390625,-0.035156 -0.7265625,-0.035156 l -0.4453125,0.011719 -1.8046875,0.023437 h -0.316406 c -0.2695313,0 -0.703125,-0.011719 -1.125,-0.023437 l -0.5273438,-0.011719 -0.035156,0.3046875 0.609375,0.023437 c 0.2578125,0.011719 0.375,0.1054688 0.375,0.2929688 0,0.1523437 -0.035156,0.50390622 -0.09375,0.83203122 L 5.0611797,4.2323906 c -0.1875,0.9960938 -0.1875,1.0078125 -0.6328125,1.0546875 l -0.3867188,0.035156 -0.046875,0.3046875 0.375,-0.011719 c 0.4335938,-0.011719 0.7851563,-0.023437 1.0078125,-0.023437 0.1992188,0 0.515625,0.011719 0.9375,0.023437 l 0.5742188,0.011719 0.035156,-0.3046875 -0.703125,-0.035156 C 5.9283672,5.2753594 5.8228984,5.1933281 5.8228984,4.9706719 c 0,-0.070312 0.011719,-0.1875 0.023437,-0.234375 l 0.398438,-2.4257813 h 1.2773438 c 0.2929687,0 0.6328125,0.011719 1.1484375,0.035156 H 8.9635234 L 9.1627422,1.8652031 9.1275859,1.7831719 c -0.890625,0.046875 -1.546875,0.070312 -2.390625,0.070312 H 6.3268047 l 0.5039062,-2.9648438 c 0.035156,-0.1757812 0.046875,-0.2226562 0.09375,-0.3398437 z m 0,0"
         style="fill:#000000;fill-opacity:1;fill-rule:nonzero;stroke:none" />
      <path
         id="path90"
         d="m 13.346336,-3.7715156 c 0.05859,-0.1289063 0.105469,-0.234375 0.105469,-0.3515625 0,-0.328125 -0.292969,-0.5976563 -0.644532,-0.5976563 -0.316406,0 -0.527343,0.2109375 -0.609375,0.5039063 l -1.347656,4.96874997 c 0,0.0234375 -0.04687,0.15234375 -0.04687,0.1640625 0,0.12890623 0.292969,0.19921873 0.386719,0.19921873 0.07031,0 0.08203,-0.035156 0.152344,-0.17578123 z m -32.15332,-92.1210934 c 0,-0.07031 -0.05859,-0.08203 -0.117188,-0.08203 -0.1875,0 -0.457031,0.164063 -0.46875,0.164063 -0.234375,0.152344 -0.28125,0.234375 -0.410156,0.421875 -0.351563,0.539062 -0.855469,0.925781 -1.59375,0.925781 -1.019531,0 -1.945313,-0.738281 -1.945313,-2.449219 0,-1.019531 0.410157,-2.367187 1.007813,-3.269531 0.503906,-0.72656 1.113281,-1.32422 2.285156,-1.32422 0.433594,0 0.714844,0.16406 0.714844,0.58594 0,0.39843 -0.421875,1.20703 -0.5625,1.429686 -0.07031,0.128907 -0.07031,0.152344 -0.07031,0.175782 0,0.08203 0.05859,0.08203 0.128907,0.08203 0.222656,0 0.644531,-0.257813 0.785156,-0.433594 0.02344,-0.04687 0.679687,-1.160154 0.679687,-1.746094 0,-0.62109 -0.515625,-0.71484 -0.925781,-0.71484 -1.640625,0 -3,1.07812 -3.515625,1.72265 -1.359375,1.628909 -1.488281,3.39844 -1.488281,3.984378 0,1.664062 0.832031,2.578125 2.15625,2.578125 1.828125,0 3.339844,-1.769531 3.339844,-2.050781 z m 0,0"
         style="fill:#000000;fill-opacity:1;fill-rule:nonzero;stroke:none" />
    </g>
  </g>
</svg>
