<?xml version="1.0" encoding="UTF-8" standalone="no"?>
<!-- Created with Inkscape (http://www.inkscape.org/) -->

<svg
   width="74.862549mm"
   height="78.60482mm"
   viewBox="0 0 74.862549 78.60482"
   version="1.1"
   id="svg1"
   inkscape:version="1.4 (86a8ad7, 2024-10-11)"
   sodipodi:docname="figura3.svg"
   xmlns:inkscape="http://www.inkscape.org/namespaces/inkscape"
   xmlns:sodipodi="http://sodipodi.sourceforge.net/DTD/sodipodi-0.dtd"
   xmlns="http://www.w3.org/2000/svg"
   xmlns:svg="http://www.w3.org/2000/svg">
  <sodipodi:namedview
     id="namedview1"
     pagecolor="#ffffff"
     bordercolor="#000000"
     borderopacity="0.25"
     inkscape:showpageshadow="2"
     inkscape:pageopacity="0.0"
     inkscape:pagecheckerboard="0"
     inkscape:deskcolor="#d1d1d1"
     inkscape:document-units="mm"
     inkscape:zoom="0.49264169"
     inkscape:cx="335.94396"
     inkscape:cy="384.66091"
     inkscape:window-width="1366"
     inkscape:window-height="705"
     inkscape:window-x="-8"
     inkscape:window-y="-8"
     inkscape:window-maximized="1"
     inkscape:current-layer="layer1" />
  <defs
     id="defs1">
    <clipPath
       clipPathUnits="userSpaceOnUse"
       id="clipPath184">
      <path
         d="M 2160,1534.8 H 3960 V 3405.66 H 2160 Z"
         id="path184" />
    </clipPath>
    <clipPath
       clipPathUnits="userSpaceOnUse"
       id="clipPath186">
      <path
         d="M 2160,1534.8 H 3960 V 3405.66 H 2160 Z"
         id="path186" />
    </clipPath>
    <clipPath
       clipPathUnits="userSpaceOnUse"
       id="clipPath188">
      <path
         d="M 2160,1534.8 H 3960 V 3405.66 H 2160 Z"
         id="path188" />
    </clipPath>
    <clipPath
       clipPathUnits="userSpaceOnUse"
       id="clipPath190">
      <path
         d="M 2160,1534.8 H 3960 V 3405.66 H 2160 Z"
         transform="matrix(0.1,0,0,-0.1,-261.34401,244.25301)"
         id="path190" />
    </clipPath>
    <clipPath
       clipPathUnits="userSpaceOnUse"
       id="clipPath193">
      <path
         d="M 2160,1534.8 H 3960 V 3405.66 H 2160 Z"
         transform="matrix(0.1,0,0,-0.1,-261.34401,244.25301)"
         id="path193" />
    </clipPath>
    <clipPath
       clipPathUnits="userSpaceOnUse"
       id="clipPath195">
      <path
         d="M 2160,1534.8 H 3960 V 3405.66 H 2160 Z"
         transform="matrix(0.1,0,0,-0.1,-281.18601,196.06401)"
         id="path195" />
    </clipPath>
    <clipPath
       clipPathUnits="userSpaceOnUse"
       id="clipPath198">
      <path
         d="M 2160,1534.8 H 3960 V 3405.66 H 2160 Z"
         transform="matrix(0.1,0,0,-0.1,-281.18601,196.06401)"
         id="path198" />
    </clipPath>
    <clipPath
       clipPathUnits="userSpaceOnUse"
       id="clipPath200">
      <path
         d="M 2160,1534.8 H 3960 V 3405.66 H 2160 Z"
         transform="matrix(0.1,0,0,-0.1,-352.05301,230.08)"
         id="path200" />
    </clipPath>
    <clipPath
       clipPathUnits="userSpaceOnUse"
       id="clipPath203">
      <path
         d="M 2160,1534.8 H 3960 V 3405.66 H 2160 Z"
         transform="matrix(0.1,0,0,-0.1,-352.05301,230.08)"
         id="path203" />
    </clipPath>
    <clipPath
       clipPathUnits="userSpaceOnUse"
       id="clipPath205">
      <path
         d="M 2160,1534.8 H 3960 V 3405.66 H 2160 Z"
         transform="matrix(0.1,0,0,-0.1,-312.68601,329.23401)"
         id="path205" />
    </clipPath>
    <clipPath
       clipPathUnits="userSpaceOnUse"
       id="clipPath208">
      <path
         d="M 2160,1534.8 H 3960 V 3405.66 H 2160 Z"
         transform="matrix(0.1,0,0,-0.1,-312.68601,329.23401)"
         id="path208" />
    </clipPath>
    <clipPath
       clipPathUnits="userSpaceOnUse"
       id="clipPath210">
      <path
         d="M 2160,1534.8 H 3960 V 3405.66 H 2160 Z"
         transform="matrix(0.1,0,0,-0.1,-363.76001,309.75901)"
         id="path210" />
    </clipPath>
    <clipPath
       clipPathUnits="userSpaceOnUse"
       id="clipPath213">
      <path
         d="M 2160,1534.8 H 3960 V 3405.66 H 2160 Z"
         transform="matrix(0.1,0,0,-0.1,-363.76001,309.75901)"
         id="path213" />
    </clipPath>
    <clipPath
       clipPathUnits="userSpaceOnUse"
       id="clipPath215">
      <path
         d="M 2160,1534.8 H 3960 V 3405.66 H 2160 Z"
         transform="matrix(0.1,0,0,-0.1,-235.77301,201.93001)"
         id="path215" />
    </clipPath>
    <clipPath
       clipPathUnits="userSpaceOnUse"
       id="clipPath218">
      <path
         d="M 2160,1534.8 H 3960 V 3405.66 H 2160 Z"
         transform="matrix(0.1,0,0,-0.1,-235.77301,201.93001)"
         id="path218" />
    </clipPath>
    <clipPath
       clipPathUnits="userSpaceOnUse"
       id="clipPath220">
      <path
         d="M 2160,1534.8 H 3960 V 3405.66 H 2160 Z"
         transform="matrix(0.1,0,0,-0.1,-370.11801,184.578)"
         id="path220" />
    </clipPath>
    <clipPath
       clipPathUnits="userSpaceOnUse"
       id="clipPath223">
      <path
         d="M 2160,1534.8 H 3960 V 3405.66 H 2160 Z"
         transform="matrix(0.1,0,0,-0.1,-370.11801,184.578)"
         id="path223" />
    </clipPath>
    <clipPath
       clipPathUnits="userSpaceOnUse"
       id="clipPath225">
      <path
         d="M 2160,1534.8 H 3960 V 3405.66 H 2160 Z"
         transform="matrix(0.1,0,0,-0.1,-227.32501,222.493)"
         id="path225" />
    </clipPath>
    <clipPath
       clipPathUnits="userSpaceOnUse"
       id="clipPath228">
      <path
         d="M 2160,1534.8 H 3960 V 3405.66 H 2160 Z"
         transform="matrix(0.1,0,0,-0.1,-227.32501,222.493)"
         id="path228" />
    </clipPath>
    <clipPath
       clipPathUnits="userSpaceOnUse"
       id="clipPath230">
      <path
         d="M 2160,1534.8 H 3960 V 3405.66 H 2160 Z"
         transform="matrix(0.1,0,0,-0.1,-342.62501,165.916)"
         id="path230" />
    </clipPath>
    <clipPath
       clipPathUnits="userSpaceOnUse"
       id="clipPath233">
      <path
         d="M 2160,1534.8 H 3960 V 3405.66 H 2160 Z"
         transform="matrix(0.1,0,0,-0.1,-342.62501,165.916)"
         id="path233" />
    </clipPath>
    <clipPath
       clipPathUnits="userSpaceOnUse"
       id="clipPath235">
      <path
         d="M 2160,1534.8 H 3960 V 3405.66 H 2160 Z"
         transform="matrix(0.1,0,0,-0.1,-246.64501,311.27901)"
         id="path235" />
    </clipPath>
  </defs>
  <g
     inkscape:label="Capa 1"
     inkscape:groupmode="layer"
     id="layer1"
     transform="translate(-16.139583,-46.831245)">
    <path
       id="path183"
       d="m 3945.72,2442.53 v 0 c 0,469.65 -380.74,850.39 -850.39,850.39 -469.66,0 -850.4,-380.74 -850.4,-850.39 0,-469.66 380.74,-850.39 850.4,-850.39 469.65,0 850.39,380.73 850.39,850.39 z"
       style="fill:none;stroke:#000000;stroke-width:5.97758;stroke-linecap:butt;stroke-linejoin:miter;stroke-miterlimit:10;stroke-dasharray:none;stroke-opacity:1"
       transform="matrix(0.04233334,0,0,-0.04233334,-76.159899,190.96137)"
       clip-path="url(#clipPath184)" />
    <path
       id="path185"
       d="M 3414.02,2569.06 3126.86,3292.34 2357.73,2019.3 3701.18,1845.78 Z"
       style="fill:#ff0000;fill-opacity:0.08;fill-rule:nonzero;stroke:#ff0000;stroke-width:5.97758;stroke-linecap:butt;stroke-linejoin:miter;stroke-miterlimit:10;stroke-dasharray:none;stroke-opacity:1"
       transform="matrix(0.04233334,0,0,-0.04233334,-76.159899,190.96137)"
       clip-path="url(#clipPath186)" />
    <path
       id="path187"
       d="m 3531.93,2378.38 105.67,719.21 -1364.35,-872.66 1153,-565.77 z"
       style="fill:#0000ff;fill-opacity:0.08;fill-rule:nonzero;stroke:#0000ff;stroke-width:5.97758;stroke-linecap:butt;stroke-linejoin:miter;stroke-miterlimit:10;stroke-dasharray:none;stroke-opacity:1"
       transform="matrix(0.04233334,0,0,-0.04233334,-76.159899,190.96137)"
       clip-path="url(#clipPath188)" />
    <path
       id="path189"
       d="m -1.9934141,-9.0625e-4 c 0,1.10156245 0.890625,1.99218745 1.99218754,1.99218745 1.10156246,0 1.99218746,-0.890625 1.99218746,-1.99218745 0,-1.10156255 -0.890625,-1.99218755 -1.99218746,-1.99218755 -1.10156254,0 -1.99218754,0.890625 -1.99218754,1.99218755 z m 0,0"
       style="fill:#ffffff;fill-opacity:1;fill-rule:nonzero;stroke:none"
       aria-label="b"
       transform="matrix(0.42333331,0,0,0.42333331,34.475727,87.560926)"
       clip-path="url(#clipPath190)" />
    <g
       id="g190"
       aria-label="c&#10;A"
       transform="matrix(0.42333331,0,0,0.42333331,34.475727,87.560926)"
       clip-path="url(#clipPath193)">
      <path
         id="path191"
         d="m -1.7941953,-9.0625e-4 c 0,-0.984375 0.80859374,-1.79296875 1.79296874,-1.79296875 0.984375,0 1.79296876,0.80859375 1.79296876,1.79296875 0,0.984375 -0.80859376,1.79296875 -1.79296876,1.79296875 -0.984375,0 -1.79296874,-0.80859375 -1.79296874,-1.79296875 z m -0.1992188,0 c 0,1.10156245 0.890625,1.99218745 1.99218754,1.99218745 1.10156246,0 1.99218746,-0.890625 1.99218746,-1.99218745 0,-1.10156255 -0.890625,-1.99218755 -1.99218746,-1.99218755 -1.10156254,0 -1.99218754,0.890625 -1.99218754,1.99218755 z m 0,0"
         style="fill:#000000;fill-opacity:1;fill-rule:nonzero;stroke:none" />
      <path
         id="path192"
         d="m -5.4416563,-10.246023 -4.0664062,6.4687496 C -9.9065,-3.1678984 -10.094,-2.9921172 -10.469,-2.9100859 l -0.222656,0.058594 v 0.328125 c 1.0078122,-0.035156 1.0078122,-0.035156 1.2304685,-0.035156 0.1992187,0 0.2226562,0 1.1601562,0.035156 v -0.3046875 l -0.5625,-0.035156 c -0.1757812,-0.011719 -0.3398437,-0.1054688 -0.3398437,-0.2109375 0,-0.082031 0.070312,-0.234375 0.28125,-0.5976563 l 1.1132812,-1.9101562 H -5.12525 l 0.2695312,2.0507812 v 0.035156 c 0,0.011719 0.011719,0.046875 0.023437,0.09375 0.011719,0.09375 0.023437,0.1992187 0.023437,0.2460937 0,0.1757813 -0.1640625,0.2695313 -0.46875,0.2929688 l -0.4804687,0.035156 v 0.3046875 c 1.1132812,-0.035156 1.1132812,-0.035156 1.3359375,-0.035156 0.2109375,0 0.2109375,0 1.3242187,0.035156 v -0.3046875 l -0.28125,-0.035156 c -0.515625,-0.082031 -0.5273437,-0.082031 -0.609375,-0.5625 L -4.93775,-10.246023 Z m -0.140625,1.1249996 0.3984375,3.1523437 h -2.3554687 z m 0,0"
         style="fill:#000000;fill-opacity:1;fill-rule:nonzero;stroke:none" />
    </g>
    <path
       id="path194"
       d="m -1.9926406,5.234375e-4 c 0,1.1015624625 0.890625,1.9921874625 1.992187475,1.9921874625 1.101562525,0 1.992187525,-0.890625 1.992187525,-1.9921874625 0,-1.1015625375 -0.890625,-1.9921875375 -1.992187525,-1.9921875375 -1.101562475,0 -1.992187475,0.890625 -1.992187475,1.9921875375 z m 0,0"
       style="fill:#ffffff;fill-opacity:1;fill-rule:nonzero;stroke:none"
       aria-label="b"
       transform="matrix(0.42333331,0,0,0.42333331,42.875508,107.96094)"
       clip-path="url(#clipPath195)" />
    <g
       id="g195"
       aria-label="c&#10;B"
       transform="matrix(0.42333331,0,0,0.42333331,42.875508,107.96094)"
       clip-path="url(#clipPath198)">
      <path
         id="path196"
         d="m -1.7934219,5.234375e-4 c 0,-0.9843749975 0.80859378,-1.7929687375 1.792968775,-1.7929687375 0.984375005,0 1.792968725,0.80859374 1.792968725,1.7929687375 0,0.9843750025 -0.80859372,1.7929687625 -1.792968725,1.7929687625 -0.984374995,0 -1.792968775,-0.80859376 -1.792968775,-1.7929687625 z m -0.1992187,0 c 0,1.1015624625 0.890625,1.9921874625 1.992187475,1.9921874625 1.101562525,0 1.992187525,-0.890625 1.992187525,-1.9921874625 0,-1.1015625375 -0.890625,-1.9921875375 -1.992187525,-1.9921875375 -1.101562475,0 -1.992187475,0.890625 -1.992187475,1.9921875375 z m 0,0"
         style="fill:#000000;fill-opacity:1;fill-rule:nonzero;stroke:none" />
      <path
         id="path197"
         d="m -2.186,3.8559922 0.5859375,0.023437 c 0.2578125,0.011719 0.375,0.09375 0.375,0.2929687 0,0.1523438 -0.035156,0.5039063 -0.09375,0.8320313 l -0.9492187,5.4960928 c -0.046875,0.199219 -0.1757813,0.269532 -0.6328125,0.351563 l -0.058594,0.28125 0.4101563,-0.01172 c 0.2929687,-0.02344 0.4570312,-0.02344 0.5859375,-0.02344 0.1171875,0 0.3984375,0.01172 0.6914062,0.02344 l 0.3984375,0.01172 0.22265625,0.01172 c 0.19921875,0.01172 0.33984375,0.02344 0.43359375,0.02344 0.52734375,0 1.04296875,-0.152344 1.5585938,-0.46875 C 2.2085313,10.195836 2.689,9.4458359 2.689,8.6255234 2.689,8.1567734 2.5249375,7.7934922 2.2319688,7.5473984 1.9507188,7.3247422 1.6225938,7.2192734 0.87259375,7.1138047 1.4936875,6.9028672 1.7632188,6.7622422 2.1030625,6.4575547 c 0.5039063,-0.421875 0.75,-0.9375 0.75,-1.4882813 0,-0.9023437 -0.6328125,-1.4179687 -1.7226562,-1.4179687 -0.023437,0 -0.1289063,0 -0.2929688,0.011719 L 0.15775,3.5747422 c -0.140625,0.011719 -0.52734375,0.011719 -0.65625,0.011719 -0.2109375,0 -0.5507812,-0.011719 -1.078125,-0.023437 l -0.5742187,-0.011719 z m 1.3125,3.5273437 h 0.92578125 c 1.12500005,0 1.67578125,0.46875 1.67578125,1.4179688 0,1.1132812 -0.796875,1.9218753 -1.88671875,1.9218753 -0.22265625,0 -0.5390625,-0.01172 -0.90234375,-0.03516 -0.058594,-0.01172 -0.1992187,-0.02344 -0.3632812,-0.03516 z m 0.59765625,-3.375 c 0.1171875,0 0.140625,-0.011719 0.375,-0.023437 0.22265625,-0.023437 0.375,-0.035156 0.50390625,-0.035156 0.8789063,0 1.3125,0.3984375 1.3125,1.21875 0,1.1367187 -0.8085937,1.828125 -2.15625,1.828125 h -0.5625 z m 0,0"
         style="fill:#000000;fill-opacity:1;fill-rule:nonzero;stroke:none" />
    </g>
    <path
       id="path199"
       d="m -1.9934297,-7.8125e-5 c 0,1.101562525 0.890625,1.992187525 1.99218751,1.992187525 1.10156249,0 1.99218749,-0.890625 1.99218749,-1.992187525 0,-1.101562475 -0.890625,-1.992187475 -1.99218749,-1.992187475 -1.10156251,0 -1.99218751,0.890625 -1.99218751,1.992187475 z m 0,0"
       style="fill:#ffffff;fill-opacity:1;fill-rule:nonzero;stroke:none"
       aria-label="b"
       transform="matrix(0.42333331,0,0,0.42333331,72.875869,93.560831)"
       clip-path="url(#clipPath200)" />
    <g
       id="g200"
       aria-label="c&#10;C"
       transform="matrix(0.42333331,0,0,0.42333331,72.875869,93.560831)"
       clip-path="url(#clipPath203)">
      <path
         id="path201"
         d="m -1.7942109,-7.8125e-5 c 0,-0.984375005 0.80859371,-1.792968775 1.79296871,-1.792968775 0.984375,0 1.79296879,0.80859377 1.79296879,1.792968775 0,0.984374995 -0.80859379,1.792968725 -1.79296879,1.792968725 -0.984375,0 -1.79296871,-0.80859373 -1.79296871,-1.792968725 z m -0.1992188,0 c 0,1.101562525 0.890625,1.992187525 1.99218751,1.992187525 1.10156249,0 1.99218749,-0.890625 1.99218749,-1.992187525 0,-1.101562475 -0.890625,-1.992187475 -1.99218749,-1.992187475 -1.10156251,0 -1.99218751,0.890625 -1.99218751,1.992187475 z m 0,0"
         style="fill:#000000;fill-opacity:1;fill-rule:nonzero;stroke:none" />
      <path
         id="path202"
         d="m 10.185281,-1.9395313 h 0.292969 c 0.05859,-0.6210937 0.140625,-1.0898437 0.292969,-1.59375 -0.8320315,-0.3164062 -1.4531252,-0.4453125 -2.121094,-0.4453125 -0.9023437,0 -1.7929687,0.2695313 -2.5546875,0.7851563 -1.2773437,0.8554687 -1.9335937,2.1445312 -1.9335937,3.8203125 0,2.109375 1.171875,3.2929687 3.2460937,3.2929687 1.0546875,0 1.828125,-0.2578125 2.8125005,-0.9257812 L 10.325906,2.595625 10.220438,2.5253125 C 9.1891875,3.1464062 8.6266875,3.3339062 7.7712188,3.3339062 c -1.7109375,0 -2.6484375,-1.0429687 -2.6484375,-2.9882812 0,-1.20703125 0.3632812,-2.2851563 1.03125,-2.9648438 0.515625,-0.5273437 1.21875,-0.7851562 2.0742187,-0.7851562 0.7734375,0 1.3476563,0.1523437 1.957031,0.5507812 z m 0,0"
         style="fill:#000000;fill-opacity:1;fill-rule:nonzero;stroke:none" />
    </g>
    <path
       id="path204"
       d="m -1.9926406,-0.00135156 c 0,1.10156246 0.890625,1.99218746 1.992187475,1.99218746 1.101562525,0 1.992187525,-0.890625 1.992187525,-1.99218746 0,-1.10156254 -0.890625,-1.99218754 -1.992187525,-1.99218754 -1.101562475,0 -1.992187475,0.890625 -1.992187475,1.99218754 z m 0,0"
       style="fill:#ffffff;fill-opacity:1;fill-rule:nonzero;stroke:none"
       aria-label="b"
       transform="matrix(0.42333331,0,0,0.42333331,56.210508,51.585637)"
       clip-path="url(#clipPath205)" />
    <g
       id="g205"
       aria-label="c&#10;N"
       transform="matrix(0.42333331,0,0,0.42333331,56.210508,51.585637)"
       clip-path="url(#clipPath208)">
      <path
         id="path206"
         d="m -1.7934219,-0.00135156 c 0,-0.984375 0.80859378,-1.79296874 1.792968775,-1.79296874 0.984375005,0 1.792968725,0.80859374 1.792968725,1.79296874 0,0.984375 -0.80859372,1.79296876 -1.792968725,1.79296876 -0.984374995,0 -1.792968775,-0.80859376 -1.792968775,-1.79296876 z m -0.1992187,0 c 0,1.10156246 0.890625,1.99218746 1.992187475,1.99218746 1.101562525,0 1.992187525,-0.890625 1.992187525,-1.99218746 0,-1.10156254 -0.890625,-1.99218754 -1.992187525,-1.99218754 -1.101562475,0 -1.992187475,0.890625 -1.992187475,1.99218754 z m 0,0"
         style="fill:#ff0000;fill-opacity:1;fill-rule:nonzero;stroke:none" />
      <path
         id="path207"
         d="m -0.14400781,-11.230844 -0.89062499,0.03516 h -0.2578125 c -0.035156,0 -0.1992188,-0.01172 -0.4453125,-0.02344 l -0.1757813,-0.01172 -0.058594,0.304688 0.3867187,0.02344 c 0.1875,0.01172 0.421875,0.08203 0.5390625,0.1875 0.16406254,0.128906 0.32812504,0.328125 0.32812504,0.421875 0,0.01172 0,0.04687 -0.0117188,0.07031 0,0.01172 0,0.03516 -0.0117188,0.05859 -0.0117188,0.08203 -0.0117188,0.164063 -0.0234375,0.1992192 L -1.7260391,-4.79725 c -0.140625,0.6796875 -0.1992187,0.7617187 -0.5976562,0.8085937 l -0.328125,0.035156 -0.058594,0.3046875 1.2070313,-0.035156 c 0.1289062,0 0.140625,0 1.20703124,0.035156 l 0.046875,-0.3046875 -0.45703125,-0.035156 C -1.1401016,-4.0238125 -1.2338516,-4.1058438 -1.2338516,-4.469125 c 0,-0.082031 0,-0.2109375 0.023437,-0.328125 l 0.87890629,-5.0625 3.67968751,6.2929687 h 0.5507812 l 1.03125,-6.0351562 c 0.2226563,-1.2304685 0.2460938,-1.2773435 0.6445313,-1.3007815 l 0.4101562,-0.02344 0.058594,-0.304688 h -0.234375 l -0.9726563,0.03516 -0.9375,-0.03516 H 3.6880234 l -0.046875,0.304688 0.5039063,0.02344 c 0.2929687,0.01172 0.3984375,0.08203 0.3984375,0.257813 0,0.08203 -0.035156,0.363281 -0.058594,0.503906 l -0.8671875,5.3320312 z m 0,0"
         style="fill:#ff0000;fill-opacity:1;fill-rule:nonzero;stroke:none" />
    </g>
    <path
       id="path209"
       d="m -1.9933984,2.109375e-4 c 0,1.1015624625 0.890625,1.9921874625 1.99218746,1.9921874625 1.10156254,0 1.99218754,-0.890625 1.99218754,-1.9921874625 0,-1.1015625375 -0.890625,-1.9921875375 -1.99218754,-1.9921875375 -1.10156246,0 -1.99218746,0.890625 -1.99218746,1.9921875375 z m 0,0"
       style="fill:#ffffff;fill-opacity:1;fill-rule:nonzero;stroke:none"
       aria-label="b"
       transform="matrix(0.42333331,0,0,0.42333331,77.831832,59.830054)"
       clip-path="url(#clipPath210)" />
    <g
       id="g210"
       aria-label="c&#10;P"
       transform="matrix(0.42333331,0,0,0.42333331,77.831832,59.830054)"
       clip-path="url(#clipPath213)">
      <path
         id="path211"
         d="m -1.7941797,2.109375e-4 c 0,-0.9843749975 0.80859376,-1.7929687375 1.79296876,-1.7929687375 0.984375,0 1.79296874,0.80859374 1.79296874,1.7929687375 0,0.9843750025 -0.80859374,1.7929687625 -1.79296874,1.7929687625 -0.984375,0 -1.79296876,-0.80859376 -1.79296876,-1.7929687625 z m -0.1992187,0 c 0,1.1015624625 0.890625,1.9921874625 1.99218746,1.9921874625 1.10156254,0 1.99218754,-0.890625 1.99218754,-1.9921874625 0,-1.1015625375 -0.890625,-1.9921875375 -1.99218754,-1.9921875375 -1.10156246,0 -1.99218746,0.890625 -1.99218746,1.9921875375 z m 0,0"
         style="fill:#0000ff;fill-opacity:1;fill-rule:nonzero;stroke:none" />
      <path
         id="path212"
         d="m 2.0202734,-10.860141 0.5976563,0.02344 c 0.2578125,0.01172 0.3867187,0.09375 0.3867187,0.292969 0,0.152343 -0.046875,0.492187 -0.1054687,0.8320309 l -0.8085938,4.734375 c -0.1875,0.984375 -0.1875,1.0195312 -0.6328125,1.0546875 l -0.4453125,0.035156 -0.046875,0.3046875 0.4570313,-0.011719 c 0.4570312,-0.011719 0.796875,-0.023437 0.984375,-0.023437 0.1875,0 0.5039062,0.011719 0.9375,0.023437 l 0.5859375,0.011719 0.023437,-0.3046875 -0.703125,-0.035156 c -0.28125,-0.011719 -0.3984375,-0.09375 -0.3984375,-0.328125 0,-0.09375 0.011719,-0.1757813 0.046875,-0.3867188 l 0.9023437,-5.3085937 c 0,-0.011719 0.035156,-0.2343749 0.09375,-0.4335939 0.011719,-0.05859 0.046875,-0.164062 0.070312,-0.304687 0.3984375,-0.07031 0.5742188,-0.09375 0.7851563,-0.09375 1.1015625,0 1.640625,0.480468 1.640625,1.4999996 0,1.171875 -0.7851563,2.1328125 -1.7460938,2.1328125 -0.234375,0 -0.4570312,-0.046875 -0.8554687,-0.1992187 l 0.011719,0.328125 c 0.4101563,0.1992187 0.6328125,0.2578125 0.9492188,0.2578125 1.40625,0 2.6015625,-1.2773438 2.6015625,-2.765625 0,-1.1015629 -0.6914063,-1.6757809 -1.9804688,-1.6406249 l -1.5117187,0.03516 -1.2304688,-0.02344 -0.5742187,-0.01172 z m 0,0"
         style="fill:#0000ff;fill-opacity:1;fill-rule:nonzero;stroke:none" />
    </g>
    <path
       id="path214"
       d="m -1.9927266,0.00128906 c 0,1.10156254 0.890625,1.99218754 1.9921875375,1.99218754 1.1015624625,0 1.9921874625,-0.890625 1.9921874625,-1.99218754 0,-1.10156246 -0.890625,-1.99218746 -1.9921874625,-1.99218746 -1.1015625375,0 -1.9921875375,0.890625 -1.9921875375,1.99218746 z m 0,0"
       style="fill:#ffffff;fill-opacity:1;fill-rule:nonzero;stroke:none"
       aria-label="b"
       transform="matrix(0.42333331,0,0,0.42333331,23.65067,105.47766)"
       clip-path="url(#clipPath215)" />
    <g
       id="g215"
       aria-label="c&#10;Q"
       transform="matrix(0.42333331,0,0,0.42333331,23.65067,105.47766)"
       clip-path="url(#clipPath218)">
      <path
         id="path216"
         d="m -1.7935078,0.00128906 c 0,-0.984375 0.80859374,-1.79296876 1.7929687375,-1.79296876 0.9843750025,0 1.7929687625,0.80859376 1.7929687625,1.79296876 0,0.984375 -0.80859376,1.79296874 -1.7929687625,1.79296874 -0.9843749975,0 -1.7929687375,-0.80859374 -1.7929687375,-1.79296874 z m -0.1992188,0 c 0,1.10156254 0.890625,1.99218754 1.9921875375,1.99218754 1.1015624625,0 1.9921874625,-0.890625 1.9921874625,-1.99218754 0,-1.10156246 -0.890625,-1.99218746 -1.9921874625,-1.99218746 -1.1015625375,0 -1.9921875375,0.890625 -1.9921875375,1.99218746 z m 0,0"
         style="fill:#ff0000;fill-opacity:1;fill-rule:nonzero;stroke:none" />
      <path
         id="path217"
         d="m -10.562062,9.555 c 0,-0.84375 0.257812,-1.2304687 0.8320308,-1.2304687 0.3164062,0 0.6210937,0.082031 1.0546875,0.3164062 l 1.5820312,0.8320313 c 0.6445313,0.3398437 0.84375,0.3984375 1.2773438,0.3984375 0.8203125,0 1.21875,-0.46875 1.3242187,-1.5234375 h -0.2695312 c -0.070312,0.5859375 -0.3046875,0.8554687 -0.7382813,0.8554687 -0.1875,0 -0.3984375,-0.046875 -0.6796875,-0.1640625 L -8.757375,7.9964063 c -0.2695312,-0.1054688 -0.46875,-0.1523438 -0.7148437,-0.1523438 -0.8085933,0 -1.3710933,0.5507813 -1.3710933,1.3828125 0,0.023437 0,0.1054688 0.01172,0.1875 z m 3.4101558,-9.57421875 c -2.5898438,0 -4.4882808,1.99218755 -4.4882808,4.73437505 0,2.0625 1.03125,3.1640625 2.9531245,3.1640625 0.9257813,0 1.6992188,-0.2109375 2.4023438,-0.65625 1.3828125,-0.8554688 2.2265625,-2.4609375 2.2265625,-4.1835938 0,-1.9335937 -1.125,-3.05859375 -3.09375,-3.05859375 z M -7.49175,0.4378125 c 0.5273438,0 1.0546875,0.12890625 1.4179688,0.3515625 0.7148437,0.4101563 1.0546875,1.2304688 1.0546875,2.4257813 0,1.3828125 -0.4335938,2.6132812 -1.171875,3.375 -0.5390625,0.5390625 -1.2421875,0.8320312 -2.0976563,0.8320312 -1.5703125,0 -2.390625,-0.9375 -2.390625,-2.765625 0,-1.4179687 0.445313,-2.6953125 1.1953125,-3.4453125 0.515625,-0.52734375 1.1601563,-0.7734375 1.9921875,-0.7734375 z m 0,0"
         style="fill:#ff0000;fill-opacity:1;fill-rule:nonzero;stroke:none" />
    </g>
    <path
       id="path219"
       d="m -1.9910469,-0.00110156 c 0,1.10156246 0.890625,1.99218746 1.99218753,1.99218746 1.10156247,0 1.99218747,-0.890625 1.99218747,-1.99218746 0,-1.10156254 -0.890625,-1.99218754 -1.99218747,-1.99218754 -1.10156253,0 -1.99218753,0.890625 -1.99218753,1.99218754 z m 0,0"
       style="fill:#ffffff;fill-opacity:1;fill-rule:nonzero;stroke:none"
       aria-label="b"
       transform="matrix(0.42333331,0,0,0.42333331,80.523387,112.82334)"
       clip-path="url(#clipPath220)" />
    <g
       id="g220"
       aria-label="c&#10;R"
       transform="matrix(0.42333331,0,0,0.42333331,80.523387,112.82334)"
       clip-path="url(#clipPath223)">
      <path
         id="path221"
         d="m -1.7918281,-0.00110156 c 0,-0.984375 0.80859373,-1.79296874 1.79296873,-1.79296874 0.984375,0 1.79296877,0.80859374 1.79296877,1.79296874 0,0.984375 -0.80859377,1.79296876 -1.79296877,1.79296876 -0.984375,0 -1.79296873,-0.80859376 -1.79296873,-1.79296876 z m -0.1992188,0 c 0,1.10156246 0.890625,1.99218746 1.99218753,1.99218746 1.10156247,0 1.99218747,-0.890625 1.99218747,-1.99218746 0,-1.10156254 -0.890625,-1.99218754 -1.99218747,-1.99218754 -1.10156253,0 -1.99218753,0.890625 -1.99218753,1.99218754 z m 0,0"
         style="fill:#ff0000;fill-opacity:1;fill-rule:nonzero;stroke:none" />
      <path
         id="path222"
         d="m 5.1046563,0.72253125 0.609375,0.0234375 c 0.2578125,0.0117188 0.375,0.09375 0.375,0.29296875 0,0.1523437 -0.035156,0.5039062 -0.09375,0.8320312 l -0.8203125,4.734375 c -0.1757813,0.984375 -0.1875,1.0078125 -0.6328125,1.0546875 L 4.0968438,7.6951875 4.0499688,7.999875 4.507,7.9881562 c 0.515625,-0.023437 0.7265625,-0.023437 0.984375,-0.023437 l 1.0664063,0.035156 h 0.28125 L 6.8741875,7.6951875 6.335125,7.6600312 C 6.0421563,7.6365937 5.9366875,7.5545625 5.9366875,7.3319062 c 0,-0.09375 0.011719,-0.1992187 0.046875,-0.3867187 L 6.9093438,1.6365937 c 0,-0.023437 0.058594,-0.234375 0.1054687,-0.4335937 C 7.03825,1.10925 7.0499688,1.0389375 7.085125,0.8983125 7.4015313,0.828 7.6241875,0.8045625 7.9171563,0.8045625 c 0.9492187,0 1.453125,0.4335937 1.453125,1.2304687 0,1.0429688 -0.8554688,1.8046875 -1.9921875,1.8046875 H 6.897625 L 6.874188,3.9569062 C 8.327313,6.0897187 8.6671568,6.6170625 9.4874693,7.999875 L 10.202313,7.964719 h 0.210937 c 0.01172,0 0.164063,0.011719 0.375,0.035156 h 0.140625 V 7.7069062 c -0.433594,-0.058594 -0.5625,-0.140625 -0.878906,-0.609375 l -2.003906,-3 C 8.6437188,3.9920625 8.960125,3.8631562 9.3585625,3.5819062 9.991375,3.124875 10.331219,2.5155 10.331219,1.85925 c 0,-0.9375 -0.7031252,-1.46484375 -1.9101565,-1.44140625 L 6.7804375,0.453 c -0.1640625,0 -0.3632812,0 -1.640625,-0.0351563 z m 0,0"
         style="fill:#ff0000;fill-opacity:1;fill-rule:nonzero;stroke:none" />
    </g>
    <path
       id="path224"
       d="m -1.9910156,8.125e-4 c 0,1.1015625 0.890625,1.9921875 1.99218747,1.9921875 1.10156253,0 1.99218753,-0.890625 1.99218753,-1.9921875 0,-1.1015625 -0.890625,-1.9921875 -1.99218753,-1.9921875 -1.10156247,0 -1.99218747,0.890625 -1.99218747,1.9921875 z m 0,0"
       style="fill:#ffffff;fill-opacity:1;fill-rule:nonzero;stroke:none"
       aria-label="b"
       transform="matrix(0.42333331,0,0,0.42333331,20.07435,96.772661)"
       clip-path="url(#clipPath225)" />
    <g
       id="g225"
       aria-label="c&#10;S"
       transform="matrix(0.42333331,0,0,0.42333331,20.07435,96.772661)"
       clip-path="url(#clipPath228)">
      <path
         id="path226"
         d="m -1.7917969,8.125e-4 c 0,-0.984375 0.80859377,-1.7929688 1.79296877,-1.7929688 0.984375,0 1.79296873,0.8085938 1.79296873,1.7929688 0,0.984375 -0.80859373,1.7929687 -1.79296873,1.7929687 -0.984375,0 -1.79296877,-0.8085937 -1.79296877,-1.7929687 z m -0.1992187,0 c 0,1.1015625 0.890625,1.9921875 1.99218747,1.9921875 1.10156253,0 1.99218753,-0.890625 1.99218753,-1.9921875 0,-1.1015625 -0.890625,-1.9921875 -1.99218753,-1.9921875 -1.10156247,0 -1.99218747,0.890625 -1.99218747,1.9921875 z m 0,0"
         style="fill:#0000ff;fill-opacity:1;fill-rule:nonzero;stroke:none" />
      <path
         id="path227"
         d="m -4.8298828,-0.81071094 h 0.328125 c 0.046875,-0.58593746 0.1171875,-1.00781246 0.2695312,-1.47656246 -0.4921875,-0.2578125 -0.9257812,-0.3632813 -1.4414062,-0.3632813 -0.796875,0 -1.6289063,0.3398438 -2.203125,0.9257813 -0.46875,0.4453125 -0.6914063,1.00781246 -0.6914063,1.62890621 0,0.9375 0.4101563,1.44140629 1.3242188,1.66406249 l 1.0429687,0.2460938 c 0.5859375,0.1523437 0.8789063,0.5273437 0.8789063,1.1484375 0,1.0429687 -0.7734375,1.7578125 -1.8984375,1.7578125 -0.5859375,0 -1.0078125,-0.1289063 -1.4882813,-0.46875 v -1.078125 h -0.328125 c -0.058594,0.5976562 -0.140625,1.0898437 -0.2578125,1.6523437 0.5390625,0.28125 1.1132813,0.421875 1.6875,0.421875 1.6992188,0 3.1523438,-1.2773437 3.1523438,-2.7539062 0,-0.8554688 -0.46875,-1.3242188 -1.5820313,-1.55859379 l -0.703125,-0.15234375 c -0.7148437,-0.15234375 -1.0429687,-0.5625 -1.0429687,-1.27734375 0,-0.94921871 0.7265625,-1.64062501 1.734375,-1.64062501 0.5273437,0 0.890625,0.1523438 1.21875,0.4921875 z m 0,0"
         style="fill:#0000ff;fill-opacity:1;fill-rule:nonzero;stroke:none" />
    </g>
    <path
       id="path229"
       d="m -1.9931641,-9.921875e-4 c 0,1.1015624875 0.890625,1.9921874875 1.9921875375,1.9921874875 1.1015624625,0 1.9921874625,-0.890625 1.9921874625,-1.9921874875 0,-1.1015625125 -0.890625,-1.9921875125 -1.9921874625,-1.9921875125 -1.1015625375,0 -1.9921875375,0.890625 -1.9921875375,1.9921875125 z m 0,0"
       style="fill:#ffffff;fill-opacity:1;fill-rule:nonzero;stroke:none"
       aria-label="b"
       transform="matrix(0.42333331,0,0,0.42333331,68.884682,120.72359)"
       clip-path="url(#clipPath230)" />
    <g
       id="g230"
       aria-label="c&#10;T"
       transform="matrix(0.42333331,0,0,0.42333331,68.884682,120.72359)"
       clip-path="url(#clipPath233)">
      <path
         id="path231"
         d="m -1.7939453,-9.921875e-4 c 0,-0.9843750025 0.80859374,-1.7929687125 1.7929687375,-1.7929687125 0.9843750025,0 1.7929687625,0.80859371 1.7929687625,1.7929687125 C 1.7919922,0.98338281 0.98339844,1.7919766 -9.765625e-4,1.7919766 -0.98535156,1.7919766 -1.7939453,0.98338281 -1.7939453,-9.921875e-4 Z m -0.1992188,0 c 0,1.1015624875 0.890625,1.9921874875 1.9921875375,1.9921874875 1.1015624625,0 1.9921874625,-0.890625 1.9921874625,-1.9921874875 0,-1.1015625125 -0.890625,-1.9921875125 -1.9921874625,-1.9921875125 -1.1015625375,0 -1.9921875375,0.890625 -1.9921875375,1.9921875125 z m 0,0"
         style="fill:#0000ff;fill-opacity:1;fill-rule:nonzero;stroke:none" />
      <path
         id="path232"
         d="m 3.4150391,4.0536953 h 0.796875 c 0.8554687,0 1.2421875,0.046875 1.2773437,0.1757813 0.035156,0.09375 0.058594,0.3046875 0.046875,0.4101562 l -0.046875,0.6914063 h 0.3046875 l 0.2929688,-1.78125 -0.9960938,0.011719 c -0.9492187,0.011719 -1.6992187,0.023437 -2.0742187,0.023437 -0.4101563,0 -1.1015625,-0.011719 -2.03906254,-0.023437 l -1.04296875,-0.011719 -0.19921875,1.78125 H 0.05175781 L 0.21582031,4.6865078 C 0.27441406,4.4404141 0.34472656,4.2646328 0.41503906,4.1943203 0.48535156,4.1122891 0.89550781,4.0536953 1.2939453,4.0536953 h 1.2304688 l -0.9375,5.6835938 C 1.4111328,10.721664 1.3876953,10.75682 0.95410156,10.791977 l -0.5625,0.03516 -0.046875,0.304687 0.6328125,-0.01172 c 0.43359374,-0.01172 0.75000004,-0.02344 0.92578124,-0.02344 0.1992188,0 0.5390625,0.01172 0.9726563,0.02344 l 0.4804687,0.01172 0.023437,-0.304687 -0.6445312,-0.03516 c -0.28125,-0.01172 -0.3867188,-0.09375 -0.3867188,-0.328125 0,-0.09375 0.011719,-0.175782 0.046875,-0.386719 z m 0,0"
         style="fill:#0000ff;fill-opacity:1;fill-rule:nonzero;stroke:none" />
    </g>
    <path
       id="path234"
       d="m 5.63625,-1.7815469 c 0,-0.070312 -0.058594,-0.082031 -0.1171875,-0.082031 -0.1875,0 -0.4570312,0.1640625 -0.46875,0.1640625 -0.234375,0.1523437 -0.28125,0.234375 -0.4101562,0.421875 -0.3515625,0.53906247 -0.8554688,0.92578122 -1.59375,0.92578122 -1.0195313,0 -1.9453125,-0.73828122 -1.9453125,-2.44921872 0,-1.0195313 0.4101562,-2.3671875 1.0078125,-3.2695313 0.5039062,-0.7265625 1.1132812,-1.3242187 2.2851562,-1.3242187 0.4335938,0 0.7148438,0.1640625 0.7148438,0.5859375 0,0.3984375 -0.421875,1.2070312 -0.5625,1.4296875 -0.070312,0.1289062 -0.070312,0.1523437 -0.070312,0.1757812 0,0.082031 0.058594,0.082031 0.1289062,0.082031 0.2226563,0 0.6445313,-0.2578125 0.7851563,-0.4335938 0.023437,-0.046875 0.6796875,-1.1601562 0.6796875,-1.7460937 0,-0.6210938 -0.515625,-0.7148438 -0.9257813,-0.7148438 -1.640625,0 -3,1.078125 -3.515625,1.7226563 -1.359375,1.6289062 -1.48828125,3.3984375 -1.48828125,3.984375 0,1.66406247 0.83203125,2.57812497 2.15625005,2.57812497 1.828125,0 3.3398437,-1.76953127 3.3398432,-2.05078117 z m 0,0"
       style="fill:#000000;fill-opacity:1;fill-rule:nonzero;stroke:none"
       aria-label="C"
       transform="matrix(0.42333331,0,0,0.42333331,28.25315,59.186587)"
       clip-path="url(#clipPath235)" />
  </g>
</svg>
