<?xml version="1.0" encoding="UTF-8" standalone="no"?>
<!-- Created with Inkscape (http://www.inkscape.org/) -->

<svg
   width="108.75011mm"
   height="114.7498mm"
   viewBox="0 0 108.75011 114.7498"
   version="1.1"
   id="svg1"
   inkscape:version="1.4 (86a8ad7, 2024-10-11)"
   sodipodi:docname="figura4.svg"
   xmlns:inkscape="http://www.inkscape.org/namespaces/inkscape"
   xmlns:sodipodi="http://sodipodi.sourceforge.net/DTD/sodipodi-0.dtd"
   xmlns="http://www.w3.org/2000/svg"
   xmlns:svg="http://www.w3.org/2000/svg">
  <sodipodi:namedview
     id="namedview1"
     pagecolor="#ffffff"
     bordercolor="#000000"
     borderopacity="0.25"
     inkscape:showpageshadow="2"
     inkscape:pageopacity="0.0"
     inkscape:pagecheckerboard="0"
     inkscape:deskcolor="#d1d1d1"
     inkscape:document-units="mm"
     inkscape:zoom="0.49264169"
     inkscape:cx="291.28675"
     inkscape:cy="299.40625"
     inkscape:window-width="1366"
     inkscape:window-height="705"
     inkscape:window-x="-8"
     inkscape:window-y="-8"
     inkscape:window-maximized="1"
     inkscape:current-layer="layer1" />
  <defs
     id="defs1">
    <clipPath
       clipPathUnits="userSpaceOnUse"
       id="clipPath75">
      <path
         d="M 1519.2,1377.6 H 4601.88 V 4630.35 H 1519.2 Z"
         id="path75-6" />
    </clipPath>
    <clipPath
       clipPathUnits="userSpaceOnUse"
       id="clipPath77">
      <path
         d="M 1519.2,1377.6 H 4601.88 V 4630.35 H 1519.2 Z"
         id="path77-1" />
    </clipPath>
    <clipPath
       clipPathUnits="userSpaceOnUse"
       id="clipPath79">
      <path
         d="M 1519.2,1377.6 H 4601.88 V 4630.35 H 1519.2 Z"
         id="path79-4" />
    </clipPath>
    <clipPath
       clipPathUnits="userSpaceOnUse"
       id="clipPath81">
      <path
         d="M 1519.2,1377.6 H 4601.88 V 4630.35 H 1519.2 Z"
         id="path81-2" />
    </clipPath>
    <clipPath
       clipPathUnits="userSpaceOnUse"
       id="clipPath83">
      <path
         d="M 1519.2,1377.6 H 4601.88 V 4630.35 H 1519.2 Z"
         id="path83-3" />
    </clipPath>
    <clipPath
       clipPathUnits="userSpaceOnUse"
       id="clipPath85-2">
      <path
         d="M 1519.2,1377.6 H 4601.88 V 4630.35 H 1519.2 Z"
         id="path85-2" />
    </clipPath>
    <clipPath
       clipPathUnits="userSpaceOnUse"
       id="clipPath87-1">
      <path
         d="M 1519.2,1377.6 H 4601.88 V 4630.35 H 1519.2 Z"
         id="path87-6" />
    </clipPath>
    <clipPath
       clipPathUnits="userSpaceOnUse"
       id="clipPath89">
      <path
         d="M 1519.2,1377.6 H 4601.88 V 4630.35 H 1519.2 Z"
         id="path89-8" />
    </clipPath>
    <clipPath
       clipPathUnits="userSpaceOnUse"
       id="clipPath91-5">
      <path
         d="M 1519.2,1377.6 H 4601.88 V 4630.35 H 1519.2 Z"
         id="path91-7" />
    </clipPath>
    <clipPath
       clipPathUnits="userSpaceOnUse"
       id="clipPath93">
      <path
         d="M 1519.2,1377.6 H 4601.88 V 4630.35 H 1519.2 Z"
         id="path93-6" />
    </clipPath>
    <clipPath
       clipPathUnits="userSpaceOnUse"
       id="clipPath95">
      <path
         d="M 1519.2,1377.6 H 4601.88 V 4630.35 H 1519.2 Z"
         id="path95-1" />
    </clipPath>
    <clipPath
       clipPathUnits="userSpaceOnUse"
       id="clipPath97">
      <path
         d="M 1519.2,1377.6 H 4601.88 V 4630.35 H 1519.2 Z"
         id="path97-8" />
    </clipPath>
    <clipPath
       clipPathUnits="userSpaceOnUse"
       id="clipPath99">
      <path
         d="M 1519.2,1377.6 H 4601.88 V 4630.35 H 1519.2 Z"
         transform="matrix(0.1,0,0,-0.1,-264.49801,339.76001)"
         id="path99-9" />
    </clipPath>
    <clipPath
       clipPathUnits="userSpaceOnUse"
       id="clipPath102-2">
      <path
         d="M 1519.2,1377.6 H 4601.88 V 4630.35 H 1519.2 Z"
         transform="matrix(0.1,0,0,-0.1,-264.49801,339.76001)"
         id="path102-7" />
    </clipPath>
    <clipPath
       clipPathUnits="userSpaceOnUse"
       id="clipPath104-9">
      <path
         d="M 1519.2,1377.6 H 4601.88 V 4630.35 H 1519.2 Z"
         transform="matrix(0.1,0,0,-0.1,-279.38001,303.61801)"
         id="path104-5" />
    </clipPath>
    <clipPath
       clipPathUnits="userSpaceOnUse"
       id="clipPath107">
      <path
         d="M 1519.2,1377.6 H 4601.88 V 4630.35 H 1519.2 Z"
         transform="matrix(0.1,0,0,-0.1,-279.38001,303.61801)"
         id="path107-4" />
    </clipPath>
    <clipPath
       clipPathUnits="userSpaceOnUse"
       id="clipPath109">
      <path
         d="M 1519.2,1377.6 H 4601.88 V 4630.35 H 1519.2 Z"
         transform="matrix(0.1,0,0,-0.1,-332.52901,329.13001)"
         id="path109-3" />
    </clipPath>
    <clipPath
       clipPathUnits="userSpaceOnUse"
       id="clipPath112-1">
      <path
         d="M 1519.2,1377.6 H 4601.88 V 4630.35 H 1519.2 Z"
         transform="matrix(0.1,0,0,-0.1,-332.52901,329.13001)"
         id="path112-2" />
    </clipPath>
    <clipPath
       clipPathUnits="userSpaceOnUse"
       id="clipPath114">
      <path
         d="M 1519.2,1377.6 H 4601.88 V 4630.35 H 1519.2 Z"
         transform="matrix(0.1,0,0,-0.1,-375.92001,182.925)"
         id="path114-3" />
    </clipPath>
    <clipPath
       clipPathUnits="userSpaceOnUse"
       id="clipPath118">
      <path
         d="M 1519.2,1377.6 H 4601.88 V 4630.35 H 1519.2 Z"
         transform="matrix(0.1,0,0,-0.1,-375.92001,182.925)"
         id="path118-3" />
    </clipPath>
    <clipPath
       clipPathUnits="userSpaceOnUse"
       id="clipPath120-4">
      <path
         d="M 1519.2,1377.6 H 4601.88 V 4630.35 H 1519.2 Z"
         transform="matrix(0.1,0,0,-0.1,-188.088,293.41501)"
         id="path120-1" />
    </clipPath>
    <clipPath
       clipPathUnits="userSpaceOnUse"
       id="clipPath124">
      <path
         d="M 1519.2,1377.6 H 4601.88 V 4630.35 H 1519.2 Z"
         transform="matrix(0.1,0,0,-0.1,-188.088,293.41501)"
         id="path124-1" />
    </clipPath>
    <clipPath
       clipPathUnits="userSpaceOnUse"
       id="clipPath126">
      <path
         d="M 1519.2,1377.6 H 4601.88 V 4630.35 H 1519.2 Z"
         transform="matrix(0.1,0,0,-0.1,-188.088,447.31301)"
         id="path126-3" />
    </clipPath>
    <clipPath
       clipPathUnits="userSpaceOnUse"
       id="clipPath129">
      <path
         d="M 1519.2,1377.6 H 4601.88 V 4630.35 H 1519.2 Z"
         transform="matrix(0.1,0,0,-0.1,-188.088,447.31301)"
         id="path129-8" />
    </clipPath>
    <clipPath
       clipPathUnits="userSpaceOnUse"
       id="clipPath131">
      <path
         d="M 1519.2,1377.6 H 4601.88 V 4630.35 H 1519.2 Z"
         transform="matrix(0.1,0,0,-0.1,-432.93001,353.95501)"
         id="path131-7" />
    </clipPath>
    <clipPath
       clipPathUnits="userSpaceOnUse"
       id="clipPath134">
      <path
         d="M 1519.2,1377.6 H 4601.88 V 4630.35 H 1519.2 Z"
         transform="matrix(0.1,0,0,-0.1,-432.93001,353.95501)"
         id="path134-4" />
    </clipPath>
    <clipPath
       clipPathUnits="userSpaceOnUse"
       id="clipPath136-2">
      <path
         d="M 1519.2,1377.6 H 4601.88 V 4630.35 H 1519.2 Z"
         transform="matrix(0.1,0,0,-0.1,-271.47301,244.36401)"
         id="path136-7" />
    </clipPath>
    <clipPath
       clipPathUnits="userSpaceOnUse"
       id="clipPath139">
      <path
         d="M 1519.2,1377.6 H 4601.88 V 4630.35 H 1519.2 Z"
         transform="matrix(0.1,0,0,-0.1,-271.47301,244.36401)"
         id="path139-7" />
    </clipPath>
    <clipPath
       clipPathUnits="userSpaceOnUse"
       id="clipPath141-9">
      <path
         d="M 1519.2,1377.6 H 4601.88 V 4630.35 H 1519.2 Z"
         transform="matrix(0.1,0,0,-0.1,-303.00501,403.49501)"
         id="path141-3" />
    </clipPath>
    <clipPath
       clipPathUnits="userSpaceOnUse"
       id="clipPath144">
      <path
         d="M 1519.2,1377.6 H 4601.88 V 4630.35 H 1519.2 Z"
         transform="matrix(0.1,0,0,-0.1,-303.00501,403.49501)"
         id="path144-1" />
    </clipPath>
    <clipPath
       clipPathUnits="userSpaceOnUse"
       id="clipPath146">
      <path
         d="M 1519.2,1377.6 H 4601.88 V 4630.35 H 1519.2 Z"
         transform="matrix(0.1,0,0,-0.1,-341.31001,388.89001)"
         id="path146-9" />
    </clipPath>
    <clipPath
       clipPathUnits="userSpaceOnUse"
       id="clipPath149-8">
      <path
         d="M 1519.2,1377.6 H 4601.88 V 4630.35 H 1519.2 Z"
         transform="matrix(0.1,0,0,-0.1,-341.31001,388.89001)"
         id="path149-6" />
    </clipPath>
    <clipPath
       clipPathUnits="userSpaceOnUse"
       id="clipPath151">
      <path
         d="M 1519.2,1377.6 H 4601.88 V 4630.35 H 1519.2 Z"
         transform="matrix(0.1,0,0,-0.1,-245.32,308.01701)"
         id="path151-5" />
    </clipPath>
    <clipPath
       clipPathUnits="userSpaceOnUse"
       id="clipPath154-0">
      <path
         d="M 1519.2,1377.6 H 4601.88 V 4630.35 H 1519.2 Z"
         transform="matrix(0.1,0,0,-0.1,-245.32,308.01701)"
         id="path154-2" />
    </clipPath>
    <clipPath
       clipPathUnits="userSpaceOnUse"
       id="clipPath156">
      <path
         d="M 1519.2,1377.6 H 4601.88 V 4630.35 H 1519.2 Z"
         transform="matrix(0.1,0,0,-0.1,-346.07901,295.003)"
         id="path156-8" />
    </clipPath>
    <clipPath
       clipPathUnits="userSpaceOnUse"
       id="clipPath159">
      <path
         d="M 1519.2,1377.6 H 4601.88 V 4630.35 H 1519.2 Z"
         transform="matrix(0.1,0,0,-0.1,-346.07901,295.003)"
         id="path159-6" />
    </clipPath>
    <clipPath
       clipPathUnits="userSpaceOnUse"
       id="clipPath161">
      <path
         d="M 1519.2,1377.6 H 4601.88 V 4630.35 H 1519.2 Z"
         transform="matrix(0.1,0,0,-0.1,-238.98301,323.44001)"
         id="path161-0" />
    </clipPath>
    <clipPath
       clipPathUnits="userSpaceOnUse"
       id="clipPath164">
      <path
         d="M 1519.2,1377.6 H 4601.88 V 4630.35 H 1519.2 Z"
         transform="matrix(0.1,0,0,-0.1,-238.98301,323.44001)"
         id="path164-2" />
    </clipPath>
    <clipPath
       clipPathUnits="userSpaceOnUse"
       id="clipPath166">
      <path
         d="M 1519.2,1377.6 H 4601.88 V 4630.35 H 1519.2 Z"
         transform="matrix(0.1,0,0,-0.1,-325.45901,281.00701)"
         id="path166-4" />
    </clipPath>
    <clipPath
       clipPathUnits="userSpaceOnUse"
       id="clipPath169-8">
      <path
         d="M 1519.2,1377.6 H 4601.88 V 4630.35 H 1519.2 Z"
         transform="matrix(0.1,0,0,-0.1,-325.45901,281.00701)"
         id="path169-6" />
    </clipPath>
    <clipPath
       clipPathUnits="userSpaceOnUse"
       id="clipPath171-5">
      <path
         d="M 1519.2,1377.6 H 4601.88 V 4630.35 H 1519.2 Z"
         transform="matrix(0.1,0,0,-0.1,-252.634,395.32701)"
         id="path171-0" />
    </clipPath>
    <clipPath
       clipPathUnits="userSpaceOnUse"
       id="clipPath173-9">
      <path
         d="M 1519.2,1377.6 H 4601.88 V 4630.35 H 1519.2 Z"
         id="path173-0" />
    </clipPath>
    <clipPath
       clipPathUnits="userSpaceOnUse"
       id="clipPath175-0">
      <path
         d="M 1519.2,1377.6 H 4601.88 V 4630.35 H 1519.2 Z"
         id="path175-6" />
    </clipPath>
    <clipPath
       clipPathUnits="userSpaceOnUse"
       id="clipPath178">
      <path
         d="M 1519.2,1377.6 H 4601.88 V 4630.35 H 1519.2 Z"
         transform="matrix(0.1,0,0,-0.1,-200.60401,218.51101)"
         id="path178-1" />
    </clipPath>
    <clipPath
       clipPathUnits="userSpaceOnUse"
       id="clipPath180">
      <path
         d="M 1519.2,1377.6 H 4601.88 V 4630.35 H 1519.2 Z"
         id="path180-3" />
    </clipPath>
    <clipPath
       clipPathUnits="userSpaceOnUse"
       id="clipPath182">
      <path
         d="M 1519.2,1377.6 H 4601.88 V 4630.35 H 1519.2 Z"
         id="path182-8" />
    </clipPath>
    <clipPath
       clipPathUnits="userSpaceOnUse"
       id="clipPath185">
      <path
         d="M 1519.2,1377.6 H 4601.88 V 4630.35 H 1519.2 Z"
         transform="matrix(0.1,0,0,-0.1,-244.82301,196.05801)"
         id="path185-9" />
    </clipPath>
    <clipPath
       clipPathUnits="userSpaceOnUse"
       id="clipPath187">
      <path
         d="M 1519.2,1377.6 H 4601.88 V 4630.35 H 1519.2 Z"
         id="path187-3" />
    </clipPath>
    <clipPath
       clipPathUnits="userSpaceOnUse"
       id="clipPath189">
      <path
         d="M 1519.2,1377.6 H 4601.88 V 4630.35 H 1519.2 Z"
         id="path189-4" />
    </clipPath>
    <clipPath
       clipPathUnits="userSpaceOnUse"
       id="clipPath192">
      <path
         d="M 1519.2,1377.6 H 4601.88 V 4630.35 H 1519.2 Z"
         transform="matrix(0.1,0,0,-0.1,-345.51401,158.07201)"
         id="path192-4" />
    </clipPath>
  </defs>
  <g
     inkscape:label="Capa 1"
     inkscape:groupmode="layer"
     id="layer1"
     transform="translate(-27.781256,-69.320811)">
    <path
       id="path74-8"
       d="m 3644.19,3397.6 c 0,352.24 -285.55,637.79 -637.8,637.79 -352.24,0 -637.79,-285.55 -637.79,-637.79 0,-352.24 285.55,-637.8 637.79,-637.8 352.25,0 637.8,285.56 637.8,637.8 z"
       style="fill:none;stroke:#000000;stroke-width:5.97758;stroke-linecap:butt;stroke-linejoin:miter;stroke-miterlimit:10;stroke-dasharray:none;stroke-opacity:1"
       transform="matrix(0.03527778,0,0,-0.03527778,-25.812747,232.66928)"
       clip-path="url(#clipPath75)" />
    <path
       id="path76-0"
       d="M 3245.41,3492.49 3030.05,4034.95 2453.2,3080.17 3460.79,2950.03 Z"
       style="fill:#ff0000;fill-opacity:0.08;fill-rule:nonzero;stroke:#ff0000;stroke-width:5.97758;stroke-linecap:butt;stroke-linejoin:miter;stroke-miterlimit:10;stroke-dasharray:none;stroke-opacity:1"
       transform="matrix(0.03527778,0,0,-0.03527778,-25.812747,232.66928)"
       clip-path="url(#clipPath77)" />
    <path
       id="path78-1"
       d="m 3333.84,3349.48 79.26,539.42 -1023.27,-654.5 864.76,-424.33 z"
       style="fill:#0000ff;fill-opacity:0.08;fill-rule:nonzero;stroke:#0000ff;stroke-width:5.97758;stroke-linecap:butt;stroke-linejoin:miter;stroke-miterlimit:10;stroke-dasharray:none;stroke-opacity:1"
       transform="matrix(0.03527778,0,0,-0.03527778,-25.812747,232.66928)"
       clip-path="url(#clipPath79)" />
    <path
       id="path80-2"
       d="M 1880.88,-4468.54 V 10413.3"
       style="fill:none;stroke:#ff0000;stroke-width:5.97758;stroke-linecap:butt;stroke-linejoin:miter;stroke-miterlimit:10;stroke-dasharray:none;stroke-opacity:1"
       transform="matrix(0.03527778,0,0,-0.03527778,-25.812747,232.66928)"
       clip-path="url(#clipPath81)" />
    <path
       id="path82-5"
       d="m 1519.23,3146.88 65.07,-38.28 65.07,-38.27 65.06,-38.28 65.07,-38.27 65.07,-38.27 65.06,-38.28 65.07,-38.27 65.06,-38.28 65.07,-38.27 65.06,-38.27 65.07,-38.28 65.06,-38.27 65.07,-38.27 65.07,-38.28 65.06,-38.27 65.07,-38.28 65.07,-38.27 65.06,-38.27 65.06,-38.28 65.07,-38.27 65.07,-38.27 65.06,-38.28 65.07,-38.28 65.07,-38.27 65.06,-38.27 65.07,-38.28 65.06,-38.27 65.07,-38.27 65.06,-38.28 65.07,-38.27 65.07,-38.28 65.06,-38.27 65.07,-38.27 65.06,-38.28 65.07,-38.27 65.07,-38.28 65.06,-38.27 65.06,-38.28 65.07,-38.27 65.07,-38.27 65.06,-38.28 65.07,-38.27 65.07,-38.28 65.06,-38.27 65.07,-38.27 65.06,-38.28 65.07,-38.27 65.06,-38.27 65.07,-38.28"
       style="fill:none;stroke:#ff0000;stroke-width:5.97758;stroke-linecap:butt;stroke-linejoin:miter;stroke-miterlimit:10;stroke-dasharray:none;stroke-opacity:1"
       transform="matrix(0.03527778,0,0,-0.03527778,-25.812747,232.66928)"
       clip-path="url(#clipPath83)" />
    <path
       id="path84-0"
       d="m 1519.23,-4890.65 65.07,195.2 65.07,195.19 65.06,195.2 65.07,195.2 65.07,195.2 65.06,195.19 65.07,195.2 65.06,195.2 65.07,195.19 65.06,195.2 65.07,195.2 65.06,195.19 65.07,195.2 65.07,195.2 65.06,195.2 65.07,195.19 65.07,195.2 65.06,195.2 65.06,195.2 65.07,195.197 65.07,195.195 65.06,195.199 65.07,195.196 65.07,195.199 65.06,195.1952 65.07,195.1988 65.06,195.196 65.07,195.199 65.06,195.195 65.07,195.2 65.07,195.19 65.06,195.2 65.07,195.2 65.06,195.2 65.07,195.19 65.07,195.2 65.06,195.2 65.06,195.2 65.07,195.19 65.07,195.2 65.06,195.2 65.07,195.2 65.07,195.19 65.06,195.2 65.07,195.2 65.06,195.2 65.07,195.19 65.06,195.2 65.07,195.2"
       style="fill:none;stroke:#ff0000;stroke-width:5.97758;stroke-linecap:butt;stroke-linejoin:miter;stroke-miterlimit:10;stroke-dasharray:none;stroke-opacity:1"
       transform="matrix(0.03527778,0,0,-0.03527778,-25.812747,232.66928)"
       clip-path="url(#clipPath85-2)" />
    <path
       id="path86-9"
       d="m 1519.23,4982.16 65.07,-91.59 65.07,-91.58 65.06,-91.58 65.07,-91.59 65.07,-91.58 65.06,-91.59 65.07,-91.58 65.06,-91.59 65.07,-91.58 65.06,-91.59 65.07,-91.58 65.06,-91.59 65.07,-91.58 65.07,-91.59 65.06,-91.58 65.07,-91.59 65.07,-91.58 65.06,-91.58 65.06,-91.59 65.07,-91.59 65.07,-91.58 65.06,-91.58 65.07,-91.59 65.07,-91.58 65.06,-91.59 65.07,-91.58 65.06,-91.58 65.07,-91.59 65.06,-91.59 65.07,-91.58 65.07,-91.58 65.06,-91.59 65.07,-91.58 65.06,-91.59 65.07,-91.58 65.07,-91.59 65.06,-91.58 65.06,-91.58 65.07,-91.59 65.07,-91.59 65.06,-91.58 65.07,-91.58 65.07,-91.59 65.06,-91.582 65.07,-91.586 65.06,-91.586 65.07,-91.582 65.06,-91.586 65.07,-91.586"
       style="fill:none;stroke:#bfbfbf;stroke-width:5.97758;stroke-linecap:butt;stroke-linejoin:miter;stroke-miterlimit:10;stroke-dasharray:19.8732, 19.8732;stroke-dashoffset:0;stroke-opacity:1"
       transform="matrix(0.03527778,0,0,-0.03527778,-25.812747,232.66928)"
       clip-path="url(#clipPath87-1)" />
    <path
       id="path88-4"
       d="m 1519.23,2844.73 65.07,16.09 65.07,16.08 65.06,16.09 65.07,16.09 65.07,16.09 65.06,16.09 65.07,16.09 65.06,16.08 65.07,16.09 65.06,16.09 65.07,16.09 65.06,16.09 65.07,16.09 65.07,16.08 65.06,16.09 65.07,16.09 65.07,16.09 65.06,16.09 65.06,16.09 65.07,16.08 65.07,16.09 65.06,16.09 65.07,16.09 65.07,16.09 65.06,16.09 65.07,16.08 65.06,16.09 65.07,16.09 65.06,16.09 65.07,16.09 65.07,16.08 65.06,16.09 65.07,16.09 65.06,16.09 65.07,16.09 65.07,16.09 65.06,16.09 65.06,16.09 65.07,16.08 65.07,16.09 65.06,16.09 65.07,16.09 65.07,16.09 65.06,16.08 65.07,16.09 65.06,16.09 65.07,16.09 65.06,16.09 65.07,16.08"
       style="fill:none;stroke:#bfbfbf;stroke-width:5.97758;stroke-linecap:butt;stroke-linejoin:miter;stroke-miterlimit:10;stroke-dasharray:19.9045, 19.9045;stroke-dashoffset:0;stroke-opacity:1"
       transform="matrix(0.03527778,0,0,-0.03527778,-25.812747,232.66928)"
       clip-path="url(#clipPath89)" />
    <path
       id="path90-7"
       d="m 1519.23,-6516.05 65.07,487.63 65.07,487.64 65.06,487.64 65.07,487.63 65.07,487.64 65.06,487.64 65.07,487.64 65.06,487.63 65.07,487.64 65.06,487.64 65.07,487.63 65.06,487.64 65.07,487.637 65.07,487.636 65.06,487.637 65.07,487.64 65.07,487.63 65.06,487.64 65.06,487.64 65.07,487.64 65.07,487.63 65.06,487.64 65.07,487.64 65.07,487.63 65.06,487.64 65.07,487.64 65.06,487.63 65.07,487.64 65.06,487.64 65.07,487.63 65.07,487.64 65.06,487.64 65.07,487.64 65.06,487.63 65.07,487.6 65.07,487.7 65.06,487.6 65.06,487.6 65.07,487.7 65.07,487.6 65.06,487.7 65.07,487.6 65.07,487.6 65.06,487.7 65.07,487.6 65.06,487.6 65.07,487.7 65.06,487.6 65.07,487.7"
       style="fill:none;stroke:#bfbfbf;stroke-width:5.97758;stroke-linecap:butt;stroke-linejoin:miter;stroke-miterlimit:10;stroke-dasharray:19.9388, 19.9388;stroke-dashoffset:0;stroke-opacity:1"
       transform="matrix(0.03527778,0,0,-0.03527778,-25.812747,232.66928)"
       clip-path="url(#clipPath91-5)" />
    <path
       id="path92-8"
       d="M 1800.08,4669.77 2795.53,2247"
       style="fill:none;stroke:#86aaa5;stroke-width:5.97758;stroke-linecap:butt;stroke-linejoin:miter;stroke-miterlimit:10;stroke-dasharray:none;stroke-opacity:1"
       transform="matrix(0.03527778,0,0,-0.03527778,-25.812747,232.66928)"
       clip-path="url(#clipPath93)" />
    <path
       id="path94-3"
       d="m 2538.83,2324.25 1966.38,1334.7"
       style="fill:none;stroke:#86aaa5;stroke-width:5.97758;stroke-linecap:butt;stroke-linejoin:miter;stroke-miterlimit:10;stroke-dasharray:none;stroke-opacity:1"
       transform="matrix(0.03527778,0,0,-0.03527778,-25.812747,232.66928)"
       clip-path="url(#clipPath95)" />
    <path
       id="path96-5"
       d="M 1682.23,4548.87 4527.95,3463.81"
       style="fill:none;stroke:#86aaa5;stroke-width:5.97758;stroke-linecap:butt;stroke-linejoin:miter;stroke-miterlimit:10;stroke-dasharray:none;stroke-opacity:1"
       transform="matrix(0.03527778,0,0,-0.03527778,-25.812747,232.66928)"
       clip-path="url(#clipPath97)" />
    <path
       id="path98-1"
       d="m -1.9921406,0.00121094 c 0,1.10156246 0.890625,1.99218746 1.992187475,1.99218746 1.101562525,0 1.992187525,-0.890625 1.992187525,-1.99218746 0,-1.10156254 -0.890625,-1.99218754 -1.992187525,-1.99218754 -1.101562475,0 -1.992187475,0.890625 -1.992187475,1.99218754 z m 0,0"
       style="fill:#ffffff;fill-opacity:1;fill-rule:nonzero;stroke:none"
       aria-label="b"
       transform="matrix(0.35277776,0,0,0.35277776,67.496268,112.8095)"
       clip-path="url(#clipPath99)" />
    <g
       id="g99"
       aria-label="c&#10;A"
       transform="matrix(0.35277776,0,0,0.35277776,67.496268,112.8095)"
       clip-path="url(#clipPath102-2)">
      <path
         id="path100-2"
         d="m -1.7929219,0.00121094 c 0,-0.984375 0.80859378,-1.79296874 1.792968775,-1.79296874 0.984375005,0 1.792968725,0.80859374 1.792968725,1.79296874 0,0.984375 -0.80859372,1.79296876 -1.792968725,1.79296876 -0.984374995,0 -1.792968775,-0.80859376 -1.792968775,-1.79296876 z m -0.1992187,0 c 0,1.10156246 0.890625,1.99218746 1.992187475,1.99218746 1.101562525,0 1.992187525,-0.890625 1.992187525,-1.99218746 0,-1.10156254 -0.890625,-1.99218754 -1.992187525,-1.99218754 -1.101562475,0 -1.992187475,0.890625 -1.992187475,1.99218754 z m 0,0"
         style="fill:#000000;fill-opacity:1;fill-rule:nonzero;stroke:none" />
      <path
         id="path101-0"
         d="m -3.1347187,-11.289805 -4.0664063,6.4687503 c -0.3984375,0.609375 -0.5859375,0.7851563 -0.9609375,0.8671875 l -0.2226562,0.058594 v 0.328125 c 1.0078125,-0.035156 1.0078125,-0.035156 1.2304687,-0.035156 0.1992188,0 0.2226563,0 1.1601563,0.035156 v -0.3046875 l -0.5625,-0.035156 c -0.1757813,-0.011719 -0.3398438,-0.1054687 -0.3398438,-0.2109375 0,-0.082031 0.070312,-0.234375 0.28125,-0.5976562 l 1.1132813,-1.9101563 h 2.6835937 l 0.2695313,2.0507813 v 0.035156 c 0,0.011719 0.011719,0.046875 0.023437,0.09375 0.011719,0.09375 0.023437,0.1992188 0.023437,0.2460938 0,0.1757812 -0.1640625,0.2695312 -0.46875,0.2929687 l -0.4804688,0.035156 v 0.3046875 c 1.1132813,-0.035156 1.1132813,-0.035156 1.3359375,-0.035156 0.2109375,0 0.2109375,0 1.32421875,0.035156 v -0.3046875 l -0.28124995,-0.035156 c -0.515625,-0.082031 -0.5273438,-0.082031 -0.609375,-0.5625 l -0.9492188,-6.8203131 z m -0.140625,1.125 0.3984375,3.1523441 H -5.232375 Z m 0,0"
         style="fill:#000000;fill-opacity:1;fill-rule:nonzero;stroke:none" />
    </g>
    <path
       id="path103-1"
       d="m -1.9913281,-1.640625e-4 c 0,1.1015624625 0.890625,1.9921874625 1.992187475,1.9921874625 1.101562525,0 1.992187525,-0.890625 1.992187525,-1.9921874625 0,-1.1015625375 -0.890625,-1.9921875375 -1.992187525,-1.9921875375 -1.101562475,0 -1.992187475,0.890625 -1.992187475,1.9921875375 z m 0,0"
       style="fill:#ffffff;fill-opacity:1;fill-rule:nonzero;stroke:none"
       aria-label="b"
       transform="matrix(0.35277776,0,0,0.35277776,72.746308,125.5596)"
       clip-path="url(#clipPath104-9)" />
    <g
       id="g104"
       aria-label="c&#10;B"
       transform="matrix(0.35277776,0,0,0.35277776,72.746308,125.5596)"
       clip-path="url(#clipPath107)">
      <path
         id="path105-6"
         d="m -1.7921094,-1.640625e-4 c 0,-0.9843749975 0.80859378,-1.7929687375 1.792968775,-1.7929687375 0.984375005,0 1.792968725,0.80859374 1.792968725,1.7929687375 0,0.9843750025 -0.80859372,1.7929687625 -1.792968725,1.7929687625 -0.984374995,0 -1.792968775,-0.80859376 -1.792968775,-1.7929687625 z m -0.1992187,0 c 0,1.1015624625 0.890625,1.9921874625 1.992187475,1.9921874625 1.101562525,0 1.992187525,-0.890625 1.992187525,-1.9921874625 0,-1.1015625375 -0.890625,-1.9921875375 -1.992187525,-1.9921875375 -1.101562475,0 -1.992187475,0.890625 -1.992187475,1.9921875375 z m 0,0"
         style="fill:#000000;fill-opacity:1;fill-rule:nonzero;stroke:none" />
      <path
         id="path106-4"
         d="m -3.4473828,3.9754219 0.5859375,0.023437 c 0.2578125,0.011719 0.375,0.09375 0.375,0.2929687 0,0.1523438 -0.035156,0.5039063 -0.09375,0.8320313 l -0.9492188,5.4960941 c -0.046875,0.199219 -0.1757812,0.269531 -0.6328125,0.351563 l -0.058594,0.28125 0.4101562,-0.01172 c 0.2929688,-0.02344 0.4570313,-0.02344 0.5859375,-0.02344 0.1171875,0 0.3984375,0.01172 0.6914063,0.02344 l 0.3984375,0.01172 0.2226562,0.01172 c 0.1992188,0.01172 0.3398438,0.02344 0.4335938,0.02344 0.52734374,0 1.04296874,-0.152344 1.55859374,-0.46875 0.8671875,-0.503906 1.34765626,-1.2539069 1.34765626,-2.0742194 0,-0.46875 -0.1640625,-0.8320312 -0.45703126,-1.078125 -0.28125,-0.2226562 -0.609375,-0.328125 -1.359375,-0.4335937 0.62109375,-0.2109375 0.890625,-0.3515625 1.23046875,-0.65625 0.50390621,-0.421875 0.75000001,-0.9375 0.75000001,-1.4882813 0,-0.9023437 -0.63281251,-1.4179687 -1.72265626,-1.4179687 -0.0234375,0 -0.12890625,0 -0.29296875,0.011719 l -0.67968749,0.011719 c -0.140625,0.011719 -0.5273438,0.011719 -0.65625,0.011719 -0.2109375,0 -0.5507813,-0.011719 -1.078125,-0.023437 l -0.5742188,-0.011719 z m 1.3125,3.5273437 h 0.9257812 c 1.12500004,0 1.67578129,0.46875 1.67578129,1.4179688 0,1.1132816 -0.796875,1.9218746 -1.88671879,1.9218746 -0.2226562,0 -0.5390625,-0.01172 -0.9023437,-0.03516 -0.058594,-0.01172 -0.1992188,-0.02344 -0.3632813,-0.03516 z m 0.5976562,-3.375 c 0.1171875,0 0.140625,-0.011719 0.375,-0.023437 0.22265629,-0.023437 0.37500004,-0.035156 0.50390629,-0.035156 0.87890625,0 1.3125,0.3984375 1.3125,1.21875 0,1.1367187 -0.80859375,1.828125 -2.15624999,1.828125 h -0.5625 z m 0,0"
         style="fill:#000000;fill-opacity:1;fill-rule:nonzero;stroke:none" />
    </g>
    <path
       id="path108-0"
       d="M -1.9928672,1.171875e-4 C -1.9928672,1.1016797 -1.1022422,1.9923047 -6.796875e-4,1.9923047 1.1008828,1.9923047 1.9915078,1.1016797 1.9915078,1.171875e-4 1.9915078,-1.1014453 1.1008828,-1.9920703 -6.796875e-4,-1.9920703 -1.1022422,-1.9920703 -1.9928672,-1.1014453 -1.9928672,1.171875e-4 Z m 0,0"
       style="fill:#ffffff;fill-opacity:1;fill-rule:nonzero;stroke:none"
       aria-label="b"
       transform="matrix(0.35277776,0,0,0.35277776,91.496093,116.55953)"
       clip-path="url(#clipPath109)" />
    <g
       id="g109"
       aria-label="c&#10;C"
       transform="matrix(0.35277776,0,0,0.35277776,91.496093,116.55953)"
       clip-path="url(#clipPath112-1)">
      <path
         id="path110-6"
         d="m -1.7936484,1.171875e-4 c 0,-0.9843749975 0.80859371,-1.7929687875 1.7929687125,-1.7929687875 0.9843749975,0 1.7929687875,0.80859379 1.7929687875,1.7929687875 C 1.7922891,0.98449219 0.98369531,1.7930859 -6.796875e-4,1.7930859 -0.98505469,1.7930859 -1.7936484,0.98449219 -1.7936484,1.171875e-4 Z m -0.1992188,0 C -1.9928672,1.1016797 -1.1022422,1.9923047 -6.796875e-4,1.9923047 1.1008828,1.9923047 1.9915078,1.1016797 1.9915078,1.171875e-4 1.9915078,-1.1014453 1.1008828,-1.9920703 -6.796875e-4,-1.9920703 -1.1022422,-1.9920703 -1.9928672,-1.1014453 -1.9928672,1.171875e-4 Z m 0,0"
         style="fill:#000000;fill-opacity:1;fill-rule:nonzero;stroke:none" />
      <path
         id="path111-1"
         d="m 10.182914,-1.9393359 h 0.292969 c 0.05859,-0.6210938 0.140625,-1.0898438 0.292969,-1.59375 -0.8320317,-0.3164063 -1.4531254,-0.4453125 -2.1210942,-0.4453125 -0.9023437,0 -1.7929687,0.2695312 -2.5546875,0.7851562 -1.2773437,0.8554688 -1.9335937,2.1445313 -1.9335937,3.82031251 0,2.10937499 1.171875,3.29296879 3.2460937,3.29296879 1.0546875,0 1.828125,-0.2578125 2.8124997,-0.9257813 L 10.323539,2.5958203 10.21807,2.5255078 C 9.1868203,3.1466016 8.6243203,3.3341016 7.7688516,3.3341016 c -1.7109375,0 -2.6484375,-1.0429688 -2.6484375,-2.98828129 0,-1.20703125 0.3632812,-2.28515621 1.03125,-2.96484371 0.515625,-0.5273438 1.21875,-0.7851563 2.0742187,-0.7851563 0.7734375,0 1.3476563,0.1523438 1.9570312,0.5507813 z m 0,0"
         style="fill:#000000;fill-opacity:1;fill-rule:nonzero;stroke:none" />
    </g>
    <path
       id="path113-8"
       d="m -1.9922656,0.00117187 c 0,1.10156253 0.890625,1.99218753 1.992187475,1.99218753 1.101562525,0 1.992187525,-0.890625 1.992187525,-1.99218753 0,-1.10156247 -0.890625,-1.99218747 -1.992187525,-1.99218747 -1.101562475,0 -1.992187475,0.890625 -1.992187475,1.99218747 z m 0,0"
       style="fill:#ffffff;fill-opacity:1;fill-rule:nonzero;stroke:none"
       aria-label="b"
       transform="matrix(0.35277776,0,0,0.35277776,106.80347,168.13741)"
       clip-path="url(#clipPath114)" />
    <g
       id="g114"
       aria-label="c&#10;A&#10;′"
       transform="matrix(0.35277776,0,0,0.35277776,106.80347,168.13741)"
       clip-path="url(#clipPath118)">
      <path
         id="path115-9"
         d="m -1.7930469,0.00117187 c 0,-0.984375 0.80859378,-1.79296877 1.792968775,-1.79296877 0.984375005,0 1.792968725,0.80859377 1.792968725,1.79296877 0,0.984375 -0.80859372,1.79296873 -1.792968725,1.79296873 -0.984374995,0 -1.792968775,-0.80859373 -1.792968775,-1.79296873 z m -0.1992187,0 c 0,1.10156253 0.890625,1.99218753 1.992187475,1.99218753 1.101562525,0 1.992187525,-0.890625 1.992187525,-1.99218753 0,-1.10156247 -0.890625,-1.99218747 -1.992187525,-1.99218747 -1.101562475,0 -1.992187475,0.890625 -1.992187475,1.99218747 z m 0,0"
         style="fill:#000000;fill-opacity:1;fill-rule:nonzero;stroke:none" />
      <path
         id="path116-8"
         d="m 9.2928906,-7.9177734 -4.0664062,6.46875 c -0.3984375,0.60937496 -0.5859375,0.78515621 -0.9609375,0.86718746 l -0.2226563,0.0585938 v 0.328125 c 1.0078125,-0.0351563 1.0078125,-0.0351563 1.2304688,-0.0351563 0.1992187,0 0.2226562,0 1.1601562,0.0351563 v -0.3046875 l -0.5625,-0.0351563 c -0.1757812,-0.0117188 -0.3398437,-0.10546875 -0.3398437,-0.2109375 0,-0.0820313 0.070312,-0.234375 0.28125,-0.59765626 l 1.1132812,-1.9101562 h 2.6835938 l 0.2695312,2.0507812 v 0.035156 c 0,0.011719 0.011719,0.046875 0.023437,0.09375 0.011719,0.09375 0.023437,0.19921871 0.023437,0.24609371 0,0.17578125 -0.1640625,0.26953125 -0.46875,0.29296875 l -0.4804687,0.0351563 v 0.3046875 c 1.1132816,-0.0351563 1.1132816,-0.0351563 1.3359376,-0.0351563 0.210937,0 0.210937,0 1.324219,0.0351563 v -0.3046875 l -0.28125,-0.0351563 c -0.515625,-0.0820313 -0.527344,-0.0820313 -0.609375,-0.56249996 L 9.7967969,-7.9177734 Z m -0.140625,1.125 0.3984375,3.1523437 H 7.1952344 Z m 0,0"
         style="fill:#000000;fill-opacity:1;fill-rule:nonzero;stroke:none" />
      <path
         id="path117-4"
         d="m 14.510664,-8.1404297 c 0.04687,-0.09375 0.08203,-0.1757812 0.08203,-0.2578125 0,-0.234375 -0.222656,-0.4335937 -0.480468,-0.4335937 -0.234375,0 -0.375,0.1523437 -0.433594,0.375 l -0.996094,3.6210937 c 0,0.023437 -0.02344,0.1171875 -0.02344,0.1171875 0,0.09375 0.210937,0.1523438 0.28125,0.1523438 0.04687,0 0.05859,-0.023437 0.105468,-0.1289063 z m 0,0"
         style="fill:#000000;fill-opacity:1;fill-rule:nonzero;stroke:none" />
    </g>
    <path
       id="path119-1"
       d="m -1.9913203,9.375e-4 c 0,1.1015625 0.890625,1.9921875 1.9921874875,1.9921875 C 1.1024297,1.993125 1.9930547,1.1025 1.9930547,9.375e-4 1.9930547,-1.100625 1.1024297,-1.99125 8.671875e-4,-1.99125 -1.1006953,-1.99125 -1.9913203,-1.100625 -1.9913203,9.375e-4 Z m 0,0"
       style="fill:#ffffff;fill-opacity:1;fill-rule:nonzero;stroke:none"
       aria-label="b"
       transform="matrix(0.35277776,0,0,0.35277776,40.540519,129.15899)"
       clip-path="url(#clipPath120-4)" />
    <g
       id="g120"
       aria-label="c&#10;C&#10;′"
       transform="matrix(0.35277776,0,0,0.35277776,40.540519,129.15899)"
       clip-path="url(#clipPath124)">
      <path
         id="path121-4"
         d="m -1.7921016,9.375e-4 c 0,-0.984375 0.80859379,-1.7929688 1.7929687875,-1.7929688 0.9843750025,0 1.7929687125,0.8085938 1.7929687125,1.7929688 0,0.984375 -0.80859371,1.7929687 -1.7929687125,1.7929687 C -0.98350781,1.7939062 -1.7921016,0.9853125 -1.7921016,9.375e-4 Z m -0.1992187,0 c 0,1.1015625 0.890625,1.9921875 1.9921874875,1.9921875 C 1.1024297,1.993125 1.9930547,1.1025 1.9930547,9.375e-4 1.9930547,-1.100625 1.1024297,-1.99125 8.671875e-4,-1.99125 -1.1006953,-1.99125 -1.9913203,-1.100625 -1.9913203,9.375e-4 Z m 0,0"
         style="fill:#000000;fill-opacity:1;fill-rule:nonzero;stroke:none" />
      <path
         id="path122-3"
         d="m -7.0040156,4.7880469 h 0.2929687 c 0.058594,-0.6210938 0.140625,-1.0898438 0.2929688,-1.59375 -0.8320313,-0.3164063 -1.453125,-0.4453125 -2.1210938,-0.4453125 -0.9023437,0 -1.7929691,0.2695312 -2.5546871,0.7851562 -1.277344,0.8554688 -1.933594,2.1445313 -1.933594,3.8203125 0,2.109375 1.171875,3.2929689 3.2460936,3.2929689 1.0546875,0 1.828125,-0.257813 2.8125,-0.9257814 l 0.1054688,-0.3984375 -0.1054688,-0.070312 c -1.03125,0.6210938 -1.59375,0.8085939 -2.4492187,0.8085939 -1.7109379,0 -2.6484379,-1.0429689 -2.6484379,-2.9882814 0,-1.2070312 0.363282,-2.2851562 1.03125,-2.9648437 0.515625,-0.5273438 1.2187504,-0.7851563 2.0742191,-0.7851563 0.7734375,0 1.3476563,0.1523438 1.9570313,0.5507813 z m 0,0"
         style="fill:#000000;fill-opacity:1;fill-rule:nonzero;stroke:none" />
      <path
         id="path123-9"
         d="m -3.7403438,2.5380469 c 0.046875,-0.09375 0.082031,-0.1757813 0.082031,-0.2578125 0,-0.234375 -0.2226563,-0.4335938 -0.4804688,-0.4335938 -0.234375,0 -0.375,0.1523438 -0.4335937,0.375 l -0.9960938,3.6210938 c 0,0.023437 -0.023437,0.1171875 -0.023437,0.1171875 0,0.09375 0.2109375,0.1523437 0.28125,0.1523437 0.046875,0 0.058594,-0.023437 0.1054688,-0.1289062 z m 0,0"
         style="fill:#000000;fill-opacity:1;fill-rule:nonzero;stroke:none" />
    </g>
    <path
       id="path125-8"
       d="M -1.9913203,-4.765625e-4 C -1.9913203,1.1010859 -1.1006953,1.9917109 8.671875e-4,1.9917109 1.1024297,1.9917109 1.9930547,1.1010859 1.9930547,-4.765625e-4 1.9930547,-1.1020391 1.1024297,-1.9926641 8.671875e-4,-1.9926641 c -1.1015624875,0 -1.9921874875,0.890625 -1.9921874875,1.9921875375 z m 0,0"
       style="fill:#ffffff;fill-opacity:1;fill-rule:nonzero;stroke:none"
       aria-label="b"
       transform="matrix(0.35277776,0,0,0.35277776,40.540519,74.867196)"
       clip-path="url(#clipPath126)" />
    <g
       id="g126"
       aria-label="c&#10;D"
       transform="matrix(0.35277776,0,0,0.35277776,40.540519,74.867196)"
       clip-path="url(#clipPath129)">
      <path
         id="path127-8"
         d="m -1.7921016,-4.765625e-4 c 0,-0.9843749975 0.80859379,-1.7929687375 1.7929687875,-1.7929687375 0.9843750025,0 1.7929687125,0.80859374 1.7929687125,1.7929687375 C 1.7938359,0.98389844 0.98524219,1.7924922 8.671875e-4,1.7924922 -0.98350781,1.7924922 -1.7921016,0.98389844 -1.7921016,-4.765625e-4 Z m -0.1992187,0 C -1.9913203,1.1010859 -1.1006953,1.9917109 8.671875e-4,1.9917109 1.1024297,1.9917109 1.9930547,1.1010859 1.9930547,-4.765625e-4 1.9930547,-1.1020391 1.1024297,-1.9926641 8.671875e-4,-1.9926641 c -1.1015624875,0 -1.9921874875,0.890625 -1.9921874875,1.9921875375 z m 0,0"
         style="fill:#000000;fill-opacity:1;fill-rule:nonzero;stroke:none" />
      <path
         id="path128-0"
         d="m 3.2381719,-2.733875 -0.058594,0.28125 1.0195313,-0.035156 h 0.5976562 c 0.2109375,0 0.5507813,0.011719 1.0195313,0.023437 0.2226562,0.011719 0.3867187,0.011719 0.5039062,0.011719 0.7851563,0 1.3242188,-0.1171875 1.8867188,-0.4101563 1.6992187,-0.8671875 2.7539063,-2.5195312 2.7539063,-4.3242187 0,-1.0664063 -0.328125,-1.8398438 -0.9960938,-2.3085938 C 9.4608281,-9.8471563 8.5350469,-10.046375 7.5037969,-10.034656 L 5.2772344,-9.9995 H 5.1717656 c -0.1054687,0 -0.140625,0 -1.2421875,-0.035156 l -0.023437,0.3046872 0.5742188,0.023437 c 0.2578125,0.011719 0.375,0.09375 0.375,0.2929688 0,0.1523437 -0.035156,0.5039062 -0.09375,0.8320312 L 3.8123911,-3.085438 c -0.035156,0.1757812 -0.1523437,0.2578125 -0.4921875,0.328125 z m 2.5664062,-6.84375 c 0.1523438,0 0.2109375,-0.011719 0.5039063,-0.023437 0.3398437,-0.023437 0.5625,-0.035156 0.7617187,-0.035156 1.9804688,0 2.8828125,0.8320313 2.8828125,2.625 0,1.2773438 -0.4101562,2.4140625 -1.1484375,3.1757813 -0.5976562,0.5976562 -1.3945312,0.9023437 -2.34375,0.9023437 -0.4804687,0 -1.0078125,-0.058594 -1.7578125,-0.1640625 0,-0.1289062 0.011719,-0.2109375 0.046875,-0.4101562 z m 0,0"
         style="fill:#000000;fill-opacity:1;fill-rule:nonzero;stroke:none" />
    </g>
    <path
       id="path130-8"
       d="m -1.9934766,-0.00105469 c 0,1.10156249 0.890625,1.99218749 1.99218754,1.99218749 1.10156246,0 1.99218746,-0.890625 1.99218746,-1.99218749 0,-1.10156251 -0.890625,-1.99218751 -1.99218746,-1.99218751 -1.10156254,0 -1.99218754,0.890625 -1.99218754,1.99218751 z m 0,0"
       style="fill:#ffffff;fill-opacity:1;fill-rule:nonzero;stroke:none"
       aria-label="b"
       transform="matrix(0.35277776,0,0,0.35277776,126.91533,107.80182)"
       clip-path="url(#clipPath131)" />
    <g
       id="g131"
       aria-label="c&#10;E"
       transform="matrix(0.35277776,0,0,0.35277776,126.91533,107.80182)"
       clip-path="url(#clipPath134)">
      <path
         id="path132-7"
         d="m -1.7942578,-0.00105469 c 0,-0.984375 0.80859374,-1.79296871 1.79296874,-1.79296871 0.984375,0 1.79296876,0.80859371 1.79296876,1.79296871 0,0.984375 -0.80859376,1.79296879 -1.79296876,1.79296879 -0.984375,0 -1.79296874,-0.80859379 -1.79296874,-1.79296879 z m -0.1992188,0 c 0,1.10156249 0.890625,1.99218749 1.99218754,1.99218749 1.10156246,0 1.99218746,-0.890625 1.99218746,-1.99218749 0,-1.10156251 -0.890625,-1.99218751 -1.99218746,-1.99218751 -1.10156254,0 -1.99218754,0.890625 -1.99218754,1.99218751 z m 0,0"
         style="fill:#000000;fill-opacity:1;fill-rule:nonzero;stroke:none" />
      <path
         id="path133-7"
         d="m 1.5104297,7.5721875 h 1.2773437 c 0.2929688,0 0.6328125,0.011719 1.1484375,0.035156 L 4.2291797,7.6190625 4.4283984,7.126875 4.3932422,7.0448437 c -0.890625,0.046875 -1.546875,0.070312 -2.390625,0.070312 H 1.5924609 L 2.0494922,4.5135937 C 2.0846484,4.3378125 2.1080859,4.2557812 2.1549609,4.17375 L 2.6588672,4.150313 c 0.3515625,-0.011719 0.703125,-0.023437 0.9492187,-0.023437 0.6679688,0 1.1132813,0.09375 1.125,0.2578125 l 0.09375,0.9726562 H 5.0846484 C 5.1198047,4.6542187 5.1901172,4.1151562 5.3190234,3.705 5.0846484,3.681563 4.7565234,3.669844 4.5573047,3.669844 c -0.023437,0 -0.1523438,0 -0.4101563,0.011719 l -1.3125,0.011719 C 2.7408984,3.705 2.0963672,3.705 1.9908984,3.705 c -0.4101562,0 -0.703125,0 -1.25390621,-0.023437 l -0.4921875,-0.011719 -0.0351563,0.3046875 0.5859375,0.023437 c 0.26953121,0.011719 0.38671871,0.09375 0.38671871,0.2929688 0,0.1523437 -0.046875,0.5039062 -0.1054687,0.8320312 L 0.12761719,10.619062 c -0.03515625,0.199219 -0.1640625,0.269532 -0.64453125,0.351563 l -0.0585938,0.28125 0.4453125,-0.01172 c 0.33984375,-0.01172 1.01953125,-0.02344 1.23046876,-0.02344 l 2.34375,0.03516 h 0.1171875 c 0.1523438,0 0.421875,-0.01172 0.7851562,-0.02344 l 0.3632812,-0.01172 0.035156,-0.398438 c 0.023437,-0.210937 0.082031,-0.539062 0.1757812,-1.0781248 l 0.058594,-0.28125 H 4.6862109 L 4.5104297,10.115156 c -0.1171875,0.386719 -0.2109375,0.527344 -0.4453125,0.574219 -0.2226563,0.04687 -1.0195313,0.105469 -1.6054688,0.105469 -0.4453125,0 -0.6914062,-0.01172 -1.4414062,-0.08203 v -0.04687 c 0,-0.152343 0.011719,-0.234375 0.023437,-0.328125 z m 0,0"
         style="fill:#000000;fill-opacity:1;fill-rule:nonzero;stroke:none" />
    </g>
    <path
       id="path135-8"
       d="m -1.9915547,-0.00123437 c 0,1.10156247 0.890625,1.99218747 1.9921875125,1.99218747 1.1015624875,0 1.9921874875,-0.890625 1.9921874875,-1.99218747 0,-1.10156253 -0.890625,-1.99218753 -1.9921874875,-1.99218753 -1.1015625125,0 -1.9921875125,0.890625 -1.9921875125,1.99218753 z m 0,0"
       style="fill:#ffffff;fill-opacity:1;fill-rule:nonzero;stroke:none"
       aria-label="b"
       transform="matrix(0.35277776,0,0,0.35277776,69.956893,146.46309)"
       clip-path="url(#clipPath136-2)" />
    <g
       id="g136"
       aria-label="c&#10;F"
       transform="matrix(0.35277776,0,0,0.35277776,69.956893,146.46309)"
       clip-path="url(#clipPath139)">
      <path
         id="path137-3"
         d="m -1.7923359,-0.00123437 c 0,-0.984375 0.80859371,-1.79296873 1.7929687125,-1.79296873 0.9843749975,0 1.7929687875,0.80859373 1.7929687875,1.79296873 0,0.984375 -0.80859379,1.79296877 -1.7929687875,1.79296877 -0.9843750025,0 -1.7929687125,-0.80859377 -1.7929687125,-1.79296877 z m -0.1992188,0 c 0,1.10156247 0.890625,1.99218747 1.9921875125,1.99218747 1.1015624875,0 1.9921874875,-0.890625 1.9921874875,-1.99218747 0,-1.10156253 -0.890625,-1.99218753 -1.9921874875,-1.99218753 -1.1015625125,0 -1.9921875125,0.890625 -1.9921875125,1.99218753 z m 0,0"
         style="fill:#000000;fill-opacity:1;fill-rule:nonzero;stroke:none" />
      <path
         id="path138-8"
         d="m -1.8802266,4.6862656 1.16015629,-0.046875 c 0.6796875,0 1.11328125,0.09375 1.125,0.2578125 l 0.0820313,0.9726563 h 0.2695312 C 0.77992969,5.1784531 0.86196094,4.6276719 0.97914844,4.2175156 0.74477344,4.1940781 0.44008594,4.1823594 0.25258594,4.1823594 l -0.4453125,0.011719 -1.80468754,0.023437 h -0.3164062 c -0.2695313,0 -0.703125,-0.011719 -1.125,-0.023437 l -0.5273438,-0.011719 -0.035156,0.3046875 0.609375,0.023437 c 0.2578125,0.011719 0.375,0.1054687 0.375,0.2929687 0,0.1523438 -0.035156,0.5039063 -0.09375,0.8320313 l -0.8203125,4.7343741 c -0.1875,0.996094 -0.1875,1.007814 -0.6328125,1.054689 l -0.3867188,0.03516 -0.046875,0.304689 0.375,-0.01172 c 0.4335938,-0.01172 0.7851563,-0.02344 1.0078125,-0.02344 0.1992188,0 0.515625,0.01172 0.9375,0.02344 l 0.5742188,0.01172 0.035156,-0.304689 -0.703125,-0.03516 c -0.2929687,-0.01172 -0.3984375,-0.09375 -0.3984375,-0.316407 0,-0.07031 0.011719,-0.1875 0.023437,-0.234375 l 0.3984375,-2.4257811 h 1.2773438 c 0.2929687,0 0.63281249,0.011719 1.14843749,0.035156 h 0.29296875 l 0.19921925,-0.480468 -0.0351563,-0.082031 c -0.890625,0.046875 -1.54687499,0.070312 -2.39062499,0.070312 h -0.4101562 l 0.5039062,-2.9648437 c 0.035156,-0.1757813 0.046875,-0.2226563 0.09375,-0.3398438 z m 0,0"
         style="fill:#000000;fill-opacity:1;fill-rule:nonzero;stroke:none" />
    </g>
    <path
       id="path140-3"
       d="m -1.9913281,8.59375e-4 c 0,1.101562525 0.890625,1.992187525 1.992187475,1.992187525 1.101562525,0 1.992187525,-0.890625 1.992187525,-1.992187525 0,-1.101562475 -0.890625,-1.992187475 -1.992187525,-1.992187475 -1.101562475,0 -1.992187475,0.890625 -1.992187475,1.992187475 z m 0,0"
       style="fill:#ffffff;fill-opacity:1;fill-rule:nonzero;stroke:none"
       aria-label="b"
       transform="matrix(0.35277776,0,0,0.35277776,81.080683,90.325213)"
       clip-path="url(#clipPath141-9)" />
    <g
       id="g141"
       aria-label="c&#10;N"
       transform="matrix(0.35277776,0,0,0.35277776,81.080683,90.325213)"
       clip-path="url(#clipPath144)">
      <path
         id="path142-7"
         d="m -1.7921094,8.59375e-4 c 0,-0.984375005 0.80859378,-1.792968775 1.792968775,-1.792968775 0.984375005,0 1.792968725,0.80859377 1.792968725,1.792968775 0,0.984374995 -0.80859372,1.792968725 -1.792968725,1.792968725 -0.984374995,0 -1.792968775,-0.80859373 -1.792968775,-1.792968725 z m -0.1992187,0 c 0,1.101562525 0.890625,1.992187525 1.992187475,1.992187525 1.101562525,0 1.992187525,-0.890625 1.992187525,-1.992187525 0,-1.101562475 -0.890625,-1.992187475 -1.992187525,-1.992187475 -1.101562475,0 -1.992187475,0.890625 -1.992187475,1.992187475 z m 0,0"
         style="fill:#ff0000;fill-opacity:1;fill-rule:nonzero;stroke:none" />
      <path
         id="path143-1"
         d="m -0.14269531,-11.231563 -0.89062499,0.03516 h -0.2578125 c -0.035156,0 -0.1992188,-0.01172 -0.4453125,-0.02344 l -0.1757813,-0.01172 -0.058594,0.304688 0.3867187,0.02344 c 0.1875,0.01172 0.421875,0.08203 0.5390625,0.1875 0.16406254,0.128907 0.32812504,0.328125 0.32812504,0.421875 0,0.01172 0,0.04687 -0.0117188,0.07031 0,0.01172 0,0.03516 -0.0117188,0.05859 -0.0117188,0.08203 -0.0117188,0.164062 -0.0234375,0.1992185 L -1.724727,-4.7979728 c -0.140625,0.6796875 -0.1992187,0.7617188 -0.5976562,0.8085938 l -0.328125,0.035156 -0.058594,0.3046875 1.2070313,-0.035156 c 0.1289062,0 0.140625,0 1.20703124,0.035156 l 0.046875,-0.3046875 -0.45703125,-0.035156 C -1.1387897,-4.024535 -1.2325397,-4.1065665 -1.2325397,-4.4698478 c 0,-0.082031 0,-0.2109375 0.023437,-0.328125 l 0.87890629,-5.0625 L 3.3494922,-3.5675 h 0.5507812 l 1.03125,-6.0351563 C 5.1541797,-10.833125 5.1776172,-10.88 5.5760547,-10.903438 l 0.4101562,-0.02344 0.058594,-0.304688 h -0.234375 l -0.9726563,0.03516 -0.9375,-0.03516 H 3.6893359 l -0.046875,0.304688 0.5039063,0.02344 c 0.2929687,0.01172 0.3984375,0.08203 0.3984375,0.257813 0,0.08203 -0.035156,0.363281 -0.058594,0.503906 l -0.8671875,5.3320315 z m 0,0"
         style="fill:#ff0000;fill-opacity:1;fill-rule:nonzero;stroke:none" />
    </g>
    <path
       id="path145-0"
       d="m -1.9935938,3.515625e-4 c 0,1.1015625375 0.890625,1.9921875375 1.99218755,1.9921875375 1.10156245,0 1.99218745,-0.890625 1.99218745,-1.9921875375 0,-1.1015624625 -0.890625,-1.9921874625 -1.99218745,-1.9921874625 -1.10156255,0 -1.99218755,0.890625 -1.99218755,1.9921874625 z m 0,0"
       style="fill:#ffffff;fill-opacity:1;fill-rule:nonzero;stroke:none"
       aria-label="b"
       transform="matrix(0.35277776,0,0,0.35277776,94.593835,95.477531)"
       clip-path="url(#clipPath146)" />
    <g
       id="g146"
       aria-label="c&#10;P"
       transform="matrix(0.35277776,0,0,0.35277776,94.593835,95.477531)"
       clip-path="url(#clipPath149-8)">
      <path
         id="path147-7"
         d="m -1.794375,3.515625e-4 c 0,-0.9843750025 0.80859375,-1.7929687625 1.79296875,-1.7929687625 0.984375,0 1.79296875,0.80859376 1.79296875,1.7929687625 0,0.9843749975 -0.80859375,1.7929687375 -1.79296875,1.7929687375 -0.984375,0 -1.79296875,-0.80859374 -1.79296875,-1.7929687375 z m -0.1992188,0 c 0,1.1015625375 0.890625,1.9921875375 1.99218755,1.9921875375 1.10156245,0 1.99218745,-0.890625 1.99218745,-1.9921875375 0,-1.1015624625 -0.890625,-1.9921874625 -1.99218745,-1.9921874625 -1.10156255,0 -1.99218755,0.890625 -1.99218755,1.9921874625 z m 0,0"
         style="fill:#0000ff;fill-opacity:1;fill-rule:nonzero;stroke:none" />
      <path
         id="path148-3"
         d="m 2.0200781,-10.739883 0.5976563,0.02344 c 0.2578125,0.01172 0.3867187,0.09375 0.3867187,0.292968 0,0.152344 -0.046875,0.4921879 -0.1054687,0.8320317 l -0.8085938,4.734375 c -0.1875,0.984375 -0.1875,1.0195312 -0.6328125,1.0546875 l -0.4453125,0.035156 -0.046875,0.3046875 0.4570313,-0.011719 c 0.4570312,-0.011719 0.796875,-0.023437 0.984375,-0.023437 0.1875,0 0.5039062,0.011719 0.9375,0.023437 l 0.5859375,0.011719 0.023437,-0.3046875 -0.703125,-0.035156 c -0.28125,-0.011719 -0.3984375,-0.09375 -0.3984375,-0.328125 0,-0.09375 0.011719,-0.1757813 0.046875,-0.3867188 l 0.9023437,-5.3085937 c 0,-0.011719 0.035156,-0.2343747 0.09375,-0.4335937 0.011719,-0.05859 0.046875,-0.164063 0.070312,-0.304688 0.3984375,-0.07031 0.5742188,-0.09375 0.7851563,-0.09375 1.1015625,0 1.640625,0.480469 1.640625,1.5000004 0,1.171875 -0.7851563,2.1328125 -1.7460938,2.1328125 -0.234375,0 -0.4570312,-0.046875 -0.8554687,-0.1992187 l 0.011719,0.328125 c 0.4101563,0.1992187 0.6328125,0.2578125 0.9492188,0.2578125 1.40625,0 2.6015625,-1.2773438 2.6015625,-2.765625 0,-1.1015627 -0.6914063,-1.6757817 -1.9804688,-1.6406247 l -1.5117187,0.03516 -1.2304688,-0.02344 -0.5742187,-0.01172 z m 0,0"
         style="fill:#0000ff;fill-opacity:1;fill-rule:nonzero;stroke:none" />
    </g>
    <path
       id="path150-4"
       d="m -1.991875,0.001375 c 0,1.1015625 0.890625,1.9921875 1.9921875,1.9921875 1.1015625,0 1.9921875,-0.890625 1.9921875,-1.9921875 0,-1.1015625 -0.890625,-1.9921875 -1.9921875,-1.9921875 -1.1015625,0 -1.9921875,0.890625 -1.9921875,1.9921875 z m 0,0"
       style="fill:#ffffff;fill-opacity:1;fill-rule:nonzero;stroke:none"
       aria-label="b"
       transform="matrix(0.35277776,0,0,0.35277776,60.730695,124.00773)"
       clip-path="url(#clipPath151)" />
    <g
       id="g151"
       aria-label="c&#10;Q"
       transform="matrix(0.35277776,0,0,0.35277776,60.730695,124.00773)"
       clip-path="url(#clipPath154-0)">
      <path
         id="path152-9"
         d="m -1.7926563,0.001375 c 0,-0.984375 0.8085938,-1.7929688 1.7929688,-1.7929688 0.984375,0 1.7929687,0.8085938 1.7929687,1.7929688 0,0.984375 -0.8085937,1.7929687 -1.7929687,1.7929687 -0.984375,0 -1.7929688,-0.8085937 -1.7929688,-1.7929687 z m -0.1992187,0 c 0,1.1015625 0.890625,1.9921875 1.9921875,1.9921875 1.1015625,0 1.9921875,-0.890625 1.9921875,-1.9921875 0,-1.1015625 -0.890625,-1.9921875 -1.9921875,-1.9921875 -1.1015625,0 -1.9921875,0.890625 -1.9921875,1.9921875 z m 0,0"
         style="fill:#ff0000;fill-opacity:1;fill-rule:nonzero;stroke:none" />
      <path
         id="path153-6"
         d="m -10.564141,9.5550859 c 0,-0.84375 0.257813,-1.2304687 0.8320316,-1.2304687 0.3164063,0 0.6210938,0.082031 1.0546875,0.3164062 l 1.5820313,0.8320313 c 0.6445312,0.3398437 0.84375,0.3984375 1.2773437,0.3984375 0.8203125,0 1.21875,-0.46875 1.3242188,-1.5234375 h -0.2695313 c -0.070312,0.5859375 -0.3046875,0.8554687 -0.7382812,0.8554687 -0.1875,0 -0.3984375,-0.046875 -0.6796875,-0.1640625 l -2.578125,-1.0429687 c -0.2695313,-0.1054688 -0.46875,-0.1523438 -0.7148438,-0.1523438 -0.8085941,0 -1.3710941,0.5507813 -1.3710941,1.3828125 0,0.023437 0,0.1054688 0.01172,0.1875 z m 3.4101566,-9.57421871 c -2.5898437,0 -4.4882816,1.99218751 -4.4882816,4.73437501 0,2.0625 1.03125,3.1640625 2.9531254,3.1640625 0.9257812,0 1.6992187,-0.2109375 2.4023437,-0.65625 1.3828125,-0.8554688 2.2265625,-2.4609375 2.2265625,-4.1835938 0,-1.9335937 -1.125,-3.05859371 -3.09375,-3.05859371 z m -0.3398437,0.45703125 c 0.5273437,0 1.0546875,0.12890625 1.4179687,0.3515625 0.7148438,0.41015626 1.0546875,1.23046876 1.0546875,2.42578126 0,1.3828125 -0.4335937,2.6132812 -1.171875,3.375 -0.5390625,0.5390625 -1.2421875,0.8320312 -2.0976562,0.8320312 -1.5703125,0 -2.3906249,-0.9375 -2.3906249,-2.765625 0,-1.4179687 0.445312,-2.6953125 1.1953124,-3.4453125 0.515625,-0.52734371 1.1601562,-0.77343746 1.9921875,-0.77343746 z m 0,0"
         style="fill:#ff0000;fill-opacity:1;fill-rule:nonzero;stroke:none" />
    </g>
    <path
       id="path155-5"
       d="m -1.9930625,0.00104687 c 0,1.10156253 0.890625,1.99218753 1.9921875,1.99218753 1.1015625,0 1.9921875,-0.890625 1.9921875,-1.99218753 0,-1.10156247 -0.890625,-1.99218747 -1.9921875,-1.99218747 -1.1015625,0 -1.9921875,0.890625 -1.9921875,1.99218747 z m 0,0"
       style="fill:#ffffff;fill-opacity:1;fill-rule:nonzero;stroke:none"
       aria-label="b"
       transform="matrix(0.35277776,0,0,0.35277776,96.276233,128.59878)"
       clip-path="url(#clipPath156)" />
    <g
       id="g156"
       aria-label="c&#10;R"
       transform="matrix(0.35277776,0,0,0.35277776,96.276233,128.59878)"
       clip-path="url(#clipPath159)">
      <path
         id="path157-1"
         d="m -1.7938438,0.00104687 c 0,-0.984375 0.8085938,-1.79296877 1.7929688,-1.79296877 0.984375,0 1.7929687,0.80859377 1.7929687,1.79296877 0,0.984375 -0.8085937,1.79296873 -1.7929687,1.79296873 -0.984375,0 -1.7929688,-0.80859373 -1.7929688,-1.79296873 z m -0.1992187,0 c 0,1.10156253 0.890625,1.99218753 1.9921875,1.99218753 1.1015625,0 1.9921875,-0.890625 1.9921875,-1.99218753 0,-1.10156247 -0.890625,-1.99218747 -1.9921875,-1.99218747 -1.1015625,0 -1.9921875,0.890625 -1.9921875,1.99218747 z m 0,0"
         style="fill:#ff0000;fill-opacity:1;fill-rule:nonzero;stroke:none" />
      <path
         id="path158-0"
         d="m 5.1055703,0.84186719 0.609375,0.0234375 c 0.2578125,0.0117188 0.375,0.09375 0.375,0.29296871 0,0.1523438 -0.035156,0.5039063 -0.09375,0.8320313 l -0.8203125,4.734375 c -0.1757812,0.984375 -0.1875,1.0078125 -0.6328125,1.0546875 l -0.4453125,0.035156 -0.046875,0.3046875 0.4570313,-0.011719 c 0.515625,-0.023437 0.7265625,-0.023437 0.984375,-0.023437 l 1.0664062,0.035156 h 0.28125 L 6.8751016,7.8145234 6.3360391,7.7793672 C 6.0430703,7.7559297 5.9376016,7.6738984 5.9376016,7.4512422 c 0,-0.09375 0.011719,-0.1992188 0.046875,-0.3867188 L 6.9102578,1.7559297 c 0,-0.023437 0.058594,-0.234375 0.1054688,-0.4335938 0.023437,-0.09375 0.035156,-0.1640625 0.070312,-0.3046875 0.3164062,-0.0703125 0.5390625,-0.09375 0.8320312,-0.09375 0.9492188,0 1.453125,0.4335938 1.453125,1.2304688 0,1.0429687 -0.8554687,1.8046875 -1.9921875,1.8046875 H 6.8985391 l -0.023437,0.1171875 c 1.453125,2.1328125 1.7929687,2.6601562 2.6132812,4.0429687 l 0.7148437,-0.035156 h 0.210937 c 0.01172,0 0.164063,0.011719 0.375,0.035156 h 0.140625 V 7.8262422 c -0.433594,-0.058594 -0.5625,-0.140625 -0.878906,-0.609375 l -2.0039059,-3 c 0.5976562,-0.1054688 0.9140625,-0.234375 1.3125,-0.515625 0.6328125,-0.4570313 0.9726559,-1.0664063 0.9726559,-1.7226563 0,-0.9375 -0.7031247,-1.46484371 -1.9101559,-1.44140621 l -1.640625,0.0351563 c -0.1640625,0 -0.3632813,0 -1.640625,-0.0351563 z m 0,0"
         style="fill:#ff0000;fill-opacity:1;fill-rule:nonzero;stroke:none" />
    </g>
    <path
       id="path160-9"
       d="M -1.9917891,-4.296875e-4 C -1.9917891,1.1011328 -1.1011641,1.9917578 3.984375e-4,1.9917578 1.1019609,1.9917578 1.9925859,1.1011328 1.9925859,-4.296875e-4 1.9925859,-1.1019922 1.1019609,-1.9926172 3.984375e-4,-1.9926172 c -1.1015625375,0 -1.9921875375,0.890625 -1.9921875375,1.9921875125 z m 0,0"
       style="fill:#ffffff;fill-opacity:1;fill-rule:nonzero;stroke:none"
       aria-label="b"
       transform="matrix(0.35277776,0,0,0.35277776,58.495144,118.56684)"
       clip-path="url(#clipPath161)" />
    <g
       id="g161"
       aria-label="c&#10;S"
       transform="matrix(0.35277776,0,0,0.35277776,58.495144,118.56684)"
       clip-path="url(#clipPath164)">
      <path
         id="path162-9"
         d="m -1.7925703,-4.296875e-4 c 0,-0.9843750025 0.80859374,-1.7929687125 1.7929687375,-1.7929687125 0.9843750025,0 1.7929687625,0.80859371 1.7929687625,1.7929687125 C 1.7933672,0.98394531 0.98477344,1.7925391 3.984375e-4,1.7925391 -0.98397656,1.7925391 -1.7925703,0.98394531 -1.7925703,-4.296875e-4 Z m -0.1992188,0 C -1.9917891,1.1011328 -1.1011641,1.9917578 3.984375e-4,1.9917578 1.1019609,1.9917578 1.9925859,1.1011328 1.9925859,-4.296875e-4 1.9925859,-1.1019922 1.1019609,-1.9926172 3.984375e-4,-1.9926172 c -1.1015625375,0 -1.9921875375,0.890625 -1.9921875375,1.9921875125 z m 0,0"
         style="fill:#0000ff;fill-opacity:1;fill-rule:nonzero;stroke:none" />
      <path
         id="path163-6"
         d="m -4.8277266,-0.81195313 h 0.328125 c 0.046875,-0.58593747 0.1171875,-1.00781247 0.2695313,-1.47656247 -0.4921875,-0.2578125 -0.9257813,-0.3632813 -1.4414063,-0.3632813 -0.796875,0 -1.6289062,0.3398438 -2.203125,0.9257813 -0.46875,0.4453125 -0.6914062,1.00781247 -0.6914062,1.62890622 0,0.9375 0.4101562,1.44140628 1.3242187,1.66406248 l 1.0429688,0.2460938 c 0.5859375,0.1523437 0.8789062,0.5273437 0.8789062,1.1484375 0,1.0429687 -0.7734375,1.7578125 -1.8984375,1.7578125 -0.5859375,0 -1.0078125,-0.1289063 -1.4882812,-0.46875 v -1.078125 h -0.328125 c -0.058594,0.5976562 -0.140625,1.0898437 -0.2578125,1.6523437 0.5390625,0.28125 1.1132812,0.421875 1.6875,0.421875 1.6992187,0 3.1523437,-1.2773437 3.1523437,-2.7539062 0,-0.8554688 -0.46875,-1.3242188 -1.5820312,-1.55859378 l -0.703125,-0.15234375 c -0.7148438,-0.15234375 -1.0429688,-0.5625 -1.0429688,-1.27734375 0,-0.94921872 0.7265625,-1.64062502 1.734375,-1.64062502 0.5273438,0 0.890625,0.1523438 1.21875,0.4921875 z m 0,0"
         style="fill:#0000ff;fill-opacity:1;fill-rule:nonzero;stroke:none" />
    </g>
    <path
       id="path165-8"
       d="m -1.9922031,1.640625e-4 c 0,1.1015625375 0.890625,1.9921875375 1.992187475,1.9921875375 1.101562525,0 1.992187525,-0.890625 1.992187525,-1.9921875375 0,-1.1015624625 -0.890625,-1.9921874625 -1.992187525,-1.9921874625 -1.101562475,0 -1.992187475,0.890625 -1.992187475,1.9921874625 z m 0,0"
       style="fill:#ffffff;fill-opacity:1;fill-rule:nonzero;stroke:none"
       aria-label="b"
       transform="matrix(0.35277776,0,0,0.35277776,89.001953,133.53626)"
       clip-path="url(#clipPath166)" />
    <g
       id="g166"
       aria-label="c&#10;T"
       transform="matrix(0.35277776,0,0,0.35277776,89.001953,133.53626)"
       clip-path="url(#clipPath169-8)">
      <path
         id="path167-3"
         d="m -1.7929844,1.640625e-4 c 0,-0.9843750025 0.80859377,-1.7929687625 1.792968775,-1.7929687625 0.984374995,0 1.792968725,0.80859376 1.792968725,1.7929687625 C 1.7929531,0.98453906 0.98435937,1.7931328 -1.5625e-5,1.7931328 -0.98439063,1.7931328 -1.7929844,0.98453906 -1.7929844,1.640625e-4 Z m -0.1992187,0 c 0,1.1015625375 0.890625,1.9921875375 1.992187475,1.9921875375 1.101562525,0 1.992187525,-0.890625 1.992187525,-1.9921875375 0,-1.1015624625 -0.890625,-1.9921874625 -1.992187525,-1.9921874625 -1.101562475,0 -1.992187475,0.890625 -1.992187475,1.9921874625 z m 0,0"
         style="fill:#0000ff;fill-opacity:1;fill-rule:nonzero;stroke:none" />
      <path
         id="path168-4"
         d="m 3.4130703,4.1749687 h 0.796875 c 0.8554688,0 1.2421875,0.046875 1.2773438,0.1757813 0.035156,0.09375 0.058594,0.3046875 0.046875,0.4101562 l -0.046875,0.6914063 h 0.3046875 l 0.2929687,-1.78125 -0.9960937,0.011719 C 4.1396328,3.6945 3.3896328,3.7062187 3.0146328,3.7062187 c -0.4101562,0 -1.1015625,-0.011719 -2.03906249,-0.023437 l -1.04296875,-0.011719 -0.19921875,1.78125 H 0.04978906 L 0.21385156,4.8077812 C 0.27244531,4.5616875 0.34275781,4.3859062 0.41307031,4.3155937 0.48338281,4.2335625 0.89353906,4.1749687 1.2919766,4.1749687 h 1.2304687 l -0.9375,5.6835938 C 1.4091641,10.842937 1.3857266,10.878094 0.95213281,10.91325 l -0.5625,0.03516 -0.046875,0.304688 0.6328125,-0.01172 c 0.43359379,-0.01172 0.74999999,-0.02344 0.92578129,-0.02344 0.1992187,0 0.5390625,0.01172 0.9726562,0.02344 l 0.4804688,0.01172 0.023437,-0.304688 -0.6445313,-0.03516 c -0.28125,-0.01172 -0.3867187,-0.09375 -0.3867187,-0.328125 0,-0.09375 0.011719,-0.175781 0.046875,-0.386719 z m 0,0"
         style="fill:#0000ff;fill-opacity:1;fill-rule:nonzero;stroke:none" />
    </g>
    <path
       id="path170-8"
       d="m 5.6355313,-1.7804219 c 0,-0.070312 -0.058594,-0.082031 -0.1171875,-0.082031 -0.1875,0 -0.4570313,0.1640625 -0.46875,0.1640625 -0.234375,0.1523437 -0.28125,0.234375 -0.4101563,0.421875 -0.3515625,0.53906247 -0.8554687,0.92578122 -1.59375,0.92578122 -1.0195312,0 -1.9453125,-0.73828122 -1.9453125,-2.44921872 0,-1.0195313 0.4101563,-2.3671875 1.0078125,-3.2695313 0.5039063,-0.7265625 1.1132813,-1.3242187 2.2851563,-1.3242187 0.4335937,0 0.7148437,0.1640625 0.7148437,0.5859375 0,0.3984375 -0.421875,1.2070312 -0.5625,1.4296875 -0.070312,0.1289062 -0.070312,0.1523437 -0.070312,0.1757812 0,0.082031 0.058594,0.082031 0.1289063,0.082031 0.2226562,0 0.6445312,-0.2578125 0.7851562,-0.4335938 0.023437,-0.046875 0.6796875,-1.1601562 0.6796875,-1.7460937 0,-0.6210938 -0.515625,-0.7148438 -0.9257812,-0.7148438 -1.640625,0 -3,1.078125 -3.515625,1.7226563 -1.35937505,1.6289062 -1.4882813,3.3984375 -1.4882813,3.984375 0,1.66406247 0.83203125,2.57812497 2.15625,2.57812497 1.828125,0 3.3398438,-1.76953127 3.3398433,-2.05078117 z m 0,0"
       style="fill:#000000;fill-opacity:1;fill-rule:nonzero;stroke:none"
       aria-label="C"
       transform="matrix(0.35277776,0,0,0.35277776,63.310912,93.2067)"
       clip-path="url(#clipPath171-5)" />
    <path
       id="path172-4"
       d="m 1965,2074.29 20.93,-58.58 20.91,58.58 -20.91,-14.65"
       style="fill:#ff0000;fill-opacity:1;fill-rule:nonzero;stroke:none"
       transform="matrix(0.03527778,0,0,-0.03527778,-25.812747,232.66928)"
       clip-path="url(#clipPath173-9)" />
    <path
       id="path174-9"
       d="M 1985.93,2440.91 V 2059.64"
       style="fill:none;stroke:#ff0000;stroke-width:5.97758;stroke-linecap:butt;stroke-linejoin:miter;stroke-miterlimit:10;stroke-dasharray:none;stroke-opacity:1"
       transform="matrix(0.03527778,0,0,-0.03527778,-25.812747,232.66928)"
       clip-path="url(#clipPath175-0)" />
    <g
       id="g175"
       aria-label="B&#10;′"
       transform="matrix(0.35277776,0,0,0.35277776,44.955885,155.58346)"
       clip-path="url(#clipPath178)">
      <path
         id="path176-9"
         d="m 1.0551797,-7.2419297 0.5859375,0.023437 c 0.2578125,0.011719 0.375,0.09375 0.375,0.2929688 0,0.1523437 -0.035156,0.5039062 -0.09375,0.8320312 l -0.94921876,5.49609376 c -0.046875,0.19921875 -0.17578125,0.26953125 -0.6328125,0.3515625 l -0.0585938,0.28125 0.41015625,-0.01171875 C 0.98486719,2.578125e-4 1.1489297,2.578125e-4 1.2778359,2.578125e-4 c 0.1171875,0 0.3984375,0.0117187475 0.6914063,0.0234374975 l 0.3984375,0.01171875 0.2226562,0.01171875 c 0.1992188,0.01171875 0.3398438,0.0234375 0.4335938,0.0234375 0.5273437,0 1.0429687,-0.15234375 1.5585937,-0.46875 0.8671875,-0.50390625 1.3476563,-1.25390621 1.3476563,-2.07421871 0,-0.46875 -0.1640625,-0.8320313 -0.4570313,-1.078125 -0.28125,-0.2226563 -0.609375,-0.328125 -1.359375,-0.4335938 0.6210938,-0.2109375 0.890625,-0.3515625 1.2304688,-0.65625 0.5039062,-0.421875 0.75,-0.9375 0.75,-1.4882812 0,-0.9023438 -0.6328125,-1.4179688 -1.7226563,-1.4179688 -0.023437,0 -0.1289062,0 -0.2929687,0.011719 l -0.6796875,0.011719 c -0.140625,0.011719 -0.5273438,0.011719 -0.65625,0.011719 -0.2109375,0 -0.5507813,-0.011719 -1.078125,-0.023437 l -0.5742188,-0.011719 z m 1.3125,3.5273438 h 0.9257812 c 1.125,0 1.6757813,0.46875 1.6757813,1.4179687 0,1.1132813 -0.796875,1.92187501 -1.8867188,1.92187501 -0.2226562,0 -0.5390625,-0.0117188 -0.9023437,-0.0351563 -0.058594,-0.0117188 -0.1992188,-0.0234375 -0.3632813,-0.0351563 z m 0.5976562,-3.375 c 0.1171875,0 0.140625,-0.011719 0.375,-0.023437 0.2226563,-0.023437 0.375,-0.035156 0.5039063,-0.035156 0.8789062,0 1.3125,0.3984375 1.3125,1.21875 0,1.1367188 -0.8085938,1.828125 -2.15625,1.828125 h -0.5625 z m 0,0"
         style="fill:#ff0000;fill-opacity:1;fill-rule:nonzero;stroke:none" />
      <path
         id="path177-2"
         d="m 9.0590859,-7.9098984 c 0.046875,-0.09375 0.082031,-0.1757813 0.082031,-0.2578125 0,-0.234375 -0.2226563,-0.4335938 -0.4804688,-0.4335938 -0.234375,0 -0.375,0.1523438 -0.4335937,0.375 l -0.9960938,3.6210938 c 0,0.023437 -0.023437,0.1171875 -0.023437,0.1171875 0,0.09375 0.2109375,0.1523437 0.28125,0.1523437 0.046875,0 0.058594,-0.023437 0.1054688,-0.1289062 z m 0,0"
         style="fill:#ff0000;fill-opacity:1;fill-rule:nonzero;stroke:none" />
    </g>
    <path
       id="path179-5"
       d="m 2527.14,1857.02 12.99,-60.84 28.49,55.3 -22.67,-11.75"
       style="fill:#bfbfbf;fill-opacity:1;fill-rule:nonzero;stroke:none"
       transform="matrix(0.03527778,0,0,-0.03527778,-25.812747,232.66928)"
       clip-path="url(#clipPath180)" />
    <path
       id="path181-5"
       d="m 2593.25,2194.29 -47.3,-354.56"
       style="fill:none;stroke:#bfbfbf;stroke-width:5.97758;stroke-linecap:butt;stroke-linejoin:miter;stroke-miterlimit:10;stroke-dasharray:none;stroke-opacity:1"
       transform="matrix(0.03527778,0,0,-0.03527778,-25.812747,232.66928)"
       clip-path="url(#clipPath182)" />
    <g
       id="g182"
       aria-label="B&#10;′"
       transform="matrix(0.35277776,0,0,0.35277776,60.555367,163.50437)"
       clip-path="url(#clipPath185)">
      <path
         id="path183-3"
         d="m 1.0539531,-7.2418047 0.5859375,0.023437 c 0.2578125,0.011719 0.375,0.09375 0.375,0.2929688 0,0.1523437 -0.035156,0.5039062 -0.09375,0.8320312 l -0.94921872,5.49609376 c -0.046875,0.19921875 -0.17578125,0.26953125 -0.6328125,0.3515625 l -0.0585938,0.28125 0.41015625,-0.01171875 C 0.98364063,3.828125e-4 1.1477031,3.828125e-4 1.2766094,3.828125e-4 c 0.1171875,0 0.3984375,0.0117187475 0.6914062,0.0234374975 l 0.3984375,0.01171875 0.2226563,0.01171875 c 0.1992187,0.01171875 0.3398437,0.0234375 0.4335937,0.0234375 0.5273438,0 1.0429688,-0.15234375 1.5585938,-0.46875 0.8671875,-0.50390625 1.3476562,-1.25390621 1.3476562,-2.07421871 0,-0.46875 -0.1640625,-0.8320313 -0.4570312,-1.078125 -0.28125,-0.2226563 -0.609375,-0.328125 -1.359375,-0.4335938 0.6210937,-0.2109375 0.890625,-0.3515625 1.2304687,-0.65625 0.5039063,-0.421875 0.75,-0.9375 0.75,-1.4882812 0,-0.9023438 -0.6328125,-1.4179688 -1.7226562,-1.4179688 -0.023437,0 -0.1289063,0 -0.2929688,0.011719 l -0.6796875,0.011719 c -0.140625,0.011719 -0.5273437,0.011719 -0.65625,0.011719 -0.2109375,0 -0.5507812,-0.011719 -1.078125,-0.023437 l -0.5742187,-0.011719 z m 1.3125,3.5273438 h 0.9257813 c 1.125,0 1.6757812,0.46875 1.6757812,1.4179687 0,1.1132813 -0.796875,1.92187501 -1.8867187,1.92187501 -0.2226563,0 -0.5390625,-0.0117188 -0.9023438,-0.0351563 -0.058594,-0.0117188 -0.1992187,-0.0234375 -0.3632812,-0.0351563 z m 0.5976563,-3.375 c 0.1171875,0 0.140625,-0.011719 0.375,-0.023437 0.2226562,-0.023437 0.375,-0.035156 0.5039062,-0.035156 0.8789063,0 1.3125,0.3984375 1.3125,1.21875 0,1.1367188 -0.8085937,1.828125 -2.15625,1.828125 h -0.5625 z m 0,0"
         style="fill:#bfbfbf;fill-opacity:1;fill-rule:nonzero;stroke:none" />
      <path
         id="path184-3"
         d="m 9.0578594,-7.9097734 c 0.046875,-0.09375 0.082031,-0.1757813 0.082031,-0.2578125 0,-0.234375 -0.2226562,-0.4335938 -0.4804687,-0.4335938 -0.234375,0 -0.375,0.1523438 -0.4335938,0.375 l -0.9960937,3.6210938 c 0,0.023437 -0.023437,0.1171875 -0.023437,0.1171875 0,0.09375 0.2109375,0.1523437 0.28125,0.1523437 0.046875,0 0.058594,-0.023437 0.1054687,-0.1289062 z m 0,0"
         style="fill:#bfbfbf;fill-opacity:1;fill-rule:nonzero;stroke:none" />
    </g>
    <path
       id="path186-3"
       d="m 3507.64,1460.73 1.32,-62.19 38.37,48.95 -24.48,-7.28"
       style="fill:#ff0000;fill-opacity:1;fill-rule:nonzero;stroke:none"
       transform="matrix(0.03527778,0,0,-0.03527778,-25.812747,232.66928)"
       clip-path="url(#clipPath187)" />
    <path
       id="path188-7"
       d="M 3644.31,1804.6 3522.85,1440.21"
       style="fill:none;stroke:#ff0000;stroke-width:5.97758;stroke-linecap:butt;stroke-linejoin:miter;stroke-miterlimit:10;stroke-dasharray:none;stroke-opacity:1"
       transform="matrix(0.03527778,0,0,-0.03527778,-25.812747,232.66928)"
       clip-path="url(#clipPath189)" />
    <g
       id="g189"
       aria-label="B&#10;′"
       transform="matrix(0.35277776,0,0,0.35277776,96.076912,176.90499)"
       clip-path="url(#clipPath192)">
      <path
         id="path190-4"
         d="m 1.0533828,-7.2414766 0.5859375,0.023437 c 0.2578125,0.011719 0.375,0.09375 0.375,0.2929688 0,0.1523437 -0.035156,0.5039062 -0.09375,0.8320312 l -0.94921874,5.49609379 c -0.046875,0.19921875 -0.17578125,0.26953125 -0.6328125,0.3515625 l -0.0585938,0.28125 0.41015625,-0.01171875 C 0.98307031,7.109375e-4 1.1471328,7.109375e-4 1.2760391,7.109375e-4 c 0.1171875,0 0.3984375,0.0117187525 0.6914062,0.0234375025 l 0.3984375,0.01171875 0.2226563,0.01171875 c 0.1992187,0.01171875 0.3398437,0.0234375 0.4335937,0.0234375 0.5273438,0 1.0429688,-0.15234375 1.5585938,-0.46875 0.8671875,-0.50390625 1.3476562,-1.25390624 1.3476562,-2.07421874 0,-0.46875 -0.1640625,-0.8320313 -0.4570312,-1.078125 -0.28125,-0.2226563 -0.609375,-0.328125 -1.359375,-0.4335938 0.6210937,-0.2109375 0.890625,-0.3515625 1.2304687,-0.65625 0.5039063,-0.421875 0.75,-0.9375 0.75,-1.4882812 0,-0.9023438 -0.6328125,-1.4179688 -1.7226562,-1.4179688 -0.023437,0 -0.1289063,0 -0.2929688,0.011719 l -0.6796875,0.011719 c -0.140625,0.011719 -0.5273437,0.011719 -0.65625,0.011719 -0.2109375,0 -0.5507812,-0.011719 -1.078125,-0.023437 l -0.5742187,-0.011719 z m 1.3125,3.5273438 h 0.9257813 c 1.125,0 1.6757812,0.46875 1.6757812,1.4179687 0,1.1132813 -0.796875,1.92187504 -1.8867187,1.92187504 -0.2226563,0 -0.5390625,-0.0117188 -0.9023438,-0.0351563 -0.058594,-0.0117188 -0.1992187,-0.0234375 -0.3632812,-0.0351563 z m 0.5976563,-3.375 c 0.1171875,0 0.140625,-0.011719 0.375,-0.023437 0.2226562,-0.023437 0.375,-0.035156 0.5039062,-0.035156 0.8789063,0 1.3125,0.3984375 1.3125,1.21875 0,1.1367188 -0.8085937,1.828125 -2.15625,1.828125 h -0.5625 z m 0,0"
         style="fill:#ff0000;fill-opacity:1;fill-rule:nonzero;stroke:none" />
      <path
         id="path191-3"
         d="m 9.0572891,-7.9094453 c 0.046875,-0.09375 0.082031,-0.1757813 0.082031,-0.2578125 0,-0.234375 -0.2226562,-0.4335938 -0.4804687,-0.4335938 -0.234375,0 -0.375,0.1523438 -0.4335938,0.375 l -0.9960937,3.6210938 c 0,0.023437 -0.023437,0.1171875 -0.023437,0.1171875 0,0.09375 0.2109375,0.1523437 0.28125,0.1523437 0.046875,0 0.058594,-0.023437 0.1054687,-0.1289062 z m 0,0"
         style="fill:#ff0000;fill-opacity:1;fill-rule:nonzero;stroke:none" />
    </g>
  </g>
</svg>
