<?xml version="1.0" encoding="UTF-8" standalone="no"?>
<!-- Created with Inkscape (http://www.inkscape.org/) -->

<svg
   width="95.86084mm"
   height="83.525726mm"
   viewBox="0 0 95.86084 83.525726"
   version="1.1"
   id="svg1"
   inkscape:version="1.4 (86a8ad7, 2024-10-11)"
   sodipodi:docname="figura5.svg"
   xmlns:inkscape="http://www.inkscape.org/namespaces/inkscape"
   xmlns:sodipodi="http://sodipodi.sourceforge.net/DTD/sodipodi-0.dtd"
   xmlns="http://www.w3.org/2000/svg"
   xmlns:svg="http://www.w3.org/2000/svg">
  <sodipodi:namedview
     id="namedview1"
     pagecolor="#ffffff"
     bordercolor="#000000"
     borderopacity="0.25"
     inkscape:showpageshadow="2"
     inkscape:pageopacity="0.0"
     inkscape:pagecheckerboard="0"
     inkscape:deskcolor="#d1d1d1"
     inkscape:document-units="mm"
     inkscape:zoom="0.98528338"
     inkscape:cx="175.584"
     inkscape:cy="189.28565"
     inkscape:window-width="1366"
     inkscape:window-height="705"
     inkscape:window-x="-8"
     inkscape:window-y="-8"
     inkscape:window-maximized="1"
     inkscape:current-layer="layer1" />
  <defs
     id="defs1">
    <clipPath
       clipPathUnits="userSpaceOnUse"
       id="clipPath55">
      <path
         d="M 900,3004.8 H 3167.71 V 5003.23 H 900 Z"
         id="path55" />
    </clipPath>
    <clipPath
       clipPathUnits="userSpaceOnUse"
       id="clipPath57">
      <path
         d="M 900,3004.8 H 3167.71 V 5003.23 H 900 Z"
         id="path57" />
    </clipPath>
    <clipPath
       clipPathUnits="userSpaceOnUse"
       id="clipPath59">
      <path
         d="M 900,3004.8 H 3167.71 V 5003.23 H 900 Z"
         id="path59" />
    </clipPath>
    <clipPath
       clipPathUnits="userSpaceOnUse"
       id="clipPath61">
      <path
         d="M 900,3004.8 H 3167.71 V 5003.23 H 900 Z"
         id="path61" />
    </clipPath>
    <clipPath
       clipPathUnits="userSpaceOnUse"
       id="clipPath63">
      <path
         d="M 900,3004.8 H 3167.71 V 5003.23 H 900 Z"
         id="path63" />
    </clipPath>
    <clipPath
       clipPathUnits="userSpaceOnUse"
       id="clipPath65">
      <path
         d="M 900,3004.8 H 3167.71 V 5003.23 H 900 Z"
         id="path65" />
    </clipPath>
    <clipPath
       clipPathUnits="userSpaceOnUse"
       id="clipPath67">
      <path
         d="M 900,3004.8 H 3167.71 V 5003.23 H 900 Z"
         id="path67" />
    </clipPath>
    <clipPath
       clipPathUnits="userSpaceOnUse"
       id="clipPath69">
      <path
         d="M 900,3004.8 H 3167.71 V 5003.23 H 900 Z"
         id="path69" />
    </clipPath>
    <clipPath
       clipPathUnits="userSpaceOnUse"
       id="clipPath71">
      <path
         d="M 900,3004.8 H 3167.71 V 5003.23 H 900 Z"
         id="path71" />
    </clipPath>
    <clipPath
       clipPathUnits="userSpaceOnUse"
       id="clipPath73">
      <path
         d="M 900,3004.8 H 3167.71 V 5003.23 H 900 Z"
         id="path73" />
    </clipPath>
    <clipPath
       clipPathUnits="userSpaceOnUse"
       id="clipPath75">
      <path
         d="M 900,3004.8 H 3167.71 V 5003.23 H 900 Z"
         id="path75" />
    </clipPath>
    <clipPath
       clipPathUnits="userSpaceOnUse"
       id="clipPath77">
      <path
         d="M 900,3004.8 H 3167.71 V 5003.23 H 900 Z"
         id="path77" />
    </clipPath>
    <clipPath
       clipPathUnits="userSpaceOnUse"
       id="clipPath79">
      <path
         d="M 900,3004.8 H 3167.71 V 5003.23 H 900 Z"
         id="path79" />
    </clipPath>
    <clipPath
       clipPathUnits="userSpaceOnUse"
       id="clipPath81">
      <path
         d="M 900,3004.8 H 3167.71 V 5003.23 H 900 Z"
         id="path81" />
    </clipPath>
    <clipPath
       clipPathUnits="userSpaceOnUse"
       id="clipPath83">
      <path
         d="M 900,3004.8 H 3167.71 V 5003.23 H 900 Z"
         id="path83" />
    </clipPath>
    <clipPath
       clipPathUnits="userSpaceOnUse"
       id="clipPath85">
      <path
         d="M 900,3004.8 H 3167.71 V 5003.23 H 900 Z"
         id="path85" />
    </clipPath>
    <clipPath
       clipPathUnits="userSpaceOnUse"
       id="clipPath87">
      <path
         d="M 900,3004.8 H 3167.71 V 5003.23 H 900 Z"
         transform="matrix(0.1,0,0,-0.1,-102.06801,339.07701)"
         id="path87" />
    </clipPath>
    <clipPath
       clipPathUnits="userSpaceOnUse"
       id="clipPath90">
      <path
         d="M 900,3004.8 H 3167.71 V 5003.23 H 900 Z"
         transform="matrix(0.1,0,0,-0.1,-102.06801,339.07701)"
         id="path90" />
    </clipPath>
    <clipPath
       clipPathUnits="userSpaceOnUse"
       id="clipPath92">
      <path
         d="M 900,3004.8 H 3167.71 V 5003.23 H 900 Z"
         transform="matrix(0.1,0,0,-0.1,-238.57701,313.08201)"
         id="path92" />
    </clipPath>
    <clipPath
       clipPathUnits="userSpaceOnUse"
       id="clipPath95">
      <path
         d="M 900,3004.8 H 3167.71 V 5003.23 H 900 Z"
         transform="matrix(0.1,0,0,-0.1,-238.57701,313.08201)"
         id="path95" />
    </clipPath>
    <clipPath
       clipPathUnits="userSpaceOnUse"
       id="clipPath97">
      <path
         d="M 900,3004.8 H 3167.71 V 5003.23 H 900 Z"
         transform="matrix(0.1,0,0,-0.1,-271.393,412.87601)"
         id="path97" />
    </clipPath>
    <clipPath
       clipPathUnits="userSpaceOnUse"
       id="clipPath100">
      <path
         d="M 900,3004.8 H 3167.71 V 5003.23 H 900 Z"
         transform="matrix(0.1,0,0,-0.1,-271.393,412.87601)"
         id="path100" />
    </clipPath>
    <clipPath
       clipPathUnits="userSpaceOnUse"
       id="clipPath102">
      <path
         d="M 900,3004.8 H 3167.71 V 5003.23 H 900 Z"
         transform="matrix(0.1,0,0,-0.1,-140.728,331.71501)"
         id="path102" />
    </clipPath>
    <clipPath
       clipPathUnits="userSpaceOnUse"
       id="clipPath105">
      <path
         d="M 900,3004.8 H 3167.71 V 5003.23 H 900 Z"
         transform="matrix(0.1,0,0,-0.1,-140.728,331.71501)"
         id="path105" />
    </clipPath>
    <clipPath
       clipPathUnits="userSpaceOnUse"
       id="clipPath107">
      <path
         d="M 900,3004.8 H 3167.71 V 5003.23 H 900 Z"
         transform="matrix(0.1,0,0,-0.1,-103.90701,393.06801)"
         id="path107" />
    </clipPath>
    <clipPath
       clipPathUnits="userSpaceOnUse"
       id="clipPath110">
      <path
         d="M 900,3004.8 H 3167.71 V 5003.23 H 900 Z"
         transform="matrix(0.1,0,0,-0.1,-103.90701,393.06801)"
         id="path110" />
    </clipPath>
    <clipPath
       clipPathUnits="userSpaceOnUse"
       id="clipPath112">
      <path
         d="M 900,3004.8 H 3167.71 V 5003.23 H 900 Z"
         transform="matrix(0.1,0,0,-0.1,-314.06501,370.41101)"
         id="path112" />
    </clipPath>
    <clipPath
       clipPathUnits="userSpaceOnUse"
       id="clipPath115">
      <path
         d="M 900,3004.8 H 3167.71 V 5003.23 H 900 Z"
         transform="matrix(0.1,0,0,-0.1,-314.06501,370.41101)"
         id="path115" />
    </clipPath>
    <clipPath
       clipPathUnits="userSpaceOnUse"
       id="clipPath117">
      <path
         d="M 900,3004.8 H 3167.71 V 5003.23 H 900 Z"
         transform="matrix(0.1,0,0,-0.1,-255.39301,364.22101)"
         id="path117" />
    </clipPath>
    <clipPath
       clipPathUnits="userSpaceOnUse"
       id="clipPath120">
      <path
         d="M 900,3004.8 H 3167.71 V 5003.23 H 900 Z"
         transform="matrix(0.1,0,0,-0.1,-255.39301,364.22101)"
         id="path120" />
    </clipPath>
    <clipPath
       clipPathUnits="userSpaceOnUse"
       id="clipPath122">
      <path
         d="M 900,3004.8 H 3167.71 V 5003.23 H 900 Z"
         transform="matrix(0.1,0,0,-0.1,-186.36,413.88001)"
         id="path122" />
    </clipPath>
    <clipPath
       clipPathUnits="userSpaceOnUse"
       id="clipPath125">
      <path
         d="M 900,3004.8 H 3167.71 V 5003.23 H 900 Z"
         transform="matrix(0.1,0,0,-0.1,-186.36,413.88001)"
         id="path125" />
    </clipPath>
    <clipPath
       clipPathUnits="userSpaceOnUse"
       id="clipPath127">
      <path
         d="M 900,3004.8 H 3167.71 V 5003.23 H 900 Z"
         transform="matrix(0.1,0,0,-0.1,-149.529,333.68001)"
         id="path127" />
    </clipPath>
    <clipPath
       clipPathUnits="userSpaceOnUse"
       id="clipPath130">
      <path
         d="M 900,3004.8 H 3167.71 V 5003.23 H 900 Z"
         transform="matrix(0.1,0,0,-0.1,-149.529,333.68001)"
         id="path130" />
    </clipPath>
    <clipPath
       clipPathUnits="userSpaceOnUse"
       id="clipPath132">
      <path
         d="M 900,3004.8 H 3167.71 V 5003.23 H 900 Z"
         transform="matrix(0.1,0,0,-0.1,-145,339.57701)"
         id="path132" />
    </clipPath>
    <clipPath
       clipPathUnits="userSpaceOnUse"
       id="clipPath135">
      <path
         d="M 900,3004.8 H 3167.71 V 5003.23 H 900 Z"
         transform="matrix(0.1,0,0,-0.1,-145,339.57701)"
         id="path135" />
    </clipPath>
    <clipPath
       clipPathUnits="userSpaceOnUse"
       id="clipPath137">
      <path
         d="M 900,3004.8 H 3167.71 V 5003.23 H 900 Z"
         transform="matrix(0.1,0,0,-0.1,-129.21,350.90701)"
         id="path137" />
    </clipPath>
    <clipPath
       clipPathUnits="userSpaceOnUse"
       id="clipPath140">
      <path
         d="M 900,3004.8 H 3167.71 V 5003.23 H 900 Z"
         transform="matrix(0.1,0,0,-0.1,-129.21,350.90701)"
         id="path140" />
    </clipPath>
    <clipPath
       clipPathUnits="userSpaceOnUse"
       id="clipPath142">
      <path
         d="M 900,3004.8 H 3167.71 V 5003.23 H 900 Z"
         transform="matrix(0.1,0,0,-0.1,-248.197,475.23701)"
         id="path142" />
    </clipPath>
  </defs>
  <g
     inkscape:label="Capa 1"
     inkscape:groupmode="layer"
     id="layer1"
     transform="translate(-54.504168,-87.047878)">
    <path
       style="fill:#000000;stroke:#b3b3b3;stroke-width:0.25294167;stroke-linejoin:round;stroke-dasharray:none"
       d="M 77.613088,154.6169 124.38165,144.19656"
       id="path1" />
    <path
       id="path54"
       d="m 2633.93,3885.48 80,243.28 -1421.83,-619.69 1261.83,133.14 z"
       style="fill:#ff0000;fill-opacity:0.08;fill-rule:nonzero;stroke:#000000;stroke-width:1;stroke-linecap:butt;stroke-linejoin:miter;stroke-miterlimit:10;stroke-dasharray:none;stroke-opacity:1"
       transform="matrix(0.04233334,0,0,-0.04233334,16.265261,298.38348)"
       clip-path="url(#clipPath55)" />
    <path
       id="path56"
       d="m 2713.99,4138.8 c 0,469.66 -380.73,850.39 -850.39,850.39 -469.65,0 -850.39,-380.73 -850.39,-850.39 0,-469.66 380.74,-850.39 850.39,-850.39 469.66,0 850.39,380.73 850.39,850.39 z"
       style="fill:none;stroke:#0000ff;stroke-width:5.97758;stroke-linecap:butt;stroke-linejoin:miter;stroke-miterlimit:10;stroke-dasharray:none;stroke-opacity:1"
       transform="matrix(0.04233334,0,0,-0.04233334,16.265261,298.38348)"
       clip-path="url(#clipPath57)" />
    <path
       id="path58"
       d="m 1348.93,3414.37 c -27.69,-16.62 -46.99,-44.28 -53.03,-76.01"
       style="fill:none;stroke:#ff0000;stroke-width:2.98879;stroke-linecap:butt;stroke-linejoin:miter;stroke-miterlimit:10;stroke-dasharray:none;stroke-opacity:1"
       transform="matrix(0.04233334,0,0,-0.04233334,16.265261,298.38348)"
       clip-path="url(#clipPath59)" />
    <path
       id="path60"
       d="m 1331.04,3385.02 -33.49,-5.97"
       style="fill:none;stroke:#ff0000;stroke-width:2.98879;stroke-linecap:butt;stroke-linejoin:miter;stroke-miterlimit:10;stroke-dasharray:none;stroke-opacity:1"
       transform="matrix(0.04233334,0,0,-0.04233334,16.265261,298.38348)"
       clip-path="url(#clipPath61)" />
    <path
       id="path62"
       d="m 1097.41,3833.46 c 27.7,16.62 47,44.27 53.04,76"
       style="fill:none;stroke:#ff0000;stroke-width:2.98879;stroke-linecap:butt;stroke-linejoin:miter;stroke-miterlimit:10;stroke-dasharray:none;stroke-opacity:1"
       transform="matrix(0.04233334,0,0,-0.04233334,16.265261,298.38348)"
       clip-path="url(#clipPath63)" />
    <path
       id="path64"
       d="m 1115.31,3862.81 33.49,5.96"
       style="fill:none;stroke:#ff0000;stroke-width:2.98879;stroke-linecap:butt;stroke-linejoin:miter;stroke-miterlimit:10;stroke-dasharray:none;stroke-opacity:1"
       transform="matrix(0.04233334,0,0,-0.04233334,16.265261,298.38348)"
       clip-path="url(#clipPath65)" />
    <path
       id="path66"
       d="m 2609.99,4083.46 c 12.9,-29.61 37.83,-52.32 68.52,-62.41"
       style="fill:none;stroke:#ff0000;stroke-width:2.98879;stroke-linecap:butt;stroke-linejoin:miter;stroke-miterlimit:10;stroke-dasharray:none;stroke-opacity:1"
       transform="matrix(0.04233334,0,0,-0.04233334,16.265261,298.38348)"
       clip-path="url(#clipPath67)" />
    <path
       id="path68"
       d="m 2636.79,4061.92 1.59,-33.97"
       style="fill:none;stroke:#ff0000;stroke-width:2.98879;stroke-linecap:butt;stroke-linejoin:miter;stroke-miterlimit:10;stroke-dasharray:none;stroke-opacity:1"
       transform="matrix(0.04233334,0,0,-0.04233334,16.265261,298.38348)"
       clip-path="url(#clipPath69)" />
    <path
       id="path70"
       d="M 992.828,3396.08 2413.62,3125.52"
       style="fill:none;stroke:#000000;stroke-width:5.97758;stroke-linecap:butt;stroke-linejoin:miter;stroke-miterlimit:10;stroke-dasharray:none;stroke-opacity:1"
       transform="matrix(0.04233334,0,0,-0.04233334,16.265261,298.38348)"
       clip-path="url(#clipPath71)" />
    <path
       id="path72"
       d="m 2376.91,3103.89 345.88,1051.8"
       style="fill:none;stroke:#000000;stroke-width:5.97758;stroke-linecap:butt;stroke-linejoin:miter;stroke-miterlimit:10;stroke-dasharray:none;stroke-opacity:1"
       transform="matrix(0.04233334,0,0,-0.04233334,16.265261,298.38348)"
       clip-path="url(#clipPath73)" />
    <path
       id="path74"
       d="m 1421.87,3292.85 -397.39,662.13"
       style="fill:none;stroke:#000000;stroke-width:5.97758;stroke-linecap:butt;stroke-linejoin:miter;stroke-miterlimit:10;stroke-dasharray:none;stroke-opacity:1"
       transform="matrix(0.04233334,0,0,-0.04233334,16.265261,298.38348)"
       clip-path="url(#clipPath75)" />
    <path
       id="path76"
       d="m 1379.62,3310.98 1788.7,399.3"
       style="fill:none;stroke:#000000;stroke-width:5.97758;stroke-linecap:butt;stroke-linejoin:miter;stroke-miterlimit:10;stroke-dasharray:none;stroke-opacity:1"
       transform="matrix(0.04233334,0,0,-0.04233334,16.265261,298.38348)"
       clip-path="url(#clipPath77)" />
    <path
       id="path78"
       d="M 2581.78,3636.9 1011.22,3935.98"
       style="fill:none;stroke:#000000;stroke-width:5.97758;stroke-linecap:butt;stroke-linejoin:miter;stroke-miterlimit:10;stroke-dasharray:none;stroke-opacity:1"
       transform="matrix(0.04233334,0,0,-0.04233334,16.265261,298.38348)"
       clip-path="url(#clipPath79)" />
    <path
       id="path80"
       d="M 1512.56,3314.32 1021.8,3953.16"
       style="fill:none;stroke:#000000;stroke-width:5.97758;stroke-linecap:butt;stroke-linejoin:miter;stroke-miterlimit:10;stroke-dasharray:none;stroke-opacity:1"
       transform="matrix(0.04233334,0,0,-0.04233334,16.265261,298.38348)"
       clip-path="url(#clipPath81)" />
    <path
       id="path82"
       d="M 2739.92,4140.09 994.691,3379.45"
       style="fill:none;stroke:#000000;stroke-width:5.97758;stroke-linecap:butt;stroke-linejoin:miter;stroke-miterlimit:10;stroke-dasharray:none;stroke-opacity:1"
       transform="matrix(0.04233334,0,0,-0.04233334,16.265261,298.38348)"
       clip-path="url(#clipPath83)" />
    <path
       id="path84"
       d="M 3168.84,3707.08 1263.91,3506.1"
       style="fill:none;stroke:#000000;stroke-width:5.97758;stroke-linecap:butt;stroke-linejoin:miter;stroke-miterlimit:10;stroke-dasharray:none;stroke-opacity:1"
       transform="matrix(0.04233334,0,0,-0.04233334,16.265261,298.38348)"
       clip-path="url(#clipPath85)" />
    <path
       id="path86"
       d="m -1.9928047,8.28125e-4 c 0,1.101562475 0.890625,1.992187475 1.9921875125,1.992187475 1.1015624875,0 1.9921874875,-0.890625 1.9921874875,-1.992187475 0,-1.101562525 -0.890625,-1.992187525 -1.9921874875,-1.992187525 -1.1015625125,0 -1.9921875125,0.890625 -1.9921875125,1.992187525 z m 0,0"
       style="fill:#ffffff;fill-opacity:1;fill-rule:nonzero;stroke:none"
       aria-label="b"
       transform="matrix(0.42333331,0,0,0.42333331,59.474048,154.84088)"
       clip-path="url(#clipPath87)" />
    <g
       id="g87"
       aria-label="c&#10;A"
       transform="matrix(0.42333331,0,0,0.42333331,59.474048,154.84088)"
       clip-path="url(#clipPath90)">
      <path
         id="path88"
         d="m -1.7935859,8.28125e-4 c 0,-0.984375005 0.80859371,-1.792968725 1.7929687125,-1.792968725 0.9843749975,0 1.7929687875,0.80859372 1.7929687875,1.792968725 0,0.984374995 -0.80859379,1.792968775 -1.7929687875,1.792968775 C -0.98499219,1.7937969 -1.7935859,0.98520312 -1.7935859,8.28125e-4 Z m -0.1992188,0 c 0,1.101562475 0.890625,1.992187475 1.9921875125,1.992187475 1.1015624875,0 1.9921874875,-0.890625 1.9921874875,-1.992187475 0,-1.101562525 -0.890625,-1.992187525 -1.9921874875,-1.992187525 -1.1015625125,0 -1.9921875125,0.890625 -1.9921875125,1.992187525 z m 0,0"
         style="fill:#000000;fill-opacity:1;fill-rule:nonzero;stroke:none" />
      <path
         id="path89"
         d="m -6.489875,-3.9688984 -4.066406,6.46875 c -0.398438,0.609375 -0.585938,0.7851562 -0.960938,0.8671875 l -0.222656,0.058594 v 0.328125 c 1.007813,-0.035156 1.007813,-0.035156 1.230469,-0.035156 0.199219,0 0.222656,0 1.160156,0.035156 V 3.4490703 l -0.5625,-0.035156 c -0.175781,-0.011719 -0.339844,-0.1054688 -0.339844,-0.2109375 0,-0.082031 0.07031,-0.234375 0.2812503,-0.5976563 l 1.1132812,-1.91015624 h 2.6835938 l 0.2695312,2.05078124 v 0.035156 c 0,0.011719 0.011719,0.046875 0.023437,0.09375 0.011719,0.09375 0.023437,0.1992187 0.023437,0.2460937 0,0.1757813 -0.1640625,0.2695313 -0.46875,0.2929688 L -6.8062822,3.44907 V 3.7537578 C -5.693,3.7186016 -5.693,3.7186016 -5.4703437,3.7186016 c 0.2109375,0 0.2109375,0 1.3242187,0.035156 V 3.4490703 l -0.28125,-0.035156 C -4.943,3.3318828 -4.9547187,3.3318828 -5.03675,2.8514141 l -0.9492187,-6.8203125 z m -0.140625,1.125 0.3984375,3.15234371 h -2.3554687 z m 0,0"
         style="fill:#000000;fill-opacity:1;fill-rule:nonzero;stroke:none" />
    </g>
    <path
       id="path91"
       d="m -1.9930156,9.453125e-4 c 0,1.1015624875 0.890625,1.9921874875 1.992187475,1.9921874875 1.101562525,0 1.992187525,-0.890625 1.992187525,-1.9921874875 0,-1.1015625125 -0.890625,-1.9921875125 -1.992187525,-1.9921875125 -1.101562475,0 -1.992187475,0.890625 -1.992187475,1.9921875125 z m 0,0"
       style="fill:#ffffff;fill-opacity:1;fill-rule:nonzero;stroke:none"
       aria-label="b"
       transform="matrix(0.42333331,0,0,0.42333331,117.26286,165.84543)"
       clip-path="url(#clipPath92)" />
    <g
       id="g92"
       aria-label="c&#10;B"
       transform="matrix(0.42333331,0,0,0.42333331,117.26286,165.84543)"
       clip-path="url(#clipPath95)">
      <path
         id="path93"
         d="m -1.7937969,9.453125e-4 c 0,-0.9843750025 0.80859378,-1.7929687125 1.792968775,-1.7929687125 0.984375005,0 1.792968725,0.80859371 1.792968725,1.7929687125 0,0.9843749975 -0.80859372,1.7929687875 -1.792968725,1.7929687875 -0.984374995,0 -1.792968775,-0.80859379 -1.792968775,-1.7929687875 z m -0.1992187,0 c 0,1.1015624875 0.890625,1.9921874875 1.992187475,1.9921874875 1.101562525,0 1.992187525,-0.890625 1.992187525,-1.9921874875 0,-1.1015625125 -0.890625,-1.9921875125 -1.992187525,-1.9921875125 -1.101562475,0 -1.992187475,0.890625 -1.992187475,1.9921875125 z m 0,0"
         style="fill:#000000;fill-opacity:1;fill-rule:nonzero;stroke:none" />
      <path
         id="path94"
         d="m -2.186375,3.8564141 0.5859375,0.023437 c 0.2578125,0.011719 0.375,0.09375 0.375,0.2929687 0,0.1523438 -0.035156,0.5039063 -0.09375,0.8320313 l -0.9492187,5.4960929 c -0.046875,0.199219 -0.1757813,0.269532 -0.6328125,0.351564 l -0.058594,0.28125 0.4101563,-0.01172 c 0.2929687,-0.02344 0.4570312,-0.02344 0.5859375,-0.02344 0.1171875,0 0.3984375,0.01172 0.6914062,0.02344 l 0.3984375,0.01172 0.22265625,0.01172 c 0.19921875,0.01172 0.33984375,0.02344 0.43359375,0.02344 0.52734375,0 1.04296875,-0.152344 1.5585938,-0.46875 0.8671875,-0.503906 1.3476562,-1.2539067 1.3476562,-2.0742192 0,-0.46875 -0.1640625,-0.8320312 -0.4570312,-1.078125 C 1.9503438,7.3251641 1.6222188,7.2196953 0.87221875,7.1142266 1.4933125,6.9032891 1.7628438,6.7626641 2.1026875,6.4579766 c 0.5039063,-0.421875 0.75,-0.9375 0.75,-1.4882813 0,-0.9023437 -0.6328125,-1.4179687 -1.7226562,-1.4179687 -0.023437,0 -0.1289063,0 -0.2929688,0.011719 L 0.157375,3.5751641 c -0.140625,0.011719 -0.52734375,0.011719 -0.65625,0.011719 -0.2109375,0 -0.5507812,-0.011719 -1.078125,-0.023437 l -0.5742187,-0.011719 z m 1.3125,3.5273437 h 0.92578125 c 1.12500005,0 1.67578125,0.46875 1.67578125,1.4179688 0,1.1132812 -0.796875,1.9218754 -1.88671875,1.9218754 -0.22265625,0 -0.5390625,-0.01172 -0.90234375,-0.03516 -0.058594,-0.01172 -0.1992187,-0.02344 -0.3632812,-0.03516 z m 0.59765625,-3.375 c 0.1171875,0 0.140625,-0.011719 0.375,-0.023437 0.22265625,-0.023437 0.375,-0.035156 0.50390625,-0.035156 0.8789063,0 1.3125,0.3984375 1.3125,1.21875 0,1.1367187 -0.8085937,1.828125 -2.15625,1.828125 h -0.5625 z m 0,0"
         style="fill:#000000;fill-opacity:1;fill-rule:nonzero;stroke:none" />
    </g>
    <path
       id="path96"
       d="m -1.9935859,0.001 c 0,1.1015625 0.890625,1.9921875 1.99218746,1.9921875 1.10156254,0 1.99218754,-0.890625 1.99218754,-1.9921875 0,-1.1015625 -0.890625,-1.9921875 -1.99218754,-1.9921875 -1.10156246,0 -1.99218746,0.890625 -1.99218746,1.9921875 z m 0,0"
       style="fill:#ffffff;fill-opacity:1;fill-rule:nonzero;stroke:none"
       aria-label="b"
       transform="matrix(0.42333331,0,0,0.42333331,131.15496,123.59931)"
       clip-path="url(#clipPath97)" />
    <g
       id="g97"
       aria-label="c&#10;P"
       transform="matrix(0.42333331,0,0,0.42333331,131.15496,123.59931)"
       clip-path="url(#clipPath100)">
      <path
         id="path98"
         d="m -1.7943672,0.001 c 0,-0.984375 0.80859376,-1.7929688 1.79296876,-1.7929688 0.984375,0 1.79296874,0.8085938 1.79296874,1.7929688 0,0.984375 -0.80859374,1.7929687 -1.79296874,1.7929687 -0.984375,0 -1.79296876,-0.8085937 -1.79296876,-1.7929687 z m -0.1992187,0 c 0,1.1015625 0.890625,1.9921875 1.99218746,1.9921875 1.10156254,0 1.99218754,-0.890625 1.99218754,-1.9921875 0,-1.1015625 -0.890625,-1.9921875 -1.99218754,-1.9921875 -1.10156246,0 -1.99218746,0.890625 -1.99218746,1.9921875 z m 0,0"
         style="fill:#000000;fill-opacity:1;fill-rule:nonzero;stroke:none" />
      <path
         id="path99"
         d="m 4.0181328,-9.8515391 0.5976563,0.023437 c 0.2578125,0.011719 0.3867187,0.09375 0.3867187,0.2929688 0,0.1523437 -0.046875,0.4921875 -0.1054687,0.8320312 l -0.8085938,4.734375 c -0.1875,0.984375 -0.1875,1.0195313 -0.6328125,1.0546875 l -0.4453125,0.035156 -0.046875,0.3046875 0.4570313,-0.011719 c 0.4570312,-0.011719 0.796875,-0.023437 0.984375,-0.023437 0.1875,0 0.5039062,0.011719 0.9375,0.023437 l 0.5859375,0.011719 0.023437,-0.3046875 -0.703125,-0.035156 c -0.28125,-0.011719 -0.3984375,-0.09375 -0.3984375,-0.328125 0,-0.09375 0.011719,-0.1757812 0.046875,-0.3867187 l 0.9023437,-5.3085938 c 0,-0.011719 0.035156,-0.234375 0.09375,-0.4335937 0.011719,-0.058594 0.046875,-0.1640625 0.070312,-0.3046875 0.3984375,-0.070312 0.5742188,-0.09375 0.7851563,-0.09375 1.1015625,0 1.640625,0.4804687 1.640625,1.5 0,1.171875 -0.7851563,2.1328125 -1.7460938,2.1328125 -0.234375,0 -0.4570312,-0.046875 -0.8554687,-0.1992188 l 0.011719,0.328125 c 0.4101563,0.1992188 0.6328125,0.2578125 0.9492188,0.2578125 1.40625,0 2.6015625,-1.2773437 2.6015625,-2.765625 0,-1.1015625 -0.6914063,-1.6757809 -1.9804688,-1.6406249 l -1.5117187,0.03516 -1.2304688,-0.02344 -0.5742187,-0.01172 z m 0,0"
         style="fill:#000000;fill-opacity:1;fill-rule:nonzero;stroke:none" />
    </g>
    <path
       id="path101"
       d="m -1.9926484,0.00113281 c 0,1.10156249 0.890625,1.99218749 1.9921874625,1.99218749 1.1015625375,0 1.9921875375,-0.890625 1.9921875375,-1.99218749 0,-1.10156251 -0.890625,-1.99218751 -1.9921875375,-1.99218751 -1.1015624625,0 -1.9921874625,0.890625 -1.9921874625,1.99218751 z m 0,0"
       style="fill:#ffffff;fill-opacity:1;fill-rule:nonzero;stroke:none"
       aria-label="b"
       transform="matrix(0.42333331,0,0,0.42333331,75.840113,157.95746)"
       clip-path="url(#clipPath102)" />
    <g
       id="g102"
       aria-label="c&#10;F"
       transform="matrix(0.42333331,0,0,0.42333331,75.840113,157.95746)"
       clip-path="url(#clipPath105)">
      <path
         id="path103"
         d="m -1.7934297,0.00113281 c 0,-0.984375 0.80859376,-1.79296871 1.7929687625,-1.79296871 0.9843749975,0 1.7929687375,0.80859371 1.7929687375,1.79296871 0,0.984375 -0.80859374,1.79296879 -1.7929687375,1.79296879 -0.9843750025,0 -1.7929687625,-0.80859379 -1.7929687625,-1.79296879 z m -0.1992187,0 c 0,1.10156249 0.890625,1.99218749 1.9921874625,1.99218749 1.1015625375,0 1.9921875375,-0.890625 1.9921875375,-1.99218749 0,-1.10156251 -0.890625,-1.99218751 -1.9921875375,-1.99218751 -1.1015624625,0 -1.9921874625,0.890625 -1.9921874625,1.99218751 z m 0,0"
         style="fill:#000000;fill-opacity:1;fill-rule:nonzero;stroke:none" />
      <path
         id="path104"
         d="M 0.11672656,4.0558203 1.2768828,4.0089453 c 0.6796875,0 1.1132813,0.09375 1.125,0.2578125 l 0.082031,0.9726563 H 2.7534453 C 2.7768828,4.5480078 2.8589141,3.9972266 2.9761016,3.5870703 2.7417266,3.5636328 2.4370391,3.5519141 2.2495391,3.5519141 L 1.8042266,3.5636328 -4.609375e-4,3.5870703 H -0.31686719 c -0.26953125,0 -0.70312501,-0.011719 -1.12500001,-0.023437 l -0.5273437,-0.011719 -0.035156,0.3046875 0.609375,0.023437 c 0.2578125,0.011719 0.375,0.1054687 0.375,0.2929687 0,0.1523438 -0.035156,0.5039063 -0.09375,0.8320313 l -0.8203125,4.734375 c -0.1875,0.9960942 -0.1875,1.0078132 -0.6328125,1.0546882 l -0.3867187,0.03516 -0.046875,0.304687 0.375,-0.01172 c 0.4335937,-0.01172 0.7851562,-0.02344 1.0078125,-0.02344 0.1992187,0 0.515625,0.01172 0.93749996,0.02344 l 0.57421875,0.01172 0.03515625,-0.304687 -0.703125,-0.03516 c -0.29296876,-0.01172 -0.39843746,-0.09375 -0.39843746,-0.316407 0,-0.07031 0.011719,-0.1875 0.023437,-0.234375 l 0.39843746,-2.4257812 h 1.27734375 c 0.29296875,0 0.63281249,0.011719 1.14843749,0.035156 h 0.292969 L 2.1675078,7.3722266 2.1323516,7.2901953 c -0.890625,0.046875 -1.54687504,0.070312 -2.39062504,0.070312 h -0.41015625 l 0.50390625,-2.9648437 c 0.0351563,-0.1757813 0.046875,-0.2226563 0.09375,-0.3398438 z m 0,0"
         style="fill:#000000;fill-opacity:1;fill-rule:nonzero;stroke:none" />
    </g>
    <path
       id="path106"
       d="M -1.9919609,6.171875e-4 C -1.9919609,1.1021797 -1.1013359,1.9928047 2.265625e-4,1.9928047 1.1017891,1.9928047 1.9924141,1.1021797 1.9924141,6.171875e-4 1.9924141,-1.1009453 1.1017891,-1.9915703 2.265625e-4,-1.9915703 -1.1013359,-1.9915703 -1.9919609,-1.1009453 -1.9919609,6.171875e-4 Z m 0,0"
       style="fill:#ffffff;fill-opacity:1;fill-rule:nonzero;stroke:none"
       aria-label="b"
       transform="matrix(0.42333331,0,0,0.42333331,60.252558,131.9847)"
       clip-path="url(#clipPath107)" />
    <g
       id="g107"
       aria-label="c&#10;E"
       transform="matrix(0.42333331,0,0,0.42333331,60.252558,131.9847)"
       clip-path="url(#clipPath110)">
      <path
         id="path108"
         d="M -1.7927422,6.171875e-4 C -1.7927422,-0.98375781 -0.98414844,-1.7923516 2.265625e-4,-1.7923516 0.98460156,-1.7923516 1.7931953,-0.98375781 1.7931953,6.171875e-4 1.7931953,0.98499219 0.98460156,1.7935859 2.265625e-4,1.7935859 -0.98414844,1.7935859 -1.7927422,0.98499219 -1.7927422,6.171875e-4 Z m -0.1992187,0 C -1.9919609,1.1021797 -1.1013359,1.9928047 2.265625e-4,1.9928047 1.1017891,1.9928047 1.9924141,1.1021797 1.9924141,6.171875e-4 1.9924141,-1.1009453 1.1017891,-1.9915703 2.265625e-4,-1.9915703 -1.1013359,-1.9915703 -1.9919609,-1.1009453 -1.9919609,6.171875e-4 Z m 0,0"
         style="fill:#000000;fill-opacity:1;fill-rule:nonzero;stroke:none" />
      <path
         id="path109"
         d="m -8.0769219,0.07678906 h 1.2773438 c 0.2929687,0 0.6328125,0.01171875 1.1484375,0.03515625 l 0.2929687,0.0117188 0.1992188,-0.4921875 -0.035156,-0.0820313 c -0.890625,0.046875 -1.546875,0.0703125 -2.390625,0.0703125 h -0.4101562 l 0.4570312,-2.60156251 c 0.035156,-0.1757812 0.058594,-0.2578125 0.1054688,-0.3398437 l 0.5039062,-0.023437 c 0.3515625,-0.011719 0.703125,-0.023437 0.9492188,-0.023437 0.6679687,0 1.1132812,0.09375 1.125,0.2578125 l 0.09375,0.9726562 h 0.2578125 c 0.035156,-0.703125 0.1054687,-1.2421875 0.234375,-1.6523437 -0.234375,-0.023437 -0.5625,-0.035156 -0.7617188,-0.035156 -0.023437,0 -0.1523437,0 -0.4101562,0.011719 l -1.3125,0.011719 c -0.09375,0.011719 -0.7382813,0.011719 -0.84375,0.011719 -0.4101563,0 -0.703125,0 -1.2539063,-0.023437 l -0.4921875,-0.011719 -0.035156,0.3046875 0.5859375,0.023437 c 0.2695312,0.011719 0.3867187,0.09375 0.3867187,0.2929688 0,0.1523437 -0.046875,0.5039062 -0.1054687,0.8320312 l -0.9492188,5.4960938 c -0.035156,0.1992187 -0.1640625,0.2695312 -0.6445321,0.3515625 l -0.05859,0.28125 0.4453126,-0.011719 c 0.3398438,-0.011719 1.0195313,-0.023437 1.2304688,-0.023437 l 2.34375,0.035156 h 0.1171875 c 0.1523437,0 0.421875,-0.011719 0.7851562,-0.023437 l 0.3632813,-0.011719 0.035156,-0.3984375 c 0.023437,-0.2109375 0.082031,-0.5390625 0.1757813,-1.078125 l 0.058594,-0.28125 H -4.901137 l -0.1757813,0.65625 c -0.1171875,0.3867188 -0.2109375,0.5273438 -0.4453125,0.5742188 -0.2226562,0.046875 -1.0195312,0.1054687 -1.6054687,0.1054687 -0.4453125,0 -0.6914063,-0.011719 -1.4414063,-0.082031 v -0.046875 c 0,-0.1523438 0.011719,-0.234375 0.023437,-0.328125 z m 0,0"
         style="fill:#000000;fill-opacity:1;fill-rule:nonzero;stroke:none" />
    </g>
    <path
       id="path111"
       d="m -1.9917578,-0.00110938 c 0,1.10156248 0.890625,1.99218748 1.9921874875,1.99218748 1.1015625125,0 1.9921875125,-0.890625 1.9921875125,-1.99218748 0,-1.10156252 -0.890625,-1.99218752 -1.9921875125,-1.99218752 -1.1015624875,0 -1.9921874875,0.890625 -1.9921874875,1.99218752 z m 0,0"
       style="fill:#ffffff;fill-opacity:1;fill-rule:nonzero;stroke:none"
       aria-label="b"
       transform="matrix(0.42333331,0,0,0.42333331,149.21944,141.57617)"
       clip-path="url(#clipPath112)" />
    <g
       id="g112"
       aria-label="c&#10;C"
       transform="matrix(0.42333331,0,0,0.42333331,149.21944,141.57617)"
       clip-path="url(#clipPath115)">
      <path
         id="path113"
         d="m -1.7925391,-0.00110938 c 0,-0.984375 0.80859379,-1.79296872 1.7929687875,-1.79296872 0.9843750025,0 1.7929687125,0.80859372 1.7929687125,1.79296872 0,0.984375 -0.80859371,1.79296878 -1.7929687125,1.79296878 -0.9843749975,0 -1.7929687875,-0.80859378 -1.7929687875,-1.79296878 z m -0.1992187,0 c 0,1.10156248 0.890625,1.99218748 1.9921874875,1.99218748 1.1015625125,0 1.9921875125,-0.890625 1.9921875125,-1.99218748 0,-1.10156252 -0.890625,-1.99218752 -1.9921875125,-1.99218752 -1.1015624875,0 -1.9921874875,0.890625 -1.9921874875,1.99218752 z m 0,0"
         style="fill:#000000;fill-opacity:1;fill-rule:nonzero;stroke:none" />
      <path
         id="path114"
         d="m 2.7953516,-9.4669297 h 0.2929687 c 0.058594,-0.6210933 0.140625,-1.0898433 0.2929688,-1.5937503 -0.8320313,-0.316406 -1.453125,-0.445312 -2.1210938,-0.445312 -0.90234374,0 -1.79296874,0.269531 -2.5546875,0.785156 -1.2773437,0.8554688 -1.9335937,2.1445313 -1.9335937,3.8203126 0,2.109375 1.171875,3.2929687 3.24609371,3.2929687 1.05468749,0 1.82812499,-0.2578125 2.81249999,-0.9257812 l 0.1054688,-0.3984375 -0.1054688,-0.070312 c -1.03125,0.6210937 -1.59375,0.8085937 -2.44921874,0.8085937 -1.71093746,0 -2.64843746,-1.0429687 -2.64843746,-2.9882812 0,-1.2070313 0.3632812,-2.2851563 1.03125,-2.9648431 0.51562496,-0.527344 1.21874996,-0.785156 2.07421871,-0.785156 0.77343749,0 1.34765629,0.152343 1.95703129,0.550781 z m 0,0"
         style="fill:#000000;fill-opacity:1;fill-rule:nonzero;stroke:none" />
    </g>
    <path
       id="path116"
       d="m -1.9926094,-6.796875e-4 c 0,1.1015624875 0.890625,1.9921874875 1.992187525,1.9921874875 1.101562475,0 1.992187475,-0.890625 1.992187475,-1.9921874875 0,-1.1015625125 -0.890625,-1.9921875125 -1.992187475,-1.9921875125 -1.101562525,0 -1.992187525,0.890625 -1.992187525,1.9921875125 z m 0,0"
       style="fill:#ffffff;fill-opacity:1;fill-rule:nonzero;stroke:none"
       aria-label="b"
       transform="matrix(0.42333331,0,0,0.42333331,124.38163,144.19659)"
       clip-path="url(#clipPath117)" />
    <g
       id="g117"
       aria-label="c&#10;N"
       transform="matrix(0.42333331,0,0,0.42333331,124.38163,144.19659)"
       clip-path="url(#clipPath120)">
      <path
         id="path118"
         d="m -1.7933906,-6.796875e-4 c 0,-0.9843750025 0.80859372,-1.7929687125 1.792968725,-1.7929687125 0.984374995,0 1.792968775,0.80859371 1.792968775,1.7929687125 0,0.9843749975 -0.80859378,1.7929687875 -1.792968775,1.7929687875 -0.984375005,0 -1.792968725,-0.80859379 -1.792968725,-1.7929687875 z m -0.1992188,0 c 0,1.1015624875 0.890625,1.9921874875 1.992187525,1.9921874875 1.101562475,0 1.992187475,-0.890625 1.992187475,-1.9921874875 0,-1.1015625125 -0.890625,-1.9921875125 -1.992187475,-1.9921875125 -1.101562525,0 -1.992187525,0.890625 -1.992187525,1.9921875125 z m 0,0"
         style="fill:#000000;fill-opacity:1;fill-rule:nonzero;stroke:none" />
      <path
         id="path119"
         d="m -6.4135078,-11.230172 -0.890625,0.03516 h -0.2578125 c -0.035156,0 -0.1992188,-0.01172 -0.4453125,-0.02344 l -0.1757813,-0.01172 -0.058594,0.304688 0.3867187,0.02344 c 0.1875,0.01172 0.421875,0.08203 0.5390625,0.1875 0.1640625,0.128906 0.328125,0.328125 0.328125,0.421875 0,0.01172 0,0.04687 -0.011719,0.07031 0,0.01172 0,0.03516 -0.011719,0.05859 -0.011719,0.08203 -0.011719,0.1640629 -0.023437,0.1992191 l -0.9609375,5.1679688 c -0.140625,0.6796875 -0.1992187,0.7617187 -0.5976562,0.8085937 l -0.328125,0.035156 -0.058594,0.3046875 1.2070313,-0.035156 c 0.1289062,0 0.140625,0 1.2070312,0.035156 l 0.046875,-0.3046875 -0.4570312,-0.035156 c -0.4335938,-0.035156 -0.5273438,-0.1171875 -0.5273438,-0.4804687 0,-0.082031 0,-0.2109375 0.023437,-0.328125 l 0.8789063,-5.0625 3.6796875,6.2929687 h 0.5507812 l 1.03125,-6.0351562 c 0.2226563,-1.2304684 0.2460938,-1.2773434 0.64453129,-1.3007814 l 0.41015625,-0.02344 0.0585937,-0.304688 h -0.234375 l -0.97265624,0.03516 -0.9375,-0.03516 h -0.2109375 l -0.046875,0.304688 0.5039063,0.02344 c 0.2929687,0.01172 0.3984375,0.08203 0.3984375,0.257813 0,0.08203 -0.035156,0.363281 -0.058594,0.503906 l -0.8671875,5.3320311 z m 0,0"
         style="fill:#000000;fill-opacity:1;fill-rule:nonzero;stroke:none" />
    </g>
    <path
       id="path121"
       d="M -1.9918359,1.171875e-4 C -1.9918359,1.1016797 -1.1012109,1.9923047 3.515625e-4,1.9923047 1.1019141,1.9923047 1.9925391,1.1016797 1.9925391,1.171875e-4 1.9925391,-1.1014453 1.1019141,-1.9920703 3.515625e-4,-1.9920703 -1.1012109,-1.9920703 -1.9918359,-1.1014453 -1.9918359,1.171875e-4 Z m 0,0"
       style="fill:#ffffff;fill-opacity:1;fill-rule:nonzero;stroke:none"
       aria-label="b"
       transform="matrix(0.42333331,0,0,0.42333331,95.15766,123.17429)"
       clip-path="url(#clipPath122)" />
    <g
       id="g122"
       aria-label="c&#10;O"
       transform="matrix(0.42333331,0,0,0.42333331,95.15766,123.17429)"
       clip-path="url(#clipPath125)">
      <path
         id="path123"
         d="M -1.7926172,1.171875e-4 C -1.7926172,-0.98425781 -0.98402344,-1.7928516 3.515625e-4,-1.7928516 0.98472656,-1.7928516 1.7933203,-0.98425781 1.7933203,1.171875e-4 1.7933203,0.98449219 0.98472656,1.7930859 3.515625e-4,1.7930859 -0.98402344,1.7930859 -1.7926172,0.98449219 -1.7926172,1.171875e-4 Z m -0.1992187,0 C -1.9918359,1.1016797 -1.1012109,1.9923047 3.515625e-4,1.9923047 1.1019141,1.9923047 1.9925391,1.1016797 1.9925391,1.171875e-4 1.9925391,-1.1014453 1.1019141,-1.9920703 3.515625e-4,-1.9920703 -1.1012109,-1.9920703 -1.9918359,-1.1014453 -1.9918359,1.171875e-4 Z m 0,0"
         style="fill:#000000;fill-opacity:1;fill-rule:nonzero;stroke:none" />
      <path
         id="path124"
         d="m 0.7415625,-11.507695 c -2.5898438,0 -4.4882813,1.9921872 -4.4882813,4.7343747 0,2.0625 1.03125,3.1640625 2.95312505,3.1640625 0.92578125,0 1.69921875,-0.2109375 2.40234375,-0.65625 1.3828125,-0.8554688 2.2265625,-2.4609375 2.2265625,-4.1835938 0,-1.9335934 -1.125,-3.0585934 -3.09375,-3.0585934 z m -0.33984375,0.457031 c 0.52734375,0 1.05468745,0.128906 1.41796875,0.351562 0.7148437,0.410157 1.0546875,1.2304692 1.0546875,2.4257817 0,1.3828125 -0.4335938,2.6132812 -1.171875,3.375 -0.5390625,0.5390625 -1.2421875,0.8320312 -2.09765625,0.8320312 -1.57031255,0 -2.39062505,-0.9375 -2.39062505,-2.765625 0,-1.4179687 0.4453125,-2.6953125 1.1953125,-3.4453129 0.515625,-0.527343 1.1601563,-0.773437 1.99218755,-0.773437 z m 0,0"
         style="fill:#000000;fill-opacity:1;fill-rule:nonzero;stroke:none" />
    </g>
    <path
       id="path126"
       d="m -1.9928672,3.125e-4 c 0,1.1015625 0.890625,1.9921875 1.9921875125,1.9921875 C 1.1008828,1.9925 1.9915078,1.101875 1.9915078,3.125e-4 1.9915078,-1.10125 1.1008828,-1.991875 -6.796875e-4,-1.991875 -1.1022422,-1.991875 -1.9928672,-1.10125 -1.9928672,3.125e-4 Z m 0,0"
       style="fill:#ffffff;fill-opacity:1;fill-rule:nonzero;stroke:none"
       aria-label="b"
       transform="matrix(0.42333331,0,0,0.42333331,79.56587,157.12562)"
       clip-path="url(#clipPath127)" />
    <g
       id="g127"
       aria-label="c&#10;H"
       transform="matrix(0.42333331,0,0,0.42333331,79.56587,157.12562)"
       clip-path="url(#clipPath130)">
      <path
         id="path128"
         d="m -1.7936484,3.125e-4 c 0,-0.984375 0.80859371,-1.7929688 1.7929687125,-1.7929688 0.9843749975,0 1.7929687875,0.8085938 1.7929687875,1.7929688 0,0.984375 -0.80859379,1.7929687 -1.7929687875,1.7929687 C -0.98505469,1.7932812 -1.7936484,0.9846875 -1.7936484,3.125e-4 Z m -0.1992188,0 c 0,1.1015625 0.890625,1.9921875 1.9921875125,1.9921875 C 1.1008828,1.9925 1.9915078,1.101875 1.9915078,3.125e-4 1.9915078,-1.10125 1.1008828,-1.991875 -6.796875e-4,-1.991875 -1.1022422,-1.991875 -1.9928672,-1.10125 -1.9928672,3.125e-4 Z m 0,0"
         style="fill:#000000;fill-opacity:1;fill-rule:nonzero;stroke:none" />
      <path
         id="path129"
         d="M 1.2415078,6.9026562 1.6985391,4.4065625 C 1.7688516,3.9846875 1.8508828,3.914375 2.2493203,3.8909375 L 2.7063516,3.8557812 2.7415078,3.5510937 H 2.4836953 L 1.4993203,3.58625 c -0.1757812,0 -0.375,0 -0.84374999,-0.011719 l -0.69140625,-0.023437 -0.03515625,0.3046875 0.515625,0.023437 c 0.2578125,0.011719 0.375,0.09375 0.375,0.2929688 0,0.1523437 -0.0351563,0.4921875 -0.09375,0.8320312 l -0.80859375,4.734375 c -0.1875,0.9960935 -0.19921875,1.0078125 -0.6328125,1.0546875 l -0.44531246,0.03516 -0.046875,0.304688 0.45703121,-0.01172 c 0.52734375,-0.01172 0.7734375,-0.02344 0.984375,-0.02344 l 1.05468749,0.03516 h 0.2929688 l 0.023437,-0.304688 -0.5273438,-0.03516 c -0.29296874,-0.02344 -0.39843749,-0.09375 -0.39843749,-0.328125 0,-0.09375 0.0117188,-0.175781 0.046875,-0.386719 L 1.1829141,7.383125 H 1.8508828 C 2.5305703,7.371406 2.9876016,7.359688 3.1868203,7.359688 c 0.2109375,0 0.65625,0.011719 1.3476563,0.023437 H 5.2024453 L 4.7571328,9.7385937 c -0.09375,0.5273433 -0.1640625,0.8320313 -0.2226562,0.9023433 -0.046875,0.08203 -0.1640625,0.128907 -0.4101563,0.152344 l -0.5390625,0.03516 -0.046875,0.304688 0.609375,-0.01172 c 0.4804688,-0.01172 0.8085938,-0.02344 0.9257813,-0.02344 0.1757812,0 0.515625,0.01172 0.984375,0.02344 l 0.4570312,0.01172 0.035156,-0.304688 -0.6328125,-0.03516 C 5.6360388,10.781561 5.53057,10.699531 5.53057,10.465156 c 0,-0.09375 0.011719,-0.199219 0.035156,-0.386719 L 6.5735391,4.4065625 c 0.082031,-0.421875 0.140625,-0.4804688 0.5507812,-0.515625 L 7.5227578,3.8557812 7.5579141,3.5510937 H 7.3821328 L 6.3860391,3.58625 c -0.1640625,0 -0.3867188,0 -0.8671875,-0.011719 L 4.8274453,3.551094 4.7922893,3.8557815 5.319633,3.8792185 c 0.2578125,0.011719 0.3867188,0.09375 0.3867188,0.2929688 0,0.1523437 -0.046875,0.5039062 -0.1054688,0.8320312 L 5.272758,6.902656 Z m 0,0"
         style="fill:#000000;fill-opacity:1;fill-rule:nonzero;stroke:none" />
    </g>
    <path
       id="path131"
       d="m -1.9931641,-1.484375e-4 c 0,1.1015625375 0.890625,1.9921875375 1.9921875375,1.9921875375 1.1015624625,0 1.9921874625,-0.890625 1.9921874625,-1.9921875375 0,-1.1015624625 -0.890625,-1.9921874625 -1.9921874625,-1.9921874625 -1.1015625375,0 -1.9921875375,0.890625 -1.9921875375,1.9921874625 z m 0,0"
       style="fill:#ffffff;fill-opacity:1;fill-rule:nonzero;stroke:none"
       aria-label="b"
       transform="matrix(0.42333331,0,0,0.42333331,77.648592,154.62923)"
       clip-path="url(#clipPath132)" />
    <g
       id="g132"
       aria-label="c&#10;G"
       transform="matrix(0.42333331,0,0,0.42333331,77.648592,154.62923)"
       clip-path="url(#clipPath135)">
      <path
         id="path134"
         d="m 4.6308594,-4.4649922 c -0.4921875,0.2578125 -0.9257813,0.3632813 -1.5117188,0.3632813 -1.8046875,0 -2.75390622,-1.0195313 -2.75390622,-2.953125 0,-1.265625 0.38671874,-2.3671875 1.08984372,-3.0703121 0.5273438,-0.550782 1.2421875,-0.808594 2.1445313,-0.808594 0.84375,0 1.4296875,0.152344 2.0390625,0.550781 v 0.9140626 h 0.2929687 c 0.058594,-0.6210936 0.140625,-1.0898436 0.2929688,-1.5937496 -0.9023438,-0.328125 -1.5234375,-0.445313 -2.2734375,-0.445313 -1.0078125,0 -1.8046875,0.246094 -2.5898438,0.808594 -1.27734373,0.9140623 -1.94531247,2.2617186 -1.94531247,3.9023436 0,2.0390625 1.18359374,3.1875 3.32812497,3.1875 0.5859375,0 1.1484375,-0.1054688 1.8164063,-0.328125 l 0.328125,-0.1054688 c 0.28125,-0.1054687 0.46875,-0.1523437 0.609375,-0.1640625 l 0.046875,-0.082031 c -0.023437,-0.1523438 -0.035156,-0.234375 -0.035156,-0.3164063 0,-0.035156 0,-0.070312 0.011719,-0.1171875 L 5.7675786,-6.199367 c 0.023437,-0.09375 0.1523438,-0.2109375 0.2929688,-0.2226562 l 0.3515625,-0.070312 0.023437,-0.3046875 c -0.421875,0.046875 -0.8085938,0.058594 -1.359375,0.058594 -0.5625,0 -0.9492188,-0.011719 -1.40625,-0.058594 l -0.058594,0.3046875 0.375,0.023437 c 0.8085938,0.046875 0.9140625,0.082031 0.9140625,0.3515625 0,0.1640625 -0.023437,0.375 -0.082031,0.6445312 z m 0,0"
         style="fill:#000000;fill-opacity:1;fill-rule:nonzero;stroke:none" />
      <path
         id="path133"
         d="m -1.7939453,-1.484375e-4 c 0,-0.9843750025 0.80859374,-1.7929687625 1.7929687375,-1.7929687625 0.9843750025,0 1.7929687625,0.80859376 1.7929687625,1.7929687625 C 1.7919922,0.98422656 0.98339844,1.7928203 -9.765625e-4,1.7928203 -0.98535156,1.7928203 -1.7939453,0.98422656 -1.7939453,-1.484375e-4 Z m -0.1992188,0 c 0,1.1015625375 0.890625,1.9921875375 1.9921875375,1.9921875375 1.1015624625,0 1.9921874625,-0.890625 1.9921874625,-1.9921875375 0,-1.1015624625 -0.890625,-1.9921874625 -1.9921874625,-1.9921874625 -1.1015625375,0 -1.9921875375,0.890625 -1.9921875375,1.9921874625 z m 0,0"
         style="fill:#000000;fill-opacity:1;fill-rule:nonzero;stroke:none" />
    </g>
    <path
       id="path136"
       d="m -1.99125,7.5e-4 c 0,1.1015625 0.890625,1.9921875 1.9921875,1.9921875 1.1015625,0 1.9921875,-0.890625 1.9921875,-1.9921875 0,-1.1015625 -0.890625,-1.9921875 -1.9921875,-1.9921875 -1.1015625,0 -1.9921875,0.890625 -1.9921875,1.9921875 z m 0,0"
       style="fill:#ffffff;fill-opacity:1;fill-rule:nonzero;stroke:none"
       aria-label="b"
       transform="matrix(0.42333331,0,0,0.42333331,70.96416,149.83285)"
       clip-path="url(#clipPath137)" />
    <g
       id="g137"
       aria-label="c&#10;M"
       transform="matrix(0.42333331,0,0,0.42333331,70.96416,149.83285)"
       clip-path="url(#clipPath140)">
      <path
         id="path138"
         d="m -1.7920312,7.5e-4 c 0,-0.984375 0.8085937,-1.7929688 1.7929687,-1.7929688 0.984375,0 1.7929688,0.8085938 1.7929688,1.7929688 0,0.984375 -0.8085938,1.7929687 -1.7929688,1.7929687 -0.984375,0 -1.7929687,-0.8085937 -1.7929687,-1.7929687 z m -0.1992188,0 c 0,1.1015625 0.890625,1.9921875 1.9921875,1.9921875 1.1015625,0 1.9921875,-0.890625 1.9921875,-1.9921875 0,-1.1015625 -0.890625,-1.9921875 -1.9921875,-1.9921875 -1.1015625,0 -1.9921875,0.890625 -1.9921875,1.9921875 z m 0,0"
         style="fill:#000000;fill-opacity:1;fill-rule:nonzero;stroke:none" />
      <path
         id="path139"
         d="m 1.9726172,3.8152031 0.035156,-0.3046875 -0.3046875,0.011719 c -0.3046875,0.023437 -0.46875,0.023437 -0.609375,0.023437 H 0.83589844 L 0.19136719,3.5105156 0.01558594,3.8503594 c -0.29296875,0.5507812 -0.50390625,0.9257812 -0.75,1.359375 l -2.68359374,4.6054687 -1.640625,-6.3046875 -0.3046875,0.011719 c -0.3046875,0.023437 -0.46875,0.023437 -0.609375,0.023437 h -0.2695313 l -0.6445312,-0.035156 -0.023437,0.3046875 0.28125,0.023437 c 0.5625,0.035156 0.7617187,0.1523438 0.7617187,0.4335938 0,0.070312 -0.011719,0.140625 -0.035156,0.2226562 l -1.5820313,5.5429689 c -0.1757812,0.574219 -0.3398437,0.714844 -0.9375,0.773438 l -0.035156,0.28125 0.4335937,-0.01172 c 0.3632813,-0.01172 0.6445313,-0.02344 0.796875,-0.02344 0.1523438,0 0.4335938,0.01172 0.8085938,0.02344 l 0.3867187,0.01172 0.035156,-0.304688 -0.421875,-0.03516 C -6.757851,10.729259 -6.945351,10.623793 -6.945351,10.45973 c 0,-0.117187 0.023437,-0.257812 0.070312,-0.445312 l 1.359375,-5.0625006 1.6171875,6.3046876 h 0.2578125 l 0.6210938,-1.136718 c 0.8554687,-1.5351571 1.875,-3.3046884 2.60156249,-4.5117196 L 0.15621094,4.6589531 -0.25394531,10.330828 c -0.0351563,0.304688 -0.1640625,0.375 -0.7265625,0.421875 l -0.33984379,0.03516 -0.035156,0.304688 0.51562499,-0.01172 c 0.45703125,-0.01172 0.78515625,-0.02344 0.94921875,-0.02344 0.17578125,0 0.50390625,0.01172 0.94921876,0.02344 l 0.5039062,0.01172 0.035156,-0.304688 -0.4101563,-0.03516 C 0.80074219,10.717547 0.60152344,10.600359 0.60152344,10.365984 L 0.61324219,9.9675469 1.0585547,4.1784844 c 0.023437,-0.2109375 0.1875,-0.3164063 0.5039062,-0.3398438 z m 0,0"
         style="fill:#000000;fill-opacity:1;fill-rule:nonzero;stroke:none" />
    </g>
    <path
       id="path141"
       d="m 5.6369844,-1.7805781 c 0,-0.070312 -0.058594,-0.082031 -0.1171875,-0.082031 -0.1875,0 -0.4570313,0.1640625 -0.46875,0.1640625 -0.234375,0.1523438 -0.28125,0.234375 -0.4101563,0.421875 -0.3515625,0.53906252 -0.8554687,0.92578127 -1.59375,0.92578127 -1.0195312,0 -1.9453125,-0.73828127 -1.9453125,-2.44921877 0,-1.0195312 0.4101563,-2.3671875 1.0078125,-3.2695312 0.5039063,-0.7265625 1.1132813,-1.3242188 2.2851563,-1.3242188 0.4335937,0 0.7148437,0.1640625 0.7148437,0.5859375 0,0.3984375 -0.421875,1.2070313 -0.5625,1.4296875 -0.070312,0.1289063 -0.070312,0.1523438 -0.070312,0.1757813 0,0.082031 0.058594,0.082031 0.1289063,0.082031 0.2226562,0 0.6445312,-0.2578125 0.7851562,-0.4335937 0.023437,-0.046875 0.6796875,-1.1601563 0.6796875,-1.7460938 0,-0.6210937 -0.515625,-0.7148437 -0.9257812,-0.7148437 -1.640625,0 -3,1.078125 -3.515625,1.7226562 -1.35937503,1.6289063 -1.48828128,3.3984375 -1.48828128,3.984375 0,1.66406252 0.83203125,2.57812502 2.15624998,2.57812502 1.828125,0 3.3398438,-1.76953122 3.3398433,-2.05078132 z m 0,0"
       style="fill:#0000ff;fill-opacity:1;fill-rule:nonzero;stroke:none"
       aria-label="C"
       transform="matrix(0.42333331,0,0,0.42333331,121.33533,97.199822)"
       clip-path="url(#clipPath142)" />
  </g>
</svg>
