<?xml version="1.0" encoding="UTF-8" standalone="no"?>
<!-- Created with Inkscape (http://www.inkscape.org/) -->

<svg
   width="97.20031mm"
   height="104.39994mm"
   viewBox="0 0 97.20031 104.39994"
   version="1.1"
   id="svg1"
   inkscape:version="1.4 (86a8ad7, 2024-10-11)"
   sodipodi:docname="figura2.svg"
   xmlns:inkscape="http://www.inkscape.org/namespaces/inkscape"
   xmlns:sodipodi="http://sodipodi.sourceforge.net/DTD/sodipodi-0.dtd"
   xmlns="http://www.w3.org/2000/svg"
   xmlns:svg="http://www.w3.org/2000/svg">
  <sodipodi:namedview
     id="namedview1"
     pagecolor="#ffffff"
     bordercolor="#000000"
     borderopacity="0.25"
     inkscape:showpageshadow="2"
     inkscape:pageopacity="0.0"
     inkscape:pagecheckerboard="0"
     inkscape:deskcolor="#d1d1d1"
     inkscape:document-units="mm"
     inkscape:zoom="0.49264169"
     inkscape:cx="256.77892"
     inkscape:cy="360.30243"
     inkscape:window-width="1366"
     inkscape:window-height="705"
     inkscape:window-x="-8"
     inkscape:window-y="-8"
     inkscape:window-maximized="1"
     inkscape:current-layer="layer1" />
  <defs
     id="defs1">
    <clipPath
       clipPathUnits="userSpaceOnUse"
       id="clipPath94">
      <path
         d="M 2930.4,3931.2 H 5226.47 V 6397.34 H 2930.4 Z"
         id="path94" />
    </clipPath>
    <clipPath
       clipPathUnits="userSpaceOnUse"
       id="clipPath96">
      <path
         d="M 2930.4,3931.2 H 5226.47 V 6397.34 H 2930.4 Z"
         id="path96" />
    </clipPath>
    <clipPath
       clipPathUnits="userSpaceOnUse"
       id="clipPath98">
      <path
         d="M 2930.4,3931.2 H 5226.47 V 6397.34 H 2930.4 Z"
         id="path98" />
    </clipPath>
    <clipPath
       clipPathUnits="userSpaceOnUse"
       id="clipPath100">
      <path
         d="M 2930.4,3931.2 H 5226.47 V 6397.34 H 2930.4 Z"
         id="path100" />
    </clipPath>
    <clipPath
       clipPathUnits="userSpaceOnUse"
       id="clipPath102">
      <path
         d="M 2930.4,3931.2 H 5226.47 V 6397.34 H 2930.4 Z"
         id="path102" />
    </clipPath>
    <clipPath
       clipPathUnits="userSpaceOnUse"
       id="clipPath104">
      <path
         d="M 2930.4,3931.2 H 5226.47 V 6397.34 H 2930.4 Z"
         id="path104" />
    </clipPath>
    <clipPath
       clipPathUnits="userSpaceOnUse"
       id="clipPath106">
      <path
         d="M 2930.4,3931.2 H 5226.47 V 6397.34 H 2930.4 Z"
         id="path106" />
    </clipPath>
    <clipPath
       clipPathUnits="userSpaceOnUse"
       id="clipPath108">
      <path
         d="M 2930.4,3931.2 H 5226.47 V 6397.34 H 2930.4 Z"
         id="path108" />
    </clipPath>
    <clipPath
       clipPathUnits="userSpaceOnUse"
       id="clipPath110">
      <path
         d="M 2930.4,3931.2 H 5226.47 V 6397.34 H 2930.4 Z"
         transform="matrix(0.1,0,0,-0.1,-333.10901,620.18902)"
         id="path110" />
    </clipPath>
    <clipPath
       clipPathUnits="userSpaceOnUse"
       id="clipPath112">
      <path
         d="M 2930.4,3931.2 H 5226.47 V 6397.34 H 2930.4 Z"
         transform="matrix(0.1,0,0,-0.1,-380.86401,492.29301)"
         id="path112" />
    </clipPath>
    <clipPath
       clipPathUnits="userSpaceOnUse"
       id="clipPath115">
      <path
         d="M 2930.4,3931.2 H 5226.47 V 6397.34 H 2930.4 Z"
         transform="matrix(0.1,0,0,-0.1,-380.86401,492.29301)"
         id="path115" />
    </clipPath>
    <clipPath
       clipPathUnits="userSpaceOnUse"
       id="clipPath117">
      <path
         d="M 2930.4,3931.2 H 5226.47 V 6397.34 H 2930.4 Z"
         transform="matrix(0.1,0,0,-0.1,-400.70601,444.10401)"
         id="path117" />
    </clipPath>
    <clipPath
       clipPathUnits="userSpaceOnUse"
       id="clipPath120">
      <path
         d="M 2930.4,3931.2 H 5226.47 V 6397.34 H 2930.4 Z"
         transform="matrix(0.1,0,0,-0.1,-400.70601,444.10401)"
         id="path120" />
    </clipPath>
    <clipPath
       clipPathUnits="userSpaceOnUse"
       id="clipPath122">
      <path
         d="M 2930.4,3931.2 H 5226.47 V 6397.34 H 2930.4 Z"
         transform="matrix(0.1,0,0,-0.1,-471.57301,478.12001)"
         id="path122" />
    </clipPath>
    <clipPath
       clipPathUnits="userSpaceOnUse"
       id="clipPath125">
      <path
         d="M 2930.4,3931.2 H 5226.47 V 6397.34 H 2930.4 Z"
         transform="matrix(0.1,0,0,-0.1,-471.57301,478.12001)"
         id="path125" />
    </clipPath>
    <clipPath
       clipPathUnits="userSpaceOnUse"
       id="clipPath127">
      <path
         d="M 2930.4,3931.2 H 5226.47 V 6397.34 H 2930.4 Z"
         transform="matrix(0.1,0,0,-0.1,-400.32001,572.33101)"
         id="path127" />
    </clipPath>
    <clipPath
       clipPathUnits="userSpaceOnUse"
       id="clipPath130">
      <path
         d="M 2930.4,3931.2 H 5226.47 V 6397.34 H 2930.4 Z"
         transform="matrix(0.1,0,0,-0.1,-400.32001,572.33101)"
         id="path130" />
    </clipPath>
    <clipPath
       clipPathUnits="userSpaceOnUse"
       id="clipPath132">
      <path
         d="M 2930.4,3931.2 H 5226.47 V 6397.34 H 2930.4 Z"
         transform="matrix(0.1,0,0,-0.1,-344.40601,484.13601)"
         id="path132" />
    </clipPath>
    <clipPath
       clipPathUnits="userSpaceOnUse"
       id="clipPath136">
      <path
         d="M 2930.4,3931.2 H 5226.47 V 6397.34 H 2930.4 Z"
         transform="matrix(0.1,0,0,-0.1,-344.40601,484.13601)"
         id="path136" />
    </clipPath>
    <clipPath
       clipPathUnits="userSpaceOnUse"
       id="clipPath138">
      <path
         d="M 2930.4,3931.2 H 5226.47 V 6397.34 H 2930.4 Z"
         transform="matrix(0.1,0,0,-0.1,-383.19601,563.90902)"
         id="path138" />
    </clipPath>
    <clipPath
       clipPathUnits="userSpaceOnUse"
       id="clipPath141">
      <path
         d="M 2930.4,3931.2 H 5226.47 V 6397.34 H 2930.4 Z"
         transform="matrix(0.1,0,0,-0.1,-383.19601,563.90902)"
         id="path141" />
    </clipPath>
    <clipPath
       clipPathUnits="userSpaceOnUse"
       id="clipPath143">
      <path
         d="M 2930.4,3931.2 H 5226.47 V 6397.34 H 2930.4 Z"
         transform="matrix(0.1,0,0,-0.1,-435.52301,407.50001)"
         id="path143" />
    </clipPath>
    <clipPath
       clipPathUnits="userSpaceOnUse"
       id="clipPath147">
      <path
         d="M 2930.4,3931.2 H 5226.47 V 6397.34 H 2930.4 Z"
         transform="matrix(0.1,0,0,-0.1,-435.52301,407.50001)"
         id="path147" />
    </clipPath>
    <clipPath
       clipPathUnits="userSpaceOnUse"
       id="clipPath149">
      <path
         d="M 2930.4,3931.2 H 5226.47 V 6397.34 H 2930.4 Z"
         transform="matrix(0.1,0,0,-0.1,-356.92101,537.33502)"
         id="path149" />
    </clipPath>
    <clipPath
       clipPathUnits="userSpaceOnUse"
       id="clipPath152">
      <path
         d="M 2930.4,3931.2 H 5226.47 V 6397.34 H 2930.4 Z"
         transform="matrix(0.1,0,0,-0.1,-356.92101,537.33502)"
         id="path152" />
    </clipPath>
    <clipPath
       clipPathUnits="userSpaceOnUse"
       id="clipPath154">
      <path
         d="M 2930.4,3931.2 H 5226.47 V 6397.34 H 2930.4 Z"
         transform="matrix(0.1,0,0,-0.1,-509.66401,465.20701)"
         id="path154" />
    </clipPath>
    <clipPath
       clipPathUnits="userSpaceOnUse"
       id="clipPath158">
      <path
         d="M 2930.4,3931.2 H 5226.47 V 6397.34 H 2930.4 Z"
         transform="matrix(0.1,0,0,-0.1,-509.66401,465.20701)"
         id="path158" />
    </clipPath>
    <clipPath
       clipPathUnits="userSpaceOnUse"
       id="clipPath160">
      <path
         d="M 2930.4,3931.2 H 5226.47 V 6397.34 H 2930.4 Z"
         transform="matrix(0.1,0,0,-0.1,-432.20601,577.27402)"
         id="path160" />
    </clipPath>
    <clipPath
       clipPathUnits="userSpaceOnUse"
       id="clipPath163">
      <path
         d="M 2930.4,3931.2 H 5226.47 V 6397.34 H 2930.4 Z"
         transform="matrix(0.1,0,0,-0.1,-432.20601,577.27402)"
         id="path163" />
    </clipPath>
    <clipPath
       clipPathUnits="userSpaceOnUse"
       id="clipPath165">
      <path
         d="M 2930.4,3931.2 H 5226.47 V 6397.34 H 2930.4 Z"
         transform="matrix(0.1,0,0,-0.1,-483.28001,557.80001)"
         id="path165" />
    </clipPath>
    <clipPath
       clipPathUnits="userSpaceOnUse"
       id="clipPath169">
      <path
         d="M 2930.4,3931.2 H 5226.47 V 6397.34 H 2930.4 Z"
         transform="matrix(0.1,0,0,-0.1,-483.28001,557.80001)"
         id="path169" />
    </clipPath>
    <clipPath
       clipPathUnits="userSpaceOnUse"
       id="clipPath171">
      <path
         d="M 2930.4,3931.2 H 5226.47 V 6397.34 H 2930.4 Z"
         transform="matrix(0.1,0,0,-0.1,-371.74201,600.32801)"
         id="path171" />
    </clipPath>
    <clipPath
       clipPathUnits="userSpaceOnUse"
       id="clipPath173">
      <path
         d="M 2930.4,3931.2 H 5226.47 V 6397.34 H 2930.4 Z"
         transform="matrix(0.1,0,0,-0.1,-371.74201,600.32801)"
         id="path173" />
    </clipPath>
    <clipPath
       clipPathUnits="userSpaceOnUse"
       id="clipPath175">
      <path
         d="M 2930.4,3931.2 H 5226.47 V 6397.34 H 2930.4 Z"
         transform="matrix(0.1,0,0,-0.1,-396.34301,590.94802)"
         id="path175" />
    </clipPath>
    <clipPath
       clipPathUnits="userSpaceOnUse"
       id="clipPath177">
      <path
         d="M 2930.4,3931.2 H 5226.47 V 6397.34 H 2930.4 Z"
         transform="matrix(0.1,0,0,-0.1,-396.34301,590.94802)"
         id="path177" />
    </clipPath>
    <clipPath
       clipPathUnits="userSpaceOnUse"
       id="clipPath179">
      <path
         d="M 2930.4,3931.2 H 5226.47 V 6397.34 H 2930.4 Z"
         transform="matrix(0.1,0,0,-0.1,-302.89301,626.58002)"
         id="path179" />
    </clipPath>
    <clipPath
       clipPathUnits="userSpaceOnUse"
       id="clipPath181">
      <path
         d="M 2930.4,3931.2 H 5226.47 V 6397.34 H 2930.4 Z"
         transform="matrix(0.1,0,0,-0.1,-302.89301,626.58002)"
         id="path181" />
    </clipPath>
  </defs>
  <g
     inkscape:label="Capa 1"
     inkscape:groupmode="layer"
     id="layer1"
     transform="translate(-37.306269,-53.181201)">
    <path
       id="path93"
       d="m 5140.92,4922.93 v 0 c 0,469.66 -380.74,850.39 -850.39,850.39 -469.66,0 -850.39,-380.73 -850.39,-850.39 0,-469.66 380.73,-850.39 850.39,-850.39 469.65,0 850.39,380.73 850.39,850.39 z"
       style="fill:none;stroke:#000000;stroke-width:5.97758;stroke-linecap:butt;stroke-linejoin:miter;stroke-miterlimit:10;stroke-dasharray:none;stroke-opacity:1"
       transform="matrix(0.04233334,0,0,-0.04233334,-86.747351,324.00197)"
       clip-path="url(#clipPath94)" />
    <path
       id="path95"
       d="m 2135.32,7553.26 107.51,-105.32 107.51,-105.33 107.51,-105.33 107.51,-105.32 107.51,-105.33 107.51,-105.33 107.51,-105.33 107.5,-105.32 107.52,-105.33 107.5,-105.33 107.52,-105.32 107.5,-105.33 107.52,-105.33 107.5,-105.33 107.51,-105.32 107.52,-105.33 107.5,-105.33 107.52,-105.32 107.5,-105.33 107.52,-105.33 107.5,-105.32 107.52,-105.33 107.5,-105.33 107.51,-105.33 107.51,-105.32 107.51,-105.33 107.51,-105.33 107.51,-105.32 107.51,-105.33 107.51,-105.33 107.51,-105.32 107.51,-105.33 107.51,-105.33 107.51,-105.33 107.51,-105.32 107.51,-105.33 107.51,-105.33 107.51,-105.32 107.51,-105.33 107.51,-105.33 107.51,-105.32 107.51,-105.33 107.51,-105.33 107.51,-105.32 107.51,-105.33 107.51,-105.33 107.51,-105.33 107.51,-105.32 107.51,-105.33"
       style="fill:none;stroke:#ffb2b2;stroke-width:5.97758;stroke-linecap:butt;stroke-linejoin:miter;stroke-miterlimit:10;stroke-dasharray:19.8782, 19.8782;stroke-dashoffset:0;stroke-opacity:1"
       transform="matrix(0.04233334,0,0,-0.04233334,-86.747351,324.00197)"
       clip-path="url(#clipPath96)" />
    <path
       id="path97"
       d="m 2135.32,14469.2 107.51,-503.4 107.51,-503.4 107.51,-503.4 107.51,-503.4 107.51,-503.3 107.51,-503.4 107.51,-503.4 107.5,-503.4 107.52,-503.4 107.5,-503.38 107.52,-503.39 107.5,-503.39 107.52,-503.39 107.5,-503.39 107.51,-503.39 107.52,-503.39 107.5,-503.39 107.52,-503.39 107.5,-503.39 107.52,-503.38 107.5,-503.39 107.52,-503.4 107.5,-503.38 107.51,-503.39 107.51,-503.39 107.51,-503.39 107.51,-503.391 107.51,-503.386 107.51,-503.391 107.51,-503.387 107.51,-503.395 107.51,-503.38 107.51,-503.39 107.51,-503.39 107.51,-503.39 107.51,-503.39 107.51,-503.39 107.51,-503.39 107.51,-503.39 107.51,-503.39 107.51,-503.39 107.51,-503.39 107.51,-503.38 107.51,-503.39 107.51,-503.39 107.51,-503.39 107.51,-503.39 107.51,-503.39 107.51,-503.43"
       style="fill:none;stroke:#ffb2b2;stroke-width:5.97758;stroke-linecap:butt;stroke-linejoin:miter;stroke-miterlimit:10;stroke-dasharray:19.9386, 19.9386;stroke-dashoffset:0;stroke-opacity:1"
       transform="matrix(0.04233334,0,0,-0.04233334,-86.747351,324.00197)"
       clip-path="url(#clipPath98)" />
    <path
       id="path99"
       d="m 2135.32,6963.22 107.51,-83.91 107.51,-83.9 107.51,-83.91 107.51,-83.9 107.51,-83.91 107.51,-83.9 107.51,-83.91 107.5,-83.91 107.52,-83.9 107.5,-83.91 107.52,-83.9 107.5,-83.91 107.52,-83.9 107.5,-83.91 107.51,-83.9 107.52,-83.91 107.5,-83.91 107.52,-83.9 107.5,-83.91 107.52,-83.9 107.5,-83.91 107.52,-83.9 107.5,-83.91 107.51,-83.91 107.51,-83.9 107.51,-83.9 107.51,-83.91 107.51,-83.91 107.51,-83.9 107.51,-83.91 107.51,-83.9 107.51,-83.91 107.51,-83.9 107.51,-83.91 107.51,-83.91 107.51,-83.9 107.51,-83.91 107.51,-83.9 107.51,-83.91 107.51,-83.9 107.51,-83.91 107.51,-83.91 107.51,-83.9 107.51,-83.9 107.51,-83.91 107.51,-83.91 107.51,-83.9 107.51,-83.91 107.51,-83.9"
       style="fill:none;stroke:#b2b2ff;stroke-width:5.97758;stroke-linecap:butt;stroke-linejoin:miter;stroke-miterlimit:10;stroke-dasharray:19.9476, 19.9476;stroke-dashoffset:0;stroke-opacity:1"
       transform="matrix(0.04233334,0,0,-0.04233334,-86.747351,324.00197)"
       clip-path="url(#clipPath100)" />
    <path
       id="path101"
       d="m 2135.32,2149.88 107.51,221.09 107.51,221.1 107.51,221.1 107.51,221.1 107.51,221.1 107.51,221.09 107.51,221.1 107.5,221.1 107.52,221.1 107.5,221.1 107.52,221.1 107.5,221.1 107.52,221.1 107.5,221.09 107.51,221.11 107.52,221.09 107.5,221.1 107.52,221.1 107.5,221.1 107.52,221.1 107.5,221.1 107.52,221.1 107.5,221.09 107.51,221.1 107.51,221.1 107.51,221.1 107.51,221.1 107.51,221.1 107.51,221.09 107.51,221.11 107.51,221.09 107.51,221.1 107.51,221.1 107.51,221.1 107.51,221.1 107.51,221.07 107.51,221.1 107.51,221.1 107.51,221.1 107.51,221.1 107.51,221.1 107.51,221.1 107.51,221.1 107.51,221.1 107.51,221.1 107.51,221.1 107.51,221.1 107.51,221.1 107.51,221.1"
       style="fill:none;stroke:#b2b2ff;stroke-width:5.97758;stroke-linecap:butt;stroke-linejoin:miter;stroke-miterlimit:10;stroke-dasharray:19.9119, 19.9119;stroke-dashoffset:0;stroke-opacity:1"
       transform="matrix(0.04233334,0,0,-0.04233334,-86.747351,324.00197)"
       clip-path="url(#clipPath102)" />
    <path
       id="path103"
       d="m 2135.32,-721.461 107.51,456.973 107.51,456.972 107.51,456.969 107.51,456.977 107.51,456.97 107.51,456.97 107.51,456.97 107.5,456.97 107.52,456.98 107.5,456.97 107.52,456.97 107.5,456.97 107.52,456.97 107.5,456.97 107.51,456.98 107.52,456.97 107.5,456.97 107.52,456.97 107.5,456.97 107.52,456.98 107.5,456.97 107.52,456.97 107.5,456.97 107.51,457.01 107.51,456.9 107.51,457 107.51,457 107.51,457 107.51,456.9 107.51,457 107.51,457 107.51,456.9 107.51,457 107.51,457 107.51,457 107.51,456.9 107.51,457 107.51,457 107.51,456.9 107.51,457 107.51,457 107.51,457 107.51,456.9 107.51,457 107.51,457 107.51,457 107.51,456.9 107.51,457 107.51,457"
       style="fill:none;stroke:#b2ffb2;stroke-width:5.97758;stroke-linecap:butt;stroke-linejoin:miter;stroke-miterlimit:10;stroke-dasharray:19.916, 19.916;stroke-dashoffset:0;stroke-opacity:1"
       transform="matrix(0.04233334,0,0,-0.04233334,-86.747351,324.00197)"
       clip-path="url(#clipPath104)" />
    <path
       id="path105"
       d="m 2135.32,7741.89 107.51,-177.59 107.51,-177.58 107.51,-177.59 107.51,-177.58 107.51,-177.59 107.51,-177.59 107.51,-177.58 107.5,-177.59 107.52,-177.59 107.5,-177.59 107.52,-177.58 107.5,-177.59 107.52,-177.58 107.5,-177.59 107.51,-177.59 107.52,-177.59 107.5,-177.58 107.52,-177.59 107.5,-177.59 107.52,-177.58 107.5,-177.59 107.52,-177.59 107.5,-177.58 107.51,-177.59 107.51,-177.59 107.51,-177.58 107.51,-177.59 107.51,-177.59 107.51,-177.58 107.51,-177.59 107.51,-177.59 107.51,-177.58 107.51,-177.59 107.51,-177.58 107.51,-177.59 107.51,-177.59 107.51,-177.59 107.51,-177.582 107.51,-177.59 107.51,-177.586 107.51,-177.586 107.51,-177.586 107.51,-177.59 107.51,-177.5858 107.51,-177.5862 107.51,-177.586 107.51,-177.59 107.51,-177.585 107.51,-177.586"
       style="fill:none;stroke:#b2ffb2;stroke-width:5.97758;stroke-linecap:butt;stroke-linejoin:miter;stroke-miterlimit:10;stroke-dasharray:19.9063, 19.9063;stroke-dashoffset:0;stroke-opacity:1"
       transform="matrix(0.04233334,0,0,-0.04233334,-86.747351,324.00197)"
       clip-path="url(#clipPath106)" />
    <path
       id="path107"
       d="m 2901.55,6314.37 48.6,-18.53 48.59,-18.53 48.6,-18.52 48.59,-18.54 48.59,-18.52 48.6,-18.53 48.59,-18.53 48.59,-18.53 48.6,-18.53 48.59,-18.53 48.6,-18.53 48.59,-18.52 48.59,-18.53 48.6,-18.53 48.59,-18.53 48.59,-18.53 48.6,-18.53 48.59,-18.52 48.6,-18.54 48.59,-18.52 48.59,-18.53 48.6,-18.53 48.59,-18.53 48.6,-18.53 48.59,-18.53 48.6,-18.52 48.59,-18.53 48.59,-18.53 48.6,-18.53 48.59,-18.53 48.59,-18.53 48.6,-18.53 48.59,-18.52 48.6,-18.53 48.59,-18.53 48.59,-18.53 48.6,-18.53 48.59,-18.53 48.59,-18.53 48.6,-18.52 48.59,-18.53 48.6,-18.53 48.59,-18.53 48.59,-18.53 48.6,-18.53 48.6,-18.53 48.59,-18.53 48.59,-18.52 48.59,-18.53"
       style="fill:none;stroke:#ec008c;stroke-width:5.97758;stroke-linecap:butt;stroke-linejoin:miter;stroke-miterlimit:10;stroke-dasharray:none;stroke-opacity:1"
       transform="matrix(0.04233334,0,0,-0.04233334,-86.747351,324.00197)"
       clip-path="url(#clipPath108)" />
    <path
       id="path109"
       d="m 1.2533047,-0.03463281 0.09375,0.0351562475 C 1.6400234,0.08255469 1.8040859,0.11771094 1.9212734,0.11771094 c 0.609375,0 1.8632813,-0.796875 2.3320313,-1.47656254 0.4453125,-0.6679687 0.8203125,-1.875 0.8203125,-2.6835937 0,-0.7382813 -0.2460938,-1.21875 -0.6445313,-1.21875 -0.4570312,0 -1.03125,0.28125 -1.6054687,0.796875 -0.4453125,0.3867187 -0.6679688,0.6679687 -1.0546875,1.3125 l 0.2578125,-1.3007813 c 0.035156,-0.1875 0.058594,-0.3515625 0.058594,-0.4804687 0,-0.2109375 -0.09375,-0.328125 -0.2460937,-0.328125 -0.2226563,0 -0.6445313,0.234375 -1.44140626,0.8085937 l -0.31640625,0.2226563 0.08203125,0.2109375 0.3515625,-0.2226563 c 0.3046875,-0.1992187 0.421875,-0.2578125 0.51562496,-0.2578125 0.1171875,0 0.1875,0.1054688 0.1875,0.2578125 0,0.082031 -0.023437,0.3046875 -0.035156,0.4101563 L 0.55017969,-0.08150781 C 0.43299219,0.56302344 0.23377344,1.5591172 0.01111719,2.5434922 l -0.09375,0.3984375 0.0820312475,0.070312 C 0.23377344,2.9302109 0.44471094,2.8833359 0.79627344,2.8247422 Z M 1.5579922,-1.8041641 c 0.2460937,-1.3945312 1.40625,-2.8242187 2.3203125,-2.8242187 0.28125,0 0.4101562,0.2460937 0.4101562,0.75 0,0.8789062 -0.4335937,2.1796875 -1.0195312,3.01171874 -0.2109375,0.31640625 -0.5625,0.46875 -1.0078125,0.46875 -0.3398438,0 -0.609375,-0.0703125 -0.9023438,-0.24609375 z m 0,0"
       style="fill:#ec008c;fill-opacity:1;fill-rule:nonzero;stroke:none"
       aria-label="p"
       transform="matrix(0.42333331,0,0,0.42333331,54.268789,61.455297)"
       clip-path="url(#clipPath110)" />
    <path
       id="path111"
       d="m -1.9909531,3.125e-5 c 0,1.10156245 0.890625,1.99218745 1.99218747,1.99218745 1.10156253,0 1.99218753,-0.890625 1.99218753,-1.99218745 0,-1.10156255 -0.890625,-1.99218755 -1.99218753,-1.99218755 -1.10156247,0 -1.99218747,0.890625 -1.99218747,1.99218755 z m 0,0"
       style="fill:#ffffff;fill-opacity:1;fill-rule:nonzero;stroke:none"
       aria-label="b"
       transform="matrix(0.42333331,0,0,0.42333331,74.485075,115.59793)"
       clip-path="url(#clipPath112)" />
    <g
       id="g112"
       aria-label="c&#10;A"
       transform="matrix(0.42333331,0,0,0.42333331,74.485075,115.59793)"
       clip-path="url(#clipPath115)">
      <path
         id="path113"
         d="m -1.7917344,3.125e-5 c 0,-0.984375 0.80859377,-1.79296875 1.79296877,-1.79296875 0.984375,0 1.79296873,0.80859375 1.79296873,1.79296875 0,0.984375 -0.80859373,1.79296875 -1.79296873,1.79296875 -0.984375,0 -1.79296877,-0.80859375 -1.79296877,-1.79296875 z m -0.1992187,0 c 0,1.10156245 0.890625,1.99218745 1.99218747,1.99218745 1.10156253,0 1.99218753,-0.890625 1.99218753,-1.99218745 0,-1.10156255 -0.890625,-1.99218755 -1.99218753,-1.99218755 -1.10156247,0 -1.99218747,0.890625 -1.99218747,1.99218755 z m 0,0"
         style="fill:#000000;fill-opacity:1;fill-rule:nonzero;stroke:none" />
      <path
         id="path114"
         d="m -5.4391953,-10.248016 -4.0664063,6.4687504 c -0.3984375,0.609375 -0.5859374,0.7851562 -0.9609374,0.8671875 l -0.222656,0.058594 v 0.328125 c 1.0078122,-0.035156 1.0078122,-0.035156 1.2304684,-0.035156 0.1992188,0 0.2226563,0 1.1601563,0.035156 v -0.3046875 l -0.5625,-0.035156 c -0.1757813,-0.011719 -0.3398438,-0.1054688 -0.3398438,-0.2109375 0,-0.082031 0.070312,-0.234375 0.28125,-0.5976563 l 1.1132813,-1.9101562 h 2.6835937 l 0.2695313,2.0507812 v 0.035156 c 0,0.011719 0.011719,0.046875 0.023437,0.09375 0.011719,0.09375 0.023437,0.1992187 0.023437,0.2460937 0,0.1757813 -0.1640625,0.2695313 -0.46875,0.2929688 l -0.4804688,0.035156 v 0.3046875 c 1.1132813,-0.035156 1.1132813,-0.035156 1.3359375,-0.035156 0.2109375,0 0.2109375,0 1.3242188,0.035156 v -0.3046875 l -0.28125,-0.035156 c -0.515625,-0.082031 -0.5273438,-0.082031 -0.609375,-0.5625 l -0.9492188,-6.8203131 z m -0.140625,1.1250004 0.3984375,3.1523437 h -2.3554688 z m 0,0"
         style="fill:#000000;fill-opacity:1;fill-rule:nonzero;stroke:none" />
    </g>
    <path
       id="path116"
       d="m -1.9931094,0.00146094 c 0,1.10156246 0.890625,1.99218746 1.992187525,1.99218746 1.101562475,0 1.992187475,-0.890625 1.992187475,-1.99218746 0,-1.10156254 -0.890625,-1.99218754 -1.992187475,-1.99218754 -1.101562525,0 -1.992187525,0.890625 -1.992187525,1.99218754 z m 0,0"
       style="fill:#ffffff;fill-opacity:1;fill-rule:nonzero;stroke:none"
       aria-label="b"
       transform="matrix(0.42333331,0,0,0.42333331,82.884854,135.99795)"
       clip-path="url(#clipPath117)" />
    <g
       id="g117"
       aria-label="c&#10;B"
       transform="matrix(0.42333331,0,0,0.42333331,82.884854,135.99795)"
       clip-path="url(#clipPath120)">
      <path
         id="path118"
         d="m -1.7938906,0.00146094 c 0,-0.984375 0.80859373,-1.79296874 1.792968725,-1.79296874 0.984375005,0 1.792968775,0.80859374 1.792968775,1.79296874 0,0.984375 -0.80859377,1.79296876 -1.792968775,1.79296876 -0.984374995,0 -1.792968725,-0.80859376 -1.792968725,-1.79296876 z m -0.1992188,0 c 0,1.10156246 0.890625,1.99218746 1.992187525,1.99218746 1.101562475,0 1.992187475,-0.890625 1.992187475,-1.99218746 0,-1.10156254 -0.890625,-1.99218754 -1.992187475,-1.99218754 -1.101562525,0 -1.992187525,0.890625 -1.992187525,1.99218754 z m 0,0"
         style="fill:#000000;fill-opacity:1;fill-rule:nonzero;stroke:none" />
      <path
         id="path119"
         d="m -2.1864687,3.8569297 0.5859375,0.023437 c 0.2578125,0.011719 0.375,0.09375 0.375,0.2929687 0,0.1523438 -0.035156,0.5039063 -0.09375,0.8320313 L -2.2685,10.501461 c -0.046875,0.199219 -0.1757812,0.269531 -0.6328125,0.351562 l -0.058594,0.28125 0.4101562,-0.01172 c 0.2929688,-0.02344 0.4570313,-0.02344 0.5859375,-0.02344 0.1171875,0 0.3984375,0.01172 0.6914063,0.02344 l 0.39843745,0.01172 0.22265625,0.01172 c 0.19921875,0.01172 0.33984375,0.02344 0.43359375,0.02344 0.52734375,0 1.04296875,-0.152344 1.55859375,-0.46875 0.8671875,-0.503907 1.3476563,-1.2539066 1.3476563,-2.0742191 0,-0.46875 -0.1640625,-0.8320312 -0.4570313,-1.078125 C 1.95025,7.3256797 1.622125,7.2202109 0.872125,7.1147422 1.4932188,6.9038047 1.76275,6.7631797 2.1025938,6.4584922 c 0.5039062,-0.421875 0.75,-0.9375 0.75,-1.4882813 0,-0.9023437 -0.6328125,-1.4179687 -1.7226563,-1.4179687 -0.023437,0 -0.1289062,0 -0.29296875,0.011719 l -0.6796875,0.011719 c -0.140625,0.011719 -0.52734375,0.011719 -0.65625,0.011719 -0.2109375,0 -0.55078125,-0.011719 -1.07812495,-0.023437 l -0.5742188,-0.011719 z m 1.31249995,3.5273437 H 0.0518125 c 1.125,0 1.6757813,0.46875 1.6757813,1.4179688 0,1.1132812 -0.79687505,1.9218748 -1.8867188,1.9218748 -0.22265625,0 -0.5390625,-0.01172 -0.9023437,-0.03516 -0.058594,-0.01172 -0.1992188,-0.02344 -0.3632813,-0.03516 z m 0.59765625,-3.375 c 0.1171875,0 0.140625,-0.011719 0.375,-0.023437 0.22265625,-0.023437 0.375,-0.035156 0.50390625,-0.035156 0.87890625,0 1.31250005,0.3984375 1.31250005,1.21875 0,1.1367187 -0.8085938,1.828125 -2.15625005,1.828125 h -0.5625 z m 0,0"
         style="fill:#000000;fill-opacity:1;fill-rule:nonzero;stroke:none" />
    </g>
    <path
       id="path121"
       d="m -1.9909687,8.59375e-4 c 0,1.101562525 0.890625,1.992187525 1.99218745,1.992187525 1.10156255,0 1.99218755,-0.890625 1.99218755,-1.992187525 0,-1.101562475 -0.890625,-1.992187475 -1.99218755,-1.992187475 -1.10156245,0 -1.99218745,0.890625 -1.99218745,1.992187475 z m 0,0"
       style="fill:#ffffff;fill-opacity:1;fill-rule:nonzero;stroke:none"
       aria-label="b"
       transform="matrix(0.42333331,0,0,0.42333331,112.88521,121.59784)"
       clip-path="url(#clipPath122)" />
    <g
       id="g122"
       aria-label="c&#10;C"
       transform="matrix(0.42333331,0,0,0.42333331,112.88521,121.59784)"
       clip-path="url(#clipPath125)">
      <path
         id="path123"
         d="m -1.79175,8.59375e-4 c 0,-0.984374995 0.80859375,-1.792968775 1.79296875,-1.792968775 0.984375,0 1.79296875,0.80859378 1.79296875,1.792968775 0,0.984375005 -0.80859375,1.792968725 -1.79296875,1.792968725 -0.984375,0 -1.79296875,-0.80859372 -1.79296875,-1.792968725 z m -0.1992187,0 c 0,1.101562525 0.890625,1.992187525 1.99218745,1.992187525 1.10156255,0 1.99218755,-0.890625 1.99218755,-1.992187525 0,-1.101562475 -0.890625,-1.992187475 -1.99218755,-1.992187475 -1.10156245,0 -1.99218745,0.890625 -1.99218745,1.992187475 z m 0,0"
         style="fill:#000000;fill-opacity:1;fill-rule:nonzero;stroke:none" />
      <path
         id="path124"
         d="m 10.184813,-1.9385937 h 0.292968 c 0.05859,-0.6210938 0.140625,-1.0898438 0.292969,-1.59375 C 9.9387188,-3.84875 9.317625,-3.9776562 8.6496563,-3.9776562 c -0.9023438,0 -1.7929688,0.2695312 -2.5546875,0.7851562 -1.2773438,0.8554688 -1.9335938,2.1445313 -1.9335938,3.8203125 0,2.109375 1.171875,3.2929688 3.2460938,3.2929688 1.0546875,0 1.828125,-0.2578125 2.8125002,-0.9257813 L 10.325438,2.5965625 10.219969,2.52625 C 9.1887188,3.1473438 8.6262188,3.3348438 7.77075,3.3348438 c -1.7109375,0 -2.6484375,-1.0429688 -2.6484375,-2.9882813 0,-1.20703125 0.3632813,-2.2851562 1.03125,-2.9648437 0.515625,-0.5273438 1.21875,-0.7851563 2.0742188,-0.7851563 0.7734375,0 1.3476562,0.1523438 1.9570317,0.5507813 z m 0,0"
         style="fill:#000000;fill-opacity:1;fill-rule:nonzero;stroke:none" />
    </g>
    <path
       id="path126"
       d="m -1.9908984,-0.00103125 c 0,1.10156245 0.890625,1.99218745 1.99218746,1.99218745 1.10156254,0 1.99218754,-0.890625 1.99218754,-1.99218745 0,-1.10156255 -0.890625,-1.99218755 -1.99218754,-1.99218755 -1.10156246,0 -1.99218746,0.890625 -1.99218746,1.99218755 z m 0,0"
       style="fill:#ffffff;fill-opacity:1;fill-rule:nonzero;stroke:none"
       aria-label="b"
       transform="matrix(0.42333331,0,0,0.42333331,82.721446,81.715185)"
       clip-path="url(#clipPath127)" />
    <g
       id="g127"
       aria-label="c&#10;D"
       transform="matrix(0.42333331,0,0,0.42333331,82.721446,81.715185)"
       clip-path="url(#clipPath130)">
      <path
         id="path128"
         d="m -1.7916797,-0.00103125 c 0,-0.984375 0.80859376,-1.79296875 1.79296876,-1.79296875 0.984375,0 1.79296874,0.80859375 1.79296874,1.79296875 0,0.984375 -0.80859374,1.79296875 -1.79296874,1.79296875 -0.984375,0 -1.79296876,-0.80859375 -1.79296876,-1.79296875 z m -0.1992187,0 c 0,1.10156245 0.890625,1.99218745 1.99218746,1.99218745 1.10156254,0 1.99218754,-0.890625 1.99218754,-1.99218745 0,-1.10156255 -0.890625,-1.99218755 -1.99218754,-1.99218755 -1.10156246,0 -1.99218746,0.890625 -1.99218746,1.99218755 z m 0,0"
         style="fill:#000000;fill-opacity:1;fill-rule:nonzero;stroke:none" />
      <path
         id="path129"
         d="m -2.4039844,-3.903375 -0.058594,0.28125 1.0195312,-0.035156 h 0.59765628 c 0.2109375,0 0.55078125,0.011719 1.01953125,0.023437 0.22265625,0.011719 0.38671875,0.011719 0.50390625,0.011719 0.78515622,0 1.32421872,-0.1171875 1.88671872,-0.4101563 1.6992188,-0.8671875 2.7539063,-2.5195312 2.7539063,-4.3242187 0,-1.0664063 -0.328125,-1.839844 -0.9960938,-2.308594 -0.5039062,-0.351562 -1.4296875,-0.550781 -2.4609375,-0.539062 l -2.22656247,0.03516 h -0.10546875 c -0.10546875,0 -0.140625,0 -1.24218748,-0.03516 l -0.023437,0.304687 0.5742187,0.02344 c 0.25781253,0.01172 0.37500003,0.09375 0.37500003,0.292968 0,0.152344 -0.0351563,0.503907 -0.09375,0.8320317 l -0.94921873,5.4960938 c -0.035156,0.1757812 -0.1523438,0.2578125 -0.4921875,0.328125 z m 2.56640628,-6.84375 c 0.15234375,0 0.2109375,-0.01172 0.50390625,-0.02344 0.33984377,-0.02344 0.56249997,-0.03516 0.76171877,-0.03516 1.9804687,0 2.8828125,0.8320315 2.8828125,2.6250002 0,1.2773438 -0.4101563,2.4140625 -1.1484375,3.1757813 -0.5976563,0.5976562 -1.3945313,0.9023437 -2.34375002,0.9023437 -0.48046875,0 -1.0078125,-0.058594 -1.7578125,-0.1640625 0,-0.1289062 0.0117188,-0.2109375 0.046875,-0.4101562 z m 0,0"
         style="fill:#000000;fill-opacity:1;fill-rule:nonzero;stroke:none" />
    </g>
    <path
       id="path131"
       d="m -1.9929141,-7.1875e-4 c 0,1.10156245 0.890625,1.99218745 1.9921875375,1.99218745 1.1015624625,0 1.9921874625,-0.890625 1.9921874625,-1.99218745 0,-1.10156255 -0.890625,-1.99218755 -1.9921874625,-1.99218755 -1.1015625375,0 -1.9921875375,0.890625 -1.9921875375,1.99218755 z m 0,0"
       style="fill:#ffffff;fill-opacity:1;fill-rule:nonzero;stroke:none"
       aria-label="b"
       transform="matrix(0.42333331,0,0,0.42333331,59.051187,119.05107)"
       clip-path="url(#clipPath132)" />
    <g
       id="g132"
       aria-label="c&#10;D&#10;′"
       transform="matrix(0.42333331,0,0,0.42333331,59.051187,119.05107)"
       clip-path="url(#clipPath136)">
      <path
         id="path133"
         d="m -1.7936953,-7.1875e-4 c 0,-0.984375 0.80859374,-1.79296875 1.7929687375,-1.79296875 0.9843750025,0 1.7929687625,0.80859375 1.7929687625,1.79296875 0,0.984375 -0.80859376,1.79296875 -1.7929687625,1.79296875 C -0.98510156,1.79225 -1.7936953,0.98365625 -1.7936953,-7.1875e-4 Z m -0.1992188,0 c 0,1.10156245 0.890625,1.99218745 1.9921875375,1.99218745 1.1015624625,0 1.9921874625,-0.890625 1.9921874625,-1.99218745 0,-1.10156255 -0.890625,-1.99218755 -1.9921874625,-1.99218755 -1.1015625375,0 -1.9921875375,0.890625 -1.9921875375,1.99218755 z m 0,0"
         style="fill:#000000;fill-opacity:1;fill-rule:nonzero;stroke:none" />
      <path
         id="path134"
         d="m -14.895258,3.9543594 -0.05859,0.28125 1.019532,-0.035156 h 0.597656 c 0.210937,0 0.550781,0.011719 1.019531,0.023437 0.222656,0.011719 0.386719,0.011719 0.503906,0.011719 0.785157,0 1.324219,-0.1171875 1.8867192,-0.4101563 1.6992187,-0.8671875 2.7539062,-2.5195312 2.7539062,-4.32421873 0,-1.06640627 -0.328125,-1.83984377 -0.9960937,-2.30859377 -0.5039063,-0.3515625 -1.4296875,-0.5507812 -2.4609377,-0.5390625 l -2.226562,0.035156 h -0.105469 c -0.105469,0 -0.140625,0 -1.242188,-0.035156 l -0.02344,0.3046875 0.574219,0.023437 c 0.257812,0.011719 0.375,0.09375 0.375,0.2929688 0,0.1523437 -0.03516,0.5039062 -0.09375,0.8320312 l -0.949219,5.4960938 c -0.03516,0.1757812 -0.152344,0.2578125 -0.492188,0.328125 z m 2.566406,-6.84375 c 0.152344,0 0.210938,-0.011719 0.503907,-0.023437 0.339843,-0.023437 0.5625,-0.035156 0.761718,-0.035156 1.9804692,0 2.8828129,0.8320313 2.8828129,2.62500002 0,1.27734375 -0.4101562,2.41406248 -1.1484375,3.17578128 -0.5976562,0.5976562 -1.3945314,0.9023437 -2.3437504,0.9023437 -0.480468,0 -1.007812,-0.058594 -1.757812,-0.1640625 0,-0.1289062 0.01172,-0.2109375 0.04687,-0.4101562 z m 0,0"
         style="fill:#000000;fill-opacity:1;fill-rule:nonzero;stroke:none" />
      <path
         id="path135"
         d="m -4.281,-3.7097031 c 0.046875,-0.09375 0.082031,-0.1757813 0.082031,-0.2578125 0,-0.234375 -0.2226563,-0.4335938 -0.4804688,-0.4335938 -0.234375,0 -0.375,0.1523438 -0.4335937,0.375 l -0.9960938,3.62109377 c 0,0.0234375 -0.023437,0.1171875 -0.023437,0.1171875 0,0.09375 0.2109375,0.15234375 0.28125,0.15234375 0.046875,0 0.058594,-0.0234375 0.1054688,-0.12890625 z m 0,0"
         style="fill:#000000;fill-opacity:1;fill-rule:nonzero;stroke:none" />
    </g>
    <path
       id="path137"
       d="m -1.9909219,-1.796875e-4 c 0,1.1015624875 0.890625,1.9921874875 1.99218753,1.9921874875 1.10156247,0 1.99218747,-0.890625 1.99218747,-1.9921874875 0,-1.1015625125 -0.890625,-1.9921875125 -1.99218747,-1.9921875125 -1.10156253,0 -1.99218753,0.890625 -1.99218753,1.9921875125 z m 0,0"
       style="fill:#ffffff;fill-opacity:1;fill-rule:nonzero;stroke:none"
       aria-label="b"
       transform="matrix(0.42333331,0,0,0.42333331,75.472287,85.280496)"
       clip-path="url(#clipPath138)" />
    <g
       id="g138"
       aria-label="c&#10;E"
       transform="matrix(0.42333331,0,0,0.42333331,75.472287,85.280496)"
       clip-path="url(#clipPath141)">
      <path
         id="path139"
         d="m -1.7917031,-1.796875e-4 c 0,-0.9843750025 0.80859373,-1.7929687125 1.79296873,-1.7929687125 0.984375,0 1.79296877,0.80859371 1.79296877,1.7929687125 0,0.9843749975 -0.80859377,1.7929687875 -1.79296877,1.7929687875 -0.984375,0 -1.79296873,-0.80859379 -1.79296873,-1.7929687875 z m -0.1992188,0 c 0,1.1015624875 0.890625,1.9921874875 1.99218753,1.9921874875 1.10156247,0 1.99218747,-0.890625 1.99218747,-1.9921874875 0,-1.1015625125 -0.890625,-1.9921875125 -1.99218747,-1.9921875125 -1.10156253,0 -1.99218753,0.890625 -1.99218753,1.9921875125 z m 0,0"
         style="fill:#000000;fill-opacity:1;fill-rule:nonzero;stroke:none" />
      <path
         id="path140"
         d="m -2.2047891,-7.3009609 h 1.27734379 c 0.29296875,0 0.6328125,0.011719 1.1484375,0.035156 l 0.29296875,0.011719 0.19921875,-0.4921875 -0.0351563,-0.082031 c -0.890625,0.046875 -1.546875,0.070312 -2.39062509,0.070312 h -0.4101562 l 0.4570312,-2.6015626 c 0.035156,-0.175781 0.058594,-0.257812 0.1054688,-0.339843 l 0.5039062,-0.02344 c 0.35156259,-0.01172 0.70312509,-0.02344 0.94921884,-0.02344 0.66796875,0 1.11328116,0.09375 1.12499996,0.257812 l 0.09375,0.9726561 h 0.2578125 c 0.035156,-0.7031251 0.1054687,-1.2421871 0.234375,-1.6523431 -0.234375,-0.02344 -0.5625,-0.03516 -0.76171871,-0.03516 -0.0234375,0 -0.15234375,0 -0.41015625,0.01172 l -1.3125,0.01172 c -0.09375,0.01172 -0.73828134,0.01172 -0.84375004,0.01172 -0.4101563,0 -0.703125,0 -1.2539063,-0.02344 l -0.4921875,-0.01172 -0.035156,0.304688 0.5859375,0.02344 c 0.2695312,0.01172 0.3867187,0.09375 0.3867187,0.292969 0,0.152344 -0.046875,0.503906 -0.1054687,0.8320311 l -0.9492188,5.4960938 c -0.035156,0.1992187 -0.1640625,0.2695312 -0.6445312,0.3515625 l -0.058594,0.28125 0.4453125,-0.011719 c 0.3398438,-0.011719 1.0195313,-0.023437 1.2304688,-0.023437 l 2.34375004,0.035156 h 0.1171875 c 0.15234375,0 0.421875,-0.011719 0.78515625,-0.023437 l 0.36328125,-0.011719 0.0351562,-0.3984375 c 0.023437,-0.2109375 0.082031,-0.5390625 0.1757813,-1.078125 l 0.058594,-0.28125 H 0.97099219 l -0.17578125,0.65625 c -0.1171875,0.3867188 -0.2109375,0.5273438 -0.4453125,0.5742188 -0.22265625,0.046875 -1.01953125,0.1054687 -1.60546874,0.1054687 -0.4453125,0 -0.6914063,-0.011719 -1.4414063,-0.082031 v -0.046875 c 0,-0.1523438 0.011719,-0.234375 0.023437,-0.328125 z m 0,0"
         style="fill:#000000;fill-opacity:1;fill-rule:nonzero;stroke:none" />
    </g>
    <path
       id="path142"
       d="m -1.9907734,9.765625e-4 c 0,1.1015625375 0.890625,1.9921875375 1.99218746,1.9921875375 1.10156254,0 1.99218754,-0.890625 1.99218754,-1.9921875375 0,-1.1015624625 -0.890625,-1.9921874625 -1.99218754,-1.9921874625 -1.10156246,0 -1.99218746,0.890625 -1.99218746,1.9921874625 z m 0,0"
       style="fill:#ffffff;fill-opacity:1;fill-rule:nonzero;stroke:none"
       aria-label="b"
       transform="matrix(0.42333331,0,0,0.42333331,97.624048,151.49364)"
       clip-path="url(#clipPath143)" />
    <g
       id="g143"
       aria-label="c&#10;E&#10;′"
       transform="matrix(0.42333331,0,0,0.42333331,97.624048,151.49364)"
       clip-path="url(#clipPath147)">
      <path
         id="path144"
         d="m -1.7915547,9.765625e-4 c 0,-0.9843750025 0.80859376,-1.7929687625 1.79296876,-1.7929687625 0.984375,0 1.79296874,0.80859376 1.79296874,1.7929687625 0,0.9843749975 -0.80859374,1.7929687375 -1.79296874,1.7929687375 -0.984375,0 -1.79296876,-0.80859374 -1.79296876,-1.7929687375 z m -0.1992187,0 c 0,1.1015625375 0.890625,1.9921875375 1.99218746,1.9921875375 1.10156254,0 1.99218754,-0.890625 1.99218754,-1.9921875375 0,-1.1015624625 -0.890625,-1.9921874625 -1.99218754,-1.9921874625 -1.10156246,0 -1.99218746,0.890625 -1.99218746,1.9921874625 z m 0,0"
         style="fill:#000000;fill-opacity:1;fill-rule:nonzero;stroke:none" />
      <path
         id="path145"
         d="m -2.3862812,8.4443359 h 1.2773437 c 0.29296875,0 0.6328125,0.011719 1.1484375,0.035156 L 0.33246875,8.4912109 0.5316875,7.9990234 0.49653125,7.9169922 c -0.890625,0.046875 -1.54687495,0.070312 -2.39062495,0.070312 H -2.30425 l 0.4570313,-2.601562 C -1.8120625,5.2099609 -1.788625,5.1279297 -1.74175,5.0458984 l 0.5039063,-0.023437 c 0.35156245,-0.011719 0.70312495,-0.023437 0.9492187,-0.023437 0.66796875,0 1.11328125,0.09375 1.125,0.2578125 l 0.09375,0.9726563 h 0.2578125 c 0.035156,-0.703125 0.1054688,-1.2421875 0.234375,-1.6523438 -0.234375,-0.023437 -0.5625,-0.035156 -0.76171875,-0.035156 -0.0234375,0 -0.15234375,0 -0.41015625,0.011719 l -1.3125,0.011719 c -0.09375,0.011719 -0.7382812,0.011719 -0.84375,0.011719 -0.4101562,0 -0.703125,0 -1.2539062,-0.023437 l -0.4921875,-0.011719 -0.035156,0.3046875 0.5859375,0.023437 c 0.2695313,0.011719 0.3867188,0.09375 0.3867188,0.2929687 0,0.1523438 -0.046875,0.5039063 -0.1054688,0.8320313 l -0.9492187,5.4960941 c -0.035156,0.199219 -0.1640625,0.269531 -0.6445313,0.351562 l -0.058594,0.28125 0.4453125,-0.01172 c 0.3398437,-0.01172 1.0195312,-0.02344 1.2304687,-0.02344 l 2.34375,0.03516 H -0.3355 c 0.15234375,0 0.421875,-0.01172 0.78515625,-0.02344 L 0.8129375,12.088867 0.84809375,11.69043 C 0.87153125,11.479492 0.930125,11.151367 1.023875,10.612305 l 0.058594,-0.28125 H 0.7895 l -0.17578125,0.65625 c -0.1171875,0.386718 -0.2109375,0.527343 -0.4453125,0.574218 -0.22265625,0.04687 -1.01953125,0.105469 -1.60546875,0.105469 -0.4453125,0 -0.6914062,-0.01172 -1.4414062,-0.08203 v -0.04687 c 0,-0.152344 0.011719,-0.234375 0.023437,-0.328125 z m 0,0"
         style="fill:#000000;fill-opacity:1;fill-rule:nonzero;stroke:none" />
      <path
         id="path146"
         d="m 4.25825,4.1787109 c 0.046875,-0.09375 0.082031,-0.1757812 0.082031,-0.2578125 0,-0.234375 -0.2226563,-0.4335937 -0.4804688,-0.4335937 -0.234375,0 -0.375,0.1523437 -0.4335937,0.375 L 2.430125,7.4833984 c 0,0.023437 -0.023437,0.1171875 -0.023437,0.1171875 0,0.09375 0.2109375,0.1523438 0.28125,0.1523438 0.046875,0 0.058594,-0.023437 0.1054688,-0.1289063 z m 0,0"
         style="fill:#000000;fill-opacity:1;fill-rule:nonzero;stroke:none" />
    </g>
    <path
       id="path148"
       d="m -1.9922891,0.00101562 c 0,1.10156248 0.890625,1.99218748 1.9921875375,1.99218748 1.1015624625,0 1.9921874625,-0.890625 1.9921874625,-1.99218748 0,-1.10156252 -0.890625,-1.99218752 -1.9921874625,-1.99218752 -1.1015625375,0 -1.9921875375,0.890625 -1.9921875375,1.99218752 z m 0,0"
       style="fill:#ffffff;fill-opacity:1;fill-rule:nonzero;stroke:none"
       aria-label="b"
       transform="matrix(0.42333331,0,0,0.42333331,64.349205,96.530157)"
       clip-path="url(#clipPath149)" />
    <g
       id="g149"
       aria-label="c&#10;F"
       transform="matrix(0.42333331,0,0,0.42333331,64.349205,96.530157)"
       clip-path="url(#clipPath152)">
      <path
         id="path150"
         d="m -1.7930703,0.00101562 c 0,-0.984375 0.80859374,-1.79296872 1.7929687375,-1.79296872 0.9843750025,0 1.7929687625,0.80859372 1.7929687625,1.79296872 0,0.984375 -0.80859376,1.79296878 -1.7929687625,1.79296878 -0.9843749975,0 -1.7929687375,-0.80859378 -1.7929687375,-1.79296878 z m -0.1992188,0 c 0,1.10156248 0.890625,1.99218748 1.9921875375,1.99218748 1.1015624625,0 1.9921874625,-0.890625 1.9921874625,-1.99218748 0,-1.10156252 -0.890625,-1.99218752 -1.9921874625,-1.99218752 -1.1015625375,0 -1.9921875375,0.890625 -1.9921875375,1.99218752 z m 0,0"
         style="fill:#000000;fill-opacity:1;fill-rule:nonzero;stroke:none" />
      <path
         id="path151"
         d="m -2.4083047,-10.701133 1.1601563,-0.04687 c 0.67968746,0 1.11328121,0.09375 1.12499996,0.257813 l 0.08203125,0.9726559 h 0.26953125 c 0.0234375,-0.6914059 0.10546875,-1.2421879 0.22265625,-1.6523439 -0.234375,-0.02344 -0.5390625,-0.03516 -0.7265625,-0.03516 l -0.4453125,0.01172 -1.80468751,0.02344 h -0.3164062 c -0.2695313,0 -0.703125,-0.01172 -1.125,-0.02344 l -0.5273438,-0.01172 -0.035156,0.304687 0.609375,0.02344 c 0.2578125,0.01172 0.375,0.105469 0.375,0.292969 0,0.152343 -0.035156,0.503906 -0.09375,0.8320309 l -0.8203125,4.734375 c -0.1875,0.9960938 -0.1875,1.0078125 -0.6328125,1.0546875 l -0.3867188,0.035156 -0.046875,0.3046875 0.375,-0.011719 c 0.4335938,-0.011719 0.7851563,-0.023437 1.0078125,-0.023437 0.1992188,0 0.515625,0.011719 0.9375,0.023437 l 0.5742188,0.011719 0.035156,-0.3046875 -0.703125,-0.035156 c -0.2929687,-0.011719 -0.3984375,-0.09375 -0.3984375,-0.3164062 0,-0.070312 0.011719,-0.1875 0.023437,-0.234375 l 0.3984375,-2.4257813 h 1.2773438 c 0.2929687,0 0.6328125,0.011719 1.14843746,0.035156 h 0.29296875 l 0.19921875,-0.4804688 -0.0351563,-0.082031 c -0.89062496,0.046875 -1.54687496,0.070312 -2.39062496,0.070312 h -0.4101562 l 0.5039062,-2.9648441 c 0.035156,-0.175781 0.046875,-0.222656 0.09375,-0.339844 z m 0,0"
         style="fill:#000000;fill-opacity:1;fill-rule:nonzero;stroke:none" />
    </g>
    <path
       id="path153"
       d="m -1.9931016,-0.00100781 c 0,1.10156251 0.890625,1.99218751 1.9921875375,1.99218751 1.1015624625,0 1.9921874625,-0.890625 1.9921874625,-1.99218751 0,-1.10156249 -0.890625,-1.99218749 -1.9921874625,-1.99218749 -1.1015625375,0 -1.9921875375,0.890625 -1.9921875375,1.99218749 z m 0,0"
       style="fill:#ffffff;fill-opacity:1;fill-rule:nonzero;stroke:none"
       aria-label="b"
       transform="matrix(0.42333331,0,0,0.42333331,129.0104,127.06434)"
       clip-path="url(#clipPath154)" />
    <g
       id="g154"
       aria-label="c&#10;F&#10;′"
       transform="matrix(0.42333331,0,0,0.42333331,129.0104,127.06434)"
       clip-path="url(#clipPath158)">
      <path
         id="path155"
         d="m -1.7938828,-0.00100781 c 0,-0.984375 0.80859374,-1.79296879 1.7929687375,-1.79296879 0.9843750025,0 1.7929687625,0.80859379 1.7929687625,1.79296879 0,0.984375 -0.80859376,1.79296871 -1.7929687625,1.79296871 -0.9843749975,0 -1.7929687375,-0.80859371 -1.7929687375,-1.79296871 z m -0.1992188,0 c 0,1.10156251 0.890625,1.99218751 1.9921875375,1.99218751 1.1015624625,0 1.9921874625,-0.890625 1.9921874625,-1.99218751 0,-1.10156249 -0.890625,-1.99218749 -1.9921874625,-1.99218749 -1.1015625375,0 -1.9921875375,0.890625 -1.9921875375,1.99218749 z m 0,0"
         style="fill:#000000;fill-opacity:1;fill-rule:nonzero;stroke:none" />
      <path
         id="path156"
         d="m 7.1123672,-1.4512031 1.1601562,-0.046875 c 0.6796875,0 1.1132813,0.09375 1.125,0.2578125 l 0.082031,0.97265622 h 0.2695312 c 0.023437,-0.69140625 0.1054688,-1.24218752 0.2226563,-1.65234372 -0.234375,-0.023437 -0.5390625,-0.035156 -0.7265625,-0.035156 l -0.4453125,0.011719 -1.8046875,0.023437 h -0.316406 c -0.2695312,0 -0.703125,-0.011719 -1.125,-0.023437 l -0.5273437,-0.011719 -0.035156,0.3046875 0.609375,0.023437 c 0.2578125,0.011719 0.375,0.1054688 0.375,0.2929688 0,0.1523437 -0.035156,0.50390622 -0.09375,0.83203122 L 5.0615859,4.2323906 c -0.1875,0.9960938 -0.1875,1.0078125 -0.6328125,1.0546875 l -0.3867187,0.035156 -0.046875,0.3046875 0.375,-0.011719 c 0.4335937,-0.011719 0.7851562,-0.023437 1.0078125,-0.023437 0.1992187,0 0.515625,0.011719 0.9375,0.023437 l 0.5742187,0.011719 0.035156,-0.3046875 -0.703125,-0.035156 C 5.9287734,5.2753594 5.8233047,5.1933281 5.8233047,4.9706719 c 0,-0.070312 0.011719,-0.1875 0.023437,-0.234375 l 0.398438,-2.4257813 h 1.2773437 c 0.2929688,0 0.6328125,0.011719 1.1484375,0.035156 H 8.9639297 L 9.1631484,1.8652031 9.1279922,1.7831719 c -0.890625,0.046875 -1.546875,0.070312 -2.390625,0.070312 H 6.3272109 l 0.5039063,-2.9648438 c 0.035156,-0.1757812 0.046875,-0.2226562 0.09375,-0.3398437 z m 0,0"
         style="fill:#000000;fill-opacity:1;fill-rule:nonzero;stroke:none" />
      <path
         id="path157"
         d="m 12.570375,-2.3183906 c 0.04687,-0.09375 0.08203,-0.1757813 0.08203,-0.2578125 0,-0.234375 -0.222656,-0.4335938 -0.480468,-0.4335938 -0.234375,0 -0.375,0.1523438 -0.433594,0.375 L 10.74225,0.98629687 c 0,0.0234375 -0.02344,0.11718753 -0.02344,0.11718753 0,0.09375 0.210937,0.1523437 0.28125,0.1523437 0.04687,0 0.05859,-0.023437 0.105468,-0.1289062 z m 0,0"
         style="fill:#000000;fill-opacity:1;fill-rule:nonzero;stroke:none" />
    </g>
    <path
       id="path159"
       d="m -1.9931094,-4.140625e-4 c 0,1.1015624625 0.890625,1.9921874625 1.992187525,1.9921874625 1.101562475,0 1.992187475,-0.890625 1.992187475,-1.9921874625 0,-1.1015625375 -0.890625,-1.9921875375 -1.992187475,-1.9921875375 -1.101562525,0 -1.992187525,0.890625 -1.992187525,1.9921875375 z m 0,0"
       style="fill:#ffffff;fill-opacity:1;fill-rule:nonzero;stroke:none"
       aria-label="b"
       transform="matrix(0.42333331,0,0,0.42333331,96.219854,79.622646)"
       clip-path="url(#clipPath160)" />
    <g
       id="g160"
       aria-label="c&#10;N"
       transform="matrix(0.42333331,0,0,0.42333331,96.219854,79.622646)"
       clip-path="url(#clipPath163)">
      <path
         id="path161"
         d="m -1.7938906,-4.140625e-4 c 0,-0.9843749975 0.80859373,-1.7929687375 1.792968725,-1.7929687375 0.984375005,0 1.792968775,0.80859374 1.792968775,1.7929687375 0,0.9843750025 -0.80859377,1.7929687625 -1.792968775,1.7929687625 -0.984374995,0 -1.792968725,-0.80859376 -1.792968725,-1.7929687625 z m -0.1992188,0 c 0,1.1015624625 0.890625,1.9921874625 1.992187525,1.9921874625 1.101562475,0 1.992187475,-0.890625 1.992187475,-1.9921874625 0,-1.1015625375 -0.890625,-1.9921875375 -1.992187475,-1.9921875375 -1.101562525,0 -1.992187525,0.890625 -1.992187525,1.9921875375 z m 0,0"
         style="fill:#000000;fill-opacity:1;fill-rule:nonzero;stroke:none" />
      <path
         id="path162"
         d="m -0.14154687,-11.232836 -0.89062503,0.03516 h -0.2578125 c -0.035156,0 -0.1992187,-0.01172 -0.4453125,-0.02344 l -0.1757812,-0.01172 -0.058594,0.304688 0.3867188,0.02344 c 0.1875,0.01172 0.421875,0.08203 0.5390625,0.1875 0.16406248,0.128906 0.32812498,0.328125 0.32812498,0.421875 0,0.01172 0,0.04687 -0.0117188,0.07031 0,0.01172 0,0.03516 -0.0117188,0.05859 -0.0117188,0.08203 -0.0117188,0.164063 -0.0234375,0.1992191 l -0.96093748,5.1679687 c -0.140625,0.6796875 -0.1992188,0.7617188 -0.5976563,0.8085938 l -0.328125,0.035156 -0.058594,0.3046875 1.2070312,-0.035156 c 0.1289063,0 0.140625,0 1.20703128,0.035156 l 0.046875,-0.3046875 -0.45703125,-0.035156 c -0.43359373,-0.035156 -0.52734373,-0.1171875 -0.52734373,-0.4804688 0,-0.082031 0,-0.2109375 0.023437,-0.328125 l 0.87890623,-5.0625 3.67968747,6.2929688 h 0.5507813 l 1.03125,-6.0351563 C 5.155327,-10.834401 5.1787645,-10.881276 5.577202,-10.904714 l 0.4101563,-0.02344 0.058594,-0.304688 h -0.234375 l -0.9726562,0.03516 -0.9375,-0.03516 H 3.6904844 l -0.046875,0.304688 0.5039062,0.02344 c 0.2929688,0.01172 0.3984375,0.08203 0.3984375,0.257813 0,0.08203 -0.035156,0.363281 -0.058594,0.503906 l -0.8671875,5.3320311 z m 0,0"
         style="fill:#000000;fill-opacity:1;fill-rule:nonzero;stroke:none" />
    </g>
    <path
       id="path164"
       d="m -1.9909375,-7.8125e-4 c 0,1.10156245 0.890625,1.99218745 1.9921875,1.99218745 1.1015625,0 1.9921875,-0.890625 1.9921875,-1.99218745 0,-1.10156255 -0.890625,-1.99218755 -1.9921875,-1.99218755 -1.1015625,0 -1.9921875,0.890625 -1.9921875,1.99218755 z m 0,0"
       style="fill:#ffffff;fill-opacity:1;fill-rule:nonzero;stroke:none"
       aria-label="b"
       transform="matrix(0.42333331,0,0,0.42333331,117.84118,87.866641)"
       clip-path="url(#clipPath165)" />
    <g
       id="g165"
       aria-label="c&#10;P&#10;C"
       transform="matrix(0.42333331,0,0,0.42333331,117.84118,87.866641)"
       clip-path="url(#clipPath169)">
      <path
         id="path166"
         d="m -1.7917187,-7.8125e-4 c 0,-0.984375 0.8085937,-1.79296875 1.7929687,-1.79296875 0.984375,0 1.7929688,0.80859375 1.7929688,1.79296875 0,0.984375 -0.8085938,1.79296875 -1.7929688,1.79296875 -0.984375,0 -1.7929687,-0.80859375 -1.7929687,-1.79296875 z m -0.1992188,0 c 0,1.10156245 0.890625,1.99218745 1.9921875,1.99218745 1.1015625,0 1.9921875,-0.890625 1.9921875,-1.99218745 0,-1.10156255 -0.890625,-1.99218755 -1.9921875,-1.99218755 -1.1015625,0 -1.9921875,0.890625 -1.9921875,1.99218755 z m 0,0"
         style="fill:#000000;fill-opacity:1;fill-rule:nonzero;stroke:none" />
      <path
         id="path167"
         d="m 2.0198047,-10.861133 0.5976562,0.02344 c 0.2578125,0.01172 0.3867188,0.09375 0.3867188,0.292968 0,0.152344 -0.046875,0.492188 -0.1054688,0.8320317 l -0.8085937,4.734375 c -0.1875,0.984375 -0.1875,1.0195312 -0.6328125,1.0546875 l -0.4453125,0.035156 -0.046875,0.3046875 0.4570312,-0.011719 c 0.4570313,-0.011719 0.796875,-0.023437 0.984375,-0.023437 0.1875,0 0.5039063,0.011719 0.9375,0.023437 l 0.5859375,0.011719 0.023437,-0.3046875 -0.703125,-0.035156 c -0.28125,-0.011719 -0.3984375,-0.09375 -0.3984375,-0.328125 0,-0.09375 0.011719,-0.1757813 0.046875,-0.3867188 l 0.9023438,-5.3085937 c 0,-0.011719 0.035156,-0.2343747 0.09375,-0.4335937 0.011719,-0.05859 0.046875,-0.164063 0.070312,-0.304688 0.3984375,-0.07031 0.5742187,-0.09375 0.7851562,-0.09375 1.1015625,0 1.640625,0.480469 1.640625,1.5000004 0,1.171875 -0.7851562,2.1328125 -1.7460937,2.1328125 -0.234375,0 -0.4570313,-0.046875 -0.8554688,-0.1992187 l 0.011719,0.328125 c 0.4101562,0.1992187 0.6328125,0.2578125 0.9492187,0.2578125 1.40625,0 2.6015625,-1.2773438 2.6015625,-2.765625 0,-1.1015627 -0.6914062,-1.6757817 -1.9804687,-1.6406247 l -1.5117188,0.03516 -1.2304687,-0.02344 -0.5742188,-0.01172 z m 0,0"
         style="fill:#000000;fill-opacity:1;fill-rule:nonzero;stroke:none" />
      <path
         id="path168"
         d="m 18.915313,127.09199 c 0,-0.0703 -0.05859,-0.082 -0.117188,-0.082 -0.1875,0 -0.457031,0.16406 -0.46875,0.16406 -0.234375,0.15235 -0.28125,0.23438 -0.410156,0.42188 -0.351563,0.53906 -0.855469,0.92578 -1.59375,0.92578 -1.019531,0 -1.945313,-0.73828 -1.945313,-2.44922 0,-1.01953 0.410157,-2.36719 1.007813,-3.26953 0.503906,-0.72656 1.113281,-1.32422 2.285156,-1.32422 0.433594,0 0.714844,0.16406 0.714844,0.58594 0,0.39844 -0.421875,1.20703 -0.5625,1.42969 -0.07031,0.1289 -0.07031,0.15234 -0.07031,0.17578 0,0.082 0.05859,0.082 0.128907,0.082 0.222656,0 0.644531,-0.25781 0.785156,-0.4336 0.02344,-0.0469 0.679687,-1.16015 0.679687,-1.74609 0,-0.62109 -0.515625,-0.71484 -0.925781,-0.71484 -1.640625,0 -3,1.07812 -3.515625,1.72265 -1.359375,1.62891 -1.488281,3.39844 -1.488281,3.98438 0,1.66406 0.832031,2.57812 2.15625,2.57812 1.828125,0 3.339844,-1.76953 3.339844,-2.05078 z m 0,0"
         style="fill:#000000;fill-opacity:1;fill-rule:nonzero;stroke:none" />
    </g>
    <path
       id="path170"
       d="m -1.992,-1.25e-4 c 0,1.1015625 0.890625,1.9921875 1.9921875,1.9921875 1.1015625,0 1.9921875,-0.890625 1.9921875,-1.9921875 0,-1.1015625 -0.890625,-1.9921875 -1.9921875,-1.9921875 -1.1015625,0 -1.9921875,0.890625 -1.9921875,1.9921875 z m 0,0"
       style="fill:#ffffff;fill-opacity:1;fill-rule:nonzero;stroke:none"
       aria-label="b"
       transform="matrix(0.42333331,0,0,0.42333331,70.623427,69.863122)"
       clip-path="url(#clipPath171)" />
    <path
       id="path172"
       d="m -1.7927813,-1.25e-4 c 0,-0.984375 0.8085938,-1.7929688 1.7929688,-1.7929688 0.984375,0 1.7929687,0.8085938 1.7929687,1.7929688 0,0.984375 -0.8085937,1.7929687 -1.7929687,1.7929687 -0.984375,0 -1.7929688,-0.8085937 -1.7929688,-1.7929687 z m -0.1992187,0 c 0,1.1015625 0.890625,1.9921875 1.9921875,1.9921875 1.1015625,0 1.9921875,-0.890625 1.9921875,-1.9921875 0,-1.1015625 -0.890625,-1.9921875 -1.9921875,-1.9921875 -1.1015625,0 -1.9921875,0.890625 -1.9921875,1.9921875 z m 0,0"
       style="fill:#000000;fill-opacity:1;fill-rule:nonzero;stroke:none"
       aria-label="c"
       transform="matrix(0.42333331,0,0,0.42333331,70.623427,69.863122)"
       clip-path="url(#clipPath173)" />
    <path
       id="path174"
       d="m -1.9924141,7.34375e-4 c 0,1.101562525 0.890625,1.992187525 1.9921875375,1.992187525 1.1015624625,0 1.9921874625,-0.890625 1.9921874625,-1.992187525 0,-1.101562475 -0.890625,-1.992187475 -1.9921874625,-1.992187475 -1.1015625375,0 -1.9921875375,0.890625 -1.9921875375,1.992187475 z m 0,0"
       style="fill:#ffffff;fill-opacity:1;fill-rule:nonzero;stroke:none"
       aria-label="b"
       transform="matrix(0.42333331,0,0,0.42333331,81.037849,73.833987)"
       clip-path="url(#clipPath175)" />
    <path
       id="path176"
       d="m -1.7931953,7.34375e-4 c 0,-0.984375005 0.80859374,-1.792968775 1.7929687375,-1.792968775 0.9843750025,0 1.7929687625,0.80859377 1.7929687625,1.792968775 0,0.984374995 -0.80859376,1.792968725 -1.7929687625,1.792968725 C -0.98460156,1.7937031 -1.7931953,0.98510937 -1.7931953,7.34375e-4 Z m -0.1992188,0 c 0,1.101562525 0.890625,1.992187525 1.9921875375,1.992187525 1.1015624625,0 1.9921874625,-0.890625 1.9921874625,-1.992187525 0,-1.101562475 -0.890625,-1.992187475 -1.9921874625,-1.992187475 -1.1015625375,0 -1.9921875375,0.890625 -1.9921875375,1.992187475 z m 0,0"
       style="fill:#000000;fill-opacity:1;fill-rule:nonzero;stroke:none"
       aria-label="c"
       transform="matrix(0.42333331,0,0,0.42333331,81.037849,73.833987)"
       clip-path="url(#clipPath177)" />
    <path
       id="path178"
       d="m -1.9935859,-0.00105469 c 0,1.10156249 0.890625,1.99218749 1.99218746,1.99218749 1.10156254,0 1.99218754,-0.890625 1.99218754,-1.99218749 0,-1.10156251 -0.890625,-1.99218751 -1.99218754,-1.99218751 -1.10156246,0 -1.99218746,0.890625 -1.99218746,1.99218751 z m 0,0"
       style="fill:#ffffff;fill-opacity:1;fill-rule:nonzero;stroke:none"
       aria-label="b"
       transform="matrix(0.42333331,0,0,0.42333331,41.477349,58.749774)"
       clip-path="url(#clipPath179)" />
    <path
       id="path180"
       d="m -1.7943672,-0.00105469 c 0,-0.984375 0.80859376,-1.79296871 1.79296876,-1.79296871 0.984375,0 1.79296874,0.80859371 1.79296874,1.79296871 0,0.984375 -0.80859374,1.79296879 -1.79296874,1.79296879 -0.984375,0 -1.79296876,-0.80859379 -1.79296876,-1.79296879 z m -0.1992187,0 c 0,1.10156249 0.890625,1.99218749 1.99218746,1.99218749 1.10156254,0 1.99218754,-0.890625 1.99218754,-1.99218749 0,-1.10156251 -0.890625,-1.99218751 -1.99218754,-1.99218751 -1.10156246,0 -1.99218746,0.890625 -1.99218746,1.99218751 z m 0,0"
       style="fill:#000000;fill-opacity:1;fill-rule:nonzero;stroke:none"
       aria-label="c"
       transform="matrix(0.42333331,0,0,0.42333331,41.477349,58.749774)"
       clip-path="url(#clipPath181)" />
  </g>
</svg>
